%TF.GenerationSoftware,KiCad,Pcbnew,10.0.4*%
%TF.CreationDate,2026-08-13T16:03:49+01:00*%
%TF.ProjectId,EPS,4550532e-6b69-4636-9164-5f7063625858,rev?*%
%TF.SameCoordinates,Original*%
%TF.FileFunction,Legend,Bot*%
%TF.FilePolarity,Positive*%
%FSLAX46Y46*%
G04 Gerber Fmt 4.6, Leading zero omitted, Abs format (unit mm)*
G04 Created by KiCad (PCBNEW 10.0.4) date 2026-08-13 16:03:49*
%MOMM*%
%LPD*%
G01*
G04 APERTURE LIST*
%ADD10C,0.100000*%
%ADD11C,0.000000*%
G04 APERTURE END LIST*
D10*
G36*
X181724638Y-56160000D02*
G01*
X181724638Y-52074794D01*
X181346917Y-52074794D01*
X181346917Y-53820886D01*
X180364877Y-53820886D01*
X180364877Y-52074794D01*
X179987156Y-52074794D01*
X179987156Y-56160000D01*
X180364877Y-56160000D01*
X180364877Y-54279818D01*
X181346917Y-54279818D01*
X181346917Y-56160000D01*
X181724638Y-56160000D01*
G37*
G36*
X178527011Y-56160000D02*
G01*
X178527011Y-54632260D01*
X179450432Y-52074794D01*
X179047615Y-52074794D01*
X178451540Y-53753719D01*
X178371856Y-53991612D01*
X178333937Y-54134249D01*
X178294187Y-53991612D01*
X178212304Y-53753719D01*
X177616413Y-52074794D01*
X177226051Y-52074794D01*
X178149289Y-54632260D01*
X178149289Y-56160000D01*
X178527011Y-56160000D01*
G37*
G36*
X176693541Y-56160000D02*
G01*
X176315819Y-56160000D01*
X176315819Y-54481074D01*
X175707288Y-54481074D01*
X175495184Y-54458666D01*
X175314248Y-54395112D01*
X175159003Y-54293544D01*
X175025301Y-54153789D01*
X174915991Y-53980007D01*
X174837292Y-53779851D01*
X174788396Y-53548176D01*
X174771228Y-53277934D01*
X175161589Y-53277934D01*
X175179395Y-53497558D01*
X175229558Y-53676540D01*
X175310699Y-53823817D01*
X175418588Y-53935471D01*
X175548639Y-54003860D01*
X175707288Y-54028004D01*
X176315819Y-54028004D01*
X176315819Y-52528108D01*
X175707288Y-52528108D01*
X175548489Y-52551983D01*
X175418437Y-52619537D01*
X175310699Y-52729609D01*
X175229824Y-52875202D01*
X175179540Y-53054755D01*
X175161589Y-53277934D01*
X174771228Y-53277934D01*
X174788393Y-53007824D01*
X174837284Y-52776228D01*
X174915983Y-52576107D01*
X175025301Y-52402323D01*
X175159014Y-52262454D01*
X175314264Y-52160812D01*
X175495196Y-52097216D01*
X175707288Y-52074794D01*
X176693541Y-52074794D01*
X176693541Y-56160000D01*
G37*
G36*
X174142363Y-56160000D02*
G01*
X174142363Y-52074794D01*
X172379602Y-52074794D01*
X172379602Y-52533726D01*
X173768855Y-52533726D01*
X173768855Y-53798415D01*
X172526514Y-53798415D01*
X172526514Y-54246113D01*
X173768855Y-54246113D01*
X173768855Y-55701067D01*
X172379602Y-55701067D01*
X172379602Y-56160000D01*
X174142363Y-56160000D01*
G37*
G36*
X171654017Y-56160000D02*
G01*
X171280509Y-56160000D01*
X171280509Y-54425143D01*
X170772728Y-54425143D01*
X170172440Y-56160000D01*
X169756983Y-56160000D01*
X170382367Y-54374829D01*
X170216677Y-54275820D01*
X170076470Y-54138689D01*
X169958483Y-53960837D01*
X169871089Y-53753884D01*
X169817544Y-53519206D01*
X169798932Y-53250090D01*
X170189293Y-53250090D01*
X170206245Y-53458878D01*
X170254184Y-53630562D01*
X170331992Y-53773258D01*
X170435482Y-53882116D01*
X170559390Y-53948480D01*
X170709713Y-53971828D01*
X171280509Y-53971828D01*
X171280509Y-52528108D01*
X170709713Y-52528108D01*
X170559241Y-52551190D01*
X170435332Y-52616720D01*
X170331992Y-52723991D01*
X170254451Y-52865154D01*
X170206390Y-53037584D01*
X170189293Y-53250090D01*
X169798932Y-53250090D01*
X169812238Y-53019000D01*
X169850475Y-52815374D01*
X169912322Y-52634598D01*
X169997901Y-52472253D01*
X170103523Y-52335798D01*
X170231242Y-52223293D01*
X170372304Y-52142336D01*
X170530686Y-52092224D01*
X170709713Y-52074794D01*
X171654017Y-52074794D01*
X171654017Y-56160000D01*
G37*
G36*
X169085987Y-56160000D02*
G01*
X169085987Y-55701067D01*
X168460603Y-55701067D01*
X168460603Y-52533726D01*
X169085987Y-52533726D01*
X169085987Y-52074794D01*
X167449255Y-52074794D01*
X167449255Y-52533726D01*
X168074455Y-52533726D01*
X168074455Y-55701067D01*
X167449255Y-55701067D01*
X167449255Y-56160000D01*
X169085987Y-56160000D01*
G37*
G36*
X165953604Y-52040750D02*
G01*
X166126516Y-52102724D01*
X166274118Y-52201669D01*
X166400537Y-52337843D01*
X166501261Y-52506056D01*
X166575582Y-52709071D01*
X166622860Y-52953996D01*
X166639773Y-53250090D01*
X166639773Y-54984703D01*
X166622860Y-55280797D01*
X166575582Y-55525722D01*
X166501261Y-55728737D01*
X166400537Y-55896950D01*
X166274118Y-56033124D01*
X166126516Y-56132069D01*
X165953604Y-56194044D01*
X165749874Y-56215931D01*
X165546243Y-56194047D01*
X165373390Y-56132079D01*
X165225814Y-56033135D01*
X165099394Y-55896950D01*
X164998670Y-55728737D01*
X164924349Y-55525722D01*
X164877071Y-55280797D01*
X164860158Y-54984703D01*
X164860158Y-53244473D01*
X164863052Y-53194159D01*
X165237880Y-53194159D01*
X165237880Y-55040879D01*
X165254311Y-55265588D01*
X165299424Y-55439952D01*
X165370137Y-55575282D01*
X165466899Y-55676233D01*
X165590766Y-55739672D01*
X165749874Y-55762616D01*
X165906302Y-55739870D01*
X166029769Y-55676591D01*
X166127779Y-55575282D01*
X166199651Y-55439739D01*
X166245405Y-55265368D01*
X166262051Y-55040879D01*
X166262051Y-53194159D01*
X166245397Y-52969507D01*
X166199637Y-52795154D01*
X166127779Y-52659755D01*
X166029755Y-52558303D01*
X165906287Y-52494948D01*
X165749874Y-52472177D01*
X165590781Y-52495146D01*
X165466914Y-52558662D01*
X165370137Y-52659755D01*
X165299439Y-52794940D01*
X165254320Y-52969286D01*
X165237880Y-53194159D01*
X164863052Y-53194159D01*
X164877010Y-52951467D01*
X164924190Y-52708343D01*
X164998498Y-52506099D01*
X165099394Y-52337843D01*
X165225814Y-52201658D01*
X165373390Y-52102714D01*
X165546243Y-52040746D01*
X165749874Y-52018862D01*
X165953604Y-52040750D01*
G37*
G36*
X164113691Y-56160000D02*
G01*
X164113691Y-52074794D01*
X163609940Y-52074794D01*
X162674063Y-55572351D01*
X162692930Y-55228213D01*
X162709783Y-54797369D01*
X162716011Y-54369211D01*
X162716011Y-52074794D01*
X162350929Y-52074794D01*
X162350929Y-56160000D01*
X162854497Y-56160000D01*
X163786345Y-52662442D01*
X163769492Y-53000963D01*
X163754837Y-53431807D01*
X163748609Y-53865582D01*
X163748609Y-56160000D01*
X164113691Y-56160000D01*
G37*
G36*
X161226741Y-57167257D02*
G01*
X160886755Y-55969734D01*
X161747161Y-53082051D01*
X161339947Y-53082051D01*
X160794431Y-54984703D01*
X160731416Y-55219909D01*
X160689467Y-55432400D01*
X160647519Y-55219909D01*
X160588717Y-54984703D01*
X160080936Y-53082051D01*
X159682149Y-53082051D01*
X160832166Y-57167257D01*
X161226741Y-57167257D01*
G37*
G36*
X159288307Y-56160000D02*
G01*
X158406835Y-54089553D01*
X159241962Y-52074794D01*
X158805622Y-52074794D01*
X158331364Y-53283551D01*
X158253695Y-53487983D01*
X158188665Y-53658464D01*
X158127848Y-53487983D01*
X158049996Y-53283551D01*
X157567494Y-52074794D01*
X157151854Y-52074794D01*
X157987165Y-54055847D01*
X157105692Y-56160000D01*
X157538002Y-56160000D01*
X158062636Y-54861605D01*
X158140305Y-54657418D01*
X158201121Y-54481074D01*
X158262121Y-54654731D01*
X158339607Y-54856231D01*
X158868454Y-56160000D01*
X159288307Y-56160000D01*
G37*
G36*
X154059923Y-56160000D02*
G01*
X154059923Y-55695450D01*
X153039965Y-54240495D01*
X152840849Y-53927335D01*
X152725258Y-53680935D01*
X152654971Y-53432785D01*
X152632751Y-53199776D01*
X152650126Y-52983646D01*
X152698940Y-52808519D01*
X152777648Y-52665373D01*
X152882661Y-52557087D01*
X153011181Y-52490291D01*
X153170024Y-52466559D01*
X153334324Y-52490999D01*
X153467024Y-52559720D01*
X153575223Y-52670990D01*
X153656067Y-52818210D01*
X153706264Y-52998746D01*
X153724150Y-53222002D01*
X154101871Y-53222002D01*
X154079043Y-52948821D01*
X154026501Y-52715659D01*
X153946165Y-52515581D01*
X153837540Y-52343461D01*
X153704825Y-52204340D01*
X153552101Y-52103649D01*
X153375532Y-52040906D01*
X153170024Y-52018862D01*
X152959731Y-52040788D01*
X152780814Y-52102882D01*
X152627785Y-52201908D01*
X152496463Y-52337843D01*
X152389422Y-52507285D01*
X152312062Y-52704376D01*
X152263796Y-52934532D01*
X152246786Y-53205150D01*
X152259174Y-53395996D01*
X152297918Y-53600149D01*
X152366404Y-53820886D01*
X152456244Y-54028348D01*
X152589447Y-54269007D01*
X152775450Y-54548241D01*
X153602334Y-55701067D01*
X152208867Y-55701067D01*
X152208867Y-56160000D01*
X154059923Y-56160000D01*
G37*
G36*
X150748715Y-53808609D02*
G01*
X150826575Y-53868513D01*
X150877554Y-53963927D01*
X150895818Y-54100544D01*
X150877451Y-54242755D01*
X150826575Y-54341367D01*
X150748563Y-54403142D01*
X150643942Y-54425143D01*
X150539480Y-54403151D01*
X150461493Y-54341367D01*
X150410617Y-54242755D01*
X150392250Y-54100544D01*
X150410514Y-53963927D01*
X150461493Y-53868513D01*
X150539328Y-53808600D01*
X150643942Y-53787180D01*
X150748715Y-53808609D01*
G37*
G36*
X150853930Y-52041288D02*
G01*
X151032761Y-52104867D01*
X151185961Y-52206481D01*
X151317686Y-52346392D01*
X151424931Y-52519807D01*
X151502304Y-52719798D01*
X151550447Y-52951526D01*
X151567363Y-53222002D01*
X151567363Y-55012791D01*
X151550450Y-55283263D01*
X151502310Y-55515037D01*
X151424937Y-55715113D01*
X151317686Y-55888646D01*
X151185973Y-56028442D01*
X151032777Y-56129982D01*
X150853941Y-56193520D01*
X150643942Y-56215931D01*
X150459214Y-56198394D01*
X150297461Y-56148231D01*
X150155029Y-56067676D01*
X150026472Y-55954544D01*
X149920167Y-55815450D01*
X149834094Y-55648066D01*
X149772303Y-55461548D01*
X149734032Y-55251338D01*
X149720704Y-55012791D01*
X149720704Y-53222002D01*
X150085786Y-53222002D01*
X150085786Y-55012791D01*
X150103836Y-55232266D01*
X150155199Y-55415223D01*
X150239110Y-55569665D01*
X150350291Y-55687898D01*
X150483101Y-55759819D01*
X150643942Y-55785087D01*
X150804912Y-55759818D01*
X150937844Y-55687895D01*
X151049141Y-55569665D01*
X151132945Y-55415241D01*
X151184250Y-55232283D01*
X151202281Y-55012791D01*
X151202281Y-53222002D01*
X151184254Y-53002674D01*
X151132953Y-52819792D01*
X151049141Y-52665373D01*
X150937831Y-52546998D01*
X150804898Y-52474999D01*
X150643942Y-52449706D01*
X150483114Y-52474999D01*
X150350304Y-52546995D01*
X150239110Y-52665373D01*
X150155190Y-52819810D01*
X150103832Y-53002691D01*
X150085786Y-53222002D01*
X149720704Y-53222002D01*
X149737621Y-52951526D01*
X149785764Y-52719798D01*
X149863136Y-52519807D01*
X149970382Y-52346392D01*
X150102108Y-52206471D01*
X150255282Y-52104858D01*
X150434054Y-52041284D01*
X150643942Y-52018862D01*
X150853930Y-52041288D01*
G37*
G36*
X149024612Y-56160000D02*
G01*
X149024612Y-55695450D01*
X148004654Y-54240495D01*
X147805538Y-53927335D01*
X147689947Y-53680935D01*
X147619660Y-53432785D01*
X147597440Y-53199776D01*
X147614816Y-52983646D01*
X147663629Y-52808519D01*
X147742337Y-52665373D01*
X147847350Y-52557087D01*
X147975870Y-52490291D01*
X148134713Y-52466559D01*
X148299013Y-52490999D01*
X148431714Y-52559720D01*
X148539912Y-52670990D01*
X148620756Y-52818210D01*
X148670953Y-52998746D01*
X148688839Y-53222002D01*
X149066561Y-53222002D01*
X149043732Y-52948821D01*
X148991191Y-52715659D01*
X148910854Y-52515581D01*
X148802229Y-52343461D01*
X148669514Y-52204340D01*
X148516790Y-52103649D01*
X148340222Y-52040906D01*
X148134713Y-52018862D01*
X147924421Y-52040788D01*
X147745504Y-52102882D01*
X147592475Y-52201908D01*
X147461153Y-52337843D01*
X147354112Y-52507285D01*
X147276752Y-52704376D01*
X147228486Y-52934532D01*
X147211475Y-53205150D01*
X147223863Y-53395996D01*
X147262608Y-53600149D01*
X147331093Y-53820886D01*
X147420934Y-54028348D01*
X147554137Y-54269007D01*
X147740139Y-54548241D01*
X148567023Y-55701067D01*
X147173557Y-55701067D01*
X147173557Y-56160000D01*
X149024612Y-56160000D01*
G37*
G36*
X146318096Y-53770572D02*
G01*
X146436739Y-54078312D01*
X146523810Y-54360907D01*
X146580921Y-54643749D01*
X146599281Y-54912163D01*
X146584607Y-55165109D01*
X146542257Y-55390194D01*
X146473435Y-55592135D01*
X146378367Y-55773735D01*
X146262167Y-55925855D01*
X146122824Y-56050823D01*
X145968742Y-56141060D01*
X145797096Y-56196661D01*
X145604419Y-56215931D01*
X145412003Y-56196276D01*
X145241914Y-56139723D01*
X145090409Y-56048136D01*
X144953945Y-55921475D01*
X144839102Y-55766614D01*
X144744195Y-55580900D01*
X144675273Y-55375290D01*
X144632857Y-55146445D01*
X144618809Y-54900928D01*
X144995887Y-54900928D01*
X145016006Y-55149383D01*
X145073061Y-55355199D01*
X145165881Y-55527655D01*
X145289228Y-55660207D01*
X145434598Y-55740272D01*
X145608632Y-55768234D01*
X145782788Y-55740266D01*
X145928214Y-55660195D01*
X146051566Y-55527655D01*
X146144386Y-55355199D01*
X146201441Y-55149383D01*
X146221559Y-54900928D01*
X146201441Y-54652472D01*
X146144386Y-54446656D01*
X146051566Y-54274200D01*
X145928201Y-54141515D01*
X145782774Y-54061369D01*
X145608632Y-54033377D01*
X145434611Y-54061363D01*
X145289242Y-54141503D01*
X145165881Y-54274200D01*
X145073061Y-54446656D01*
X145016006Y-54652472D01*
X144995887Y-54900928D01*
X144618809Y-54900928D01*
X144618166Y-54889692D01*
X144631679Y-54647454D01*
X144670585Y-54432630D01*
X144733571Y-54240739D01*
X144820792Y-54066733D01*
X144926650Y-53921093D01*
X145052674Y-53801346D01*
X145192811Y-53714267D01*
X145350371Y-53660534D01*
X145528948Y-53641856D01*
X145655534Y-53654805D01*
X145768183Y-53692170D01*
X145866325Y-53756065D01*
X145931948Y-53837739D01*
X145944405Y-53826503D01*
X145188961Y-52074794D01*
X145608632Y-52074794D01*
X146318096Y-53770572D01*
G37*
G36*
X181728852Y-62880000D02*
G01*
X180935673Y-62880000D01*
X180739631Y-62862006D01*
X180569598Y-62810793D01*
X180421481Y-62729057D01*
X180287383Y-62613533D01*
X180176170Y-62471556D01*
X180085708Y-62300900D01*
X180020535Y-62110176D01*
X179980164Y-61894475D01*
X179966090Y-61648771D01*
X179966090Y-60020404D01*
X180343811Y-60020404D01*
X180343811Y-61648771D01*
X180362932Y-61886542D01*
X180416172Y-62075066D01*
X180501348Y-62225429D01*
X180615162Y-62337260D01*
X180757240Y-62407204D01*
X180935673Y-62432302D01*
X181351130Y-62432302D01*
X181351130Y-59242491D01*
X180935673Y-59242491D01*
X180757254Y-59267614D01*
X180615176Y-59337635D01*
X180501348Y-59449609D01*
X180415971Y-59599847D01*
X180362828Y-59786595D01*
X180343811Y-60020404D01*
X179966090Y-60020404D01*
X179980203Y-59774721D01*
X180020606Y-59560062D01*
X180085708Y-59371207D01*
X180176050Y-59202254D01*
X180287247Y-59061208D01*
X180421481Y-58945980D01*
X180569609Y-58864108D01*
X180739641Y-58812814D01*
X180935673Y-58794794D01*
X181728852Y-58794794D01*
X181728852Y-62880000D01*
G37*
G36*
X178539004Y-59768203D02*
G01*
X178712377Y-59831230D01*
X178863175Y-59932761D01*
X178995041Y-60073649D01*
X179101362Y-60246849D01*
X179178812Y-60450815D01*
X179227478Y-60691614D01*
X179244719Y-60977348D01*
X179244719Y-61704703D01*
X179227481Y-61990432D01*
X179178819Y-62231278D01*
X179101369Y-62435329D01*
X178995041Y-62608646D01*
X178863186Y-62749419D01*
X178712392Y-62850876D01*
X178539015Y-62913862D01*
X178338150Y-62935931D01*
X178099968Y-62908771D01*
X177899485Y-62831997D01*
X177729619Y-62709274D01*
X177619399Y-62584093D01*
X177537296Y-62442084D01*
X177480504Y-62280909D01*
X177448435Y-62096468D01*
X177826156Y-62096468D01*
X177857102Y-62209699D01*
X177911246Y-62306735D01*
X177992119Y-62390293D01*
X178086384Y-62448762D01*
X178200304Y-62486090D01*
X178338150Y-62499469D01*
X178494234Y-62475967D01*
X178622261Y-62409417D01*
X178728511Y-62300900D01*
X178808220Y-62157290D01*
X178857751Y-61980434D01*
X178875423Y-61760879D01*
X178875423Y-61469741D01*
X177431582Y-61469741D01*
X177431582Y-60921416D01*
X177801060Y-60921416D01*
X177801060Y-61077976D01*
X178875423Y-61077976D01*
X178875423Y-60921416D01*
X178858033Y-60685959D01*
X178810172Y-60502415D01*
X178734923Y-60359169D01*
X178632179Y-60251612D01*
X178502577Y-60184485D01*
X178338150Y-60160355D01*
X178173852Y-60184485D01*
X178044372Y-60251610D01*
X177941744Y-60359169D01*
X177866389Y-60502434D01*
X177818470Y-60685979D01*
X177801060Y-60921416D01*
X177431582Y-60921416D01*
X177444959Y-60686544D01*
X177483263Y-60481149D01*
X177544972Y-60300307D01*
X177630613Y-60137940D01*
X177735607Y-60002434D01*
X177861877Y-59891688D01*
X178001405Y-59812475D01*
X178159019Y-59763279D01*
X178338150Y-59746120D01*
X178539004Y-59768203D01*
G37*
G36*
X175912819Y-62924696D02*
G01*
X176107720Y-62907950D01*
X176268727Y-62861373D01*
X176401559Y-62788988D01*
X176510908Y-62692665D01*
X176602257Y-62566871D01*
X176667723Y-62418654D01*
X176708461Y-62243525D01*
X176722850Y-62034919D01*
X176345129Y-62034919D01*
X176331921Y-62169476D01*
X176294341Y-62278480D01*
X176231922Y-62368066D01*
X176151486Y-62431756D01*
X176047297Y-62473076D01*
X175912819Y-62488234D01*
X175728171Y-62488234D01*
X175591094Y-62472709D01*
X175484941Y-62430387D01*
X175403023Y-62365136D01*
X175339667Y-62273424D01*
X175301222Y-62160076D01*
X175287618Y-62018311D01*
X175306584Y-61832868D01*
X175357500Y-61704947D01*
X175439133Y-61618755D01*
X175560376Y-61570614D01*
X176198217Y-61447515D01*
X176347137Y-61396660D01*
X176467070Y-61309915D01*
X176563482Y-61187152D01*
X176633566Y-61034769D01*
X176677731Y-60848390D01*
X176693541Y-60619288D01*
X176679641Y-60422412D01*
X176640034Y-60254953D01*
X176575911Y-60111101D01*
X176485812Y-59986943D01*
X176378384Y-59890931D01*
X176249940Y-59819370D01*
X176096417Y-59773680D01*
X175912819Y-59757355D01*
X175728171Y-59757355D01*
X175509867Y-59784019D01*
X175329849Y-59858926D01*
X175180457Y-59978394D01*
X175085781Y-60098921D01*
X175017342Y-60233727D01*
X174972760Y-60385318D01*
X174951845Y-60557739D01*
X175333780Y-60557739D01*
X175350031Y-60456523D01*
X175387617Y-60368038D01*
X175449185Y-60289071D01*
X175524358Y-60231795D01*
X175616001Y-60195559D01*
X175728171Y-60182581D01*
X175912819Y-60182581D01*
X176038752Y-60197271D01*
X176137580Y-60237593D01*
X176215069Y-60300307D01*
X176275455Y-60387428D01*
X176311610Y-60491911D01*
X176324246Y-60619288D01*
X176308813Y-60770791D01*
X176267290Y-60876024D01*
X176200669Y-60947598D01*
X176101863Y-60988583D01*
X175505788Y-61100446D01*
X175318280Y-61160774D01*
X175174611Y-61256315D01*
X175065884Y-61384547D01*
X174986814Y-61548364D01*
X174936410Y-61755656D01*
X174918140Y-62018311D01*
X174932533Y-62229759D01*
X174973302Y-62407695D01*
X175038799Y-62558626D01*
X175130081Y-62687048D01*
X175239707Y-62785900D01*
X175372644Y-62860001D01*
X175533557Y-62907599D01*
X175728171Y-62924696D01*
X175912819Y-62924696D01*
G37*
G36*
X174205195Y-62880000D02*
G01*
X174205195Y-62421067D01*
X173386920Y-62421067D01*
X173386920Y-60260983D01*
X174121297Y-60260983D01*
X174121297Y-59802051D01*
X173009199Y-59802051D01*
X173009199Y-62421067D01*
X172232690Y-62421067D01*
X172232690Y-62880000D01*
X174205195Y-62880000D01*
G37*
G36*
X173240008Y-59248108D02*
G01*
X173367450Y-59222729D01*
X173458178Y-59153098D01*
X173517268Y-59043266D01*
X173537862Y-58895666D01*
X173517147Y-58742532D01*
X173458178Y-58629685D01*
X173367258Y-58557816D01*
X173240008Y-58531744D01*
X173112758Y-58557816D01*
X173021838Y-58629685D01*
X172962727Y-58742553D01*
X172941971Y-58895666D01*
X172962606Y-59043245D01*
X173021838Y-59153098D01*
X173112567Y-59222729D01*
X173240008Y-59248108D01*
G37*
G36*
X171082121Y-59766905D02*
G01*
X171231162Y-59826022D01*
X171359083Y-59921273D01*
X171469370Y-60054110D01*
X171556373Y-60214644D01*
X171620354Y-60403271D01*
X171660757Y-60625356D01*
X171675083Y-60887711D01*
X171675083Y-61536908D01*
X171660691Y-61799547D01*
X171620199Y-62020643D01*
X171556221Y-62207309D01*
X171469370Y-62365136D01*
X171359361Y-62495183D01*
X171231545Y-62588672D01*
X171082404Y-62646804D01*
X170907001Y-62667264D01*
X170745170Y-62649394D01*
X170609723Y-62599062D01*
X170495757Y-62519009D01*
X170401270Y-62406513D01*
X170336066Y-62267654D01*
X170298469Y-62096468D01*
X170285830Y-62096468D01*
X170294256Y-62600097D01*
X170294256Y-62880000D01*
X170307778Y-63041566D01*
X170345870Y-63172647D01*
X170407646Y-63280069D01*
X170489455Y-63360307D01*
X170591071Y-63410389D01*
X170718140Y-63428325D01*
X171368620Y-63428325D01*
X171368620Y-63887257D01*
X170722353Y-63887257D01*
X170536500Y-63868429D01*
X170379413Y-63815306D01*
X170246095Y-63731000D01*
X170132690Y-63615903D01*
X170039793Y-63471430D01*
X169972857Y-63303922D01*
X169931195Y-63108859D01*
X169916535Y-62880000D01*
X169916535Y-60921416D01*
X170290043Y-60921416D01*
X170290043Y-61509064D01*
X170306543Y-61733675D01*
X170352201Y-61911140D01*
X170424316Y-62051772D01*
X170522521Y-62158633D01*
X170643372Y-62224318D01*
X170793611Y-62247655D01*
X170947301Y-62225249D01*
X171068680Y-62162894D01*
X171165104Y-62063007D01*
X171236812Y-61930125D01*
X171281441Y-61766948D01*
X171297362Y-61564996D01*
X171297362Y-60865484D01*
X171281441Y-60663533D01*
X171236812Y-60500356D01*
X171165104Y-60367473D01*
X171068665Y-60267443D01*
X170947286Y-60205012D01*
X170793611Y-60182581D01*
X170643372Y-60205918D01*
X170522521Y-60271604D01*
X170424316Y-60378464D01*
X170352209Y-60519101D01*
X170306547Y-60696639D01*
X170290043Y-60921416D01*
X169916535Y-60921416D01*
X169916535Y-59802051D01*
X170290043Y-59802051D01*
X170290043Y-60333768D01*
X170298469Y-60333768D01*
X170335884Y-60162182D01*
X170401053Y-60020375D01*
X170495757Y-59902923D01*
X170610159Y-59818012D01*
X170745587Y-59764916D01*
X170907001Y-59746120D01*
X171082121Y-59766905D01*
G37*
G36*
X169140575Y-62880000D02*
G01*
X169140575Y-59802051D01*
X168762854Y-59802051D01*
X168762854Y-60389699D01*
X168758640Y-60389699D01*
X168723214Y-60195061D01*
X168660307Y-60039057D01*
X168569780Y-59914159D01*
X168457042Y-59823883D01*
X168317995Y-59766679D01*
X168145896Y-59746120D01*
X167974156Y-59765474D01*
X167827431Y-59820514D01*
X167701144Y-59908959D01*
X167591953Y-60031639D01*
X167504521Y-60181673D01*
X167440642Y-60357711D01*
X167400465Y-60564803D01*
X167386240Y-60809553D01*
X167386240Y-62880000D01*
X167763961Y-62880000D01*
X167763961Y-60898946D01*
X167780488Y-60670403D01*
X167825687Y-60494454D01*
X167896219Y-60359169D01*
X167992425Y-60256780D01*
X168109951Y-60193889D01*
X168255073Y-60171591D01*
X168405373Y-60194860D01*
X168527024Y-60260505D01*
X168626566Y-60367473D01*
X168699475Y-60508379D01*
X168745948Y-60689206D01*
X168762854Y-60921416D01*
X168762854Y-62880000D01*
X169140575Y-62880000D01*
G37*
G36*
X165950728Y-59768203D02*
G01*
X166124101Y-59831230D01*
X166274898Y-59932761D01*
X166406765Y-60073649D01*
X166513086Y-60246849D01*
X166590536Y-60450815D01*
X166639202Y-60691614D01*
X166656442Y-60977348D01*
X166656442Y-61704703D01*
X166639204Y-61990432D01*
X166590543Y-62231278D01*
X166513092Y-62435329D01*
X166406765Y-62608646D01*
X166274910Y-62749419D01*
X166124116Y-62850876D01*
X165950739Y-62913862D01*
X165749874Y-62935931D01*
X165511692Y-62908771D01*
X165311208Y-62831997D01*
X165141343Y-62709274D01*
X165031122Y-62584093D01*
X164949020Y-62442084D01*
X164892228Y-62280909D01*
X164860158Y-62096468D01*
X165237880Y-62096468D01*
X165268826Y-62209699D01*
X165322970Y-62306735D01*
X165403843Y-62390293D01*
X165498107Y-62448762D01*
X165612028Y-62486090D01*
X165749874Y-62499469D01*
X165905957Y-62475967D01*
X166033985Y-62409417D01*
X166140235Y-62300900D01*
X166219943Y-62157290D01*
X166269475Y-61980434D01*
X166287147Y-61760879D01*
X166287147Y-61469741D01*
X164843306Y-61469741D01*
X164843306Y-60921416D01*
X165212784Y-60921416D01*
X165212784Y-61077976D01*
X166287147Y-61077976D01*
X166287147Y-60921416D01*
X166269757Y-60685959D01*
X166221896Y-60502415D01*
X166146646Y-60359169D01*
X166043903Y-60251612D01*
X165914300Y-60184485D01*
X165749874Y-60160355D01*
X165585575Y-60184485D01*
X165456096Y-60251610D01*
X165353468Y-60359169D01*
X165278113Y-60502434D01*
X165230193Y-60685979D01*
X165212784Y-60921416D01*
X164843306Y-60921416D01*
X164856683Y-60686544D01*
X164894986Y-60481149D01*
X164956695Y-60300307D01*
X165042337Y-60137940D01*
X165147331Y-60002434D01*
X165273600Y-59891688D01*
X165413129Y-59812475D01*
X165570743Y-59763279D01*
X165749874Y-59746120D01*
X165950728Y-59768203D01*
G37*
G36*
X162737077Y-59690188D02*
G01*
X162728651Y-60389699D01*
X162732864Y-60389699D01*
X162771113Y-60203331D01*
X162838461Y-60048637D01*
X162936379Y-59919776D01*
X163055865Y-59825565D01*
X163197485Y-59766876D01*
X163366674Y-59746120D01*
X163537249Y-59766716D01*
X163683567Y-59825527D01*
X163810277Y-59920730D01*
X163920617Y-60054110D01*
X164007456Y-60214589D01*
X164071451Y-60403996D01*
X164111946Y-60627895D01*
X164126331Y-60893328D01*
X164126331Y-61794340D01*
X164111881Y-62056658D01*
X164071119Y-62278761D01*
X164006525Y-62467484D01*
X163918602Y-62628185D01*
X163807196Y-62761815D01*
X163680341Y-62856928D01*
X163534970Y-62915487D01*
X163366674Y-62935931D01*
X163197364Y-62915426D01*
X163056536Y-62857631D01*
X162938578Y-62765205D01*
X162842623Y-62637884D01*
X162777218Y-62482498D01*
X162741290Y-62292351D01*
X162737077Y-62292351D01*
X162737077Y-62880000D01*
X162359356Y-62880000D01*
X162359356Y-60921416D01*
X162737077Y-60921416D01*
X162737077Y-61760879D01*
X162753577Y-61985490D01*
X162799236Y-62162954D01*
X162871350Y-62303586D01*
X162969556Y-62410447D01*
X163090406Y-62476132D01*
X163240645Y-62499469D01*
X163395383Y-62478883D01*
X163517554Y-62421882D01*
X163614337Y-62331674D01*
X163684753Y-62207431D01*
X163731145Y-62032237D01*
X163748609Y-61788722D01*
X163748609Y-60893328D01*
X163730999Y-60645962D01*
X163684493Y-60470287D01*
X163614337Y-60347690D01*
X163517710Y-60259031D01*
X163395543Y-60202884D01*
X163240645Y-60182581D01*
X163090406Y-60205918D01*
X162969556Y-60271604D01*
X162871350Y-60378464D01*
X162799243Y-60519101D01*
X162753581Y-60696639D01*
X162737077Y-60921416D01*
X162359356Y-60921416D01*
X162359356Y-58794794D01*
X162737077Y-58794794D01*
X162737077Y-59690188D01*
G37*
G36*
X159069954Y-62880000D02*
G01*
X158692233Y-62880000D01*
X158692233Y-62292351D01*
X158688019Y-62292351D01*
X158652107Y-62482517D01*
X158586759Y-62637901D01*
X158490915Y-62765205D01*
X158372842Y-62857640D01*
X158231948Y-62915431D01*
X158062636Y-62935931D01*
X157892049Y-62915348D01*
X157745727Y-62856578D01*
X157619022Y-62761448D01*
X157508693Y-62628185D01*
X157421697Y-62467653D01*
X157357715Y-62278992D01*
X157317308Y-62056828D01*
X157302979Y-61794340D01*
X157302979Y-60893328D01*
X157680701Y-60893328D01*
X157680701Y-61788722D01*
X157698185Y-62032214D01*
X157744635Y-62207410D01*
X157815157Y-62331674D01*
X157911827Y-62421873D01*
X158033929Y-62478877D01*
X158188665Y-62499469D01*
X158336140Y-62476343D01*
X158456499Y-62410832D01*
X158555945Y-62303586D01*
X158629220Y-62162746D01*
X158675519Y-61985278D01*
X158692233Y-61760879D01*
X158692233Y-60921416D01*
X158675515Y-60696851D01*
X158629213Y-60519309D01*
X158555945Y-60378464D01*
X158456499Y-60271218D01*
X158336140Y-60205708D01*
X158188665Y-60182581D01*
X158033770Y-60202889D01*
X157911670Y-60259040D01*
X157815157Y-60347690D01*
X157744895Y-60470309D01*
X157698331Y-60645986D01*
X157680701Y-60893328D01*
X157302979Y-60893328D01*
X157317364Y-60627895D01*
X157357859Y-60403996D01*
X157421854Y-60214589D01*
X157508693Y-60054110D01*
X157619033Y-59920730D01*
X157745743Y-59825527D01*
X157892061Y-59766716D01*
X158062636Y-59746120D01*
X158231825Y-59766876D01*
X158373445Y-59825565D01*
X158492930Y-59919776D01*
X158590849Y-60048637D01*
X158658197Y-60203331D01*
X158696446Y-60389699D01*
X158700659Y-60389699D01*
X158692233Y-59690188D01*
X158692233Y-58794794D01*
X159069954Y-58794794D01*
X159069954Y-62880000D01*
G37*
G36*
X156191430Y-63887257D02*
G01*
X155851444Y-62689734D01*
X156711851Y-59802051D01*
X156304637Y-59802051D01*
X155759120Y-61704703D01*
X155696106Y-61939909D01*
X155654157Y-62152400D01*
X155612208Y-61939909D01*
X155553407Y-61704703D01*
X155045626Y-59802051D01*
X154646838Y-59802051D01*
X155796856Y-63887257D01*
X156191430Y-63887257D01*
G37*
G36*
X151512775Y-62880000D02*
G01*
X151139267Y-62880000D01*
X151139267Y-61145143D01*
X150631486Y-61145143D01*
X150031198Y-62880000D01*
X149615741Y-62880000D01*
X150241125Y-61094829D01*
X150075435Y-60995820D01*
X149935228Y-60858689D01*
X149817241Y-60680837D01*
X149729847Y-60473884D01*
X149676302Y-60239206D01*
X149657690Y-59970090D01*
X150048051Y-59970090D01*
X150065003Y-60178878D01*
X150112942Y-60350562D01*
X150190750Y-60493258D01*
X150294240Y-60602116D01*
X150418148Y-60668480D01*
X150568471Y-60691828D01*
X151139267Y-60691828D01*
X151139267Y-59248108D01*
X150568471Y-59248108D01*
X150417999Y-59271190D01*
X150294090Y-59336720D01*
X150190750Y-59443991D01*
X150113209Y-59585154D01*
X150065148Y-59757584D01*
X150048051Y-59970090D01*
X149657690Y-59970090D01*
X149670996Y-59739000D01*
X149709233Y-59535374D01*
X149771079Y-59354598D01*
X149856658Y-59192253D01*
X149962281Y-59055798D01*
X150090000Y-58943293D01*
X150231061Y-58862336D01*
X150389443Y-58812224D01*
X150568471Y-58794794D01*
X151512775Y-58794794D01*
X151512775Y-62880000D01*
G37*
G36*
X148334377Y-59779496D02*
G01*
X148510761Y-59842136D01*
X148661081Y-59942017D01*
X148789590Y-60079267D01*
X148892424Y-60249152D01*
X148967956Y-60452487D01*
X149015797Y-60696010D01*
X149032855Y-60988583D01*
X149032855Y-61693712D01*
X149015765Y-61982943D01*
X148967686Y-62225161D01*
X148891499Y-62428827D01*
X148787391Y-62600341D01*
X148657768Y-62739064D01*
X148507293Y-62839668D01*
X148331929Y-62902539D01*
X148126287Y-62924696D01*
X147920744Y-62902542D01*
X147745440Y-62839677D01*
X147594991Y-62739074D01*
X147465366Y-62600341D01*
X147361173Y-62428811D01*
X147284930Y-62225139D01*
X147236820Y-61982927D01*
X147219719Y-61693712D01*
X147219719Y-60988583D01*
X147222982Y-60932651D01*
X147597440Y-60932651D01*
X147597440Y-61749644D01*
X147615006Y-61981035D01*
X147662998Y-62157686D01*
X147738124Y-62292351D01*
X147839860Y-62392164D01*
X147966840Y-62454596D01*
X148126287Y-62476999D01*
X148283053Y-62454783D01*
X148409549Y-62392506D01*
X148512435Y-62292351D01*
X148588725Y-62157467D01*
X148637356Y-61980805D01*
X148655134Y-61749644D01*
X148655134Y-60932651D01*
X148637351Y-60701323D01*
X148588717Y-60524589D01*
X148512435Y-60389699D01*
X148409549Y-60289544D01*
X148283053Y-60227268D01*
X148126287Y-60205052D01*
X147966840Y-60227455D01*
X147839860Y-60289887D01*
X147738124Y-60389699D01*
X147663006Y-60524370D01*
X147615010Y-60701093D01*
X147597440Y-60932651D01*
X147222982Y-60932651D01*
X147236788Y-60696027D01*
X147284661Y-60452509D01*
X147360248Y-60249168D01*
X147463168Y-60079267D01*
X147591677Y-59942007D01*
X147741972Y-59842127D01*
X147918297Y-59779493D01*
X148126287Y-59757355D01*
X148334377Y-59779496D01*
G37*
G36*
X146481678Y-62880000D02*
G01*
X146481678Y-58794794D01*
X146103956Y-58794794D01*
X146103956Y-60389699D01*
X146099743Y-60389699D01*
X146064317Y-60195061D01*
X146001409Y-60039057D01*
X145910882Y-59914159D01*
X145798144Y-59823883D01*
X145659097Y-59766679D01*
X145486999Y-59746120D01*
X145315258Y-59765474D01*
X145168534Y-59820514D01*
X145042247Y-59908959D01*
X144933056Y-60031639D01*
X144845623Y-60181673D01*
X144781744Y-60357711D01*
X144741567Y-60564803D01*
X144727342Y-60809553D01*
X144727342Y-62880000D01*
X145105064Y-62880000D01*
X145105064Y-60893328D01*
X145121500Y-60668622D01*
X145166615Y-60494349D01*
X145237322Y-60359169D01*
X145333528Y-60256780D01*
X145451054Y-60193889D01*
X145596175Y-60171591D01*
X145746476Y-60194860D01*
X145868127Y-60260505D01*
X145967669Y-60367473D01*
X146040577Y-60508379D01*
X146087051Y-60689206D01*
X146103956Y-60921416D01*
X146103956Y-62880000D01*
X146481678Y-62880000D01*
G37*
G36*
X143280637Y-59762820D02*
G01*
X143445555Y-59809885D01*
X143586065Y-59884071D01*
X143705919Y-59984012D01*
X143811394Y-60114173D01*
X143887057Y-60256116D01*
X143936201Y-60412016D01*
X143959809Y-60585582D01*
X143582088Y-60585582D01*
X143562710Y-60468793D01*
X143516451Y-60371480D01*
X143439389Y-60289071D01*
X143346459Y-60232551D01*
X143230661Y-60195895D01*
X143086763Y-60182581D01*
X142924606Y-60202343D01*
X142803966Y-60255477D01*
X142715012Y-60336703D01*
X142651294Y-60446542D01*
X142610698Y-60591187D01*
X142595835Y-60781465D01*
X142595835Y-61022044D01*
X143309330Y-61022044D01*
X143455347Y-61036083D01*
X143586058Y-61076640D01*
X143703904Y-61142456D01*
X143811104Y-61233794D01*
X143900028Y-61344304D01*
X143972449Y-61475359D01*
X144025212Y-61622066D01*
X144057703Y-61786795D01*
X144068986Y-61973370D01*
X144055033Y-62184654D01*
X144015038Y-62367978D01*
X143950144Y-62528578D01*
X143859242Y-62670195D01*
X143748948Y-62783319D01*
X143620262Y-62865837D01*
X143469646Y-62917631D01*
X143292477Y-62935931D01*
X143097105Y-62915445D01*
X142940117Y-62858857D01*
X142814005Y-62770823D01*
X142709339Y-62646305D01*
X142638962Y-62497989D01*
X142600048Y-62320439D01*
X142591622Y-62320439D01*
X142591622Y-62880000D01*
X142218114Y-62880000D01*
X142218114Y-61844654D01*
X142595835Y-61844654D01*
X142614855Y-62039492D01*
X142669174Y-62199008D01*
X142759600Y-62331674D01*
X142875658Y-62427771D01*
X143020024Y-62488736D01*
X143200153Y-62510704D01*
X143347356Y-62492365D01*
X143463319Y-62441793D01*
X143554794Y-62362449D01*
X143625047Y-62253272D01*
X143667765Y-62120447D01*
X143682838Y-61956762D01*
X143669214Y-61799003D01*
X143630589Y-61669572D01*
X143567433Y-61562065D01*
X143484538Y-61480947D01*
X143385994Y-61431281D01*
X143267381Y-61413810D01*
X142595835Y-61413810D01*
X142595835Y-61844654D01*
X142218114Y-61844654D01*
X142218114Y-60764612D01*
X142233479Y-60527437D01*
X142276932Y-60327784D01*
X142346448Y-60158588D01*
X142442695Y-60014787D01*
X142559498Y-59902931D01*
X142702033Y-59819240D01*
X142875588Y-59765467D01*
X143086763Y-59746120D01*
X143280637Y-59762820D01*
G37*
G36*
X140762982Y-59762820D02*
G01*
X140927899Y-59809885D01*
X141068410Y-59884071D01*
X141188264Y-59984012D01*
X141293739Y-60114173D01*
X141369402Y-60256116D01*
X141418546Y-60412016D01*
X141442154Y-60585582D01*
X141064433Y-60585582D01*
X141045054Y-60468793D01*
X140998796Y-60371480D01*
X140921734Y-60289071D01*
X140828804Y-60232551D01*
X140713006Y-60195895D01*
X140569108Y-60182581D01*
X140406951Y-60202343D01*
X140286311Y-60255477D01*
X140197356Y-60336703D01*
X140133639Y-60446542D01*
X140093043Y-60591187D01*
X140078180Y-60781465D01*
X140078180Y-61022044D01*
X140791674Y-61022044D01*
X140937691Y-61036083D01*
X141068403Y-61076640D01*
X141186249Y-61142456D01*
X141293449Y-61233794D01*
X141382373Y-61344304D01*
X141454794Y-61475359D01*
X141507557Y-61622066D01*
X141540048Y-61786795D01*
X141551331Y-61973370D01*
X141537377Y-62184654D01*
X141497383Y-62367978D01*
X141432489Y-62528578D01*
X141341587Y-62670195D01*
X141231293Y-62783319D01*
X141102607Y-62865837D01*
X140951991Y-62917631D01*
X140774822Y-62935931D01*
X140579450Y-62915445D01*
X140422461Y-62858857D01*
X140296350Y-62770823D01*
X140191684Y-62646305D01*
X140121307Y-62497989D01*
X140082393Y-62320439D01*
X140073967Y-62320439D01*
X140073967Y-62880000D01*
X139700458Y-62880000D01*
X139700458Y-61844654D01*
X140078180Y-61844654D01*
X140097200Y-62039492D01*
X140151519Y-62199008D01*
X140241945Y-62331674D01*
X140358003Y-62427771D01*
X140502369Y-62488736D01*
X140682498Y-62510704D01*
X140829701Y-62492365D01*
X140945664Y-62441793D01*
X141037138Y-62362449D01*
X141107392Y-62253272D01*
X141150110Y-62120447D01*
X141165183Y-61956762D01*
X141151559Y-61799003D01*
X141112934Y-61669572D01*
X141049778Y-61562065D01*
X140966883Y-61480947D01*
X140868339Y-61431281D01*
X140749726Y-61413810D01*
X140078180Y-61413810D01*
X140078180Y-61844654D01*
X139700458Y-61844654D01*
X139700458Y-60764612D01*
X139715824Y-60527437D01*
X139759277Y-60327784D01*
X139828793Y-60158588D01*
X139925040Y-60014787D01*
X140041843Y-59902931D01*
X140184377Y-59819240D01*
X140357933Y-59765467D01*
X140569108Y-59746120D01*
X140762982Y-59762820D01*
G37*
G36*
X138928712Y-62880000D02*
G01*
X138928712Y-59802051D01*
X138550990Y-59802051D01*
X138550990Y-60389699D01*
X138546777Y-60389699D01*
X138511351Y-60195061D01*
X138448444Y-60039057D01*
X138357916Y-59914159D01*
X138245178Y-59823883D01*
X138106132Y-59766679D01*
X137934033Y-59746120D01*
X137762293Y-59765474D01*
X137615568Y-59820514D01*
X137489281Y-59908959D01*
X137380090Y-60031639D01*
X137292658Y-60181673D01*
X137228779Y-60357711D01*
X137188601Y-60564803D01*
X137174377Y-60809553D01*
X137174377Y-62880000D01*
X137552098Y-62880000D01*
X137552098Y-60898946D01*
X137568625Y-60670403D01*
X137613824Y-60494454D01*
X137684356Y-60359169D01*
X137780562Y-60256780D01*
X137898088Y-60193889D01*
X138043210Y-60171591D01*
X138193510Y-60194860D01*
X138315161Y-60260505D01*
X138414703Y-60367473D01*
X138487611Y-60508379D01*
X138534085Y-60689206D01*
X138550990Y-60921416D01*
X138550990Y-62880000D01*
X138928712Y-62880000D01*
G37*
G36*
X135538011Y-62935931D02*
G01*
X135637822Y-62921321D01*
X135719798Y-62879997D01*
X135787871Y-62812833D01*
X135839755Y-62723907D01*
X135871210Y-62619139D01*
X135882210Y-62493852D01*
X135871094Y-62360898D01*
X135839500Y-62250628D01*
X135787871Y-62158018D01*
X135719485Y-62087551D01*
X135637513Y-62044476D01*
X135538011Y-62029302D01*
X135438636Y-62044475D01*
X135356787Y-62087548D01*
X135288517Y-62158018D01*
X135236780Y-62250646D01*
X135205129Y-62360916D01*
X135193995Y-62493852D01*
X135205012Y-62619121D01*
X135236524Y-62723890D01*
X135288517Y-62812833D01*
X135356473Y-62879999D01*
X135438326Y-62921322D01*
X135538011Y-62935931D01*
G37*
G36*
X133893401Y-62880000D02*
G01*
X133893401Y-58794794D01*
X133515680Y-58794794D01*
X133515680Y-60552121D01*
X133062487Y-60552121D01*
X132382515Y-58794794D01*
X131971088Y-58794794D01*
X132730744Y-60764612D01*
X131929139Y-62880000D01*
X132361449Y-62880000D01*
X133074944Y-60994200D01*
X133515680Y-60994200D01*
X133515680Y-62880000D01*
X133893401Y-62880000D01*
G37*
D11*
%TO.C,.*%
G36*
X146137061Y-112606572D02*
G01*
X146257348Y-112726949D01*
X146249919Y-112793083D01*
X146104909Y-112852202D01*
X146008714Y-112833191D01*
X145952470Y-112726949D01*
X145968293Y-112692405D01*
X146104909Y-112601697D01*
X146137061Y-112606572D01*
G37*
G36*
X147561331Y-112321013D02*
G01*
X147547071Y-112407823D01*
X147444817Y-112502660D01*
X147417174Y-112499522D01*
X147328304Y-112393023D01*
X147332748Y-112360334D01*
X147444817Y-112211376D01*
X147504846Y-112200415D01*
X147561331Y-112321013D01*
G37*
G36*
X150993830Y-115085681D02*
G01*
X151056744Y-115240734D01*
X151043599Y-115321133D01*
X150940230Y-115415504D01*
X150886631Y-115395787D01*
X150823716Y-115240734D01*
X150836862Y-115160334D01*
X150940230Y-115065963D01*
X150993830Y-115085681D01*
G37*
G36*
X160755236Y-122992285D02*
G01*
X160843900Y-123105413D01*
X160840514Y-123133262D01*
X160727386Y-123221926D01*
X160699536Y-123218541D01*
X160610872Y-123105413D01*
X160614258Y-123077563D01*
X160727386Y-122988899D01*
X160755236Y-122992285D01*
G37*
G36*
X133628672Y-119028036D02*
G01*
X133823913Y-119092474D01*
X133841867Y-119276588D01*
X133685527Y-119599529D01*
X133551437Y-119798940D01*
X133417816Y-119897582D01*
X133283768Y-119839187D01*
X133135406Y-119611821D01*
X133148558Y-119340076D01*
X133312305Y-119118821D01*
X133596106Y-119027431D01*
X133628672Y-119028036D01*
G37*
G36*
X150680551Y-112315902D02*
G01*
X150707203Y-112677431D01*
X150701456Y-112842205D01*
X150631446Y-113132745D01*
X150484627Y-113206984D01*
X150264450Y-113061926D01*
X150172962Y-112931475D01*
X150142755Y-112629239D01*
X150307727Y-112336212D01*
X150426502Y-112229943D01*
X150591521Y-112170615D01*
X150680551Y-112315902D01*
G37*
G36*
X143920276Y-124225378D02*
G01*
X144066978Y-124357572D01*
X144163926Y-124638755D01*
X144056384Y-124922864D01*
X143892156Y-125027111D01*
X143609836Y-125062909D01*
X143511403Y-125046814D01*
X143348779Y-124942694D01*
X143308579Y-124691047D01*
X143316734Y-124577809D01*
X143435765Y-124295760D01*
X143654898Y-124164617D01*
X143920276Y-124225378D01*
G37*
G36*
X170378651Y-103600550D02*
G01*
X170543414Y-103783307D01*
X170621919Y-104103169D01*
X170536402Y-104422926D01*
X170293951Y-104654391D01*
X170136504Y-104713787D01*
X169793170Y-104712789D01*
X169524585Y-104552470D01*
X169368239Y-104284038D01*
X169361625Y-103958698D01*
X169542233Y-103627660D01*
X169716642Y-103482784D01*
X170019615Y-103432302D01*
X170378651Y-103600550D01*
G37*
G36*
X170342444Y-96364140D02*
G01*
X170562561Y-96570273D01*
X170631056Y-96948073D01*
X170591521Y-97238669D01*
X170491239Y-97449082D01*
X170291923Y-97546267D01*
X169990230Y-97588899D01*
X169699634Y-97549364D01*
X169489221Y-97449082D01*
X169392036Y-97249766D01*
X169349405Y-96948073D01*
X169406297Y-96595859D01*
X169612430Y-96375743D01*
X169990230Y-96307248D01*
X170342444Y-96364140D01*
G37*
G36*
X170326345Y-99957920D02*
G01*
X170480020Y-100093227D01*
X170627810Y-100409316D01*
X170592946Y-100743764D01*
X170372103Y-101019448D01*
X170124966Y-101162677D01*
X169888001Y-101173419D01*
X169601810Y-101014862D01*
X169431781Y-100826989D01*
X169357763Y-100506828D01*
X169454767Y-100181635D01*
X169714648Y-99929740D01*
X169885405Y-99845139D01*
X170084283Y-99829629D01*
X170326345Y-99957920D01*
G37*
G36*
X132157536Y-96367939D02*
G01*
X132443601Y-96445584D01*
X132636171Y-96672491D01*
X132721792Y-96844489D01*
X132737115Y-97042538D01*
X132608824Y-97284188D01*
X132403364Y-97500050D01*
X132065001Y-97588899D01*
X131784047Y-97532217D01*
X131521178Y-97284188D01*
X131420229Y-97113333D01*
X131387211Y-96915579D01*
X131493831Y-96672491D01*
X131536379Y-96602322D01*
X131742013Y-96415694D01*
X132065001Y-96365504D01*
X132157536Y-96367939D01*
G37*
G36*
X145202295Y-97181592D02*
G01*
X145568087Y-97325673D01*
X145784234Y-97591276D01*
X145894972Y-98030066D01*
X145916193Y-98305370D01*
X145854793Y-98560671D01*
X145658303Y-98803436D01*
X145569863Y-98883801D01*
X145180363Y-99080517D01*
X144783795Y-99059968D01*
X144424118Y-98821510D01*
X144214671Y-98483739D01*
X144153617Y-98084534D01*
X144241286Y-97701172D01*
X144454126Y-97386333D01*
X144768587Y-97192696D01*
X145161119Y-97172939D01*
X145202295Y-97181592D01*
G37*
G36*
X132069674Y-99802766D02*
G01*
X132260294Y-99895219D01*
X132489873Y-100105475D01*
X132682955Y-100352360D01*
X132764083Y-100554704D01*
X132704040Y-100735077D01*
X132531056Y-100967798D01*
X132318644Y-101121748D01*
X132065001Y-101200825D01*
X131966784Y-101186674D01*
X131691894Y-101041053D01*
X131462143Y-100803166D01*
X131365918Y-100554704D01*
X131366016Y-100549676D01*
X131451959Y-100344615D01*
X131647408Y-100097644D01*
X131876907Y-99889935D01*
X132065001Y-99802660D01*
X132069674Y-99802766D01*
G37*
G36*
X132163217Y-103428739D02*
G01*
X132438108Y-103574359D01*
X132667859Y-103812246D01*
X132764083Y-104060709D01*
X132763366Y-104074197D01*
X132673225Y-104282913D01*
X132478095Y-104526764D01*
X132452839Y-104551543D01*
X132226956Y-104736826D01*
X132065001Y-104812752D01*
X132060328Y-104812647D01*
X131869707Y-104720193D01*
X131640128Y-104509938D01*
X131447047Y-104263052D01*
X131365918Y-104060709D01*
X131381230Y-103969933D01*
X131538787Y-103715867D01*
X131796172Y-103503522D01*
X132065001Y-103414587D01*
X132163217Y-103428739D01*
G37*
G36*
X176689771Y-100559999D02*
G01*
X176689771Y-117396027D01*
X172665766Y-119408096D01*
X172167465Y-119657255D01*
X170700174Y-120390925D01*
X169476147Y-121002959D01*
X168075363Y-121703374D01*
X166504183Y-122488990D01*
X166077753Y-122702212D01*
X164700025Y-123391099D01*
X163902387Y-123789931D01*
X163737496Y-123872379D01*
X161569642Y-124956342D01*
X161309155Y-125086590D01*
X151115003Y-130183834D01*
X138327617Y-123789931D01*
X137080298Y-123166251D01*
X139055827Y-123166251D01*
X139075400Y-123221185D01*
X139197352Y-123229582D01*
X139356675Y-123136832D01*
X139465728Y-122982273D01*
X139544592Y-122845771D01*
X139735735Y-122782838D01*
X139833801Y-122824730D01*
X139906967Y-123018868D01*
X139813643Y-123367569D01*
X139788181Y-123509886D01*
X139915251Y-123571468D01*
X139935472Y-123566064D01*
X140352474Y-123566064D01*
X140371673Y-123691371D01*
X140520571Y-123854430D01*
X140694066Y-123973432D01*
X140972023Y-124036936D01*
X141188745Y-123963014D01*
X141231112Y-123868273D01*
X141221987Y-123855848D01*
X142097390Y-123855848D01*
X142273198Y-124014648D01*
X142322264Y-124044788D01*
X142400304Y-124169264D01*
X142320661Y-124382487D01*
X142252019Y-124559858D01*
X142293498Y-124758497D01*
X142364712Y-124766397D01*
X142534412Y-124603276D01*
X142617240Y-124474558D01*
X142940997Y-124474558D01*
X142942102Y-124840373D01*
X143170446Y-125182350D01*
X143176842Y-125188313D01*
X143547278Y-125400681D01*
X143930021Y-125393023D01*
X144278636Y-125166022D01*
X144330195Y-125107267D01*
X144512873Y-124735873D01*
X144477090Y-124367284D01*
X144224976Y-124045979D01*
X144224709Y-124045769D01*
X143854118Y-123838891D01*
X143521552Y-123853221D01*
X143186769Y-124090484D01*
X143166742Y-124110940D01*
X142940997Y-124474558D01*
X142617240Y-124474558D01*
X142770347Y-124236622D01*
X142940391Y-123931206D01*
X143080157Y-123661522D01*
X143133808Y-123531149D01*
X143132849Y-123525394D01*
X143024387Y-123423261D01*
X142790879Y-123283603D01*
X142755766Y-123265794D01*
X142498454Y-123176474D01*
X142366723Y-123237696D01*
X142354340Y-123330190D01*
X142476624Y-123476086D01*
X142495825Y-123487149D01*
X142656815Y-123641238D01*
X142609802Y-123742874D01*
X142376469Y-123735827D01*
X142340278Y-123727641D01*
X142127221Y-123740008D01*
X142097390Y-123855848D01*
X141221987Y-123855848D01*
X141138954Y-123742790D01*
X140913170Y-123687981D01*
X140787445Y-123676979D01*
X140692521Y-123604452D01*
X140786766Y-123494616D01*
X141053544Y-123383546D01*
X141084476Y-123374198D01*
X141398745Y-123208550D01*
X141577271Y-122987775D01*
X141610743Y-122764690D01*
X141489848Y-122592108D01*
X141205278Y-122522844D01*
X141005849Y-122554530D01*
X140954030Y-122668486D01*
X140985339Y-122723020D01*
X141138510Y-122785000D01*
X141153717Y-122781795D01*
X141283943Y-122790707D01*
X141255842Y-122876287D01*
X141106272Y-122994675D01*
X140872093Y-123102012D01*
X140831041Y-123116378D01*
X140555577Y-123257763D01*
X140406038Y-123411862D01*
X140352474Y-123566064D01*
X139935472Y-123566064D01*
X139946192Y-123563199D01*
X140101000Y-123419998D01*
X140294445Y-123151978D01*
X140484569Y-122828607D01*
X140629414Y-122519354D01*
X140687019Y-122293690D01*
X140619631Y-122182844D01*
X140457594Y-122209624D01*
X140279786Y-122367004D01*
X140139222Y-122487390D01*
X139952853Y-122503340D01*
X139835943Y-122390195D01*
X139866398Y-122182691D01*
X139956774Y-121995513D01*
X139967577Y-121858132D01*
X139837438Y-121823761D01*
X139772103Y-121869652D01*
X139618622Y-122069171D01*
X139431112Y-122365821D01*
X139248715Y-122692370D01*
X139110572Y-122981590D01*
X139055827Y-123166251D01*
X137080298Y-123166251D01*
X135703705Y-122477932D01*
X138046495Y-122477932D01*
X138112993Y-122613088D01*
X138324598Y-122761184D01*
X138325127Y-122761449D01*
X138571568Y-122885752D01*
X138710459Y-122957423D01*
X138781688Y-122886343D01*
X138916438Y-122666382D01*
X139079846Y-122362345D01*
X139238248Y-122039883D01*
X139357977Y-121764647D01*
X139405368Y-121602288D01*
X139398576Y-121576381D01*
X139259327Y-121457506D01*
X139015709Y-121344770D01*
X138767671Y-121277194D01*
X138615164Y-121293796D01*
X138633713Y-121415936D01*
X138796175Y-121592339D01*
X138867425Y-121656894D01*
X138966644Y-121821584D01*
X138903383Y-121893416D01*
X138700722Y-121817857D01*
X138602069Y-121761036D01*
X138415728Y-121723215D01*
X138356744Y-121869552D01*
X138376665Y-121952222D01*
X138531515Y-122098923D01*
X138613568Y-122152903D01*
X138706285Y-122356882D01*
X138670119Y-122475735D01*
X138502386Y-122468420D01*
X138291366Y-122394168D01*
X138124598Y-122380468D01*
X138047878Y-122473638D01*
X138046495Y-122477932D01*
X135703705Y-122477932D01*
X133329613Y-121290847D01*
X135839465Y-121290847D01*
X135858750Y-121469620D01*
X135919286Y-121470672D01*
X136067280Y-121335106D01*
X136247871Y-121086025D01*
X136302758Y-120991586D01*
X136530402Y-120991586D01*
X136670379Y-121170783D01*
X136694184Y-121188716D01*
X136807692Y-121346169D01*
X136740303Y-121563169D01*
X136658151Y-121731273D01*
X136609038Y-121874358D01*
X136622181Y-121900746D01*
X136765291Y-121940275D01*
X136802292Y-121926461D01*
X136953737Y-121772411D01*
X137146299Y-121502628D01*
X137172100Y-121459834D01*
X137466451Y-121459834D01*
X137602489Y-121636838D01*
X137626294Y-121654771D01*
X137739802Y-121812224D01*
X137672413Y-122029224D01*
X137590261Y-122197328D01*
X137541148Y-122340413D01*
X137552524Y-122365487D01*
X137691646Y-122406330D01*
X137794409Y-122336150D01*
X137967382Y-122104430D01*
X138155746Y-121766909D01*
X138469348Y-121127489D01*
X138174036Y-120933993D01*
X138157366Y-120923186D01*
X137910567Y-120812257D01*
X137748709Y-120870511D01*
X137689070Y-120977194D01*
X137812949Y-121075068D01*
X137846042Y-121088950D01*
X137993507Y-121214194D01*
X137965537Y-121318633D01*
X137774291Y-121323977D01*
X137750417Y-121318215D01*
X137527558Y-121332144D01*
X137466451Y-121459834D01*
X137172100Y-121459834D01*
X137337024Y-121186293D01*
X137482958Y-120892585D01*
X137541148Y-120690687D01*
X137453071Y-120556967D01*
X137231332Y-120436316D01*
X136980320Y-120376367D01*
X136804857Y-120416198D01*
X136759171Y-120503909D01*
X136880839Y-120609013D01*
X136980286Y-120670792D01*
X137075093Y-120849959D01*
X137075043Y-120856756D01*
X137025695Y-120956293D01*
X136849136Y-120895435D01*
X136765056Y-120859020D01*
X136577153Y-120864264D01*
X136530402Y-120991586D01*
X136302758Y-120991586D01*
X136423440Y-120783938D01*
X136556368Y-120489354D01*
X136609038Y-120262782D01*
X136609037Y-120262255D01*
X136566240Y-120088232D01*
X136449288Y-120115045D01*
X136274829Y-120328956D01*
X136059507Y-120716230D01*
X135955271Y-120942628D01*
X135839465Y-121290847D01*
X133329613Y-121290847D01*
X132377334Y-120814692D01*
X134744817Y-120814692D01*
X134824132Y-120956761D01*
X135041584Y-121105976D01*
X135264521Y-121197151D01*
X135425110Y-121241192D01*
X135488424Y-121173328D01*
X135626216Y-120955276D01*
X135797261Y-120652304D01*
X135964866Y-120332308D01*
X136092338Y-120063187D01*
X136142983Y-119912838D01*
X136142005Y-119909340D01*
X136030312Y-119835820D01*
X135789705Y-119724966D01*
X135583855Y-119659236D01*
X135384029Y-119655693D01*
X135334089Y-119741120D01*
X135473212Y-119894527D01*
X135483533Y-119902139D01*
X135657109Y-120076199D01*
X135624211Y-120165954D01*
X135392784Y-120146515D01*
X135276609Y-120126297D01*
X135077277Y-120159825D01*
X135041349Y-120274897D01*
X135203270Y-120421528D01*
X135332652Y-120529787D01*
X135369657Y-120716524D01*
X135282394Y-120821064D01*
X135090372Y-120773004D01*
X134918847Y-120690127D01*
X134779739Y-120679342D01*
X134744817Y-120814692D01*
X132377334Y-120814692D01*
X131441551Y-120346785D01*
X133866561Y-120346785D01*
X133895971Y-120486856D01*
X134106457Y-120638547D01*
X134326074Y-120731919D01*
X134460281Y-120775137D01*
X134520728Y-120702661D01*
X134655468Y-120470849D01*
X134828293Y-120134962D01*
X134949297Y-119871135D01*
X135052825Y-119543998D01*
X135021809Y-119374331D01*
X134965118Y-119350181D01*
X134822671Y-119460481D01*
X134628000Y-119785361D01*
X134487893Y-120032843D01*
X134305162Y-120240854D01*
X134123636Y-120283836D01*
X134015335Y-120278047D01*
X133866561Y-120346785D01*
X131441551Y-120346785D01*
X129777559Y-119514762D01*
X132764083Y-119514762D01*
X132765424Y-119536801D01*
X132864438Y-119771953D01*
X133072381Y-120023361D01*
X133106364Y-120054023D01*
X133352366Y-120235129D01*
X133536474Y-120309082D01*
X133571218Y-120295667D01*
X133716068Y-120141285D01*
X133900447Y-119869645D01*
X134083156Y-119550629D01*
X134222994Y-119254122D01*
X134278762Y-119050007D01*
X134224388Y-118963684D01*
X134015705Y-118832182D01*
X133733177Y-118723281D01*
X133466140Y-118677890D01*
X133287545Y-118737763D01*
X133042631Y-118949030D01*
X132845195Y-119235386D01*
X132764083Y-119514762D01*
X129777559Y-119514762D01*
X125540230Y-117396028D01*
X125540230Y-100560000D01*
X125540230Y-85937361D01*
X128802616Y-85937361D01*
X128802616Y-100501541D01*
X128802616Y-115065720D01*
X136770840Y-119050007D01*
X137758779Y-119543998D01*
X138496427Y-119912838D01*
X139196284Y-120262782D01*
X139871180Y-120600245D01*
X140052226Y-120690687D01*
X140926610Y-121127489D01*
X141315867Y-121321944D01*
X141878146Y-121602288D01*
X142763757Y-122043841D01*
X143265903Y-122293690D01*
X144140992Y-122729101D01*
X144212677Y-122764690D01*
X145433808Y-123370941D01*
X145757301Y-123531149D01*
X146628442Y-123962576D01*
X147711129Y-124497220D01*
X148196159Y-124735873D01*
X148668108Y-124968090D01*
X149485613Y-125368400D01*
X150149881Y-125691366D01*
X150647149Y-125930203D01*
X150963653Y-126078127D01*
X151085630Y-126128352D01*
X151195960Y-126081675D01*
X151502288Y-125936990D01*
X151990054Y-125701011D01*
X152645478Y-125380556D01*
X153454782Y-124982440D01*
X154050188Y-124688341D01*
X156699736Y-124688341D01*
X156795306Y-124861244D01*
X157027576Y-125092090D01*
X157146564Y-125196718D01*
X157392494Y-125459827D01*
X157524122Y-125671439D01*
X157544773Y-125729006D01*
X157677600Y-125893262D01*
X157841174Y-125836273D01*
X157851653Y-125807692D01*
X157825226Y-125614014D01*
X157729482Y-125319795D01*
X157700158Y-125238138D01*
X157620138Y-124874260D01*
X157624688Y-124580449D01*
X157630032Y-124560309D01*
X157754019Y-124359725D01*
X157937650Y-124363341D01*
X158156133Y-124559536D01*
X158384678Y-124936690D01*
X158531518Y-125210447D01*
X158666196Y-125361913D01*
X158775389Y-125337043D01*
X158816449Y-125278888D01*
X158818455Y-125086590D01*
X158685074Y-124766900D01*
X158643465Y-124679099D01*
X158525213Y-124336207D01*
X158492577Y-124066651D01*
X158497086Y-123902422D01*
X158458472Y-123804495D01*
X158403853Y-123820851D01*
X158185979Y-123915594D01*
X157874693Y-124066651D01*
X157668953Y-124179749D01*
X157425925Y-124380299D01*
X157351687Y-124590963D01*
X157329413Y-124796816D01*
X157231486Y-124833965D01*
X157002664Y-124711887D01*
X156928691Y-124668872D01*
X156743365Y-124611509D01*
X156699736Y-124688341D01*
X154050188Y-124688341D01*
X154404189Y-124513483D01*
X155479920Y-123980501D01*
X156007317Y-123718555D01*
X158698785Y-123718555D01*
X158738445Y-123966720D01*
X158910068Y-124364655D01*
X159029388Y-124591739D01*
X159234828Y-124919257D01*
X159385076Y-125046410D01*
X159493180Y-124987127D01*
X159502343Y-124956342D01*
X159462134Y-124763804D01*
X159339023Y-124481238D01*
X159168315Y-124169328D01*
X158985313Y-123888758D01*
X158825323Y-123700214D01*
X158723649Y-123664379D01*
X158698785Y-123718555D01*
X156007317Y-123718555D01*
X156412499Y-123517310D01*
X159212707Y-123517310D01*
X159212984Y-123527968D01*
X159300765Y-123663999D01*
X159466469Y-123671306D01*
X159594845Y-123542339D01*
X159623754Y-123486840D01*
X159719042Y-123462637D01*
X159725594Y-123471172D01*
X159726074Y-123634067D01*
X159650073Y-123902528D01*
X159569730Y-124234667D01*
X159635459Y-124477413D01*
X159740948Y-124606507D01*
X160002993Y-124707297D01*
X160311644Y-124582051D01*
X160443489Y-124440545D01*
X160446711Y-124200014D01*
X160396635Y-124081685D01*
X160325357Y-124048375D01*
X160195957Y-124203788D01*
X160079010Y-124331338D01*
X159964337Y-124347774D01*
X159932488Y-124182185D01*
X159998486Y-123860676D01*
X160045747Y-123687070D01*
X160057224Y-123448427D01*
X159951425Y-123278207D01*
X159806373Y-123148150D01*
X160259230Y-123148150D01*
X160302080Y-123392757D01*
X160494359Y-123537708D01*
X160666489Y-123652927D01*
X160727386Y-123934598D01*
X160761898Y-124169641D01*
X160787681Y-124200014D01*
X160847557Y-124270550D01*
X160968315Y-124205757D01*
X161052721Y-124013066D01*
X161022119Y-123810075D01*
X161001158Y-123760810D01*
X161057586Y-123687981D01*
X161125875Y-123716247D01*
X161243052Y-123882235D01*
X161312878Y-123992481D01*
X161439428Y-123954655D01*
X161475002Y-123872379D01*
X161429133Y-123620834D01*
X161246821Y-123206961D01*
X161065844Y-122846891D01*
X160937315Y-122623874D01*
X160837909Y-122543936D01*
X160725073Y-122574881D01*
X160556252Y-122684518D01*
X160360405Y-122878382D01*
X160259230Y-123148150D01*
X159806373Y-123148150D01*
X159805994Y-123147810D01*
X159662994Y-123122596D01*
X159438075Y-123226026D01*
X159305087Y-123330302D01*
X159212707Y-123517310D01*
X156412499Y-123517310D01*
X156668196Y-123390311D01*
X157955240Y-122749731D01*
X158457347Y-122499360D01*
X161187718Y-122499360D01*
X161255243Y-122599001D01*
X161484726Y-122591512D01*
X161537074Y-122580318D01*
X161734482Y-122592387D01*
X161766722Y-122684183D01*
X161601239Y-122798006D01*
X161541848Y-122824865D01*
X161422267Y-122954607D01*
X161488762Y-123057240D01*
X161710613Y-123059359D01*
X161848567Y-123041145D01*
X162041668Y-123093830D01*
X162096516Y-123217906D01*
X161967139Y-123359572D01*
X161865148Y-123433847D01*
X161776010Y-123577257D01*
X161829512Y-123654472D01*
X162022529Y-123656895D01*
X162292187Y-123563778D01*
X162570311Y-123391099D01*
X162552828Y-123320073D01*
X162460347Y-123098534D01*
X162320010Y-122793857D01*
X162164681Y-122474967D01*
X162027223Y-122210785D01*
X161940500Y-122070234D01*
X161936623Y-122067361D01*
X161798475Y-122084102D01*
X161546718Y-122171755D01*
X161507500Y-122188883D01*
X161274391Y-122345138D01*
X161187718Y-122499360D01*
X158457347Y-122499360D01*
X159327273Y-122065579D01*
X159607837Y-121925436D01*
X162125551Y-121925436D01*
X162182125Y-122023494D01*
X162371238Y-122238076D01*
X162647260Y-122508005D01*
X163033760Y-122838402D01*
X163293761Y-122985929D01*
X163440764Y-122942245D01*
X163491735Y-122702212D01*
X163463642Y-122260688D01*
X163448367Y-122128921D01*
X163392600Y-121721512D01*
X163335283Y-121488286D01*
X163260282Y-121382573D01*
X163151462Y-121357706D01*
X163128015Y-121363621D01*
X163074183Y-121520847D01*
X163097852Y-121882018D01*
X163126485Y-122196072D01*
X163086682Y-122372738D01*
X162952233Y-122342736D01*
X162708120Y-122115046D01*
X162623911Y-122032482D01*
X162385225Y-121866398D01*
X162200015Y-121824502D01*
X162125551Y-121925436D01*
X159607837Y-121925436D01*
X160770517Y-121344671D01*
X160909743Y-121275011D01*
X163548153Y-121275011D01*
X163642965Y-121511090D01*
X163844129Y-121909023D01*
X163999824Y-122178519D01*
X164182292Y-122426710D01*
X164310184Y-122522567D01*
X164372471Y-122520677D01*
X164434627Y-122488990D01*
X164423364Y-122382825D01*
X164328604Y-122157438D01*
X164140270Y-121768086D01*
X163979249Y-121473935D01*
X163801016Y-121221689D01*
X163674215Y-121124679D01*
X163642302Y-121125530D01*
X163550873Y-121160065D01*
X163548153Y-121275011D01*
X160909743Y-121275011D01*
X161435334Y-121012038D01*
X164106285Y-121012038D01*
X164130653Y-121108040D01*
X164237144Y-121370383D01*
X164399532Y-121711121D01*
X164550994Y-121984463D01*
X164756810Y-122245481D01*
X164909947Y-122282928D01*
X165005459Y-122096983D01*
X165038395Y-121687829D01*
X165047916Y-121481638D01*
X165109595Y-121275534D01*
X165219434Y-121290793D01*
X165366737Y-121532477D01*
X165401138Y-121599994D01*
X165548435Y-121779456D01*
X165680327Y-121823034D01*
X165737478Y-121703374D01*
X165724091Y-121616619D01*
X165626187Y-121357377D01*
X165466021Y-121045188D01*
X165282735Y-120746561D01*
X165115474Y-120528007D01*
X165003379Y-120456033D01*
X164969234Y-120480802D01*
X164880489Y-120676105D01*
X164827797Y-120988092D01*
X164802558Y-121214943D01*
X164729900Y-121434474D01*
X164621363Y-121423820D01*
X164477027Y-121182936D01*
X164442626Y-121115418D01*
X164295328Y-120935956D01*
X164163436Y-120892379D01*
X164106285Y-121012038D01*
X161435334Y-121012038D01*
X162271194Y-120593826D01*
X162826868Y-120315573D01*
X165417033Y-120315573D01*
X165511072Y-120526760D01*
X165724530Y-120891651D01*
X165834257Y-121056450D01*
X166076872Y-121330249D01*
X166283418Y-121451292D01*
X166321639Y-121454238D01*
X166577731Y-121381972D01*
X166804726Y-121207408D01*
X166902616Y-121002959D01*
X166902392Y-120993959D01*
X166841851Y-120775982D01*
X166703044Y-120478266D01*
X166528126Y-120174445D01*
X166359250Y-119938154D01*
X166238573Y-119843027D01*
X166140150Y-119853237D01*
X166100308Y-119920925D01*
X166157989Y-120095378D01*
X166320047Y-120425596D01*
X166420817Y-120631097D01*
X166532840Y-120927640D01*
X166518490Y-121081002D01*
X166380672Y-121124679D01*
X166323497Y-121106331D01*
X166149774Y-120940657D01*
X165970505Y-120658624D01*
X165897776Y-120529366D01*
X165713470Y-120288227D01*
X165560339Y-120192569D01*
X165549244Y-120192637D01*
X165432921Y-120217671D01*
X165417033Y-120315573D01*
X162826868Y-120315573D01*
X164538818Y-119458316D01*
X167131463Y-119458316D01*
X167198759Y-119565357D01*
X167426927Y-119562154D01*
X167479276Y-119550960D01*
X167676683Y-119563029D01*
X167708924Y-119654825D01*
X167543441Y-119768648D01*
X167484049Y-119795508D01*
X167364469Y-119925249D01*
X167430964Y-120027883D01*
X167652814Y-120030001D01*
X167790769Y-120011787D01*
X167983870Y-120064472D01*
X168038718Y-120188548D01*
X167909341Y-120330214D01*
X167809230Y-120411443D01*
X167718212Y-120606156D01*
X167739466Y-120723253D01*
X167862944Y-120752672D01*
X168113404Y-120600863D01*
X168269553Y-120491850D01*
X168437688Y-120399379D01*
X168444929Y-120390925D01*
X168415910Y-120248849D01*
X168311165Y-119984848D01*
X168162608Y-119664815D01*
X168002152Y-119354640D01*
X167861711Y-119120215D01*
X167773200Y-119027431D01*
X167662835Y-119064029D01*
X167432410Y-119162647D01*
X167224247Y-119298619D01*
X167131463Y-119458316D01*
X164538818Y-119458316D01*
X165591579Y-118931147D01*
X168235820Y-118931147D01*
X168301873Y-119197524D01*
X168451610Y-119554999D01*
X168605075Y-119845705D01*
X168763571Y-120096208D01*
X168862665Y-120192569D01*
X168924593Y-120186267D01*
X169049466Y-120074656D01*
X168985817Y-119884360D01*
X168909831Y-119676190D01*
X168977485Y-119468897D01*
X169163126Y-119376972D01*
X169276620Y-119421031D01*
X169407661Y-119610000D01*
X169430522Y-119673280D01*
X169564150Y-119834971D01*
X169730544Y-119772591D01*
X169735749Y-119657255D01*
X169648777Y-119403878D01*
X169497159Y-119087293D01*
X169317574Y-118776158D01*
X169146700Y-118539129D01*
X169021217Y-118444862D01*
X168914462Y-118509516D01*
X168931837Y-118738705D01*
X168948862Y-118885475D01*
X168866594Y-119081705D01*
X168686718Y-119116015D01*
X168479480Y-118954843D01*
X168348458Y-118807613D01*
X168251875Y-118789849D01*
X168235820Y-118931147D01*
X165591579Y-118931147D01*
X166680360Y-118385941D01*
X169349405Y-118385941D01*
X169367876Y-118459405D01*
X169499502Y-118496465D01*
X169553794Y-118497898D01*
X169716534Y-118645147D01*
X169905786Y-118966177D01*
X170002972Y-119152985D01*
X170157533Y-119397684D01*
X170260581Y-119493486D01*
X170306585Y-119490857D01*
X170423186Y-119408096D01*
X170388777Y-119193550D01*
X170201478Y-118826008D01*
X170039450Y-118523356D01*
X169982798Y-118319978D01*
X170045713Y-118213549D01*
X170105858Y-118155776D01*
X170115059Y-117992261D01*
X170072909Y-117957033D01*
X169884035Y-117961893D01*
X169643756Y-118064170D01*
X169437177Y-118220106D01*
X169349405Y-118385941D01*
X166680360Y-118385941D01*
X173310872Y-115065719D01*
X173310872Y-100494119D01*
X173310872Y-85922520D01*
X162165966Y-80375694D01*
X151021060Y-74828868D01*
X139911838Y-80383115D01*
X128802616Y-85937361D01*
X125540230Y-85937361D01*
X125540230Y-83723972D01*
X138327614Y-77330069D01*
X151114998Y-70936166D01*
X163902385Y-77330068D01*
X176689771Y-83723971D01*
X176689771Y-85922520D01*
X176689771Y-100559999D01*
G37*
G36*
X170631056Y-94443027D02*
G01*
X169357727Y-94443027D01*
X169203525Y-94443368D01*
X168647757Y-94454468D01*
X168273373Y-94485119D01*
X168038510Y-94540582D01*
X167901305Y-94626120D01*
X167875355Y-94659158D01*
X167837445Y-94748718D01*
X167806058Y-94897750D01*
X167780597Y-95125538D01*
X167760467Y-95451363D01*
X167745070Y-95894512D01*
X167733810Y-96474266D01*
X167726091Y-97209910D01*
X167721316Y-98120728D01*
X167719456Y-98967772D01*
X167718889Y-99226003D01*
X167718212Y-100545019D01*
X167718659Y-101345117D01*
X167721871Y-102618469D01*
X167728467Y-103680870D01*
X167738785Y-104546522D01*
X167753162Y-105229627D01*
X167771937Y-105744390D01*
X167795448Y-106105011D01*
X167824032Y-106325694D01*
X167858028Y-106420642D01*
X167884128Y-106439823D01*
X168137658Y-106506501D01*
X168616214Y-106546884D01*
X169314450Y-106560459D01*
X170631056Y-106560459D01*
X170625571Y-109968486D01*
X170620319Y-113232001D01*
X170620086Y-113376514D01*
X169748737Y-113810329D01*
X166875665Y-115240734D01*
X160867543Y-118231974D01*
X160536854Y-118396610D01*
X159142114Y-119090918D01*
X157810987Y-119753445D01*
X156557970Y-120376981D01*
X155397563Y-120954315D01*
X154344263Y-121478240D01*
X153412568Y-121941544D01*
X152616976Y-122337019D01*
X151971985Y-122657454D01*
X151492093Y-122895639D01*
X151191798Y-123044366D01*
X151085598Y-123096424D01*
X151077577Y-123093306D01*
X150920016Y-123017896D01*
X150572256Y-122847226D01*
X150048746Y-122588486D01*
X149363936Y-122248864D01*
X148532273Y-121835552D01*
X147568207Y-121355738D01*
X146486186Y-120816614D01*
X145300659Y-120225369D01*
X144026074Y-119589192D01*
X142676881Y-118915274D01*
X141267529Y-118210805D01*
X134046140Y-114599908D01*
X146163166Y-114599908D01*
X146235485Y-114676538D01*
X146454450Y-114716422D01*
X146531342Y-114719803D01*
X146719710Y-114786264D01*
X146706174Y-114890622D01*
X146483579Y-114970474D01*
X146439442Y-114977998D01*
X146247342Y-115072197D01*
X146264787Y-115193402D01*
X146490390Y-115278858D01*
X146614024Y-115323481D01*
X146720167Y-115472802D01*
X146687413Y-115632157D01*
X146511152Y-115706580D01*
X146433407Y-115717392D01*
X146279680Y-115823303D01*
X146276533Y-115846764D01*
X146392230Y-115926090D01*
X146658349Y-115975978D01*
X147095276Y-116012140D01*
X147095276Y-115247767D01*
X147095276Y-114650886D01*
X147343490Y-114650886D01*
X147413377Y-114914942D01*
X147532183Y-115247767D01*
X147569703Y-115352877D01*
X147691833Y-115636350D01*
X147846477Y-115897373D01*
X147968137Y-115998073D01*
X148049175Y-115945233D01*
X148189484Y-115723060D01*
X148326278Y-115386376D01*
X148374428Y-115240734D01*
X148842983Y-115240734D01*
X148844262Y-115412612D01*
X148865235Y-115766850D01*
X148919722Y-115947513D01*
X149017753Y-115998073D01*
X149057417Y-115992528D01*
X149139165Y-115901644D01*
X149180856Y-115665537D01*
X149192524Y-115240734D01*
X149191244Y-115068855D01*
X149170271Y-114714618D01*
X149135676Y-114599908D01*
X149309038Y-114599908D01*
X149312204Y-114627575D01*
X149419462Y-114716422D01*
X149463879Y-114761472D01*
X149526040Y-114980039D01*
X149556088Y-115240734D01*
X149565105Y-115318961D01*
X149613423Y-115714607D01*
X149697071Y-115948692D01*
X149788232Y-115971265D01*
X149808618Y-115917681D01*
X150291097Y-115917681D01*
X150371289Y-115977960D01*
X150570021Y-115842007D01*
X150623031Y-115798371D01*
X150905722Y-115668728D01*
X151169784Y-115676357D01*
X151331906Y-115823303D01*
X151433734Y-115953237D01*
X151571202Y-116001610D01*
X151639313Y-115922650D01*
X151610962Y-115810025D01*
X151520946Y-115533851D01*
X151417335Y-115240734D01*
X151872340Y-115240734D01*
X151873620Y-115412612D01*
X151894593Y-115766850D01*
X151941581Y-115922650D01*
X151949079Y-115947513D01*
X152047111Y-115998073D01*
X152086775Y-115992528D01*
X152168522Y-115901644D01*
X152210214Y-115665537D01*
X152221882Y-115240734D01*
X152220602Y-115068855D01*
X152199629Y-114714618D01*
X152165033Y-114599908D01*
X152338395Y-114599908D01*
X152341561Y-114627575D01*
X152448820Y-114716422D01*
X152493237Y-114761472D01*
X152555398Y-114980039D01*
X152585446Y-115240734D01*
X152594462Y-115318961D01*
X152642780Y-115714607D01*
X152726428Y-115948692D01*
X152817589Y-115971265D01*
X152890892Y-115778597D01*
X152920964Y-115366957D01*
X152925963Y-115240734D01*
X153387019Y-115240734D01*
X153390432Y-115466632D01*
X153426679Y-115840055D01*
X153505307Y-115997794D01*
X153629756Y-115949900D01*
X153659274Y-115818820D01*
X153660319Y-115539921D01*
X153641113Y-115250443D01*
X153969588Y-115250443D01*
X153974818Y-115514748D01*
X153978038Y-115539921D01*
X154018021Y-115852504D01*
X154112697Y-115968552D01*
X154268205Y-115868369D01*
X154493900Y-115557436D01*
X154641178Y-115344461D01*
X154793525Y-115208954D01*
X154876558Y-115290585D01*
X154901698Y-115590275D01*
X154924778Y-115853259D01*
X155016814Y-115995993D01*
X155173564Y-115920397D01*
X155206830Y-115821239D01*
X155238859Y-115542428D01*
X155248704Y-115240734D01*
X155484267Y-115240734D01*
X155485547Y-115412612D01*
X155506520Y-115766850D01*
X155561006Y-115947513D01*
X155659038Y-115998073D01*
X155698702Y-115992528D01*
X155780449Y-115901644D01*
X155822140Y-115665537D01*
X155833808Y-115240734D01*
X155832528Y-115068855D01*
X155811555Y-114714618D01*
X155757069Y-114533955D01*
X155659038Y-114483394D01*
X155619373Y-114488940D01*
X155537626Y-114579823D01*
X155495935Y-114815931D01*
X155486401Y-115163058D01*
X155484267Y-115240734D01*
X155248704Y-115240734D01*
X155251239Y-115163058D01*
X155249103Y-114950735D01*
X155225198Y-114656540D01*
X155161894Y-114518040D01*
X155043333Y-114483394D01*
X155024751Y-114484677D01*
X154824022Y-114596245D01*
X154628948Y-114832936D01*
X154606686Y-114869624D01*
X154440793Y-115091741D01*
X154315455Y-115182477D01*
X154311413Y-115182223D01*
X154259962Y-115075335D01*
X154278349Y-114832936D01*
X154297139Y-114724582D01*
X154285061Y-114534240D01*
X154158923Y-114483394D01*
X154093398Y-114495281D01*
X154016864Y-114593016D01*
X153979469Y-114829037D01*
X153969588Y-115250443D01*
X153641113Y-115250443D01*
X153637184Y-115191233D01*
X153596917Y-114848453D01*
X153546567Y-114587275D01*
X153493184Y-114483394D01*
X153440892Y-114582289D01*
X153438374Y-114599908D01*
X153401916Y-114855062D01*
X153387019Y-115240734D01*
X152925963Y-115240734D01*
X152931766Y-115094191D01*
X152974084Y-114821854D01*
X153037478Y-114716422D01*
X153065328Y-114713036D01*
X153153992Y-114599908D01*
X153150470Y-114584617D01*
X153015736Y-114512659D01*
X152746194Y-114483394D01*
X152692675Y-114484401D01*
X152440820Y-114522896D01*
X152338395Y-114599908D01*
X152165033Y-114599908D01*
X152145142Y-114533955D01*
X152047111Y-114483394D01*
X152007447Y-114488940D01*
X151925700Y-114579823D01*
X151884008Y-114815931D01*
X151872340Y-115240734D01*
X151417335Y-115240734D01*
X151390674Y-115165311D01*
X151221785Y-114764603D01*
X151046407Y-114526767D01*
X150874919Y-114518084D01*
X150807892Y-114599908D01*
X150694025Y-114738914D01*
X150490430Y-115189615D01*
X150485573Y-115202167D01*
X150329256Y-115659606D01*
X150291097Y-115917681D01*
X149808618Y-115917681D01*
X149861534Y-115778597D01*
X149891606Y-115366957D01*
X149902408Y-115094191D01*
X149944726Y-114821854D01*
X150008120Y-114716422D01*
X150035970Y-114713036D01*
X150124634Y-114599908D01*
X150121112Y-114584617D01*
X149986378Y-114512659D01*
X149716836Y-114483394D01*
X149663318Y-114484401D01*
X149411462Y-114522896D01*
X149309038Y-114599908D01*
X149135676Y-114599908D01*
X149115785Y-114533955D01*
X149017753Y-114483394D01*
X148978089Y-114488940D01*
X148914657Y-114559461D01*
X148896342Y-114579823D01*
X148854650Y-114815931D01*
X148842983Y-115240734D01*
X148374428Y-115240734D01*
X148407755Y-115139928D01*
X148516348Y-114816103D01*
X148581135Y-114629036D01*
X148586197Y-114559461D01*
X148466299Y-114483394D01*
X148418931Y-114498296D01*
X148273020Y-114666137D01*
X148138798Y-114964907D01*
X147979885Y-115446420D01*
X147775386Y-114964907D01*
X147712061Y-114827689D01*
X147564111Y-114581091D01*
X147449595Y-114483394D01*
X147440805Y-114483522D01*
X147354484Y-114520487D01*
X147343490Y-114650886D01*
X147095276Y-114650886D01*
X147095276Y-114483394D01*
X146629221Y-114483394D01*
X146524750Y-114486365D01*
X146266531Y-114526947D01*
X146163166Y-114599908D01*
X134046140Y-114599908D01*
X132434112Y-113793849D01*
X140228227Y-113793849D01*
X140267966Y-114132718D01*
X140434038Y-114407079D01*
X140475386Y-114442102D01*
X140791174Y-114577897D01*
X141084956Y-114516491D01*
X141301632Y-114286317D01*
X141344743Y-114097221D01*
X160645912Y-114097221D01*
X160843900Y-114366881D01*
X161064346Y-114542290D01*
X161321389Y-114578462D01*
X161633571Y-114418531D01*
X161643903Y-114411143D01*
X161851973Y-114136742D01*
X161865157Y-113810329D01*
X161679450Y-113511086D01*
X161392563Y-113347593D01*
X161064316Y-113359259D01*
X160792250Y-113577209D01*
X160648160Y-113835614D01*
X160647471Y-113915806D01*
X160645912Y-114097221D01*
X141344743Y-114097221D01*
X141386102Y-113915806D01*
X141348746Y-113650672D01*
X141157608Y-113401209D01*
X140803533Y-113318257D01*
X142667753Y-113318257D01*
X142671275Y-113333548D01*
X142806009Y-113405506D01*
X143075551Y-113434770D01*
X143483349Y-113434770D01*
X143483349Y-113175129D01*
X143840443Y-113175129D01*
X143883652Y-113296720D01*
X144131760Y-113437654D01*
X144226365Y-113473003D01*
X144477579Y-113538560D01*
X144671008Y-113490474D01*
X144924059Y-113309800D01*
X144943109Y-113290067D01*
X145462630Y-113290067D01*
X145498376Y-113423119D01*
X145547485Y-113430876D01*
X145671866Y-113335734D01*
X145788960Y-113245827D01*
X146033810Y-113205292D01*
X146292603Y-113228609D01*
X146454450Y-113318257D01*
X146495009Y-113363075D01*
X146692654Y-113434770D01*
X146758231Y-113425958D01*
X146785909Y-113376041D01*
X146764936Y-113250039D01*
X146685617Y-113012974D01*
X146538255Y-112629865D01*
X146451814Y-112413233D01*
X146980569Y-112413233D01*
X147058670Y-112605906D01*
X147300365Y-112714663D01*
X147353658Y-112724384D01*
X147517353Y-112832622D01*
X147561331Y-113093333D01*
X147597116Y-113330954D01*
X147657477Y-113376041D01*
X147736102Y-113434770D01*
X147775766Y-113429225D01*
X147857513Y-113338341D01*
X147877846Y-113223195D01*
X148176168Y-113223195D01*
X148369268Y-113430671D01*
X148550613Y-113522089D01*
X148682289Y-113526860D01*
X148872111Y-113425438D01*
X148924434Y-113392474D01*
X149069114Y-113232001D01*
X149017063Y-113127195D01*
X148784726Y-113133075D01*
X148778941Y-113134510D01*
X148548153Y-113145139D01*
X148509427Y-113039051D01*
X148674573Y-112846922D01*
X148820432Y-112703134D01*
X148847623Y-112655827D01*
X149826714Y-112655827D01*
X149869795Y-112997076D01*
X150050967Y-113232001D01*
X150095023Y-113289128D01*
X150342681Y-113391926D01*
X150671215Y-113434770D01*
X151056744Y-113434770D01*
X151056744Y-113318257D01*
X151289771Y-113318257D01*
X151289798Y-113319706D01*
X151393888Y-113401022D01*
X151639313Y-113434770D01*
X151988854Y-113434770D01*
X151988854Y-113326360D01*
X152221882Y-113326360D01*
X152267224Y-113388057D01*
X152462760Y-113432911D01*
X152729308Y-113425289D01*
X152974598Y-113370617D01*
X153106361Y-113274324D01*
X153123644Y-113196614D01*
X153141174Y-112913513D01*
X153135171Y-112677431D01*
X153387019Y-112677431D01*
X153388299Y-112849310D01*
X153392100Y-112913513D01*
X153409272Y-113203547D01*
X153463758Y-113384210D01*
X153561790Y-113434770D01*
X153601454Y-113429225D01*
X153683201Y-113338341D01*
X153724893Y-113102234D01*
X153736560Y-112677431D01*
X153735646Y-112554601D01*
X153989499Y-112554601D01*
X153999942Y-112668388D01*
X154017338Y-112677431D01*
X154171242Y-112757436D01*
X154296865Y-112831483D01*
X154375141Y-113076173D01*
X154409618Y-113264364D01*
X154523028Y-113405132D01*
X154532794Y-113407822D01*
X154612177Y-113351328D01*
X154655521Y-113120705D01*
X154668671Y-112687140D01*
X154668671Y-112036605D01*
X154901698Y-112036605D01*
X154945395Y-112104326D01*
X155134726Y-112153119D01*
X155270616Y-112185557D01*
X155367753Y-112327890D01*
X155324502Y-112429808D01*
X155134726Y-112502660D01*
X154999284Y-112524509D01*
X154901698Y-112619174D01*
X154945395Y-112686895D01*
X154946346Y-112687140D01*
X155134726Y-112735688D01*
X155194879Y-112739294D01*
X155331133Y-112829376D01*
X155367753Y-113085229D01*
X155403772Y-113330557D01*
X155542524Y-113434770D01*
X155582188Y-113429225D01*
X155663935Y-113338341D01*
X155666051Y-113326360D01*
X155950322Y-113326360D01*
X155953833Y-113340566D01*
X156088549Y-113407535D01*
X156358120Y-113434770D01*
X156765918Y-113434770D01*
X156765918Y-112677431D01*
X157115460Y-112677431D01*
X157116739Y-112849310D01*
X157137712Y-113203547D01*
X157192199Y-113384210D01*
X157290230Y-113434770D01*
X157411571Y-113365438D01*
X157465001Y-113095539D01*
X157525422Y-112848255D01*
X157665713Y-112770773D01*
X157816821Y-112864464D01*
X157909667Y-113124785D01*
X157976623Y-113333168D01*
X158113566Y-113434770D01*
X158139239Y-113432062D01*
X158223681Y-113345463D01*
X158246984Y-113219811D01*
X158547392Y-113219811D01*
X158738992Y-113430671D01*
X158920338Y-113522089D01*
X159052014Y-113526860D01*
X159241836Y-113425438D01*
X159294159Y-113392474D01*
X159438839Y-113232001D01*
X159386788Y-113127195D01*
X159154450Y-113133075D01*
X159024003Y-113153010D01*
X158874885Y-113093972D01*
X158899927Y-112929552D01*
X159103614Y-112698112D01*
X159255135Y-112519716D01*
X159318516Y-112261886D01*
X159212424Y-112059965D01*
X158950551Y-111978348D01*
X158736993Y-112010939D01*
X158659267Y-112094862D01*
X158717503Y-112155799D01*
X158916965Y-112179250D01*
X158929898Y-112177486D01*
X159046805Y-112181497D01*
X159017146Y-112268429D01*
X158829580Y-112476910D01*
X158738049Y-112580906D01*
X158684563Y-112677431D01*
X158548339Y-112923274D01*
X158547392Y-113219811D01*
X158246984Y-113219811D01*
X158267846Y-113107317D01*
X158280597Y-112677431D01*
X158279317Y-112505552D01*
X158258344Y-112151315D01*
X158203858Y-111970652D01*
X158105827Y-111920092D01*
X157991827Y-111977103D01*
X157931056Y-112211376D01*
X157880760Y-112434391D01*
X157698028Y-112502660D01*
X157519616Y-112439790D01*
X157465001Y-112211376D01*
X157430794Y-112021377D01*
X157290230Y-111920092D01*
X157250566Y-111925637D01*
X157168819Y-112016521D01*
X157127127Y-112252628D01*
X157115460Y-112677431D01*
X156765918Y-112677431D01*
X156765918Y-111920092D01*
X156358120Y-111920092D01*
X156139197Y-111939671D01*
X155970989Y-112011833D01*
X155978909Y-112102436D01*
X156187965Y-112174144D01*
X156327399Y-112218303D01*
X156425607Y-112327890D01*
X156380097Y-112403383D01*
X156187965Y-112481636D01*
X156176217Y-112483560D01*
X155977670Y-112567477D01*
X155991417Y-112677151D01*
X155992195Y-112677431D01*
X156212478Y-112756713D01*
X156375454Y-112817986D01*
X156474634Y-112968715D01*
X156417443Y-113085488D01*
X156212478Y-113180718D01*
X156049390Y-113227567D01*
X155950322Y-113326360D01*
X155666051Y-113326360D01*
X155705627Y-113102234D01*
X155717294Y-112677431D01*
X155717294Y-111920092D01*
X155309496Y-111920092D01*
X155255978Y-111921098D01*
X155004123Y-111959593D01*
X154901698Y-112036605D01*
X154668671Y-112036605D01*
X154668671Y-111920092D01*
X154319129Y-111920092D01*
X154201349Y-111925851D01*
X154002487Y-111989201D01*
X154001621Y-112090613D01*
X154214339Y-112189944D01*
X154232719Y-112195196D01*
X154375636Y-112308220D01*
X154336789Y-112439603D01*
X154137482Y-112502660D01*
X153989499Y-112554601D01*
X153735646Y-112554601D01*
X153735281Y-112505552D01*
X153714308Y-112151315D01*
X153659821Y-111970652D01*
X153561790Y-111920092D01*
X153522126Y-111925637D01*
X153440378Y-112016521D01*
X153398687Y-112252628D01*
X153387019Y-112677431D01*
X153135171Y-112677431D01*
X153131832Y-112546113D01*
X153109125Y-112257663D01*
X153053566Y-112058174D01*
X152920350Y-111974579D01*
X152658808Y-111942187D01*
X152382121Y-111952580D01*
X152232078Y-112018282D01*
X152247602Y-112104098D01*
X152459524Y-112174144D01*
X152598959Y-112218303D01*
X152697167Y-112327890D01*
X152651657Y-112403383D01*
X152459524Y-112481636D01*
X152380361Y-112498368D01*
X152232627Y-112590852D01*
X152278143Y-112677431D01*
X152284561Y-112689639D01*
X152521709Y-112735688D01*
X152712610Y-112783430D01*
X152791559Y-112923840D01*
X152712724Y-113082005D01*
X152482847Y-113180718D01*
X152320909Y-113227374D01*
X152221882Y-113326360D01*
X151988854Y-113326360D01*
X151988854Y-112677431D01*
X151987574Y-112505552D01*
X151966601Y-112151315D01*
X151912115Y-111970652D01*
X151814083Y-111920092D01*
X151710060Y-111975497D01*
X151655003Y-112174461D01*
X151639313Y-112560917D01*
X151634697Y-112677431D01*
X151624202Y-112942335D01*
X151569939Y-113144211D01*
X151464542Y-113201743D01*
X151384143Y-113214888D01*
X151289771Y-113318257D01*
X151056744Y-113318257D01*
X151056744Y-112677431D01*
X151056744Y-111920092D01*
X150657402Y-111920092D01*
X150547973Y-111926930D01*
X150190041Y-112061750D01*
X149941542Y-112324384D01*
X149826714Y-112655827D01*
X148847623Y-112655827D01*
X149000706Y-112389487D01*
X149004870Y-112103303D01*
X148984498Y-112064806D01*
X148810624Y-111949260D01*
X148568469Y-111917012D01*
X148353307Y-111968139D01*
X148260414Y-112102714D01*
X148304465Y-112219523D01*
X148493441Y-112211376D01*
X148591939Y-112187083D01*
X148713578Y-112219211D01*
X148660082Y-112364232D01*
X148435184Y-112597392D01*
X148378685Y-112649793D01*
X148360249Y-112677431D01*
X148180582Y-112946777D01*
X148176168Y-113223195D01*
X147877846Y-113223195D01*
X147899205Y-113102234D01*
X147910872Y-112677431D01*
X147910592Y-112484672D01*
X147899821Y-112158513D01*
X147855972Y-111990876D01*
X147755685Y-111928993D01*
X147575598Y-111920092D01*
X147523380Y-111921952D01*
X147233369Y-112012233D01*
X147045617Y-112195668D01*
X146980569Y-112413233D01*
X146451814Y-112413233D01*
X146313154Y-112065734D01*
X146218810Y-111933485D01*
X146062074Y-111960614D01*
X145873542Y-112201559D01*
X145662176Y-112648303D01*
X145605674Y-112800126D01*
X145544141Y-112965468D01*
X145462630Y-113290067D01*
X144943109Y-113290067D01*
X145070979Y-113157616D01*
X145222416Y-112800126D01*
X145203881Y-112421506D01*
X145009458Y-112105206D01*
X144918641Y-112043400D01*
X144627436Y-111955669D01*
X144294744Y-111943488D01*
X144008644Y-112004484D01*
X143857220Y-112136281D01*
X143847199Y-112188248D01*
X143922186Y-112247542D01*
X144173398Y-112213360D01*
X144541368Y-112204194D01*
X144792252Y-112362967D01*
X144881515Y-112677431D01*
X144802726Y-112974992D01*
X144561529Y-113146146D01*
X144187204Y-113144534D01*
X143992962Y-113121365D01*
X143840443Y-113175129D01*
X143483349Y-113175129D01*
X143483349Y-112677431D01*
X143483349Y-111920092D01*
X143075551Y-111920092D01*
X142856629Y-111939671D01*
X142688420Y-112011833D01*
X142696340Y-112102436D01*
X142905396Y-112174144D01*
X143044830Y-112218303D01*
X143143039Y-112327890D01*
X143097528Y-112403383D01*
X142905396Y-112481636D01*
X142878482Y-112486404D01*
X142694217Y-112575694D01*
X142701203Y-112683389D01*
X142900781Y-112735688D01*
X143051421Y-112773985D01*
X143133808Y-112968715D01*
X143095511Y-113119355D01*
X142900781Y-113201743D01*
X142765339Y-113223591D01*
X142667753Y-113318257D01*
X140803533Y-113318257D01*
X140578653Y-113350409D01*
X140360781Y-113458073D01*
X140323450Y-113502232D01*
X140228227Y-113793849D01*
X132434112Y-113793849D01*
X131478862Y-113316197D01*
X131509775Y-109967456D01*
X131540689Y-106618715D01*
X132822340Y-106560459D01*
X134103992Y-106502202D01*
X134134207Y-100631504D01*
X134135157Y-100441959D01*
X134140336Y-99018847D01*
X134140748Y-97816155D01*
X134136205Y-96822689D01*
X134132744Y-96538531D01*
X141057747Y-96538531D01*
X141058307Y-96802431D01*
X141125335Y-97072741D01*
X141269588Y-97181101D01*
X141322793Y-97196102D01*
X141385847Y-97296291D01*
X141428821Y-97521696D01*
X141457408Y-97908250D01*
X141477303Y-98491881D01*
X141510247Y-99802660D01*
X141914230Y-99802660D01*
X142318212Y-99802660D01*
X142318212Y-98534598D01*
X142318345Y-98378814D01*
X142321099Y-98113211D01*
X143250322Y-98113211D01*
X143250322Y-99802660D01*
X143706668Y-99802660D01*
X143797150Y-99800249D01*
X144072795Y-99757803D01*
X144204182Y-99679154D01*
X144320618Y-99633708D01*
X144592561Y-99736693D01*
X144980657Y-99887349D01*
X145364782Y-99885907D01*
X145811302Y-99715094D01*
X145867992Y-99685344D01*
X146342851Y-99300479D01*
X146641820Y-98776834D01*
X146665098Y-98635649D01*
X147328304Y-98635649D01*
X147426220Y-99055557D01*
X147679070Y-99458454D01*
X148023572Y-99742431D01*
X148344593Y-99856974D01*
X148880810Y-99905023D01*
X149318414Y-99817911D01*
X150687339Y-99817911D01*
X151134197Y-99781157D01*
X151581056Y-99744403D01*
X151613021Y-98579266D01*
X151615165Y-98504413D01*
X151639987Y-97961913D01*
X151680607Y-97604022D01*
X151744512Y-97387345D01*
X151839190Y-97268486D01*
X151971633Y-97182859D01*
X152228510Y-97138362D01*
X152520025Y-97287834D01*
X152566063Y-97325834D01*
X152660866Y-97461751D01*
X152725285Y-97687328D01*
X152769690Y-98050352D01*
X152804450Y-98598613D01*
X152862707Y-99744403D01*
X153299634Y-99780565D01*
X153736560Y-99816727D01*
X153736560Y-98120244D01*
X153736560Y-96423761D01*
X154552157Y-96423761D01*
X154552157Y-97534384D01*
X154554374Y-97773218D01*
X154600070Y-98477397D01*
X154712563Y-98998701D01*
X154902071Y-99371289D01*
X155178812Y-99629319D01*
X155198905Y-99642173D01*
X155682266Y-99829617D01*
X156230567Y-99870223D01*
X156729250Y-99754725D01*
X156974796Y-99611932D01*
X157222713Y-99340343D01*
X157386033Y-98946169D01*
X157432253Y-98668337D01*
X158284696Y-98668337D01*
X158356614Y-99085680D01*
X158607930Y-99466250D01*
X158818521Y-99669345D01*
X159104151Y-99814278D01*
X159510911Y-99877909D01*
X160047342Y-99857706D01*
X160523716Y-99666827D01*
X160885464Y-99287473D01*
X160966056Y-99162912D01*
X161056194Y-98967772D01*
X160986060Y-98842335D01*
X160732849Y-98698605D01*
X160710501Y-98687088D01*
X160475496Y-98589452D01*
X160308509Y-98624450D01*
X160097320Y-98812126D01*
X159820405Y-99036191D01*
X159560210Y-99087099D01*
X159278955Y-98949058D01*
X159195943Y-98874554D01*
X159126667Y-98688871D01*
X159216871Y-98449108D01*
X159478929Y-98131591D01*
X159925214Y-97712646D01*
X160141445Y-97516243D01*
X160572635Y-97056899D01*
X160815412Y-96656561D01*
X160884940Y-96283801D01*
X160796385Y-95907188D01*
X160674948Y-95686812D01*
X160324746Y-95360140D01*
X159877463Y-95188716D01*
X159389232Y-95178489D01*
X158916187Y-95335406D01*
X158514461Y-95665414D01*
X158438847Y-95787244D01*
X158467232Y-95936370D01*
X158655370Y-96152413D01*
X158953242Y-96450284D01*
X159293236Y-96198916D01*
X159431312Y-96112062D01*
X159722111Y-96022112D01*
X159941539Y-96070118D01*
X160028304Y-96251680D01*
X160018674Y-96285117D01*
X159887195Y-96469302D01*
X159875467Y-96482018D01*
X159633918Y-96743913D01*
X159300093Y-97062992D01*
X158940366Y-97397923D01*
X158609985Y-97748741D01*
X158411100Y-98044464D01*
X158312938Y-98333639D01*
X158284726Y-98664813D01*
X158284696Y-98668337D01*
X157432253Y-98668337D01*
X157477879Y-98394074D01*
X157511375Y-97648720D01*
X157523258Y-96482018D01*
X157086331Y-96445856D01*
X156649405Y-96409694D01*
X156649405Y-97510701D01*
X156649263Y-97601817D01*
X156638350Y-98122970D01*
X156603794Y-98473982D01*
X156536799Y-98709564D01*
X156428572Y-98884423D01*
X156330053Y-98995798D01*
X156142087Y-99096096D01*
X155880138Y-99041928D01*
X155875271Y-99040205D01*
X155671465Y-98932375D01*
X155532150Y-98753235D01*
X155445147Y-98462490D01*
X155398279Y-98019843D01*
X155379367Y-97385000D01*
X155367753Y-96423761D01*
X154959955Y-96423761D01*
X154552157Y-96423761D01*
X153736560Y-96423761D01*
X153352065Y-96423761D01*
X153339615Y-96423822D01*
X153040424Y-96459786D01*
X152849258Y-96542073D01*
X152691079Y-96589538D01*
X152376279Y-96483453D01*
X151925892Y-96365575D01*
X151449890Y-96449300D01*
X151035777Y-96737016D01*
X150987522Y-96790408D01*
X150886055Y-96936502D01*
X150817965Y-97124960D01*
X150774497Y-97403445D01*
X150746893Y-97819624D01*
X150726399Y-98421159D01*
X150711592Y-98950636D01*
X150687339Y-99817911D01*
X149318414Y-99817911D01*
X149376797Y-99806289D01*
X149429001Y-99780566D01*
X149678108Y-99594176D01*
X149938042Y-99329406D01*
X150256756Y-98950636D01*
X149896156Y-98722320D01*
X149535557Y-98494004D01*
X149253090Y-98798791D01*
X148990705Y-99014004D01*
X148673905Y-99095819D01*
X148400230Y-98963761D01*
X148378764Y-98941332D01*
X148273466Y-98735986D01*
X148327826Y-98496446D01*
X148555584Y-98194742D01*
X148970480Y-97802901D01*
X149123245Y-97667171D01*
X149624329Y-97154592D01*
X149917841Y-96706250D01*
X150009684Y-96301306D01*
X149905760Y-95918921D01*
X149611973Y-95538257D01*
X149546600Y-95476505D01*
X149093036Y-95208504D01*
X148602212Y-95157018D01*
X148109086Y-95319301D01*
X147648616Y-95692604D01*
X147642909Y-95698917D01*
X147521509Y-95861579D01*
X147545281Y-95992607D01*
X147729409Y-96184446D01*
X148013651Y-96451478D01*
X148327516Y-96204592D01*
X148636619Y-96005906D01*
X148876053Y-95981306D01*
X149081124Y-96138639D01*
X149117542Y-96195856D01*
X149118659Y-96313528D01*
X149016872Y-96480330D01*
X148787909Y-96730901D01*
X148407494Y-97099878D01*
X148104342Y-97392666D01*
X147725204Y-97792029D01*
X147487095Y-98107254D01*
X147469020Y-98146577D01*
X147363599Y-98375932D01*
X147328304Y-98635649D01*
X146665098Y-98635649D01*
X146745735Y-98146577D01*
X146702915Y-97703634D01*
X146503147Y-97149223D01*
X146169215Y-96724167D01*
X145733244Y-96454367D01*
X145227363Y-96365724D01*
X144683697Y-96484139D01*
X144633442Y-96504593D01*
X144332910Y-96590391D01*
X144203672Y-96545739D01*
X144186755Y-96521751D01*
X144006613Y-96451867D01*
X143706668Y-96423761D01*
X143250322Y-96423761D01*
X143250322Y-96784211D01*
X143250322Y-98113211D01*
X142321099Y-98113211D01*
X142323632Y-97868846D01*
X142342111Y-97539047D01*
X142381237Y-97346910D01*
X142448462Y-97249929D01*
X142551239Y-97205598D01*
X142559999Y-97203218D01*
X142733297Y-97073166D01*
X142784267Y-96784211D01*
X142780981Y-96675615D01*
X142719780Y-96476673D01*
X142551239Y-96423761D01*
X142466460Y-96416251D01*
X142370925Y-96343718D01*
X142328096Y-96148477D01*
X142318212Y-95775553D01*
X142318212Y-95127346D01*
X141939542Y-95163856D01*
X141740916Y-95191640D01*
X141612599Y-95269329D01*
X141554089Y-95455395D01*
X141525655Y-95812064D01*
X141515803Y-95961575D01*
X141475022Y-96255334D01*
X141396610Y-96390902D01*
X141256117Y-96423761D01*
X141149216Y-96435434D01*
X141057747Y-96538531D01*
X134132744Y-96538531D01*
X134126518Y-96027253D01*
X134111498Y-95418652D01*
X134090957Y-94985693D01*
X134064705Y-94717179D01*
X134032555Y-94601917D01*
X133954987Y-94547252D01*
X133715165Y-94486969D01*
X133303484Y-94453418D01*
X132689773Y-94443027D01*
X131478858Y-94443027D01*
X131486499Y-93615096D01*
X137121272Y-93615096D01*
X137151120Y-93693710D01*
X137266372Y-93556341D01*
X137462585Y-93201447D01*
X137492902Y-93143739D01*
X137843236Y-92619833D01*
X138330686Y-92054546D01*
X138895608Y-91511418D01*
X139478358Y-91053991D01*
X140441675Y-90475400D01*
X141630750Y-89914355D01*
X142966623Y-89410163D01*
X144406186Y-88977311D01*
X145906333Y-88630288D01*
X147423957Y-88383580D01*
X147720858Y-88347133D01*
X148139182Y-88306051D01*
X148400859Y-88303987D01*
X148554158Y-88342504D01*
X148647351Y-88423162D01*
X148668815Y-88450947D01*
X148830075Y-88660957D01*
X149077620Y-88984307D01*
X149367294Y-89363333D01*
X149458293Y-89481389D01*
X149722504Y-89810903D01*
X149923103Y-90041498D01*
X150022398Y-90129116D01*
X150038413Y-90124377D01*
X150197085Y-90024439D01*
X150474946Y-89821154D01*
X150823716Y-89549449D01*
X150919598Y-89473376D01*
X151256712Y-89215479D01*
X151511926Y-89034902D01*
X151636105Y-88966881D01*
X151751591Y-89031716D01*
X151938668Y-89208826D01*
X152077577Y-89381711D01*
X152065218Y-89503100D01*
X151877959Y-89661725D01*
X151598292Y-89872678D01*
X152545465Y-91080101D01*
X152566644Y-91107092D01*
X152955467Y-91600383D01*
X153322066Y-92061696D01*
X153626071Y-92440445D01*
X153827114Y-92686047D01*
X154161591Y-93084572D01*
X154939443Y-92461241D01*
X155080346Y-92347019D01*
X155406000Y-92071458D01*
X155632419Y-91862666D01*
X155717294Y-91758847D01*
X155714494Y-91751133D01*
X155621328Y-91612323D01*
X155415805Y-91332279D01*
X155124634Y-90945794D01*
X154774527Y-90487663D01*
X154392194Y-89992682D01*
X154004345Y-89495645D01*
X153637691Y-89031347D01*
X153318942Y-88634583D01*
X153224090Y-88656887D01*
X153022453Y-88777868D01*
X152884116Y-88867138D01*
X152723748Y-88895899D01*
X152548864Y-88771694D01*
X152399685Y-88596707D01*
X152352988Y-88376107D01*
X152506153Y-88228355D01*
X152522707Y-88223025D01*
X152773587Y-88203517D01*
X153205703Y-88221124D01*
X153776594Y-88270597D01*
X154443800Y-88346682D01*
X155164862Y-88444130D01*
X155897319Y-88557690D01*
X156598712Y-88682109D01*
X157226581Y-88812138D01*
X157296458Y-88828159D01*
X158623077Y-89187427D01*
X159887314Y-89631249D01*
X161064865Y-90145324D01*
X162131426Y-90715354D01*
X163062694Y-91327038D01*
X163834364Y-91966078D01*
X164422133Y-92618175D01*
X164801697Y-93269029D01*
X164813424Y-93296646D01*
X164941241Y-93531169D01*
X165046958Y-93627431D01*
X165066676Y-93618978D01*
X165076576Y-93473353D01*
X165009472Y-93189999D01*
X164883981Y-92825065D01*
X164718716Y-92434702D01*
X164532294Y-92075058D01*
X164218694Y-91644276D01*
X163760196Y-91147194D01*
X163214945Y-90638721D01*
X162640179Y-90172223D01*
X162093140Y-89801062D01*
X161539006Y-89495428D01*
X160390433Y-88969871D01*
X159101102Y-88493841D01*
X157729805Y-88085941D01*
X156335330Y-87764777D01*
X154976469Y-87548951D01*
X154610111Y-87503527D01*
X154177431Y-87438380D01*
X153920573Y-87376089D01*
X153804497Y-87306941D01*
X153794167Y-87221224D01*
X153795950Y-87210776D01*
X153734094Y-87039863D01*
X153560500Y-86747789D01*
X153309424Y-86379675D01*
X153015125Y-85980642D01*
X152711858Y-85595810D01*
X152433882Y-85270301D01*
X152215454Y-85049235D01*
X152090830Y-84977732D01*
X152070896Y-84986257D01*
X151894703Y-85099653D01*
X151601630Y-85312407D01*
X151243349Y-85587351D01*
X150918057Y-85840465D01*
X150670430Y-86014192D01*
X150516245Y-86076019D01*
X150407556Y-86043509D01*
X150296419Y-85934224D01*
X150165327Y-85767996D01*
X150170982Y-85633339D01*
X150333554Y-85438872D01*
X150580800Y-85175690D01*
X149358147Y-83634129D01*
X149043818Y-83240708D01*
X148671798Y-82783334D01*
X148368145Y-82419547D01*
X148157965Y-82179306D01*
X148066360Y-82092569D01*
X148040400Y-82102749D01*
X147864490Y-82214863D01*
X147569454Y-82424544D01*
X147202169Y-82698905D01*
X147126079Y-82757572D01*
X146757157Y-83067370D01*
X146541504Y-83298122D01*
X146500986Y-83427116D01*
X146828054Y-83849026D01*
X147371510Y-84537786D01*
X147867060Y-85150721D01*
X148296206Y-85665799D01*
X148640448Y-86060988D01*
X148881286Y-86314259D01*
X149000224Y-86403578D01*
X149084037Y-86387364D01*
X149287029Y-86262467D01*
X149331978Y-86224416D01*
X149477723Y-86212886D01*
X149684235Y-86377450D01*
X149689405Y-86382621D01*
X149855321Y-86565345D01*
X149860924Y-86678485D01*
X149712069Y-86813808D01*
X149544443Y-86941775D01*
X149282126Y-87110857D01*
X148999821Y-87235525D01*
X148644537Y-87332480D01*
X148163285Y-87418424D01*
X147503074Y-87510060D01*
X147353626Y-87530019D01*
X145713796Y-87810614D01*
X144128825Y-88191507D01*
X142642094Y-88659207D01*
X141296980Y-89200222D01*
X140136862Y-89801062D01*
X139592130Y-90170493D01*
X139017362Y-90636713D01*
X138471876Y-91145123D01*
X138012911Y-91642359D01*
X137697708Y-92075058D01*
X137627816Y-92200911D01*
X137406243Y-92670796D01*
X137237902Y-93123493D01*
X137181272Y-93322042D01*
X137121272Y-93615096D01*
X131486499Y-93615096D01*
X131509774Y-91093257D01*
X131540689Y-87743486D01*
X141211331Y-82885243D01*
X141473971Y-82753322D01*
X142866681Y-82054491D01*
X144198324Y-81387477D01*
X145454195Y-80759582D01*
X146619589Y-80178105D01*
X147679800Y-79650348D01*
X148620125Y-79183613D01*
X149425857Y-78785200D01*
X150082292Y-78462410D01*
X150574724Y-78222545D01*
X150888448Y-78072906D01*
X151008761Y-78020793D01*
X151017628Y-78023005D01*
X151181256Y-78094295D01*
X151535626Y-78260683D01*
X152066039Y-78514979D01*
X152757800Y-78849995D01*
X153596211Y-79258541D01*
X154566576Y-79733426D01*
X155654196Y-80267462D01*
X156844376Y-80853459D01*
X158122418Y-81484227D01*
X159473626Y-82152576D01*
X160883302Y-82851318D01*
X170631056Y-87688048D01*
X170631056Y-91065538D01*
X170631056Y-93473353D01*
X170631056Y-94443027D01*
G37*
%TD*%
M02*
