%TF.GenerationSoftware,KiCad,Pcbnew,10.0.4*%
%TF.CreationDate,2026-08-13T16:03:49+01:00*%
%TF.ProjectId,EPS,4550532e-6b69-4636-9164-5f7063625858,rev?*%
%TF.SameCoordinates,Original*%
%TF.FileFunction,Copper,L3,Inr*%
%TF.FilePolarity,Positive*%
%FSLAX46Y46*%
G04 Gerber Fmt 4.6, Leading zero omitted, Abs format (unit mm)*
G04 Created by KiCad (PCBNEW 10.0.4) date 2026-08-13 16:03:49*
%MOMM*%
%LPD*%
G01*
G04 APERTURE LIST*
G04 Aperture macros list*
%AMRoundRect*
0 Rectangle with rounded corners*
0 $1 Rounding radius*
0 $2 $3 $4 $5 $6 $7 $8 $9 X,Y pos of 4 corners*
0 Add a 4 corners polygon primitive as box body*
4,1,4,$2,$3,$4,$5,$6,$7,$8,$9,$2,$3,0*
0 Add four circle primitives for the rounded corners*
1,1,$1+$1,$2,$3*
1,1,$1+$1,$4,$5*
1,1,$1+$1,$6,$7*
1,1,$1+$1,$8,$9*
0 Add four rect primitives between the rounded corners*
20,1,$1+$1,$2,$3,$4,$5,0*
20,1,$1+$1,$4,$5,$6,$7,0*
20,1,$1+$1,$6,$7,$8,$9,0*
20,1,$1+$1,$8,$9,$2,$3,0*%
%AMFreePoly0*
4,1,13,2.503536,1.503536,2.505000,1.500000,2.505000,-1.500000,2.503536,-1.503536,2.500000,-1.505000,-2.500000,-1.505000,-2.503536,-1.503536,-2.505000,-1.500000,-2.505000,1.500000,-2.503536,1.503536,-2.500000,1.505000,2.500000,1.505000,2.503536,1.503536,2.503536,1.503536,$1*%
G04 Aperture macros list end*
%TA.AperFunction,ComponentPad*%
%ADD10O,5.500000X3.800000*%
%TD*%
%TA.AperFunction,ComponentPad*%
%ADD11O,5.300000X3.800000*%
%TD*%
%TA.AperFunction,ComponentPad*%
%ADD12C,3.000000*%
%TD*%
%TA.AperFunction,ComponentPad*%
%ADD13R,1.800000X1.800000*%
%TD*%
%TA.AperFunction,ComponentPad*%
%ADD14C,1.800000*%
%TD*%
%TA.AperFunction,ComponentPad*%
%ADD15C,2.000000*%
%TD*%
%TA.AperFunction,ComponentPad*%
%ADD16FreePoly0,90.000000*%
%TD*%
%TA.AperFunction,ComponentPad*%
%ADD17R,1.700000X1.700000*%
%TD*%
%TA.AperFunction,ComponentPad*%
%ADD18C,1.700000*%
%TD*%
%TA.AperFunction,ComponentPad*%
%ADD19RoundRect,0.250001X0.949999X-0.949999X0.949999X0.949999X-0.949999X0.949999X-0.949999X-0.949999X0*%
%TD*%
%TA.AperFunction,ComponentPad*%
%ADD20C,2.400000*%
%TD*%
%TA.AperFunction,ComponentPad*%
%ADD21RoundRect,0.250000X-0.550000X-0.550000X0.550000X-0.550000X0.550000X0.550000X-0.550000X0.550000X0*%
%TD*%
%TA.AperFunction,ComponentPad*%
%ADD22C,1.600000*%
%TD*%
%TA.AperFunction,ComponentPad*%
%ADD23C,1.270000*%
%TD*%
%TA.AperFunction,ComponentPad*%
%ADD24O,3.800000X5.500000*%
%TD*%
%TA.AperFunction,ComponentPad*%
%ADD25O,3.800000X5.300000*%
%TD*%
%TA.AperFunction,ViaPad*%
%ADD26C,0.600000*%
%TD*%
%TA.AperFunction,Conductor*%
%ADD27C,0.200000*%
%TD*%
G04 APERTURE END LIST*
D10*
%TO.N,Net-(U2-VOUT+)*%
%TO.C,F7*%
X136550000Y-82680000D03*
D11*
%TO.N,28V*%
X144550000Y-82680000D03*
%TD*%
D12*
%TO.N,GND*%
%TO.C,U3*%
X158350000Y-112260000D03*
%TO.N,Net-(U3-VIN+)*%
X158350000Y-129400000D03*
%TO.N,GND*%
X118850000Y-112260000D03*
%TO.N,Net-(U3-VOUT+)*%
X118850000Y-129400000D03*
%TD*%
D13*
%TO.N,GND*%
%TO.C,D4*%
X175145000Y-125675000D03*
D14*
%TO.N,Net-(D4-A)*%
X175145000Y-123135000D03*
%TD*%
D15*
%TO.N,5V*%
%TO.C,TP3*%
X174365000Y-131280000D03*
%TD*%
D10*
%TO.N,14.8V*%
%TO.C,F6*%
X150600000Y-82655000D03*
D11*
%TO.N,Net-(U2-VIN+)*%
X158600000Y-82655000D03*
%TD*%
D16*
%TO.N,GND*%
%TO.C,U2*%
X174200000Y-75505000D03*
%TO.N,Net-(U2-VIN+)*%
X167000000Y-75505000D03*
%TO.N,GND*%
X174200000Y-107055000D03*
%TO.N,Net-(U2-VOUT+)*%
X167000000Y-107055000D03*
%TD*%
D15*
%TO.N,28V*%
%TO.C,TP4*%
X163865000Y-131280000D03*
%TD*%
D10*
%TO.N,Net-(U3-VOUT+)*%
%TO.C,F5*%
X136550000Y-77805000D03*
D11*
%TO.N,5V*%
X144550000Y-77805000D03*
%TD*%
D17*
%TO.N,GND*%
%TO.C,J1*%
X109060000Y-60340000D03*
D18*
X111600000Y-60340000D03*
X109060000Y-62880000D03*
X111600000Y-62880000D03*
%TO.N,3V3*%
X109060000Y-65420000D03*
X111600000Y-65420000D03*
X109060000Y-67960000D03*
X111600000Y-67960000D03*
%TO.N,5V*%
X109060000Y-70500000D03*
X111600000Y-70500000D03*
X109060000Y-73040000D03*
X111600000Y-73040000D03*
%TO.N,14.8V*%
X109060000Y-75580000D03*
X111600000Y-75580000D03*
X109060000Y-78120000D03*
X111600000Y-78120000D03*
%TO.N,28V*%
X109060000Y-80660000D03*
X111600000Y-80660000D03*
X109060000Y-83200000D03*
X111600000Y-83200000D03*
%TO.N,VBAT*%
X109060000Y-85740000D03*
X111600000Y-85740000D03*
%TO.N,SCL*%
X109060000Y-88280000D03*
%TO.N,XB_RESET*%
X111600000Y-88280000D03*
%TO.N,SDA*%
X109060000Y-90820000D03*
%TO.N,BNO_INT*%
X111600000Y-90820000D03*
%TO.N,INA_ALERT*%
X109060000Y-93360000D03*
%TO.N,MICROFC*%
X111600000Y-93360000D03*
%TO.N,S1223*%
X109060000Y-95900000D03*
%TO.N,BNO_RST*%
X111600000Y-95900000D03*
%TO.N,unconnected-(J1-Pin_31-Pad31)*%
X109060000Y-98440000D03*
%TO.N,unconnected-(J1-Pin_32-Pad32)*%
X111600000Y-98440000D03*
%TO.N,unconnected-(J1-Pin_33-Pad33)*%
X109060000Y-100980000D03*
%TO.N,unconnected-(J1-Pin_34-Pad34)*%
X111600000Y-100980000D03*
%TO.N,unconnected-(J1-Pin_35-Pad35)*%
X109060000Y-103520000D03*
%TO.N,unconnected-(J1-Pin_36-Pad36)*%
X111600000Y-103520000D03*
%TO.N,unconnected-(J1-Pin_37-Pad37)*%
X109060000Y-106060000D03*
%TO.N,unconnected-(J1-Pin_38-Pad38)*%
X111600000Y-106060000D03*
%TO.N,BPW34_OUT*%
X109060000Y-108600000D03*
%TO.N,GNSS_PPS*%
X111600000Y-108600000D03*
%TO.N,GNSS_FIX*%
X109060000Y-111140000D03*
%TO.N,GNSS_EN*%
X111600000Y-111140000D03*
%TO.N,RX2*%
X109060000Y-113680000D03*
%TO.N,RX1*%
X111600000Y-113680000D03*
%TO.N,TX2*%
X109060000Y-116220000D03*
%TO.N,TX1*%
X111600000Y-116220000D03*
%TO.N,GND*%
X109060000Y-118760000D03*
X111600000Y-118760000D03*
X109060000Y-121300000D03*
X111600000Y-121300000D03*
%TD*%
D19*
%TO.N,GND*%
%TO.C,D1*%
X183100000Y-74940000D03*
D20*
%TO.N,Net-(BT2--)*%
X183100000Y-64780000D03*
%TD*%
D21*
%TO.N,3V3*%
%TO.C,C2*%
X116100000Y-70330000D03*
D22*
%TO.N,GND*%
X119600000Y-70330000D03*
%TD*%
D10*
%TO.N,14.8V*%
%TO.C,F4*%
X150600000Y-77780000D03*
D11*
%TO.N,Net-(U3-VIN+)*%
X158600000Y-77780000D03*
%TD*%
D10*
%TO.N,Net-(U4-VOUT+)*%
%TO.C,F3*%
X136550000Y-73405000D03*
D11*
%TO.N,3V3*%
X144550000Y-73405000D03*
%TD*%
D12*
%TO.N,GND*%
%TO.C,U4*%
X158350000Y-88210000D03*
%TO.N,Net-(U4-VIN+)*%
X158350000Y-105350000D03*
%TO.N,GND*%
X118850000Y-88210000D03*
%TO.N,Net-(U4-VOUT+)*%
X118850000Y-105350000D03*
%TD*%
D10*
%TO.N,14.8V*%
%TO.C,F2*%
X150600000Y-73380000D03*
D11*
%TO.N,Net-(U4-VIN+)*%
X158600000Y-73380000D03*
%TD*%
D17*
%TO.N,GND*%
%TO.C,J2*%
X187825000Y-60300000D03*
D18*
X190365000Y-60300000D03*
X187825000Y-62840000D03*
X190365000Y-62840000D03*
%TO.N,3V3*%
X187825000Y-65380000D03*
X190365000Y-65380000D03*
X187825000Y-67920000D03*
X190365000Y-67920000D03*
%TO.N,5V*%
X187825000Y-70460000D03*
X190365000Y-70460000D03*
X187825000Y-73000000D03*
X190365000Y-73000000D03*
%TO.N,14.8V*%
X187825000Y-75540000D03*
X190365000Y-75540000D03*
X187825000Y-78080000D03*
X190365000Y-78080000D03*
%TO.N,28V*%
X187825000Y-80620000D03*
X190365000Y-80620000D03*
X187825000Y-83160000D03*
X190365000Y-83160000D03*
%TO.N,VBAT*%
X187825000Y-85700000D03*
X190365000Y-85700000D03*
%TO.N,SCL*%
X187825000Y-88240000D03*
%TO.N,XB_RESET*%
X190365000Y-88240000D03*
%TO.N,SDA*%
X187825000Y-90780000D03*
%TO.N,BNO_INT*%
X190365000Y-90780000D03*
%TO.N,INA_ALERT*%
X187825000Y-93320000D03*
%TO.N,MICROFC*%
X190365000Y-93320000D03*
%TO.N,S1223*%
X187825000Y-95860000D03*
%TO.N,BNO_RST*%
X190365000Y-95860000D03*
%TO.N,unconnected-(J2-Pin_31-Pad31)*%
X187825000Y-98400000D03*
%TO.N,unconnected-(J2-Pin_32-Pad32)*%
X190365000Y-98400000D03*
%TO.N,unconnected-(J2-Pin_33-Pad33)*%
X187825000Y-100940000D03*
%TO.N,unconnected-(J2-Pin_34-Pad34)*%
X190365000Y-100940000D03*
%TO.N,unconnected-(J2-Pin_35-Pad35)*%
X187825000Y-103480000D03*
%TO.N,unconnected-(J2-Pin_36-Pad36)*%
X190365000Y-103480000D03*
%TO.N,unconnected-(J2-Pin_37-Pad37)*%
X187825000Y-106020000D03*
%TO.N,unconnected-(J2-Pin_38-Pad38)*%
X190365000Y-106020000D03*
%TO.N,BPW34_OUT*%
X187825000Y-108560000D03*
%TO.N,GNSS_PPS*%
X190365000Y-108560000D03*
%TO.N,GNSS_FIX*%
X187825000Y-111100000D03*
%TO.N,GNSS_EN*%
X190365000Y-111100000D03*
%TO.N,RX2*%
X187825000Y-113640000D03*
%TO.N,RX1*%
X190365000Y-113640000D03*
%TO.N,TX2*%
X187825000Y-116180000D03*
%TO.N,TX1*%
X190365000Y-116180000D03*
%TO.N,GND*%
X187825000Y-118720000D03*
X190365000Y-118720000D03*
X187825000Y-121260000D03*
X190365000Y-121260000D03*
%TD*%
D21*
%TO.N,Net-(BT1-+)*%
%TO.C,C1*%
X116100000Y-60780000D03*
D22*
%TO.N,GND*%
X119600000Y-60780000D03*
%TD*%
D15*
%TO.N,Net-(BT1-+)*%
%TO.C,TP1*%
X124615000Y-50560000D03*
%TD*%
D23*
%TO.N,INA_ALERT*%
%TO.C,U1*%
X141245000Y-65710000D03*
%TO.N,SDA*%
X143785000Y-65710000D03*
%TO.N,SCL*%
X146325000Y-65710000D03*
%TO.N,3V3*%
X151405000Y-65710000D03*
%TO.N,GND*%
X148865000Y-65710000D03*
%TO.N,INA_14.8V*%
X138705000Y-65710000D03*
%TO.N,14.8V*%
X136165000Y-65710000D03*
D12*
X145515000Y-50960000D03*
D23*
%TO.N,INA_14.8V*%
X133625000Y-65710000D03*
D12*
X139515000Y-50960000D03*
%TD*%
D21*
%TO.N,28V*%
%TO.C,C4*%
X126600000Y-79780000D03*
D22*
%TO.N,GND*%
X130100000Y-79780000D03*
%TD*%
D13*
%TO.N,GND*%
%TO.C,D3*%
X169675000Y-125675000D03*
D14*
%TO.N,Net-(D3-A)*%
X169675000Y-123135000D03*
%TD*%
D24*
%TO.N,Net-(BT1-+)*%
%TO.C,F1*%
X129100000Y-51780000D03*
D25*
%TO.N,INA_14.8V*%
X129100000Y-59780000D03*
%TD*%
D13*
%TO.N,GND*%
%TO.C,D5*%
X180615000Y-125675000D03*
D14*
%TO.N,Net-(D5-A)*%
X180615000Y-123135000D03*
%TD*%
D22*
%TO.N,3V3*%
%TO.C,R4*%
X180615000Y-120650000D03*
%TO.N,Net-(D5-A)*%
X180615000Y-113030000D03*
%TD*%
D15*
%TO.N,3V3*%
%TO.C,TP2*%
X179865000Y-131280000D03*
%TD*%
D22*
%TO.N,28V*%
%TO.C,R1*%
X164115000Y-120710000D03*
%TO.N,Net-(D2-A)*%
X164115000Y-113090000D03*
%TD*%
D15*
%TO.N,VBAT*%
%TO.C,TP5*%
X155615000Y-50560000D03*
%TD*%
D22*
%TO.N,5V*%
%TO.C,R3*%
X175115000Y-120650000D03*
%TO.N,Net-(D4-A)*%
X175115000Y-113030000D03*
%TD*%
D17*
%TO.N,Net-(BT1-+)*%
%TO.C,BT1*%
X117660000Y-50515000D03*
D18*
%TO.N,GND*%
X120200000Y-50515000D03*
%TD*%
D22*
%TO.N,14.8V*%
%TO.C,R2*%
X169615000Y-120400000D03*
%TO.N,Net-(D3-A)*%
X169615000Y-112780000D03*
%TD*%
D21*
%TO.N,5V*%
%TO.C,C3*%
X116100000Y-79880000D03*
D22*
%TO.N,GND*%
X119600000Y-79880000D03*
%TD*%
D13*
%TO.N,GND*%
%TO.C,D2*%
X164205000Y-125675000D03*
D14*
%TO.N,Net-(D2-A)*%
X164205000Y-123135000D03*
%TD*%
D26*
%TO.N,GND*%
X154615000Y-87810000D03*
X139115000Y-70310000D03*
%TO.N,5V*%
X179615000Y-81060000D03*
%TO.N,14.8V*%
X150600000Y-82655000D03*
X150615000Y-106060000D03*
X159615000Y-117060000D03*
X121365000Y-74310000D03*
%TO.N,3V3*%
X187825000Y-67920000D03*
X185365000Y-116060000D03*
%TO.N,VBAT*%
X138615000Y-64310000D03*
X185115000Y-63560000D03*
%TO.N,SCL*%
X114865000Y-91060000D03*
%TO.N,MICROFC*%
X181750000Y-96000000D03*
X154500000Y-96000000D03*
X113745000Y-95505000D03*
%TO.N,S1223*%
X187825000Y-95860000D03*
%TD*%
%TO.N,14.8V*%
D27*
X152800000Y-79980000D02*
X150600000Y-77780000D01*
X185925000Y-79980000D02*
X152800000Y-79980000D01*
X187825000Y-78080000D02*
X185925000Y-79980000D01*
%TO.N,SCL*%
X185005000Y-91060000D02*
X114865000Y-91060000D01*
X187825000Y-88240000D02*
X185005000Y-91060000D01*
%TO.N,SDA*%
X109060000Y-90820000D02*
X110210000Y-89670000D01*
X113527290Y-89670000D02*
X137770000Y-65427290D01*
X141785000Y-63710000D02*
X143785000Y-65710000D01*
X110210000Y-89670000D02*
X113527290Y-89670000D01*
X107910000Y-91970000D02*
X109060000Y-90820000D01*
X138366471Y-63710000D02*
X141785000Y-63710000D01*
X184095000Y-94510000D02*
X108583654Y-94510000D01*
X137770000Y-65427290D02*
X137770000Y-64306471D01*
X107910000Y-93836346D02*
X107910000Y-91970000D01*
X137770000Y-64306471D02*
X138366471Y-63710000D01*
X187825000Y-90780000D02*
X184095000Y-94510000D01*
X108583654Y-94510000D02*
X107910000Y-93836346D01*
%TO.N,INA_ALERT*%
X127057290Y-78680000D02*
X125366346Y-78680000D01*
X141245000Y-65710000D02*
X140027290Y-65710000D01*
X111836346Y-92210000D02*
X110210000Y-92210000D01*
X140027290Y-65710000D02*
X127057290Y-78680000D01*
X125366346Y-78680000D02*
X111836346Y-92210000D01*
X110210000Y-92210000D02*
X109060000Y-93360000D01*
%TO.N,BPW34_OUT*%
X187825000Y-108560000D02*
X186515000Y-109870000D01*
X110330000Y-109870000D02*
X109060000Y-108600000D01*
X186515000Y-109870000D02*
X110330000Y-109870000D01*
%TO.N,GNSS_FIX*%
X109060000Y-111140000D02*
X110210000Y-112290000D01*
X160824365Y-114060000D02*
X163784365Y-111100000D01*
X163784365Y-111100000D02*
X187825000Y-111100000D01*
X118104415Y-114060000D02*
X160824365Y-114060000D01*
X110210000Y-112290000D02*
X116334415Y-112290000D01*
X116334415Y-112290000D02*
X118104415Y-114060000D01*
%TO.N,RX2*%
X110210000Y-114830000D02*
X109060000Y-113680000D01*
X186635000Y-114830000D02*
X110210000Y-114830000D01*
X187825000Y-113640000D02*
X186635000Y-114830000D01*
%TO.N,TX2*%
X110210000Y-117370000D02*
X159076471Y-117370000D01*
X186345000Y-117660000D02*
X187825000Y-116180000D01*
X159366471Y-117660000D02*
X186345000Y-117660000D01*
X109060000Y-116220000D02*
X110210000Y-117370000D01*
X159076471Y-117370000D02*
X159366471Y-117660000D01*
%TO.N,MICROFC*%
X114255000Y-95505000D02*
X114750000Y-96000000D01*
X114750000Y-96000000D02*
X154500000Y-96000000D01*
X113745000Y-95505000D02*
X114255000Y-95505000D01*
%TO.N,S1223*%
X109060000Y-95900000D02*
X110210000Y-97050000D01*
X186635000Y-97050000D02*
X187825000Y-95860000D01*
X110210000Y-97050000D02*
X186635000Y-97050000D01*
%TD*%
M02*
