M48
; DRILL file KiCad 10.0.4 date 2026-08-13T16:03:40
; FORMAT={-:-/ absolute / metric / decimal}
; #@! TF.CreationDate,2026-08-13T16:03:40+01:00
; #@! TF.GenerationSoftware,Kicad,Pcbnew,10.0.4
; #@! TF.FileFunction,Plated,1,4,PTH
FMAT,2
METRIC
; #@! TA.AperFunction,Plated,PTH,ViaDrill
T1C0.300
; #@! TA.AperFunction,Plated,PTH,ComponentDrill
T2C0.800
; #@! TA.AperFunction,Plated,PTH,ComponentDrill
T3C0.900
; #@! TA.AperFunction,Plated,PTH,ComponentDrill
T4C0.920
; #@! TA.AperFunction,Plated,PTH,ComponentDrill
T5C1.000
; #@! TA.AperFunction,Plated,PTH,ComponentDrill
T6C1.200
; #@! TA.AperFunction,Plated,PTH,ComponentDrill
T7C1.500
; #@! TA.AperFunction,Plated,PTH,ComponentDrill
T8C1.520
; #@! TA.AperFunction,Plated,PTH,ComponentDrill
T9C2.000
%
G90
G05
T1
X113.745Y-95.505
X114.865Y-91.06
X121.365Y-74.31
X138.615Y-64.31
X139.115Y-70.31
X150.6Y-82.655
X150.615Y-106.06
X154.5Y-96.0
X154.615Y-87.81
X159.615Y-117.06
X179.615Y-81.06
X181.75Y-96.0
X185.115Y-63.56
X185.365Y-116.06
X187.825Y-67.92
X187.825Y-95.86
T2
X116.1Y-60.78
X116.1Y-70.33
X116.1Y-79.88
X119.6Y-60.78
X119.6Y-70.33
X119.6Y-79.88
X126.6Y-79.78
X130.1Y-79.78
X164.115Y-113.09
X164.115Y-120.71
X169.615Y-112.78
X169.615Y-120.4
X175.115Y-113.03
X175.115Y-120.65
X180.615Y-113.03
X180.615Y-120.65
T3
X164.205Y-123.135
X164.205Y-125.675
X169.675Y-123.135
X169.675Y-125.675
X175.145Y-123.135
X175.145Y-125.675
X180.615Y-123.135
X180.615Y-125.675
T4
X133.625Y-65.71
X136.165Y-65.71
X138.705Y-65.71
X141.245Y-65.71
X143.785Y-65.71
X146.325Y-65.71
X148.865Y-65.71
X151.405Y-65.71
T5
X109.06Y-60.34
X109.06Y-62.88
X109.06Y-65.42
X109.06Y-67.96
X109.06Y-70.5
X109.06Y-73.04
X109.06Y-75.58
X109.06Y-78.12
X109.06Y-80.66
X109.06Y-83.2
X109.06Y-85.74
X109.06Y-88.28
X109.06Y-90.82
X109.06Y-93.36
X109.06Y-95.9
X109.06Y-98.44
X109.06Y-100.98
X109.06Y-103.52
X109.06Y-106.06
X109.06Y-108.6
X109.06Y-111.14
X109.06Y-113.68
X109.06Y-116.22
X109.06Y-118.76
X109.06Y-121.3
X111.6Y-60.34
X111.6Y-62.88
X111.6Y-65.42
X111.6Y-67.96
X111.6Y-70.5
X111.6Y-73.04
X111.6Y-75.58
X111.6Y-78.12
X111.6Y-80.66
X111.6Y-83.2
X111.6Y-85.74
X111.6Y-88.28
X111.6Y-90.82
X111.6Y-93.36
X111.6Y-95.9
X111.6Y-98.44
X111.6Y-100.98
X111.6Y-103.52
X111.6Y-106.06
X111.6Y-108.6
X111.6Y-111.14
X111.6Y-113.68
X111.6Y-116.22
X111.6Y-118.76
X111.6Y-121.3
X117.66Y-50.515
X120.2Y-50.515
X124.615Y-50.56
X155.615Y-50.56
X163.865Y-131.28
X174.365Y-131.28
X179.865Y-131.28
X187.825Y-60.3
X187.825Y-62.84
X187.825Y-65.38
X187.825Y-67.92
X187.825Y-70.46
X187.825Y-73.0
X187.825Y-75.54
X187.825Y-78.08
X187.825Y-80.62
X187.825Y-83.16
X187.825Y-85.7
X187.825Y-88.24
X187.825Y-90.78
X187.825Y-93.32
X187.825Y-95.86
X187.825Y-98.4
X187.825Y-100.94
X187.825Y-103.48
X187.825Y-106.02
X187.825Y-108.56
X187.825Y-111.1
X187.825Y-113.64
X187.825Y-116.18
X187.825Y-118.72
X187.825Y-121.26
X190.365Y-60.3
X190.365Y-62.84
X190.365Y-65.38
X190.365Y-67.92
X190.365Y-70.46
X190.365Y-73.0
X190.365Y-75.54
X190.365Y-78.08
X190.365Y-80.62
X190.365Y-83.16
X190.365Y-85.7
X190.365Y-88.24
X190.365Y-90.78
X190.365Y-93.32
X190.365Y-95.86
X190.365Y-98.4
X190.365Y-100.94
X190.365Y-103.48
X190.365Y-106.02
X190.365Y-108.56
X190.365Y-111.1
X190.365Y-113.64
X190.365Y-116.18
X190.365Y-118.72
X190.365Y-121.26
T6
X183.1Y-64.78
X183.1Y-74.94
T7
X167.0Y-75.505
X167.0Y-107.055
X174.2Y-75.505
X174.2Y-107.055
T8
X118.85Y-88.21
X118.85Y-105.35
X118.85Y-112.26
X118.85Y-129.4
X158.35Y-88.21
X158.35Y-105.35
X158.35Y-112.26
X158.35Y-129.4
T9
X139.515Y-50.96
X145.515Y-50.96
T9
G00X129.1Y-51.03
M15
G01X129.1Y-52.53
M16
G05
G00X129.1Y-59.03
M15
G01X129.1Y-60.53
M16
G05
G00X135.8Y-73.405
M15
G01X137.3Y-73.405
M16
G05
G00X135.8Y-77.805
M15
G01X137.3Y-77.805
M16
G05
G00X135.8Y-82.68
M15
G01X137.3Y-82.68
M16
G05
G00X143.8Y-73.405
M15
G01X145.3Y-73.405
M16
G05
G00X143.8Y-77.805
M15
G01X145.3Y-77.805
M16
G05
G00X143.8Y-82.68
M15
G01X145.3Y-82.68
M16
G05
G00X149.85Y-73.38
M15
G01X151.35Y-73.38
M16
G05
G00X149.85Y-77.78
M15
G01X151.35Y-77.78
M16
G05
G00X149.85Y-82.655
M15
G01X151.35Y-82.655
M16
G05
G00X157.85Y-73.38
M15
G01X159.35Y-73.38
M16
G05
G00X157.85Y-77.78
M15
G01X159.35Y-77.78
M16
G05
G00X157.85Y-82.655
M15
G01X159.35Y-82.655
M16
G05
M30
