%TF.GenerationSoftware,KiCad,Pcbnew,10.0.4*%
%TF.CreationDate,2026-08-13T16:03:49+01:00*%
%TF.ProjectId,EPS,4550532e-6b69-4636-9164-5f7063625858,rev?*%
%TF.SameCoordinates,Original*%
%TF.FileFunction,Legend,Top*%
%TF.FilePolarity,Positive*%
%FSLAX46Y46*%
G04 Gerber Fmt 4.6, Leading zero omitted, Abs format (unit mm)*
G04 Created by KiCad (PCBNEW 10.0.4) date 2026-08-13 16:03:49*
%MOMM*%
%LPD*%
G01*
G04 APERTURE LIST*
%ADD10C,0.150000*%
%ADD11C,0.100000*%
%ADD12C,0.120000*%
%ADD13C,0.127000*%
G04 APERTURE END LIST*
D10*
X140166666Y-82111009D02*
X139833333Y-82111009D01*
X139833333Y-82634819D02*
X139833333Y-81634819D01*
X139833333Y-81634819D02*
X140309523Y-81634819D01*
X140595238Y-81634819D02*
X141261904Y-81634819D01*
X141261904Y-81634819D02*
X140833333Y-82634819D01*
X137838095Y-132284819D02*
X137838095Y-133094342D01*
X137838095Y-133094342D02*
X137885714Y-133189580D01*
X137885714Y-133189580D02*
X137933333Y-133237200D01*
X137933333Y-133237200D02*
X138028571Y-133284819D01*
X138028571Y-133284819D02*
X138219047Y-133284819D01*
X138219047Y-133284819D02*
X138314285Y-133237200D01*
X138314285Y-133237200D02*
X138361904Y-133189580D01*
X138361904Y-133189580D02*
X138409523Y-133094342D01*
X138409523Y-133094342D02*
X138409523Y-132284819D01*
X138790476Y-132284819D02*
X139409523Y-132284819D01*
X139409523Y-132284819D02*
X139076190Y-132665771D01*
X139076190Y-132665771D02*
X139219047Y-132665771D01*
X139219047Y-132665771D02*
X139314285Y-132713390D01*
X139314285Y-132713390D02*
X139361904Y-132761009D01*
X139361904Y-132761009D02*
X139409523Y-132856247D01*
X139409523Y-132856247D02*
X139409523Y-133094342D01*
X139409523Y-133094342D02*
X139361904Y-133189580D01*
X139361904Y-133189580D02*
X139314285Y-133237200D01*
X139314285Y-133237200D02*
X139219047Y-133284819D01*
X139219047Y-133284819D02*
X138933333Y-133284819D01*
X138933333Y-133284819D02*
X138838095Y-133237200D01*
X138838095Y-133237200D02*
X138790476Y-133189580D01*
X121671428Y-128516128D02*
X121957142Y-128516128D01*
X121957142Y-128516128D02*
X122099999Y-128587557D01*
X122099999Y-128587557D02*
X122242856Y-128730414D01*
X122242856Y-128730414D02*
X122314285Y-129016128D01*
X122314285Y-129016128D02*
X122314285Y-129516128D01*
X122314285Y-129516128D02*
X122242856Y-129801842D01*
X122242856Y-129801842D02*
X122099999Y-129944700D01*
X122099999Y-129944700D02*
X121957142Y-130016128D01*
X121957142Y-130016128D02*
X121671428Y-130016128D01*
X121671428Y-130016128D02*
X121528571Y-129944700D01*
X121528571Y-129944700D02*
X121385713Y-129801842D01*
X121385713Y-129801842D02*
X121314285Y-129516128D01*
X121314285Y-129516128D02*
X121314285Y-129016128D01*
X121314285Y-129016128D02*
X121385713Y-128730414D01*
X121385713Y-128730414D02*
X121528571Y-128587557D01*
X121528571Y-128587557D02*
X121671428Y-128516128D01*
X122957142Y-128516128D02*
X122957142Y-129730414D01*
X122957142Y-129730414D02*
X123028571Y-129873271D01*
X123028571Y-129873271D02*
X123100000Y-129944700D01*
X123100000Y-129944700D02*
X123242857Y-130016128D01*
X123242857Y-130016128D02*
X123528571Y-130016128D01*
X123528571Y-130016128D02*
X123671428Y-129944700D01*
X123671428Y-129944700D02*
X123742857Y-129873271D01*
X123742857Y-129873271D02*
X123814285Y-129730414D01*
X123814285Y-129730414D02*
X123814285Y-128516128D01*
X124314286Y-128516128D02*
X125171429Y-128516128D01*
X124742857Y-130016128D02*
X124742857Y-128516128D01*
X125671428Y-129444700D02*
X126814286Y-129444700D01*
X126242857Y-130016128D02*
X126242857Y-128873271D01*
X122171428Y-111516128D02*
X122457142Y-111516128D01*
X122457142Y-111516128D02*
X122599999Y-111587557D01*
X122599999Y-111587557D02*
X122742856Y-111730414D01*
X122742856Y-111730414D02*
X122814285Y-112016128D01*
X122814285Y-112016128D02*
X122814285Y-112516128D01*
X122814285Y-112516128D02*
X122742856Y-112801842D01*
X122742856Y-112801842D02*
X122599999Y-112944700D01*
X122599999Y-112944700D02*
X122457142Y-113016128D01*
X122457142Y-113016128D02*
X122171428Y-113016128D01*
X122171428Y-113016128D02*
X122028571Y-112944700D01*
X122028571Y-112944700D02*
X121885713Y-112801842D01*
X121885713Y-112801842D02*
X121814285Y-112516128D01*
X121814285Y-112516128D02*
X121814285Y-112016128D01*
X121814285Y-112016128D02*
X121885713Y-111730414D01*
X121885713Y-111730414D02*
X122028571Y-111587557D01*
X122028571Y-111587557D02*
X122171428Y-111516128D01*
X123457142Y-111516128D02*
X123457142Y-112730414D01*
X123457142Y-112730414D02*
X123528571Y-112873271D01*
X123528571Y-112873271D02*
X123600000Y-112944700D01*
X123600000Y-112944700D02*
X123742857Y-113016128D01*
X123742857Y-113016128D02*
X124028571Y-113016128D01*
X124028571Y-113016128D02*
X124171428Y-112944700D01*
X124171428Y-112944700D02*
X124242857Y-112873271D01*
X124242857Y-112873271D02*
X124314285Y-112730414D01*
X124314285Y-112730414D02*
X124314285Y-111516128D01*
X124814286Y-111516128D02*
X125671429Y-111516128D01*
X125242857Y-113016128D02*
X125242857Y-111516128D01*
X126171428Y-112444700D02*
X127314286Y-112444700D01*
X151385713Y-112516128D02*
X151385713Y-111016128D01*
X152099999Y-112516128D02*
X152099999Y-111016128D01*
X152099999Y-111016128D02*
X152957142Y-112516128D01*
X152957142Y-112516128D02*
X152957142Y-111016128D01*
X153671428Y-111944700D02*
X154814286Y-111944700D01*
X151385713Y-130016128D02*
X151385713Y-128516128D01*
X152099999Y-130016128D02*
X152099999Y-128516128D01*
X152099999Y-128516128D02*
X152957142Y-130016128D01*
X152957142Y-130016128D02*
X152957142Y-128516128D01*
X153671428Y-129444700D02*
X154814286Y-129444700D01*
X154242857Y-130016128D02*
X154242857Y-128873271D01*
X172639819Y-125143094D02*
X171639819Y-125143094D01*
X171639819Y-125143094D02*
X171639819Y-124904999D01*
X171639819Y-124904999D02*
X171687438Y-124762142D01*
X171687438Y-124762142D02*
X171782676Y-124666904D01*
X171782676Y-124666904D02*
X171877914Y-124619285D01*
X171877914Y-124619285D02*
X172068390Y-124571666D01*
X172068390Y-124571666D02*
X172211247Y-124571666D01*
X172211247Y-124571666D02*
X172401723Y-124619285D01*
X172401723Y-124619285D02*
X172496961Y-124666904D01*
X172496961Y-124666904D02*
X172592200Y-124762142D01*
X172592200Y-124762142D02*
X172639819Y-124904999D01*
X172639819Y-124904999D02*
X172639819Y-125143094D01*
X171973152Y-123714523D02*
X172639819Y-123714523D01*
X171592200Y-123952618D02*
X172306485Y-124190713D01*
X172306485Y-124190713D02*
X172306485Y-123571666D01*
X176319819Y-131841904D02*
X176319819Y-131270476D01*
X177319819Y-131556190D02*
X176319819Y-131556190D01*
X177319819Y-130937142D02*
X176319819Y-130937142D01*
X176319819Y-130937142D02*
X176319819Y-130556190D01*
X176319819Y-130556190D02*
X176367438Y-130460952D01*
X176367438Y-130460952D02*
X176415057Y-130413333D01*
X176415057Y-130413333D02*
X176510295Y-130365714D01*
X176510295Y-130365714D02*
X176653152Y-130365714D01*
X176653152Y-130365714D02*
X176748390Y-130413333D01*
X176748390Y-130413333D02*
X176796009Y-130460952D01*
X176796009Y-130460952D02*
X176843628Y-130556190D01*
X176843628Y-130556190D02*
X176843628Y-130937142D01*
X176319819Y-130032380D02*
X176319819Y-129413333D01*
X176319819Y-129413333D02*
X176700771Y-129746666D01*
X176700771Y-129746666D02*
X176700771Y-129603809D01*
X176700771Y-129603809D02*
X176748390Y-129508571D01*
X176748390Y-129508571D02*
X176796009Y-129460952D01*
X176796009Y-129460952D02*
X176891247Y-129413333D01*
X176891247Y-129413333D02*
X177129342Y-129413333D01*
X177129342Y-129413333D02*
X177224580Y-129460952D01*
X177224580Y-129460952D02*
X177272200Y-129508571D01*
X177272200Y-129508571D02*
X177319819Y-129603809D01*
X177319819Y-129603809D02*
X177319819Y-129889523D01*
X177319819Y-129889523D02*
X177272200Y-129984761D01*
X177272200Y-129984761D02*
X177224580Y-130032380D01*
X154216666Y-82086009D02*
X153883333Y-82086009D01*
X153883333Y-82609819D02*
X153883333Y-81609819D01*
X153883333Y-81609819D02*
X154359523Y-81609819D01*
X155169047Y-81609819D02*
X154978571Y-81609819D01*
X154978571Y-81609819D02*
X154883333Y-81657438D01*
X154883333Y-81657438D02*
X154835714Y-81705057D01*
X154835714Y-81705057D02*
X154740476Y-81847914D01*
X154740476Y-81847914D02*
X154692857Y-82038390D01*
X154692857Y-82038390D02*
X154692857Y-82419342D01*
X154692857Y-82419342D02*
X154740476Y-82514580D01*
X154740476Y-82514580D02*
X154788095Y-82562200D01*
X154788095Y-82562200D02*
X154883333Y-82609819D01*
X154883333Y-82609819D02*
X155073809Y-82609819D01*
X155073809Y-82609819D02*
X155169047Y-82562200D01*
X155169047Y-82562200D02*
X155216666Y-82514580D01*
X155216666Y-82514580D02*
X155264285Y-82419342D01*
X155264285Y-82419342D02*
X155264285Y-82181247D01*
X155264285Y-82181247D02*
X155216666Y-82086009D01*
X155216666Y-82086009D02*
X155169047Y-82038390D01*
X155169047Y-82038390D02*
X155073809Y-81990771D01*
X155073809Y-81990771D02*
X154883333Y-81990771D01*
X154883333Y-81990771D02*
X154788095Y-82038390D01*
X154788095Y-82038390D02*
X154740476Y-82086009D01*
X154740476Y-82086009D02*
X154692857Y-82181247D01*
X160419819Y-107366904D02*
X161229342Y-107366904D01*
X161229342Y-107366904D02*
X161324580Y-107319285D01*
X161324580Y-107319285D02*
X161372200Y-107271666D01*
X161372200Y-107271666D02*
X161419819Y-107176428D01*
X161419819Y-107176428D02*
X161419819Y-106985952D01*
X161419819Y-106985952D02*
X161372200Y-106890714D01*
X161372200Y-106890714D02*
X161324580Y-106843095D01*
X161324580Y-106843095D02*
X161229342Y-106795476D01*
X161229342Y-106795476D02*
X160419819Y-106795476D01*
X160515057Y-106366904D02*
X160467438Y-106319285D01*
X160467438Y-106319285D02*
X160419819Y-106224047D01*
X160419819Y-106224047D02*
X160419819Y-105985952D01*
X160419819Y-105985952D02*
X160467438Y-105890714D01*
X160467438Y-105890714D02*
X160515057Y-105843095D01*
X160515057Y-105843095D02*
X160610295Y-105795476D01*
X160610295Y-105795476D02*
X160705533Y-105795476D01*
X160705533Y-105795476D02*
X160848390Y-105843095D01*
X160848390Y-105843095D02*
X161419819Y-106414523D01*
X161419819Y-106414523D02*
X161419819Y-105795476D01*
X165819819Y-131841904D02*
X165819819Y-131270476D01*
X166819819Y-131556190D02*
X165819819Y-131556190D01*
X166819819Y-130937142D02*
X165819819Y-130937142D01*
X165819819Y-130937142D02*
X165819819Y-130556190D01*
X165819819Y-130556190D02*
X165867438Y-130460952D01*
X165867438Y-130460952D02*
X165915057Y-130413333D01*
X165915057Y-130413333D02*
X166010295Y-130365714D01*
X166010295Y-130365714D02*
X166153152Y-130365714D01*
X166153152Y-130365714D02*
X166248390Y-130413333D01*
X166248390Y-130413333D02*
X166296009Y-130460952D01*
X166296009Y-130460952D02*
X166343628Y-130556190D01*
X166343628Y-130556190D02*
X166343628Y-130937142D01*
X166153152Y-129508571D02*
X166819819Y-129508571D01*
X165772200Y-129746666D02*
X166486485Y-129984761D01*
X166486485Y-129984761D02*
X166486485Y-129365714D01*
X140166666Y-77236009D02*
X139833333Y-77236009D01*
X139833333Y-77759819D02*
X139833333Y-76759819D01*
X139833333Y-76759819D02*
X140309523Y-76759819D01*
X141166666Y-76759819D02*
X140690476Y-76759819D01*
X140690476Y-76759819D02*
X140642857Y-77236009D01*
X140642857Y-77236009D02*
X140690476Y-77188390D01*
X140690476Y-77188390D02*
X140785714Y-77140771D01*
X140785714Y-77140771D02*
X141023809Y-77140771D01*
X141023809Y-77140771D02*
X141119047Y-77188390D01*
X141119047Y-77188390D02*
X141166666Y-77236009D01*
X141166666Y-77236009D02*
X141214285Y-77331247D01*
X141214285Y-77331247D02*
X141214285Y-77569342D01*
X141214285Y-77569342D02*
X141166666Y-77664580D01*
X141166666Y-77664580D02*
X141119047Y-77712200D01*
X141119047Y-77712200D02*
X141023809Y-77759819D01*
X141023809Y-77759819D02*
X140785714Y-77759819D01*
X140785714Y-77759819D02*
X140690476Y-77712200D01*
X140690476Y-77712200D02*
X140642857Y-77664580D01*
X109996666Y-57414819D02*
X109996666Y-58129104D01*
X109996666Y-58129104D02*
X109949047Y-58271961D01*
X109949047Y-58271961D02*
X109853809Y-58367200D01*
X109853809Y-58367200D02*
X109710952Y-58414819D01*
X109710952Y-58414819D02*
X109615714Y-58414819D01*
X110996666Y-58414819D02*
X110425238Y-58414819D01*
X110710952Y-58414819D02*
X110710952Y-57414819D01*
X110710952Y-57414819D02*
X110615714Y-57557676D01*
X110615714Y-57557676D02*
X110520476Y-57652914D01*
X110520476Y-57652914D02*
X110425238Y-57700533D01*
X180634819Y-70598094D02*
X179634819Y-70598094D01*
X179634819Y-70598094D02*
X179634819Y-70359999D01*
X179634819Y-70359999D02*
X179682438Y-70217142D01*
X179682438Y-70217142D02*
X179777676Y-70121904D01*
X179777676Y-70121904D02*
X179872914Y-70074285D01*
X179872914Y-70074285D02*
X180063390Y-70026666D01*
X180063390Y-70026666D02*
X180206247Y-70026666D01*
X180206247Y-70026666D02*
X180396723Y-70074285D01*
X180396723Y-70074285D02*
X180491961Y-70121904D01*
X180491961Y-70121904D02*
X180587200Y-70217142D01*
X180587200Y-70217142D02*
X180634819Y-70359999D01*
X180634819Y-70359999D02*
X180634819Y-70598094D01*
X180634819Y-69074285D02*
X180634819Y-69645713D01*
X180634819Y-69359999D02*
X179634819Y-69359999D01*
X179634819Y-69359999D02*
X179777676Y-69455237D01*
X179777676Y-69455237D02*
X179872914Y-69550475D01*
X179872914Y-69550475D02*
X179920533Y-69645713D01*
X181354819Y-75201904D02*
X180354819Y-75201904D01*
X181354819Y-74630476D02*
X180783390Y-75059047D01*
X180354819Y-74630476D02*
X180926247Y-75201904D01*
X116213635Y-68164580D02*
X116166016Y-68212200D01*
X116166016Y-68212200D02*
X116023159Y-68259819D01*
X116023159Y-68259819D02*
X115927921Y-68259819D01*
X115927921Y-68259819D02*
X115785064Y-68212200D01*
X115785064Y-68212200D02*
X115689826Y-68116961D01*
X115689826Y-68116961D02*
X115642207Y-68021723D01*
X115642207Y-68021723D02*
X115594588Y-67831247D01*
X115594588Y-67831247D02*
X115594588Y-67688390D01*
X115594588Y-67688390D02*
X115642207Y-67497914D01*
X115642207Y-67497914D02*
X115689826Y-67402676D01*
X115689826Y-67402676D02*
X115785064Y-67307438D01*
X115785064Y-67307438D02*
X115927921Y-67259819D01*
X115927921Y-67259819D02*
X116023159Y-67259819D01*
X116023159Y-67259819D02*
X116166016Y-67307438D01*
X116166016Y-67307438D02*
X116213635Y-67355057D01*
X116594588Y-67355057D02*
X116642207Y-67307438D01*
X116642207Y-67307438D02*
X116737445Y-67259819D01*
X116737445Y-67259819D02*
X116975540Y-67259819D01*
X116975540Y-67259819D02*
X117070778Y-67307438D01*
X117070778Y-67307438D02*
X117118397Y-67355057D01*
X117118397Y-67355057D02*
X117166016Y-67450295D01*
X117166016Y-67450295D02*
X117166016Y-67545533D01*
X117166016Y-67545533D02*
X117118397Y-67688390D01*
X117118397Y-67688390D02*
X116546969Y-68259819D01*
X116546969Y-68259819D02*
X117166016Y-68259819D01*
X154216666Y-77211009D02*
X153883333Y-77211009D01*
X153883333Y-77734819D02*
X153883333Y-76734819D01*
X153883333Y-76734819D02*
X154359523Y-76734819D01*
X155169047Y-77068152D02*
X155169047Y-77734819D01*
X154930952Y-76687200D02*
X154692857Y-77401485D01*
X154692857Y-77401485D02*
X155311904Y-77401485D01*
X140166666Y-72836009D02*
X139833333Y-72836009D01*
X139833333Y-73359819D02*
X139833333Y-72359819D01*
X139833333Y-72359819D02*
X140309523Y-72359819D01*
X140595238Y-72359819D02*
X141214285Y-72359819D01*
X141214285Y-72359819D02*
X140880952Y-72740771D01*
X140880952Y-72740771D02*
X141023809Y-72740771D01*
X141023809Y-72740771D02*
X141119047Y-72788390D01*
X141119047Y-72788390D02*
X141166666Y-72836009D01*
X141166666Y-72836009D02*
X141214285Y-72931247D01*
X141214285Y-72931247D02*
X141214285Y-73169342D01*
X141214285Y-73169342D02*
X141166666Y-73264580D01*
X141166666Y-73264580D02*
X141119047Y-73312200D01*
X141119047Y-73312200D02*
X141023809Y-73359819D01*
X141023809Y-73359819D02*
X140738095Y-73359819D01*
X140738095Y-73359819D02*
X140642857Y-73312200D01*
X140642857Y-73312200D02*
X140595238Y-73264580D01*
X137838095Y-108234819D02*
X137838095Y-109044342D01*
X137838095Y-109044342D02*
X137885714Y-109139580D01*
X137885714Y-109139580D02*
X137933333Y-109187200D01*
X137933333Y-109187200D02*
X138028571Y-109234819D01*
X138028571Y-109234819D02*
X138219047Y-109234819D01*
X138219047Y-109234819D02*
X138314285Y-109187200D01*
X138314285Y-109187200D02*
X138361904Y-109139580D01*
X138361904Y-109139580D02*
X138409523Y-109044342D01*
X138409523Y-109044342D02*
X138409523Y-108234819D01*
X139314285Y-108568152D02*
X139314285Y-109234819D01*
X139076190Y-108187200D02*
X138838095Y-108901485D01*
X138838095Y-108901485D02*
X139457142Y-108901485D01*
X121671428Y-104466128D02*
X121957142Y-104466128D01*
X121957142Y-104466128D02*
X122099999Y-104537557D01*
X122099999Y-104537557D02*
X122242856Y-104680414D01*
X122242856Y-104680414D02*
X122314285Y-104966128D01*
X122314285Y-104966128D02*
X122314285Y-105466128D01*
X122314285Y-105466128D02*
X122242856Y-105751842D01*
X122242856Y-105751842D02*
X122099999Y-105894700D01*
X122099999Y-105894700D02*
X121957142Y-105966128D01*
X121957142Y-105966128D02*
X121671428Y-105966128D01*
X121671428Y-105966128D02*
X121528571Y-105894700D01*
X121528571Y-105894700D02*
X121385713Y-105751842D01*
X121385713Y-105751842D02*
X121314285Y-105466128D01*
X121314285Y-105466128D02*
X121314285Y-104966128D01*
X121314285Y-104966128D02*
X121385713Y-104680414D01*
X121385713Y-104680414D02*
X121528571Y-104537557D01*
X121528571Y-104537557D02*
X121671428Y-104466128D01*
X122957142Y-104466128D02*
X122957142Y-105680414D01*
X122957142Y-105680414D02*
X123028571Y-105823271D01*
X123028571Y-105823271D02*
X123100000Y-105894700D01*
X123100000Y-105894700D02*
X123242857Y-105966128D01*
X123242857Y-105966128D02*
X123528571Y-105966128D01*
X123528571Y-105966128D02*
X123671428Y-105894700D01*
X123671428Y-105894700D02*
X123742857Y-105823271D01*
X123742857Y-105823271D02*
X123814285Y-105680414D01*
X123814285Y-105680414D02*
X123814285Y-104466128D01*
X124314286Y-104466128D02*
X125171429Y-104466128D01*
X124742857Y-105966128D02*
X124742857Y-104466128D01*
X125671428Y-105394700D02*
X126814286Y-105394700D01*
X126242857Y-105966128D02*
X126242857Y-104823271D01*
X122171428Y-87466128D02*
X122457142Y-87466128D01*
X122457142Y-87466128D02*
X122599999Y-87537557D01*
X122599999Y-87537557D02*
X122742856Y-87680414D01*
X122742856Y-87680414D02*
X122814285Y-87966128D01*
X122814285Y-87966128D02*
X122814285Y-88466128D01*
X122814285Y-88466128D02*
X122742856Y-88751842D01*
X122742856Y-88751842D02*
X122599999Y-88894700D01*
X122599999Y-88894700D02*
X122457142Y-88966128D01*
X122457142Y-88966128D02*
X122171428Y-88966128D01*
X122171428Y-88966128D02*
X122028571Y-88894700D01*
X122028571Y-88894700D02*
X121885713Y-88751842D01*
X121885713Y-88751842D02*
X121814285Y-88466128D01*
X121814285Y-88466128D02*
X121814285Y-87966128D01*
X121814285Y-87966128D02*
X121885713Y-87680414D01*
X121885713Y-87680414D02*
X122028571Y-87537557D01*
X122028571Y-87537557D02*
X122171428Y-87466128D01*
X123457142Y-87466128D02*
X123457142Y-88680414D01*
X123457142Y-88680414D02*
X123528571Y-88823271D01*
X123528571Y-88823271D02*
X123600000Y-88894700D01*
X123600000Y-88894700D02*
X123742857Y-88966128D01*
X123742857Y-88966128D02*
X124028571Y-88966128D01*
X124028571Y-88966128D02*
X124171428Y-88894700D01*
X124171428Y-88894700D02*
X124242857Y-88823271D01*
X124242857Y-88823271D02*
X124314285Y-88680414D01*
X124314285Y-88680414D02*
X124314285Y-87466128D01*
X124814286Y-87466128D02*
X125671429Y-87466128D01*
X125242857Y-88966128D02*
X125242857Y-87466128D01*
X126171428Y-88394700D02*
X127314286Y-88394700D01*
X151385713Y-88466128D02*
X151385713Y-86966128D01*
X152099999Y-88466128D02*
X152099999Y-86966128D01*
X152099999Y-86966128D02*
X152957142Y-88466128D01*
X152957142Y-88466128D02*
X152957142Y-86966128D01*
X153671428Y-87894700D02*
X154814286Y-87894700D01*
X151385713Y-105966128D02*
X151385713Y-104466128D01*
X152099999Y-105966128D02*
X152099999Y-104466128D01*
X152099999Y-104466128D02*
X152957142Y-105966128D01*
X152957142Y-105966128D02*
X152957142Y-104466128D01*
X153671428Y-105394700D02*
X154814286Y-105394700D01*
X154242857Y-105966128D02*
X154242857Y-104823271D01*
X154216666Y-72811009D02*
X153883333Y-72811009D01*
X153883333Y-73334819D02*
X153883333Y-72334819D01*
X153883333Y-72334819D02*
X154359523Y-72334819D01*
X154692857Y-72430057D02*
X154740476Y-72382438D01*
X154740476Y-72382438D02*
X154835714Y-72334819D01*
X154835714Y-72334819D02*
X155073809Y-72334819D01*
X155073809Y-72334819D02*
X155169047Y-72382438D01*
X155169047Y-72382438D02*
X155216666Y-72430057D01*
X155216666Y-72430057D02*
X155264285Y-72525295D01*
X155264285Y-72525295D02*
X155264285Y-72620533D01*
X155264285Y-72620533D02*
X155216666Y-72763390D01*
X155216666Y-72763390D02*
X154645238Y-73334819D01*
X154645238Y-73334819D02*
X155264285Y-73334819D01*
X188761666Y-57374819D02*
X188761666Y-58089104D01*
X188761666Y-58089104D02*
X188714047Y-58231961D01*
X188714047Y-58231961D02*
X188618809Y-58327200D01*
X188618809Y-58327200D02*
X188475952Y-58374819D01*
X188475952Y-58374819D02*
X188380714Y-58374819D01*
X189190238Y-57470057D02*
X189237857Y-57422438D01*
X189237857Y-57422438D02*
X189333095Y-57374819D01*
X189333095Y-57374819D02*
X189571190Y-57374819D01*
X189571190Y-57374819D02*
X189666428Y-57422438D01*
X189666428Y-57422438D02*
X189714047Y-57470057D01*
X189714047Y-57470057D02*
X189761666Y-57565295D01*
X189761666Y-57565295D02*
X189761666Y-57660533D01*
X189761666Y-57660533D02*
X189714047Y-57803390D01*
X189714047Y-57803390D02*
X189142619Y-58374819D01*
X189142619Y-58374819D02*
X189761666Y-58374819D01*
X116213635Y-58614580D02*
X116166016Y-58662200D01*
X116166016Y-58662200D02*
X116023159Y-58709819D01*
X116023159Y-58709819D02*
X115927921Y-58709819D01*
X115927921Y-58709819D02*
X115785064Y-58662200D01*
X115785064Y-58662200D02*
X115689826Y-58566961D01*
X115689826Y-58566961D02*
X115642207Y-58471723D01*
X115642207Y-58471723D02*
X115594588Y-58281247D01*
X115594588Y-58281247D02*
X115594588Y-58138390D01*
X115594588Y-58138390D02*
X115642207Y-57947914D01*
X115642207Y-57947914D02*
X115689826Y-57852676D01*
X115689826Y-57852676D02*
X115785064Y-57757438D01*
X115785064Y-57757438D02*
X115927921Y-57709819D01*
X115927921Y-57709819D02*
X116023159Y-57709819D01*
X116023159Y-57709819D02*
X116166016Y-57757438D01*
X116166016Y-57757438D02*
X116213635Y-57805057D01*
X117166016Y-58709819D02*
X116594588Y-58709819D01*
X116880302Y-58709819D02*
X116880302Y-57709819D01*
X116880302Y-57709819D02*
X116785064Y-57852676D01*
X116785064Y-57852676D02*
X116689826Y-57947914D01*
X116689826Y-57947914D02*
X116594588Y-57995533D01*
X124053095Y-52514819D02*
X124624523Y-52514819D01*
X124338809Y-53514819D02*
X124338809Y-52514819D01*
X124957857Y-53514819D02*
X124957857Y-52514819D01*
X124957857Y-52514819D02*
X125338809Y-52514819D01*
X125338809Y-52514819D02*
X125434047Y-52562438D01*
X125434047Y-52562438D02*
X125481666Y-52610057D01*
X125481666Y-52610057D02*
X125529285Y-52705295D01*
X125529285Y-52705295D02*
X125529285Y-52848152D01*
X125529285Y-52848152D02*
X125481666Y-52943390D01*
X125481666Y-52943390D02*
X125434047Y-52991009D01*
X125434047Y-52991009D02*
X125338809Y-53038628D01*
X125338809Y-53038628D02*
X124957857Y-53038628D01*
X126481666Y-53514819D02*
X125910238Y-53514819D01*
X126195952Y-53514819D02*
X126195952Y-52514819D01*
X126195952Y-52514819D02*
X126100714Y-52657676D01*
X126100714Y-52657676D02*
X126005476Y-52752914D01*
X126005476Y-52752914D02*
X125910238Y-52800533D01*
D11*
X134387419Y-64156115D02*
X133387419Y-64156115D01*
X134387419Y-63679925D02*
X133387419Y-63679925D01*
X133387419Y-63679925D02*
X134387419Y-63108497D01*
X134387419Y-63108497D02*
X133387419Y-63108497D01*
X134006466Y-62632306D02*
X134006466Y-61870402D01*
X134387419Y-62251354D02*
X133625514Y-62251354D01*
X136887419Y-64156115D02*
X135887419Y-64156115D01*
X136887419Y-63679925D02*
X135887419Y-63679925D01*
X135887419Y-63679925D02*
X136887419Y-63108497D01*
X136887419Y-63108497D02*
X135887419Y-63108497D01*
X136506466Y-62632306D02*
X136506466Y-61870402D01*
X138387419Y-64298972D02*
X139387419Y-63965639D01*
X139387419Y-63965639D02*
X138387419Y-63632306D01*
X138863609Y-62965639D02*
X138911228Y-62822782D01*
X138911228Y-62822782D02*
X138958847Y-62775163D01*
X138958847Y-62775163D02*
X139054085Y-62727544D01*
X139054085Y-62727544D02*
X139196942Y-62727544D01*
X139196942Y-62727544D02*
X139292180Y-62775163D01*
X139292180Y-62775163D02*
X139339800Y-62822782D01*
X139339800Y-62822782D02*
X139387419Y-62918020D01*
X139387419Y-62918020D02*
X139387419Y-63298972D01*
X139387419Y-63298972D02*
X138387419Y-63298972D01*
X138387419Y-63298972D02*
X138387419Y-62965639D01*
X138387419Y-62965639D02*
X138435038Y-62870401D01*
X138435038Y-62870401D02*
X138482657Y-62822782D01*
X138482657Y-62822782D02*
X138577895Y-62775163D01*
X138577895Y-62775163D02*
X138673133Y-62775163D01*
X138673133Y-62775163D02*
X138768371Y-62822782D01*
X138768371Y-62822782D02*
X138815990Y-62870401D01*
X138815990Y-62870401D02*
X138863609Y-62965639D01*
X138863609Y-62965639D02*
X138863609Y-63298972D01*
X139339800Y-62346591D02*
X139387419Y-62203734D01*
X139387419Y-62203734D02*
X139387419Y-61965639D01*
X139387419Y-61965639D02*
X139339800Y-61870401D01*
X139339800Y-61870401D02*
X139292180Y-61822782D01*
X139292180Y-61822782D02*
X139196942Y-61775163D01*
X139196942Y-61775163D02*
X139101704Y-61775163D01*
X139101704Y-61775163D02*
X139006466Y-61822782D01*
X139006466Y-61822782D02*
X138958847Y-61870401D01*
X138958847Y-61870401D02*
X138911228Y-61965639D01*
X138911228Y-61965639D02*
X138863609Y-62156115D01*
X138863609Y-62156115D02*
X138815990Y-62251353D01*
X138815990Y-62251353D02*
X138768371Y-62298972D01*
X138768371Y-62298972D02*
X138673133Y-62346591D01*
X138673133Y-62346591D02*
X138577895Y-62346591D01*
X138577895Y-62346591D02*
X138482657Y-62298972D01*
X138482657Y-62298972D02*
X138435038Y-62251353D01*
X138435038Y-62251353D02*
X138387419Y-62156115D01*
X138387419Y-62156115D02*
X138387419Y-61918020D01*
X138387419Y-61918020D02*
X138435038Y-61775163D01*
X139887419Y-55156115D02*
X138887419Y-55156115D01*
X139887419Y-54679925D02*
X138887419Y-54679925D01*
X138887419Y-54679925D02*
X139887419Y-54108497D01*
X139887419Y-54108497D02*
X138887419Y-54108497D01*
X139506466Y-53632306D02*
X139506466Y-52870402D01*
X139887419Y-53251354D02*
X139125514Y-53251354D01*
X141601704Y-64203734D02*
X141601704Y-63727544D01*
X141887419Y-64298972D02*
X140887419Y-63965639D01*
X140887419Y-63965639D02*
X141887419Y-63632306D01*
X141887419Y-62822782D02*
X141887419Y-63298972D01*
X141887419Y-63298972D02*
X140887419Y-63298972D01*
X141363609Y-62489448D02*
X141363609Y-62156115D01*
X141887419Y-62013258D02*
X141887419Y-62489448D01*
X141887419Y-62489448D02*
X140887419Y-62489448D01*
X140887419Y-62489448D02*
X140887419Y-62013258D01*
X144339800Y-64203734D02*
X144387419Y-64060877D01*
X144387419Y-64060877D02*
X144387419Y-63822782D01*
X144387419Y-63822782D02*
X144339800Y-63727544D01*
X144339800Y-63727544D02*
X144292180Y-63679925D01*
X144292180Y-63679925D02*
X144196942Y-63632306D01*
X144196942Y-63632306D02*
X144101704Y-63632306D01*
X144101704Y-63632306D02*
X144006466Y-63679925D01*
X144006466Y-63679925D02*
X143958847Y-63727544D01*
X143958847Y-63727544D02*
X143911228Y-63822782D01*
X143911228Y-63822782D02*
X143863609Y-64013258D01*
X143863609Y-64013258D02*
X143815990Y-64108496D01*
X143815990Y-64108496D02*
X143768371Y-64156115D01*
X143768371Y-64156115D02*
X143673133Y-64203734D01*
X143673133Y-64203734D02*
X143577895Y-64203734D01*
X143577895Y-64203734D02*
X143482657Y-64156115D01*
X143482657Y-64156115D02*
X143435038Y-64108496D01*
X143435038Y-64108496D02*
X143387419Y-64013258D01*
X143387419Y-64013258D02*
X143387419Y-63775163D01*
X143387419Y-63775163D02*
X143435038Y-63632306D01*
X144387419Y-63203734D02*
X143387419Y-63203734D01*
X143387419Y-63203734D02*
X143387419Y-62965639D01*
X143387419Y-62965639D02*
X143435038Y-62822782D01*
X143435038Y-62822782D02*
X143530276Y-62727544D01*
X143530276Y-62727544D02*
X143625514Y-62679925D01*
X143625514Y-62679925D02*
X143815990Y-62632306D01*
X143815990Y-62632306D02*
X143958847Y-62632306D01*
X143958847Y-62632306D02*
X144149323Y-62679925D01*
X144149323Y-62679925D02*
X144244561Y-62727544D01*
X144244561Y-62727544D02*
X144339800Y-62822782D01*
X144339800Y-62822782D02*
X144387419Y-62965639D01*
X144387419Y-62965639D02*
X144387419Y-63203734D01*
X144101704Y-62251353D02*
X144101704Y-61775163D01*
X144387419Y-62346591D02*
X143387419Y-62013258D01*
X143387419Y-62013258D02*
X144387419Y-61679925D01*
X145887419Y-55156115D02*
X144887419Y-55156115D01*
X145887419Y-54679925D02*
X144887419Y-54679925D01*
X144887419Y-54679925D02*
X145887419Y-54108497D01*
X145887419Y-54108497D02*
X144887419Y-54108497D01*
X145506466Y-53632306D02*
X145506466Y-52870402D01*
X146839800Y-64203734D02*
X146887419Y-64060877D01*
X146887419Y-64060877D02*
X146887419Y-63822782D01*
X146887419Y-63822782D02*
X146839800Y-63727544D01*
X146839800Y-63727544D02*
X146792180Y-63679925D01*
X146792180Y-63679925D02*
X146696942Y-63632306D01*
X146696942Y-63632306D02*
X146601704Y-63632306D01*
X146601704Y-63632306D02*
X146506466Y-63679925D01*
X146506466Y-63679925D02*
X146458847Y-63727544D01*
X146458847Y-63727544D02*
X146411228Y-63822782D01*
X146411228Y-63822782D02*
X146363609Y-64013258D01*
X146363609Y-64013258D02*
X146315990Y-64108496D01*
X146315990Y-64108496D02*
X146268371Y-64156115D01*
X146268371Y-64156115D02*
X146173133Y-64203734D01*
X146173133Y-64203734D02*
X146077895Y-64203734D01*
X146077895Y-64203734D02*
X145982657Y-64156115D01*
X145982657Y-64156115D02*
X145935038Y-64108496D01*
X145935038Y-64108496D02*
X145887419Y-64013258D01*
X145887419Y-64013258D02*
X145887419Y-63775163D01*
X145887419Y-63775163D02*
X145935038Y-63632306D01*
X146792180Y-62632306D02*
X146839800Y-62679925D01*
X146839800Y-62679925D02*
X146887419Y-62822782D01*
X146887419Y-62822782D02*
X146887419Y-62918020D01*
X146887419Y-62918020D02*
X146839800Y-63060877D01*
X146839800Y-63060877D02*
X146744561Y-63156115D01*
X146744561Y-63156115D02*
X146649323Y-63203734D01*
X146649323Y-63203734D02*
X146458847Y-63251353D01*
X146458847Y-63251353D02*
X146315990Y-63251353D01*
X146315990Y-63251353D02*
X146125514Y-63203734D01*
X146125514Y-63203734D02*
X146030276Y-63156115D01*
X146030276Y-63156115D02*
X145935038Y-63060877D01*
X145935038Y-63060877D02*
X145887419Y-62918020D01*
X145887419Y-62918020D02*
X145887419Y-62822782D01*
X145887419Y-62822782D02*
X145935038Y-62679925D01*
X145935038Y-62679925D02*
X145982657Y-62632306D01*
X146887419Y-61727544D02*
X146887419Y-62203734D01*
X146887419Y-62203734D02*
X145887419Y-62203734D01*
X148435038Y-63632306D02*
X148387419Y-63727544D01*
X148387419Y-63727544D02*
X148387419Y-63870401D01*
X148387419Y-63870401D02*
X148435038Y-64013258D01*
X148435038Y-64013258D02*
X148530276Y-64108496D01*
X148530276Y-64108496D02*
X148625514Y-64156115D01*
X148625514Y-64156115D02*
X148815990Y-64203734D01*
X148815990Y-64203734D02*
X148958847Y-64203734D01*
X148958847Y-64203734D02*
X149149323Y-64156115D01*
X149149323Y-64156115D02*
X149244561Y-64108496D01*
X149244561Y-64108496D02*
X149339800Y-64013258D01*
X149339800Y-64013258D02*
X149387419Y-63870401D01*
X149387419Y-63870401D02*
X149387419Y-63775163D01*
X149387419Y-63775163D02*
X149339800Y-63632306D01*
X149339800Y-63632306D02*
X149292180Y-63584687D01*
X149292180Y-63584687D02*
X148958847Y-63584687D01*
X148958847Y-63584687D02*
X148958847Y-63775163D01*
X149387419Y-63156115D02*
X148387419Y-63156115D01*
X148387419Y-63156115D02*
X149387419Y-62584687D01*
X149387419Y-62584687D02*
X148387419Y-62584687D01*
X149387419Y-62108496D02*
X148387419Y-62108496D01*
X148387419Y-62108496D02*
X148387419Y-61870401D01*
X148387419Y-61870401D02*
X148435038Y-61727544D01*
X148435038Y-61727544D02*
X148530276Y-61632306D01*
X148530276Y-61632306D02*
X148625514Y-61584687D01*
X148625514Y-61584687D02*
X148815990Y-61537068D01*
X148815990Y-61537068D02*
X148958847Y-61537068D01*
X148958847Y-61537068D02*
X149149323Y-61584687D01*
X149149323Y-61584687D02*
X149244561Y-61632306D01*
X149244561Y-61632306D02*
X149339800Y-61727544D01*
X149339800Y-61727544D02*
X149387419Y-61870401D01*
X149387419Y-61870401D02*
X149387419Y-62108496D01*
X150887419Y-64298972D02*
X151887419Y-63965639D01*
X151887419Y-63965639D02*
X150887419Y-63632306D01*
X151792180Y-62727544D02*
X151839800Y-62775163D01*
X151839800Y-62775163D02*
X151887419Y-62918020D01*
X151887419Y-62918020D02*
X151887419Y-63013258D01*
X151887419Y-63013258D02*
X151839800Y-63156115D01*
X151839800Y-63156115D02*
X151744561Y-63251353D01*
X151744561Y-63251353D02*
X151649323Y-63298972D01*
X151649323Y-63298972D02*
X151458847Y-63346591D01*
X151458847Y-63346591D02*
X151315990Y-63346591D01*
X151315990Y-63346591D02*
X151125514Y-63298972D01*
X151125514Y-63298972D02*
X151030276Y-63251353D01*
X151030276Y-63251353D02*
X150935038Y-63156115D01*
X150935038Y-63156115D02*
X150887419Y-63013258D01*
X150887419Y-63013258D02*
X150887419Y-62918020D01*
X150887419Y-62918020D02*
X150935038Y-62775163D01*
X150935038Y-62775163D02*
X150982657Y-62727544D01*
X151792180Y-61727544D02*
X151839800Y-61775163D01*
X151839800Y-61775163D02*
X151887419Y-61918020D01*
X151887419Y-61918020D02*
X151887419Y-62013258D01*
X151887419Y-62013258D02*
X151839800Y-62156115D01*
X151839800Y-62156115D02*
X151744561Y-62251353D01*
X151744561Y-62251353D02*
X151649323Y-62298972D01*
X151649323Y-62298972D02*
X151458847Y-62346591D01*
X151458847Y-62346591D02*
X151315990Y-62346591D01*
X151315990Y-62346591D02*
X151125514Y-62298972D01*
X151125514Y-62298972D02*
X151030276Y-62251353D01*
X151030276Y-62251353D02*
X150935038Y-62156115D01*
X150935038Y-62156115D02*
X150887419Y-62013258D01*
X150887419Y-62013258D02*
X150887419Y-61918020D01*
X150887419Y-61918020D02*
X150935038Y-61775163D01*
X150935038Y-61775163D02*
X150982657Y-61727544D01*
D10*
X126713635Y-77614580D02*
X126666016Y-77662200D01*
X126666016Y-77662200D02*
X126523159Y-77709819D01*
X126523159Y-77709819D02*
X126427921Y-77709819D01*
X126427921Y-77709819D02*
X126285064Y-77662200D01*
X126285064Y-77662200D02*
X126189826Y-77566961D01*
X126189826Y-77566961D02*
X126142207Y-77471723D01*
X126142207Y-77471723D02*
X126094588Y-77281247D01*
X126094588Y-77281247D02*
X126094588Y-77138390D01*
X126094588Y-77138390D02*
X126142207Y-76947914D01*
X126142207Y-76947914D02*
X126189826Y-76852676D01*
X126189826Y-76852676D02*
X126285064Y-76757438D01*
X126285064Y-76757438D02*
X126427921Y-76709819D01*
X126427921Y-76709819D02*
X126523159Y-76709819D01*
X126523159Y-76709819D02*
X126666016Y-76757438D01*
X126666016Y-76757438D02*
X126713635Y-76805057D01*
X127570778Y-77043152D02*
X127570778Y-77709819D01*
X127332683Y-76662200D02*
X127094588Y-77376485D01*
X127094588Y-77376485D02*
X127713635Y-77376485D01*
X167169819Y-125143094D02*
X166169819Y-125143094D01*
X166169819Y-125143094D02*
X166169819Y-124904999D01*
X166169819Y-124904999D02*
X166217438Y-124762142D01*
X166217438Y-124762142D02*
X166312676Y-124666904D01*
X166312676Y-124666904D02*
X166407914Y-124619285D01*
X166407914Y-124619285D02*
X166598390Y-124571666D01*
X166598390Y-124571666D02*
X166741247Y-124571666D01*
X166741247Y-124571666D02*
X166931723Y-124619285D01*
X166931723Y-124619285D02*
X167026961Y-124666904D01*
X167026961Y-124666904D02*
X167122200Y-124762142D01*
X167122200Y-124762142D02*
X167169819Y-124904999D01*
X167169819Y-124904999D02*
X167169819Y-125143094D01*
X166169819Y-124238332D02*
X166169819Y-123619285D01*
X166169819Y-123619285D02*
X166550771Y-123952618D01*
X166550771Y-123952618D02*
X166550771Y-123809761D01*
X166550771Y-123809761D02*
X166598390Y-123714523D01*
X166598390Y-123714523D02*
X166646009Y-123666904D01*
X166646009Y-123666904D02*
X166741247Y-123619285D01*
X166741247Y-123619285D02*
X166979342Y-123619285D01*
X166979342Y-123619285D02*
X167074580Y-123666904D01*
X167074580Y-123666904D02*
X167122200Y-123714523D01*
X167122200Y-123714523D02*
X167169819Y-123809761D01*
X167169819Y-123809761D02*
X167169819Y-124095475D01*
X167169819Y-124095475D02*
X167122200Y-124190713D01*
X167122200Y-124190713D02*
X167074580Y-124238332D01*
X128531009Y-56113333D02*
X128531009Y-56446666D01*
X129054819Y-56446666D02*
X128054819Y-56446666D01*
X128054819Y-56446666D02*
X128054819Y-55970476D01*
X129054819Y-55065714D02*
X129054819Y-55637142D01*
X129054819Y-55351428D02*
X128054819Y-55351428D01*
X128054819Y-55351428D02*
X128197676Y-55446666D01*
X128197676Y-55446666D02*
X128292914Y-55541904D01*
X128292914Y-55541904D02*
X128340533Y-55637142D01*
X178109819Y-125143094D02*
X177109819Y-125143094D01*
X177109819Y-125143094D02*
X177109819Y-124904999D01*
X177109819Y-124904999D02*
X177157438Y-124762142D01*
X177157438Y-124762142D02*
X177252676Y-124666904D01*
X177252676Y-124666904D02*
X177347914Y-124619285D01*
X177347914Y-124619285D02*
X177538390Y-124571666D01*
X177538390Y-124571666D02*
X177681247Y-124571666D01*
X177681247Y-124571666D02*
X177871723Y-124619285D01*
X177871723Y-124619285D02*
X177966961Y-124666904D01*
X177966961Y-124666904D02*
X178062200Y-124762142D01*
X178062200Y-124762142D02*
X178109819Y-124904999D01*
X178109819Y-124904999D02*
X178109819Y-125143094D01*
X177109819Y-123666904D02*
X177109819Y-124143094D01*
X177109819Y-124143094D02*
X177586009Y-124190713D01*
X177586009Y-124190713D02*
X177538390Y-124143094D01*
X177538390Y-124143094D02*
X177490771Y-124047856D01*
X177490771Y-124047856D02*
X177490771Y-123809761D01*
X177490771Y-123809761D02*
X177538390Y-123714523D01*
X177538390Y-123714523D02*
X177586009Y-123666904D01*
X177586009Y-123666904D02*
X177681247Y-123619285D01*
X177681247Y-123619285D02*
X177919342Y-123619285D01*
X177919342Y-123619285D02*
X178014580Y-123666904D01*
X178014580Y-123666904D02*
X178062200Y-123714523D01*
X178062200Y-123714523D02*
X178109819Y-123809761D01*
X178109819Y-123809761D02*
X178109819Y-124047856D01*
X178109819Y-124047856D02*
X178062200Y-124143094D01*
X178062200Y-124143094D02*
X178014580Y-124190713D01*
X181114819Y-116981666D02*
X180638628Y-117314999D01*
X181114819Y-117553094D02*
X180114819Y-117553094D01*
X180114819Y-117553094D02*
X180114819Y-117172142D01*
X180114819Y-117172142D02*
X180162438Y-117076904D01*
X180162438Y-117076904D02*
X180210057Y-117029285D01*
X180210057Y-117029285D02*
X180305295Y-116981666D01*
X180305295Y-116981666D02*
X180448152Y-116981666D01*
X180448152Y-116981666D02*
X180543390Y-117029285D01*
X180543390Y-117029285D02*
X180591009Y-117076904D01*
X180591009Y-117076904D02*
X180638628Y-117172142D01*
X180638628Y-117172142D02*
X180638628Y-117553094D01*
X180448152Y-116124523D02*
X181114819Y-116124523D01*
X180067200Y-116362618D02*
X180781485Y-116600713D01*
X180781485Y-116600713D02*
X180781485Y-115981666D01*
X181819819Y-131841904D02*
X181819819Y-131270476D01*
X182819819Y-131556190D02*
X181819819Y-131556190D01*
X182819819Y-130937142D02*
X181819819Y-130937142D01*
X181819819Y-130937142D02*
X181819819Y-130556190D01*
X181819819Y-130556190D02*
X181867438Y-130460952D01*
X181867438Y-130460952D02*
X181915057Y-130413333D01*
X181915057Y-130413333D02*
X182010295Y-130365714D01*
X182010295Y-130365714D02*
X182153152Y-130365714D01*
X182153152Y-130365714D02*
X182248390Y-130413333D01*
X182248390Y-130413333D02*
X182296009Y-130460952D01*
X182296009Y-130460952D02*
X182343628Y-130556190D01*
X182343628Y-130556190D02*
X182343628Y-130937142D01*
X181915057Y-129984761D02*
X181867438Y-129937142D01*
X181867438Y-129937142D02*
X181819819Y-129841904D01*
X181819819Y-129841904D02*
X181819819Y-129603809D01*
X181819819Y-129603809D02*
X181867438Y-129508571D01*
X181867438Y-129508571D02*
X181915057Y-129460952D01*
X181915057Y-129460952D02*
X182010295Y-129413333D01*
X182010295Y-129413333D02*
X182105533Y-129413333D01*
X182105533Y-129413333D02*
X182248390Y-129460952D01*
X182248390Y-129460952D02*
X182819819Y-130032380D01*
X182819819Y-130032380D02*
X182819819Y-129413333D01*
X164614819Y-117041666D02*
X164138628Y-117374999D01*
X164614819Y-117613094D02*
X163614819Y-117613094D01*
X163614819Y-117613094D02*
X163614819Y-117232142D01*
X163614819Y-117232142D02*
X163662438Y-117136904D01*
X163662438Y-117136904D02*
X163710057Y-117089285D01*
X163710057Y-117089285D02*
X163805295Y-117041666D01*
X163805295Y-117041666D02*
X163948152Y-117041666D01*
X163948152Y-117041666D02*
X164043390Y-117089285D01*
X164043390Y-117089285D02*
X164091009Y-117136904D01*
X164091009Y-117136904D02*
X164138628Y-117232142D01*
X164138628Y-117232142D02*
X164138628Y-117613094D01*
X164614819Y-116089285D02*
X164614819Y-116660713D01*
X164614819Y-116374999D02*
X163614819Y-116374999D01*
X163614819Y-116374999D02*
X163757676Y-116470237D01*
X163757676Y-116470237D02*
X163852914Y-116565475D01*
X163852914Y-116565475D02*
X163900533Y-116660713D01*
X168864285Y-71211009D02*
X169007142Y-71258628D01*
X169007142Y-71258628D02*
X169054761Y-71306247D01*
X169054761Y-71306247D02*
X169102380Y-71401485D01*
X169102380Y-71401485D02*
X169102380Y-71544342D01*
X169102380Y-71544342D02*
X169054761Y-71639580D01*
X169054761Y-71639580D02*
X169007142Y-71687200D01*
X169007142Y-71687200D02*
X168911904Y-71734819D01*
X168911904Y-71734819D02*
X168530952Y-71734819D01*
X168530952Y-71734819D02*
X168530952Y-70734819D01*
X168530952Y-70734819D02*
X168864285Y-70734819D01*
X168864285Y-70734819D02*
X168959523Y-70782438D01*
X168959523Y-70782438D02*
X169007142Y-70830057D01*
X169007142Y-70830057D02*
X169054761Y-70925295D01*
X169054761Y-70925295D02*
X169054761Y-71020533D01*
X169054761Y-71020533D02*
X169007142Y-71115771D01*
X169007142Y-71115771D02*
X168959523Y-71163390D01*
X168959523Y-71163390D02*
X168864285Y-71211009D01*
X168864285Y-71211009D02*
X168530952Y-71211009D01*
X169388095Y-70734819D02*
X169959523Y-70734819D01*
X169673809Y-71734819D02*
X169673809Y-70734819D01*
X170245238Y-70830057D02*
X170292857Y-70782438D01*
X170292857Y-70782438D02*
X170388095Y-70734819D01*
X170388095Y-70734819D02*
X170626190Y-70734819D01*
X170626190Y-70734819D02*
X170721428Y-70782438D01*
X170721428Y-70782438D02*
X170769047Y-70830057D01*
X170769047Y-70830057D02*
X170816666Y-70925295D01*
X170816666Y-70925295D02*
X170816666Y-71020533D01*
X170816666Y-71020533D02*
X170769047Y-71163390D01*
X170769047Y-71163390D02*
X170197619Y-71734819D01*
X170197619Y-71734819D02*
X170816666Y-71734819D01*
X155053095Y-52514819D02*
X155624523Y-52514819D01*
X155338809Y-53514819D02*
X155338809Y-52514819D01*
X155957857Y-53514819D02*
X155957857Y-52514819D01*
X155957857Y-52514819D02*
X156338809Y-52514819D01*
X156338809Y-52514819D02*
X156434047Y-52562438D01*
X156434047Y-52562438D02*
X156481666Y-52610057D01*
X156481666Y-52610057D02*
X156529285Y-52705295D01*
X156529285Y-52705295D02*
X156529285Y-52848152D01*
X156529285Y-52848152D02*
X156481666Y-52943390D01*
X156481666Y-52943390D02*
X156434047Y-52991009D01*
X156434047Y-52991009D02*
X156338809Y-53038628D01*
X156338809Y-53038628D02*
X155957857Y-53038628D01*
X157434047Y-52514819D02*
X156957857Y-52514819D01*
X156957857Y-52514819D02*
X156910238Y-52991009D01*
X156910238Y-52991009D02*
X156957857Y-52943390D01*
X156957857Y-52943390D02*
X157053095Y-52895771D01*
X157053095Y-52895771D02*
X157291190Y-52895771D01*
X157291190Y-52895771D02*
X157386428Y-52943390D01*
X157386428Y-52943390D02*
X157434047Y-52991009D01*
X157434047Y-52991009D02*
X157481666Y-53086247D01*
X157481666Y-53086247D02*
X157481666Y-53324342D01*
X157481666Y-53324342D02*
X157434047Y-53419580D01*
X157434047Y-53419580D02*
X157386428Y-53467200D01*
X157386428Y-53467200D02*
X157291190Y-53514819D01*
X157291190Y-53514819D02*
X157053095Y-53514819D01*
X157053095Y-53514819D02*
X156957857Y-53467200D01*
X156957857Y-53467200D02*
X156910238Y-53419580D01*
X175614819Y-116981666D02*
X175138628Y-117314999D01*
X175614819Y-117553094D02*
X174614819Y-117553094D01*
X174614819Y-117553094D02*
X174614819Y-117172142D01*
X174614819Y-117172142D02*
X174662438Y-117076904D01*
X174662438Y-117076904D02*
X174710057Y-117029285D01*
X174710057Y-117029285D02*
X174805295Y-116981666D01*
X174805295Y-116981666D02*
X174948152Y-116981666D01*
X174948152Y-116981666D02*
X175043390Y-117029285D01*
X175043390Y-117029285D02*
X175091009Y-117076904D01*
X175091009Y-117076904D02*
X175138628Y-117172142D01*
X175138628Y-117172142D02*
X175138628Y-117553094D01*
X174614819Y-116648332D02*
X174614819Y-116029285D01*
X174614819Y-116029285D02*
X174995771Y-116362618D01*
X174995771Y-116362618D02*
X174995771Y-116219761D01*
X174995771Y-116219761D02*
X175043390Y-116124523D01*
X175043390Y-116124523D02*
X175091009Y-116076904D01*
X175091009Y-116076904D02*
X175186247Y-116029285D01*
X175186247Y-116029285D02*
X175424342Y-116029285D01*
X175424342Y-116029285D02*
X175519580Y-116076904D01*
X175519580Y-116076904D02*
X175567200Y-116124523D01*
X175567200Y-116124523D02*
X175614819Y-116219761D01*
X175614819Y-116219761D02*
X175614819Y-116505475D01*
X175614819Y-116505475D02*
X175567200Y-116600713D01*
X175567200Y-116600713D02*
X175519580Y-116648332D01*
X115211009Y-51300714D02*
X115258628Y-51157857D01*
X115258628Y-51157857D02*
X115306247Y-51110238D01*
X115306247Y-51110238D02*
X115401485Y-51062619D01*
X115401485Y-51062619D02*
X115544342Y-51062619D01*
X115544342Y-51062619D02*
X115639580Y-51110238D01*
X115639580Y-51110238D02*
X115687200Y-51157857D01*
X115687200Y-51157857D02*
X115734819Y-51253095D01*
X115734819Y-51253095D02*
X115734819Y-51634047D01*
X115734819Y-51634047D02*
X114734819Y-51634047D01*
X114734819Y-51634047D02*
X114734819Y-51300714D01*
X114734819Y-51300714D02*
X114782438Y-51205476D01*
X114782438Y-51205476D02*
X114830057Y-51157857D01*
X114830057Y-51157857D02*
X114925295Y-51110238D01*
X114925295Y-51110238D02*
X115020533Y-51110238D01*
X115020533Y-51110238D02*
X115115771Y-51157857D01*
X115115771Y-51157857D02*
X115163390Y-51205476D01*
X115163390Y-51205476D02*
X115211009Y-51300714D01*
X115211009Y-51300714D02*
X115211009Y-51634047D01*
X114734819Y-50776904D02*
X114734819Y-50205476D01*
X115734819Y-50491190D02*
X114734819Y-50491190D01*
X115734819Y-49348333D02*
X115734819Y-49919761D01*
X115734819Y-49634047D02*
X114734819Y-49634047D01*
X114734819Y-49634047D02*
X114877676Y-49729285D01*
X114877676Y-49729285D02*
X114972914Y-49824523D01*
X114972914Y-49824523D02*
X115020533Y-49919761D01*
X170114819Y-116731666D02*
X169638628Y-117064999D01*
X170114819Y-117303094D02*
X169114819Y-117303094D01*
X169114819Y-117303094D02*
X169114819Y-116922142D01*
X169114819Y-116922142D02*
X169162438Y-116826904D01*
X169162438Y-116826904D02*
X169210057Y-116779285D01*
X169210057Y-116779285D02*
X169305295Y-116731666D01*
X169305295Y-116731666D02*
X169448152Y-116731666D01*
X169448152Y-116731666D02*
X169543390Y-116779285D01*
X169543390Y-116779285D02*
X169591009Y-116826904D01*
X169591009Y-116826904D02*
X169638628Y-116922142D01*
X169638628Y-116922142D02*
X169638628Y-117303094D01*
X169210057Y-116350713D02*
X169162438Y-116303094D01*
X169162438Y-116303094D02*
X169114819Y-116207856D01*
X169114819Y-116207856D02*
X169114819Y-115969761D01*
X169114819Y-115969761D02*
X169162438Y-115874523D01*
X169162438Y-115874523D02*
X169210057Y-115826904D01*
X169210057Y-115826904D02*
X169305295Y-115779285D01*
X169305295Y-115779285D02*
X169400533Y-115779285D01*
X169400533Y-115779285D02*
X169543390Y-115826904D01*
X169543390Y-115826904D02*
X170114819Y-116398332D01*
X170114819Y-116398332D02*
X170114819Y-115779285D01*
X116213635Y-77714580D02*
X116166016Y-77762200D01*
X116166016Y-77762200D02*
X116023159Y-77809819D01*
X116023159Y-77809819D02*
X115927921Y-77809819D01*
X115927921Y-77809819D02*
X115785064Y-77762200D01*
X115785064Y-77762200D02*
X115689826Y-77666961D01*
X115689826Y-77666961D02*
X115642207Y-77571723D01*
X115642207Y-77571723D02*
X115594588Y-77381247D01*
X115594588Y-77381247D02*
X115594588Y-77238390D01*
X115594588Y-77238390D02*
X115642207Y-77047914D01*
X115642207Y-77047914D02*
X115689826Y-76952676D01*
X115689826Y-76952676D02*
X115785064Y-76857438D01*
X115785064Y-76857438D02*
X115927921Y-76809819D01*
X115927921Y-76809819D02*
X116023159Y-76809819D01*
X116023159Y-76809819D02*
X116166016Y-76857438D01*
X116166016Y-76857438D02*
X116213635Y-76905057D01*
X116546969Y-76809819D02*
X117166016Y-76809819D01*
X117166016Y-76809819D02*
X116832683Y-77190771D01*
X116832683Y-77190771D02*
X116975540Y-77190771D01*
X116975540Y-77190771D02*
X117070778Y-77238390D01*
X117070778Y-77238390D02*
X117118397Y-77286009D01*
X117118397Y-77286009D02*
X117166016Y-77381247D01*
X117166016Y-77381247D02*
X117166016Y-77619342D01*
X117166016Y-77619342D02*
X117118397Y-77714580D01*
X117118397Y-77714580D02*
X117070778Y-77762200D01*
X117070778Y-77762200D02*
X116975540Y-77809819D01*
X116975540Y-77809819D02*
X116689826Y-77809819D01*
X116689826Y-77809819D02*
X116594588Y-77762200D01*
X116594588Y-77762200D02*
X116546969Y-77714580D01*
X161699819Y-125143094D02*
X160699819Y-125143094D01*
X160699819Y-125143094D02*
X160699819Y-124904999D01*
X160699819Y-124904999D02*
X160747438Y-124762142D01*
X160747438Y-124762142D02*
X160842676Y-124666904D01*
X160842676Y-124666904D02*
X160937914Y-124619285D01*
X160937914Y-124619285D02*
X161128390Y-124571666D01*
X161128390Y-124571666D02*
X161271247Y-124571666D01*
X161271247Y-124571666D02*
X161461723Y-124619285D01*
X161461723Y-124619285D02*
X161556961Y-124666904D01*
X161556961Y-124666904D02*
X161652200Y-124762142D01*
X161652200Y-124762142D02*
X161699819Y-124904999D01*
X161699819Y-124904999D02*
X161699819Y-125143094D01*
X160795057Y-124190713D02*
X160747438Y-124143094D01*
X160747438Y-124143094D02*
X160699819Y-124047856D01*
X160699819Y-124047856D02*
X160699819Y-123809761D01*
X160699819Y-123809761D02*
X160747438Y-123714523D01*
X160747438Y-123714523D02*
X160795057Y-123666904D01*
X160795057Y-123666904D02*
X160890295Y-123619285D01*
X160890295Y-123619285D02*
X160985533Y-123619285D01*
X160985533Y-123619285D02*
X161128390Y-123666904D01*
X161128390Y-123666904D02*
X161699819Y-124238332D01*
X161699819Y-124238332D02*
X161699819Y-123619285D01*
%TO.C,F7*%
D12*
X138950000Y-80680000D02*
X142150000Y-80680000D01*
X139800000Y-82680000D02*
X141400000Y-82680000D01*
X142150000Y-84680000D02*
X138950000Y-84680000D01*
%TO.C,U3*%
D11*
X117010000Y-131370000D02*
X117010000Y-110290000D01*
X160190000Y-110290000D02*
X117010000Y-110290000D01*
X160190000Y-131370000D02*
X117010000Y-131370000D01*
X160190000Y-131370000D02*
X160190000Y-110290000D01*
%TO.C,D4*%
D12*
X173909000Y-125965000D02*
X174065000Y-125965000D01*
X176225000Y-125965000D02*
X176381000Y-125965000D01*
X173909484Y-125965000D02*
G75*
G02*
X174065000Y-122733563I1235516J1560000D01*
G01*
X174065000Y-125445961D02*
G75*
G02*
X174065000Y-123364039I1080000J1040961D01*
G01*
X176225000Y-122733563D02*
G75*
G02*
X176380516Y-125965000I-1080000J-1671437D01*
G01*
X176225000Y-123364039D02*
G75*
G02*
X176225000Y-125445961I-1080000J-1040961D01*
G01*
%TO.C,TP3*%
X175865000Y-131280000D02*
G75*
G02*
X172865000Y-131280000I-1500000J0D01*
G01*
X172865000Y-131280000D02*
G75*
G02*
X175865000Y-131280000I1500000J0D01*
G01*
%TO.C,F6*%
X153000000Y-80655000D02*
X156200000Y-80655000D01*
X153850000Y-82655000D02*
X155450000Y-82655000D01*
X156200000Y-84655000D02*
X153000000Y-84655000D01*
%TO.C,U2*%
D13*
X162000000Y-72705000D02*
X165180000Y-72705000D01*
X162000000Y-109855000D02*
X162000000Y-72705000D01*
X165180000Y-109855000D02*
X162000000Y-109855000D01*
X168820000Y-72705000D02*
X172380000Y-72705000D01*
X172380000Y-109855000D02*
X168820000Y-109855000D01*
X176020000Y-72705000D02*
X179200000Y-72705000D01*
X179200000Y-72705000D02*
X179200000Y-109855000D01*
X179200000Y-109855000D02*
X176020000Y-109855000D01*
%TO.C,TP4*%
D12*
X165365000Y-131280000D02*
G75*
G02*
X162365000Y-131280000I-1500000J0D01*
G01*
X162365000Y-131280000D02*
G75*
G02*
X165365000Y-131280000I1500000J0D01*
G01*
%TO.C,F5*%
X138950000Y-75805000D02*
X142150000Y-75805000D01*
X139800000Y-77805000D02*
X141400000Y-77805000D01*
X142150000Y-79805000D02*
X138950000Y-79805000D01*
%TO.C,J1*%
X107680000Y-58960000D02*
X109060000Y-58960000D01*
X107680000Y-60340000D02*
X107680000Y-58960000D01*
X107680000Y-61610000D02*
X107680000Y-122680000D01*
X107680000Y-61610000D02*
X110330000Y-61610000D01*
X107680000Y-122680000D02*
X112980000Y-122680000D01*
X110330000Y-58960000D02*
X112980000Y-58960000D01*
X110330000Y-61610000D02*
X110330000Y-58960000D01*
X112980000Y-58960000D02*
X112980000Y-122680000D01*
%TO.C,D1*%
X181180000Y-65940000D02*
X181660000Y-65940000D01*
X181180000Y-72400000D02*
X185020000Y-72400000D01*
X181180000Y-72520000D02*
X185020000Y-72520000D01*
X181180000Y-72640000D02*
X185020000Y-72640000D01*
X181180000Y-73780000D02*
X181180000Y-65940000D01*
X181660000Y-73780000D02*
X181180000Y-73780000D01*
X184540000Y-73780000D02*
X185020000Y-73780000D01*
X185020000Y-65940000D02*
X184540000Y-65940000D01*
X185020000Y-73780000D02*
X185020000Y-65940000D01*
%TO.C,C2*%
X113440302Y-68015000D02*
X114240302Y-68015000D01*
X113840302Y-67615000D02*
X113840302Y-68415000D01*
X117850000Y-66250000D02*
X117850000Y-74410000D01*
X117890000Y-66250000D02*
X117890000Y-74410000D01*
X117930000Y-66251000D02*
X117930000Y-74409000D01*
X117970000Y-66252000D02*
X117970000Y-74408000D01*
X118010000Y-66253000D02*
X118010000Y-74407000D01*
X118050000Y-66255000D02*
X118050000Y-74405000D01*
X118090000Y-66257000D02*
X118090000Y-74403000D01*
X118130000Y-66260000D02*
X118130000Y-74400000D01*
X118170000Y-66262000D02*
X118170000Y-74398000D01*
X118210000Y-66266000D02*
X118210000Y-74394000D01*
X118250000Y-66269000D02*
X118250000Y-74391000D01*
X118290000Y-66274000D02*
X118290000Y-74386000D01*
X118330000Y-66278000D02*
X118330000Y-74382000D01*
X118370000Y-66283000D02*
X118370000Y-74377000D01*
X118410000Y-66288000D02*
X118410000Y-74372000D01*
X118450000Y-66294000D02*
X118450000Y-74366000D01*
X118490000Y-66300000D02*
X118490000Y-74360000D01*
X118530000Y-66307000D02*
X118530000Y-74353000D01*
X118570000Y-66313000D02*
X118570000Y-69290000D01*
X118570000Y-71370000D02*
X118570000Y-74347000D01*
X118610000Y-66321000D02*
X118610000Y-69290000D01*
X118610000Y-71370000D02*
X118610000Y-74339000D01*
X118650000Y-66328000D02*
X118650000Y-69290000D01*
X118650000Y-71370000D02*
X118650000Y-74332000D01*
X118690000Y-66337000D02*
X118690000Y-69290000D01*
X118690000Y-71370000D02*
X118690000Y-74323000D01*
X118730000Y-66345000D02*
X118730000Y-69290000D01*
X118730000Y-71370000D02*
X118730000Y-74315000D01*
X118770000Y-66354000D02*
X118770000Y-69290000D01*
X118770000Y-71370000D02*
X118770000Y-74306000D01*
X118810000Y-66363000D02*
X118810000Y-69290000D01*
X118810000Y-71370000D02*
X118810000Y-74297000D01*
X118850000Y-66373000D02*
X118850000Y-69290000D01*
X118850000Y-71370000D02*
X118850000Y-74287000D01*
X118890000Y-66383000D02*
X118890000Y-69290000D01*
X118890000Y-71370000D02*
X118890000Y-74277000D01*
X118930000Y-66394000D02*
X118930000Y-69290000D01*
X118930000Y-71370000D02*
X118930000Y-74266000D01*
X118970000Y-66405000D02*
X118970000Y-69290000D01*
X118970000Y-71370000D02*
X118970000Y-74255000D01*
X119010000Y-66417000D02*
X119010000Y-69290000D01*
X119010000Y-71370000D02*
X119010000Y-74243000D01*
X119050000Y-66429000D02*
X119050000Y-69290000D01*
X119050000Y-71370000D02*
X119050000Y-74231000D01*
X119090000Y-66441000D02*
X119090000Y-69290000D01*
X119090000Y-71370000D02*
X119090000Y-74219000D01*
X119130000Y-66454000D02*
X119130000Y-69290000D01*
X119130000Y-71370000D02*
X119130000Y-74206000D01*
X119170000Y-66467000D02*
X119170000Y-69290000D01*
X119170000Y-71370000D02*
X119170000Y-74193000D01*
X119210000Y-66481000D02*
X119210000Y-69290000D01*
X119210000Y-71370000D02*
X119210000Y-74179000D01*
X119250000Y-66495000D02*
X119250000Y-69290000D01*
X119250000Y-71370000D02*
X119250000Y-74165000D01*
X119290000Y-66510000D02*
X119290000Y-69290000D01*
X119290000Y-71370000D02*
X119290000Y-74150000D01*
X119330000Y-66525000D02*
X119330000Y-69290000D01*
X119330000Y-71370000D02*
X119330000Y-74135000D01*
X119370000Y-66541000D02*
X119370000Y-69290000D01*
X119370000Y-71370000D02*
X119370000Y-74119000D01*
X119410000Y-66557000D02*
X119410000Y-69290000D01*
X119410000Y-71370000D02*
X119410000Y-74103000D01*
X119450000Y-66573000D02*
X119450000Y-69290000D01*
X119450000Y-71370000D02*
X119450000Y-74087000D01*
X119490000Y-66590000D02*
X119490000Y-69290000D01*
X119490000Y-71370000D02*
X119490000Y-74070000D01*
X119530000Y-66608000D02*
X119530000Y-69290000D01*
X119530000Y-71370000D02*
X119530000Y-74052000D01*
X119570000Y-66626000D02*
X119570000Y-69290000D01*
X119570000Y-71370000D02*
X119570000Y-74034000D01*
X119610000Y-66645000D02*
X119610000Y-69290000D01*
X119610000Y-71370000D02*
X119610000Y-74015000D01*
X119650000Y-66664000D02*
X119650000Y-69290000D01*
X119650000Y-71370000D02*
X119650000Y-73996000D01*
X119690000Y-66684000D02*
X119690000Y-69290000D01*
X119690000Y-71370000D02*
X119690000Y-73976000D01*
X119730000Y-66704000D02*
X119730000Y-69290000D01*
X119730000Y-71370000D02*
X119730000Y-73956000D01*
X119770000Y-66725000D02*
X119770000Y-69290000D01*
X119770000Y-71370000D02*
X119770000Y-73935000D01*
X119810000Y-66746000D02*
X119810000Y-69290000D01*
X119810000Y-71370000D02*
X119810000Y-73914000D01*
X119850000Y-66768000D02*
X119850000Y-69290000D01*
X119850000Y-71370000D02*
X119850000Y-73892000D01*
X119890000Y-66791000D02*
X119890000Y-69290000D01*
X119890000Y-71370000D02*
X119890000Y-73869000D01*
X119930000Y-66814000D02*
X119930000Y-69290000D01*
X119930000Y-71370000D02*
X119930000Y-73846000D01*
X119970000Y-66837000D02*
X119970000Y-69290000D01*
X119970000Y-71370000D02*
X119970000Y-73823000D01*
X120010000Y-66862000D02*
X120010000Y-69290000D01*
X120010000Y-71370000D02*
X120010000Y-73798000D01*
X120050000Y-66887000D02*
X120050000Y-69290000D01*
X120050000Y-71370000D02*
X120050000Y-73773000D01*
X120090000Y-66912000D02*
X120090000Y-69290000D01*
X120090000Y-71370000D02*
X120090000Y-73748000D01*
X120130000Y-66938000D02*
X120130000Y-69290000D01*
X120130000Y-71370000D02*
X120130000Y-73722000D01*
X120170000Y-66965000D02*
X120170000Y-69290000D01*
X120170000Y-71370000D02*
X120170000Y-73695000D01*
X120210000Y-66993000D02*
X120210000Y-69290000D01*
X120210000Y-71370000D02*
X120210000Y-73667000D01*
X120250000Y-67021000D02*
X120250000Y-69290000D01*
X120250000Y-71370000D02*
X120250000Y-73639000D01*
X120290000Y-67050000D02*
X120290000Y-69290000D01*
X120290000Y-71370000D02*
X120290000Y-73610000D01*
X120330000Y-67080000D02*
X120330000Y-69290000D01*
X120330000Y-71370000D02*
X120330000Y-73580000D01*
X120370000Y-67111000D02*
X120370000Y-69290000D01*
X120370000Y-71370000D02*
X120370000Y-73549000D01*
X120410000Y-67142000D02*
X120410000Y-69290000D01*
X120410000Y-71370000D02*
X120410000Y-73518000D01*
X120450000Y-67174000D02*
X120450000Y-69290000D01*
X120450000Y-71370000D02*
X120450000Y-73486000D01*
X120490000Y-67207000D02*
X120490000Y-69290000D01*
X120490000Y-71370000D02*
X120490000Y-73453000D01*
X120530000Y-67241000D02*
X120530000Y-69290000D01*
X120530000Y-71370000D02*
X120530000Y-73419000D01*
X120570000Y-67275000D02*
X120570000Y-69290000D01*
X120570000Y-71370000D02*
X120570000Y-73385000D01*
X120610000Y-67311000D02*
X120610000Y-69290000D01*
X120610000Y-71370000D02*
X120610000Y-73349000D01*
X120650000Y-67348000D02*
X120650000Y-73312000D01*
X120690000Y-67385000D02*
X120690000Y-73275000D01*
X120730000Y-67424000D02*
X120730000Y-73236000D01*
X120770000Y-67463000D02*
X120770000Y-73197000D01*
X120810000Y-67504000D02*
X120810000Y-73156000D01*
X120850000Y-67546000D02*
X120850000Y-73114000D01*
X120890000Y-67589000D02*
X120890000Y-73071000D01*
X120930000Y-67634000D02*
X120930000Y-73026000D01*
X120970000Y-67679000D02*
X120970000Y-72981000D01*
X121010000Y-67726000D02*
X121010000Y-72934000D01*
X121050000Y-67775000D02*
X121050000Y-72885000D01*
X121090000Y-67825000D02*
X121090000Y-72835000D01*
X121130000Y-67877000D02*
X121130000Y-72783000D01*
X121170000Y-67930000D02*
X121170000Y-72730000D01*
X121210000Y-67986000D02*
X121210000Y-72674000D01*
X121250000Y-68043000D02*
X121250000Y-72617000D01*
X121290000Y-68103000D02*
X121290000Y-72557000D01*
X121330000Y-68165000D02*
X121330000Y-72495000D01*
X121370000Y-68229000D02*
X121370000Y-72431000D01*
X121410000Y-68296000D02*
X121410000Y-72364000D01*
X121450000Y-68366000D02*
X121450000Y-72294000D01*
X121490000Y-68440000D02*
X121490000Y-72220000D01*
X121530000Y-68517000D02*
X121530000Y-72143000D01*
X121570000Y-68599000D02*
X121570000Y-72061000D01*
X121610000Y-68686000D02*
X121610000Y-71974000D01*
X121650000Y-68778000D02*
X121650000Y-71882000D01*
X121690000Y-68877000D02*
X121690000Y-71783000D01*
X121730000Y-68984000D02*
X121730000Y-71676000D01*
X121770000Y-69102000D02*
X121770000Y-71558000D01*
X121810000Y-69233000D02*
X121810000Y-71427000D01*
X121850000Y-69383000D02*
X121850000Y-71277000D01*
X121890000Y-69562000D02*
X121890000Y-71098000D01*
X121930000Y-69797000D02*
X121930000Y-70863000D01*
X121970000Y-70330000D02*
G75*
G02*
X113730000Y-70330000I-4120000J0D01*
G01*
X113730000Y-70330000D02*
G75*
G02*
X121970000Y-70330000I4120000J0D01*
G01*
%TO.C,F4*%
X153000000Y-75780000D02*
X156200000Y-75780000D01*
X153850000Y-77780000D02*
X155450000Y-77780000D01*
X156200000Y-79780000D02*
X153000000Y-79780000D01*
%TO.C,F3*%
X138950000Y-71405000D02*
X142150000Y-71405000D01*
X139800000Y-73405000D02*
X141400000Y-73405000D01*
X142150000Y-75405000D02*
X138950000Y-75405000D01*
%TO.C,U4*%
D11*
X117010000Y-107320000D02*
X117010000Y-86240000D01*
X160190000Y-86240000D02*
X117010000Y-86240000D01*
X160190000Y-107320000D02*
X117010000Y-107320000D01*
X160190000Y-107320000D02*
X160190000Y-86240000D01*
%TO.C,F2*%
D12*
X153000000Y-71380000D02*
X156200000Y-71380000D01*
X153850000Y-73380000D02*
X155450000Y-73380000D01*
X156200000Y-75380000D02*
X153000000Y-75380000D01*
%TO.C,J2*%
X186445000Y-58920000D02*
X187825000Y-58920000D01*
X186445000Y-60300000D02*
X186445000Y-58920000D01*
X186445000Y-61570000D02*
X186445000Y-122640000D01*
X186445000Y-61570000D02*
X189095000Y-61570000D01*
X186445000Y-122640000D02*
X191745000Y-122640000D01*
X189095000Y-58920000D02*
X191745000Y-58920000D01*
X189095000Y-61570000D02*
X189095000Y-58920000D01*
X191745000Y-58920000D02*
X191745000Y-122640000D01*
%TO.C,C1*%
X113440302Y-58465000D02*
X114240302Y-58465000D01*
X113840302Y-58065000D02*
X113840302Y-58865000D01*
X117850000Y-56700000D02*
X117850000Y-64860000D01*
X117890000Y-56700000D02*
X117890000Y-64860000D01*
X117930000Y-56701000D02*
X117930000Y-64859000D01*
X117970000Y-56702000D02*
X117970000Y-64858000D01*
X118010000Y-56703000D02*
X118010000Y-64857000D01*
X118050000Y-56705000D02*
X118050000Y-64855000D01*
X118090000Y-56707000D02*
X118090000Y-64853000D01*
X118130000Y-56710000D02*
X118130000Y-64850000D01*
X118170000Y-56712000D02*
X118170000Y-64848000D01*
X118210000Y-56716000D02*
X118210000Y-64844000D01*
X118250000Y-56719000D02*
X118250000Y-64841000D01*
X118290000Y-56724000D02*
X118290000Y-64836000D01*
X118330000Y-56728000D02*
X118330000Y-64832000D01*
X118370000Y-56733000D02*
X118370000Y-64827000D01*
X118410000Y-56738000D02*
X118410000Y-64822000D01*
X118450000Y-56744000D02*
X118450000Y-64816000D01*
X118490000Y-56750000D02*
X118490000Y-64810000D01*
X118530000Y-56757000D02*
X118530000Y-64803000D01*
X118570000Y-56763000D02*
X118570000Y-59740000D01*
X118570000Y-61820000D02*
X118570000Y-64797000D01*
X118610000Y-56771000D02*
X118610000Y-59740000D01*
X118610000Y-61820000D02*
X118610000Y-64789000D01*
X118650000Y-56778000D02*
X118650000Y-59740000D01*
X118650000Y-61820000D02*
X118650000Y-64782000D01*
X118690000Y-56787000D02*
X118690000Y-59740000D01*
X118690000Y-61820000D02*
X118690000Y-64773000D01*
X118730000Y-56795000D02*
X118730000Y-59740000D01*
X118730000Y-61820000D02*
X118730000Y-64765000D01*
X118770000Y-56804000D02*
X118770000Y-59740000D01*
X118770000Y-61820000D02*
X118770000Y-64756000D01*
X118810000Y-56813000D02*
X118810000Y-59740000D01*
X118810000Y-61820000D02*
X118810000Y-64747000D01*
X118850000Y-56823000D02*
X118850000Y-59740000D01*
X118850000Y-61820000D02*
X118850000Y-64737000D01*
X118890000Y-56833000D02*
X118890000Y-59740000D01*
X118890000Y-61820000D02*
X118890000Y-64727000D01*
X118930000Y-56844000D02*
X118930000Y-59740000D01*
X118930000Y-61820000D02*
X118930000Y-64716000D01*
X118970000Y-56855000D02*
X118970000Y-59740000D01*
X118970000Y-61820000D02*
X118970000Y-64705000D01*
X119010000Y-56867000D02*
X119010000Y-59740000D01*
X119010000Y-61820000D02*
X119010000Y-64693000D01*
X119050000Y-56879000D02*
X119050000Y-59740000D01*
X119050000Y-61820000D02*
X119050000Y-64681000D01*
X119090000Y-56891000D02*
X119090000Y-59740000D01*
X119090000Y-61820000D02*
X119090000Y-64669000D01*
X119130000Y-56904000D02*
X119130000Y-59740000D01*
X119130000Y-61820000D02*
X119130000Y-64656000D01*
X119170000Y-56917000D02*
X119170000Y-59740000D01*
X119170000Y-61820000D02*
X119170000Y-64643000D01*
X119210000Y-56931000D02*
X119210000Y-59740000D01*
X119210000Y-61820000D02*
X119210000Y-64629000D01*
X119250000Y-56945000D02*
X119250000Y-59740000D01*
X119250000Y-61820000D02*
X119250000Y-64615000D01*
X119290000Y-56960000D02*
X119290000Y-59740000D01*
X119290000Y-61820000D02*
X119290000Y-64600000D01*
X119330000Y-56975000D02*
X119330000Y-59740000D01*
X119330000Y-61820000D02*
X119330000Y-64585000D01*
X119370000Y-56991000D02*
X119370000Y-59740000D01*
X119370000Y-61820000D02*
X119370000Y-64569000D01*
X119410000Y-57007000D02*
X119410000Y-59740000D01*
X119410000Y-61820000D02*
X119410000Y-64553000D01*
X119450000Y-57023000D02*
X119450000Y-59740000D01*
X119450000Y-61820000D02*
X119450000Y-64537000D01*
X119490000Y-57040000D02*
X119490000Y-59740000D01*
X119490000Y-61820000D02*
X119490000Y-64520000D01*
X119530000Y-57058000D02*
X119530000Y-59740000D01*
X119530000Y-61820000D02*
X119530000Y-64502000D01*
X119570000Y-57076000D02*
X119570000Y-59740000D01*
X119570000Y-61820000D02*
X119570000Y-64484000D01*
X119610000Y-57095000D02*
X119610000Y-59740000D01*
X119610000Y-61820000D02*
X119610000Y-64465000D01*
X119650000Y-57114000D02*
X119650000Y-59740000D01*
X119650000Y-61820000D02*
X119650000Y-64446000D01*
X119690000Y-57134000D02*
X119690000Y-59740000D01*
X119690000Y-61820000D02*
X119690000Y-64426000D01*
X119730000Y-57154000D02*
X119730000Y-59740000D01*
X119730000Y-61820000D02*
X119730000Y-64406000D01*
X119770000Y-57175000D02*
X119770000Y-59740000D01*
X119770000Y-61820000D02*
X119770000Y-64385000D01*
X119810000Y-57196000D02*
X119810000Y-59740000D01*
X119810000Y-61820000D02*
X119810000Y-64364000D01*
X119850000Y-57218000D02*
X119850000Y-59740000D01*
X119850000Y-61820000D02*
X119850000Y-64342000D01*
X119890000Y-57241000D02*
X119890000Y-59740000D01*
X119890000Y-61820000D02*
X119890000Y-64319000D01*
X119930000Y-57264000D02*
X119930000Y-59740000D01*
X119930000Y-61820000D02*
X119930000Y-64296000D01*
X119970000Y-57287000D02*
X119970000Y-59740000D01*
X119970000Y-61820000D02*
X119970000Y-64273000D01*
X120010000Y-57312000D02*
X120010000Y-59740000D01*
X120010000Y-61820000D02*
X120010000Y-64248000D01*
X120050000Y-57337000D02*
X120050000Y-59740000D01*
X120050000Y-61820000D02*
X120050000Y-64223000D01*
X120090000Y-57362000D02*
X120090000Y-59740000D01*
X120090000Y-61820000D02*
X120090000Y-64198000D01*
X120130000Y-57388000D02*
X120130000Y-59740000D01*
X120130000Y-61820000D02*
X120130000Y-64172000D01*
X120170000Y-57415000D02*
X120170000Y-59740000D01*
X120170000Y-61820000D02*
X120170000Y-64145000D01*
X120210000Y-57443000D02*
X120210000Y-59740000D01*
X120210000Y-61820000D02*
X120210000Y-64117000D01*
X120250000Y-57471000D02*
X120250000Y-59740000D01*
X120250000Y-61820000D02*
X120250000Y-64089000D01*
X120290000Y-57500000D02*
X120290000Y-59740000D01*
X120290000Y-61820000D02*
X120290000Y-64060000D01*
X120330000Y-57530000D02*
X120330000Y-59740000D01*
X120330000Y-61820000D02*
X120330000Y-64030000D01*
X120370000Y-57561000D02*
X120370000Y-59740000D01*
X120370000Y-61820000D02*
X120370000Y-63999000D01*
X120410000Y-57592000D02*
X120410000Y-59740000D01*
X120410000Y-61820000D02*
X120410000Y-63968000D01*
X120450000Y-57624000D02*
X120450000Y-59740000D01*
X120450000Y-61820000D02*
X120450000Y-63936000D01*
X120490000Y-57657000D02*
X120490000Y-59740000D01*
X120490000Y-61820000D02*
X120490000Y-63903000D01*
X120530000Y-57691000D02*
X120530000Y-59740000D01*
X120530000Y-61820000D02*
X120530000Y-63869000D01*
X120570000Y-57725000D02*
X120570000Y-59740000D01*
X120570000Y-61820000D02*
X120570000Y-63835000D01*
X120610000Y-57761000D02*
X120610000Y-59740000D01*
X120610000Y-61820000D02*
X120610000Y-63799000D01*
X120650000Y-57798000D02*
X120650000Y-63762000D01*
X120690000Y-57835000D02*
X120690000Y-63725000D01*
X120730000Y-57874000D02*
X120730000Y-63686000D01*
X120770000Y-57913000D02*
X120770000Y-63647000D01*
X120810000Y-57954000D02*
X120810000Y-63606000D01*
X120850000Y-57996000D02*
X120850000Y-63564000D01*
X120890000Y-58039000D02*
X120890000Y-63521000D01*
X120930000Y-58084000D02*
X120930000Y-63476000D01*
X120970000Y-58129000D02*
X120970000Y-63431000D01*
X121010000Y-58176000D02*
X121010000Y-63384000D01*
X121050000Y-58225000D02*
X121050000Y-63335000D01*
X121090000Y-58275000D02*
X121090000Y-63285000D01*
X121130000Y-58327000D02*
X121130000Y-63233000D01*
X121170000Y-58380000D02*
X121170000Y-63180000D01*
X121210000Y-58436000D02*
X121210000Y-63124000D01*
X121250000Y-58493000D02*
X121250000Y-63067000D01*
X121290000Y-58553000D02*
X121290000Y-63007000D01*
X121330000Y-58615000D02*
X121330000Y-62945000D01*
X121370000Y-58679000D02*
X121370000Y-62881000D01*
X121410000Y-58746000D02*
X121410000Y-62814000D01*
X121450000Y-58816000D02*
X121450000Y-62744000D01*
X121490000Y-58890000D02*
X121490000Y-62670000D01*
X121530000Y-58967000D02*
X121530000Y-62593000D01*
X121570000Y-59049000D02*
X121570000Y-62511000D01*
X121610000Y-59136000D02*
X121610000Y-62424000D01*
X121650000Y-59228000D02*
X121650000Y-62332000D01*
X121690000Y-59327000D02*
X121690000Y-62233000D01*
X121730000Y-59434000D02*
X121730000Y-62126000D01*
X121770000Y-59552000D02*
X121770000Y-62008000D01*
X121810000Y-59683000D02*
X121810000Y-61877000D01*
X121850000Y-59833000D02*
X121850000Y-61727000D01*
X121890000Y-60012000D02*
X121890000Y-61548000D01*
X121930000Y-60247000D02*
X121930000Y-61313000D01*
X121970000Y-60780000D02*
G75*
G02*
X113730000Y-60780000I-4120000J0D01*
G01*
X113730000Y-60780000D02*
G75*
G02*
X121970000Y-60780000I4120000J0D01*
G01*
%TO.C,TP1*%
X126115000Y-50560000D02*
G75*
G02*
X123115000Y-50560000I-1500000J0D01*
G01*
X123115000Y-50560000D02*
G75*
G02*
X126115000Y-50560000I1500000J0D01*
G01*
%TO.C,U1*%
D11*
X132015000Y-48460000D02*
X153015000Y-48460000D01*
X153015000Y-67460000D01*
X132015000Y-67460000D01*
X132015000Y-48460000D01*
%TO.C,C4*%
D12*
X123940302Y-77465000D02*
X124740302Y-77465000D01*
X124340302Y-77065000D02*
X124340302Y-77865000D01*
X128350000Y-75700000D02*
X128350000Y-83860000D01*
X128390000Y-75700000D02*
X128390000Y-83860000D01*
X128430000Y-75701000D02*
X128430000Y-83859000D01*
X128470000Y-75702000D02*
X128470000Y-83858000D01*
X128510000Y-75703000D02*
X128510000Y-83857000D01*
X128550000Y-75705000D02*
X128550000Y-83855000D01*
X128590000Y-75707000D02*
X128590000Y-83853000D01*
X128630000Y-75710000D02*
X128630000Y-83850000D01*
X128670000Y-75712000D02*
X128670000Y-83848000D01*
X128710000Y-75716000D02*
X128710000Y-83844000D01*
X128750000Y-75719000D02*
X128750000Y-83841000D01*
X128790000Y-75724000D02*
X128790000Y-83836000D01*
X128830000Y-75728000D02*
X128830000Y-83832000D01*
X128870000Y-75733000D02*
X128870000Y-83827000D01*
X128910000Y-75738000D02*
X128910000Y-83822000D01*
X128950000Y-75744000D02*
X128950000Y-83816000D01*
X128990000Y-75750000D02*
X128990000Y-83810000D01*
X129030000Y-75757000D02*
X129030000Y-83803000D01*
X129070000Y-75763000D02*
X129070000Y-78740000D01*
X129070000Y-80820000D02*
X129070000Y-83797000D01*
X129110000Y-75771000D02*
X129110000Y-78740000D01*
X129110000Y-80820000D02*
X129110000Y-83789000D01*
X129150000Y-75778000D02*
X129150000Y-78740000D01*
X129150000Y-80820000D02*
X129150000Y-83782000D01*
X129190000Y-75787000D02*
X129190000Y-78740000D01*
X129190000Y-80820000D02*
X129190000Y-83773000D01*
X129230000Y-75795000D02*
X129230000Y-78740000D01*
X129230000Y-80820000D02*
X129230000Y-83765000D01*
X129270000Y-75804000D02*
X129270000Y-78740000D01*
X129270000Y-80820000D02*
X129270000Y-83756000D01*
X129310000Y-75813000D02*
X129310000Y-78740000D01*
X129310000Y-80820000D02*
X129310000Y-83747000D01*
X129350000Y-75823000D02*
X129350000Y-78740000D01*
X129350000Y-80820000D02*
X129350000Y-83737000D01*
X129390000Y-75833000D02*
X129390000Y-78740000D01*
X129390000Y-80820000D02*
X129390000Y-83727000D01*
X129430000Y-75844000D02*
X129430000Y-78740000D01*
X129430000Y-80820000D02*
X129430000Y-83716000D01*
X129470000Y-75855000D02*
X129470000Y-78740000D01*
X129470000Y-80820000D02*
X129470000Y-83705000D01*
X129510000Y-75867000D02*
X129510000Y-78740000D01*
X129510000Y-80820000D02*
X129510000Y-83693000D01*
X129550000Y-75879000D02*
X129550000Y-78740000D01*
X129550000Y-80820000D02*
X129550000Y-83681000D01*
X129590000Y-75891000D02*
X129590000Y-78740000D01*
X129590000Y-80820000D02*
X129590000Y-83669000D01*
X129630000Y-75904000D02*
X129630000Y-78740000D01*
X129630000Y-80820000D02*
X129630000Y-83656000D01*
X129670000Y-75917000D02*
X129670000Y-78740000D01*
X129670000Y-80820000D02*
X129670000Y-83643000D01*
X129710000Y-75931000D02*
X129710000Y-78740000D01*
X129710000Y-80820000D02*
X129710000Y-83629000D01*
X129750000Y-75945000D02*
X129750000Y-78740000D01*
X129750000Y-80820000D02*
X129750000Y-83615000D01*
X129790000Y-75960000D02*
X129790000Y-78740000D01*
X129790000Y-80820000D02*
X129790000Y-83600000D01*
X129830000Y-75975000D02*
X129830000Y-78740000D01*
X129830000Y-80820000D02*
X129830000Y-83585000D01*
X129870000Y-75991000D02*
X129870000Y-78740000D01*
X129870000Y-80820000D02*
X129870000Y-83569000D01*
X129910000Y-76007000D02*
X129910000Y-78740000D01*
X129910000Y-80820000D02*
X129910000Y-83553000D01*
X129950000Y-76023000D02*
X129950000Y-78740000D01*
X129950000Y-80820000D02*
X129950000Y-83537000D01*
X129990000Y-76040000D02*
X129990000Y-78740000D01*
X129990000Y-80820000D02*
X129990000Y-83520000D01*
X130030000Y-76058000D02*
X130030000Y-78740000D01*
X130030000Y-80820000D02*
X130030000Y-83502000D01*
X130070000Y-76076000D02*
X130070000Y-78740000D01*
X130070000Y-80820000D02*
X130070000Y-83484000D01*
X130110000Y-76095000D02*
X130110000Y-78740000D01*
X130110000Y-80820000D02*
X130110000Y-83465000D01*
X130150000Y-76114000D02*
X130150000Y-78740000D01*
X130150000Y-80820000D02*
X130150000Y-83446000D01*
X130190000Y-76134000D02*
X130190000Y-78740000D01*
X130190000Y-80820000D02*
X130190000Y-83426000D01*
X130230000Y-76154000D02*
X130230000Y-78740000D01*
X130230000Y-80820000D02*
X130230000Y-83406000D01*
X130270000Y-76175000D02*
X130270000Y-78740000D01*
X130270000Y-80820000D02*
X130270000Y-83385000D01*
X130310000Y-76196000D02*
X130310000Y-78740000D01*
X130310000Y-80820000D02*
X130310000Y-83364000D01*
X130350000Y-76218000D02*
X130350000Y-78740000D01*
X130350000Y-80820000D02*
X130350000Y-83342000D01*
X130390000Y-76241000D02*
X130390000Y-78740000D01*
X130390000Y-80820000D02*
X130390000Y-83319000D01*
X130430000Y-76264000D02*
X130430000Y-78740000D01*
X130430000Y-80820000D02*
X130430000Y-83296000D01*
X130470000Y-76287000D02*
X130470000Y-78740000D01*
X130470000Y-80820000D02*
X130470000Y-83273000D01*
X130510000Y-76312000D02*
X130510000Y-78740000D01*
X130510000Y-80820000D02*
X130510000Y-83248000D01*
X130550000Y-76337000D02*
X130550000Y-78740000D01*
X130550000Y-80820000D02*
X130550000Y-83223000D01*
X130590000Y-76362000D02*
X130590000Y-78740000D01*
X130590000Y-80820000D02*
X130590000Y-83198000D01*
X130630000Y-76388000D02*
X130630000Y-78740000D01*
X130630000Y-80820000D02*
X130630000Y-83172000D01*
X130670000Y-76415000D02*
X130670000Y-78740000D01*
X130670000Y-80820000D02*
X130670000Y-83145000D01*
X130710000Y-76443000D02*
X130710000Y-78740000D01*
X130710000Y-80820000D02*
X130710000Y-83117000D01*
X130750000Y-76471000D02*
X130750000Y-78740000D01*
X130750000Y-80820000D02*
X130750000Y-83089000D01*
X130790000Y-76500000D02*
X130790000Y-78740000D01*
X130790000Y-80820000D02*
X130790000Y-83060000D01*
X130830000Y-76530000D02*
X130830000Y-78740000D01*
X130830000Y-80820000D02*
X130830000Y-83030000D01*
X130870000Y-76561000D02*
X130870000Y-78740000D01*
X130870000Y-80820000D02*
X130870000Y-82999000D01*
X130910000Y-76592000D02*
X130910000Y-78740000D01*
X130910000Y-80820000D02*
X130910000Y-82968000D01*
X130950000Y-76624000D02*
X130950000Y-78740000D01*
X130950000Y-80820000D02*
X130950000Y-82936000D01*
X130990000Y-76657000D02*
X130990000Y-78740000D01*
X130990000Y-80820000D02*
X130990000Y-82903000D01*
X131030000Y-76691000D02*
X131030000Y-78740000D01*
X131030000Y-80820000D02*
X131030000Y-82869000D01*
X131070000Y-76725000D02*
X131070000Y-78740000D01*
X131070000Y-80820000D02*
X131070000Y-82835000D01*
X131110000Y-76761000D02*
X131110000Y-78740000D01*
X131110000Y-80820000D02*
X131110000Y-82799000D01*
X131150000Y-76798000D02*
X131150000Y-82762000D01*
X131190000Y-76835000D02*
X131190000Y-82725000D01*
X131230000Y-76874000D02*
X131230000Y-82686000D01*
X131270000Y-76913000D02*
X131270000Y-82647000D01*
X131310000Y-76954000D02*
X131310000Y-82606000D01*
X131350000Y-76996000D02*
X131350000Y-82564000D01*
X131390000Y-77039000D02*
X131390000Y-82521000D01*
X131430000Y-77084000D02*
X131430000Y-82476000D01*
X131470000Y-77129000D02*
X131470000Y-82431000D01*
X131510000Y-77176000D02*
X131510000Y-82384000D01*
X131550000Y-77225000D02*
X131550000Y-82335000D01*
X131590000Y-77275000D02*
X131590000Y-82285000D01*
X131630000Y-77327000D02*
X131630000Y-82233000D01*
X131670000Y-77380000D02*
X131670000Y-82180000D01*
X131710000Y-77436000D02*
X131710000Y-82124000D01*
X131750000Y-77493000D02*
X131750000Y-82067000D01*
X131790000Y-77553000D02*
X131790000Y-82007000D01*
X131830000Y-77615000D02*
X131830000Y-81945000D01*
X131870000Y-77679000D02*
X131870000Y-81881000D01*
X131910000Y-77746000D02*
X131910000Y-81814000D01*
X131950000Y-77816000D02*
X131950000Y-81744000D01*
X131990000Y-77890000D02*
X131990000Y-81670000D01*
X132030000Y-77967000D02*
X132030000Y-81593000D01*
X132070000Y-78049000D02*
X132070000Y-81511000D01*
X132110000Y-78136000D02*
X132110000Y-81424000D01*
X132150000Y-78228000D02*
X132150000Y-81332000D01*
X132190000Y-78327000D02*
X132190000Y-81233000D01*
X132230000Y-78434000D02*
X132230000Y-81126000D01*
X132270000Y-78552000D02*
X132270000Y-81008000D01*
X132310000Y-78683000D02*
X132310000Y-80877000D01*
X132350000Y-78833000D02*
X132350000Y-80727000D01*
X132390000Y-79012000D02*
X132390000Y-80548000D01*
X132430000Y-79247000D02*
X132430000Y-80313000D01*
X132470000Y-79780000D02*
G75*
G02*
X124230000Y-79780000I-4120000J0D01*
G01*
X124230000Y-79780000D02*
G75*
G02*
X132470000Y-79780000I4120000J0D01*
G01*
%TO.C,D3*%
X168439000Y-125965000D02*
X168595000Y-125965000D01*
X170755000Y-125965000D02*
X170911000Y-125965000D01*
X168439484Y-125965000D02*
G75*
G02*
X168595000Y-122733563I1235516J1560000D01*
G01*
X168595000Y-125445961D02*
G75*
G02*
X168595000Y-123364039I1080000J1040961D01*
G01*
X170755000Y-122733563D02*
G75*
G02*
X170910516Y-125965000I-1080000J-1671437D01*
G01*
X170755000Y-123364039D02*
G75*
G02*
X170755000Y-125445961I-1080000J-1040961D01*
G01*
%TO.C,F1*%
X127100000Y-57380000D02*
X127100000Y-54180000D01*
X129100000Y-55030000D02*
X129100000Y-56630000D01*
X131100000Y-54180000D02*
X131100000Y-57380000D01*
%TO.C,D5*%
X179379000Y-125965000D02*
X179535000Y-125965000D01*
X181695000Y-125965000D02*
X181851000Y-125965000D01*
X179379484Y-125965000D02*
G75*
G02*
X179535000Y-122733563I1235516J1560000D01*
G01*
X179535000Y-125445961D02*
G75*
G02*
X179535000Y-123364039I1080000J1040961D01*
G01*
X181695000Y-122733563D02*
G75*
G02*
X181850516Y-125965000I-1080000J-1671437D01*
G01*
X181695000Y-123364039D02*
G75*
G02*
X181695000Y-125445961I-1080000J-1040961D01*
G01*
%TO.C,R4*%
X179245000Y-113570000D02*
X179575000Y-113570000D01*
X179245000Y-120110000D02*
X179245000Y-113570000D01*
X179575000Y-120110000D02*
X179245000Y-120110000D01*
X181655000Y-120110000D02*
X181985000Y-120110000D01*
X181985000Y-113570000D02*
X181655000Y-113570000D01*
X181985000Y-120110000D02*
X181985000Y-113570000D01*
%TO.C,TP2*%
X181365000Y-131280000D02*
G75*
G02*
X178365000Y-131280000I-1500000J0D01*
G01*
X178365000Y-131280000D02*
G75*
G02*
X181365000Y-131280000I1500000J0D01*
G01*
%TO.C,R1*%
X162745000Y-113630000D02*
X163075000Y-113630000D01*
X162745000Y-120170000D02*
X162745000Y-113630000D01*
X163075000Y-120170000D02*
X162745000Y-120170000D01*
X165155000Y-120170000D02*
X165485000Y-120170000D01*
X165485000Y-113630000D02*
X165155000Y-113630000D01*
X165485000Y-120170000D02*
X165485000Y-113630000D01*
%TO.C,BT2*%
X153900000Y-56980000D02*
X158970000Y-56980000D01*
X153900000Y-62580000D02*
X153900000Y-56980000D01*
X153900000Y-62580000D02*
X158970000Y-62580000D01*
X158970000Y-56980000D02*
X158970000Y-53500000D01*
X158970000Y-62580000D02*
X158970000Y-64030000D01*
X158970000Y-64030000D02*
X165850000Y-70410000D01*
X173450000Y-70410000D02*
X165850000Y-70410000D01*
X180330000Y-56980000D02*
X180330000Y-53430000D01*
X180330000Y-62580000D02*
X180330000Y-64030000D01*
X180330000Y-62580000D02*
X185400000Y-62580000D01*
X180330000Y-64030000D02*
X173450000Y-70410000D01*
X185400000Y-56980000D02*
X180330000Y-56980000D01*
X185400000Y-62580000D02*
X185400000Y-56980000D01*
X158972942Y-53480000D02*
G75*
G02*
X164469999Y-51440001I3127058J-1D01*
G01*
X174956422Y-51312608D02*
G75*
G02*
X164480001Y-51449999I-5306422J5132609D01*
G01*
X174966452Y-51287247D02*
G75*
G02*
X180330000Y-53480000I2233548J-2192753D01*
G01*
%TO.C,TP5*%
X157115000Y-50560000D02*
G75*
G02*
X154115000Y-50560000I-1500000J0D01*
G01*
X154115000Y-50560000D02*
G75*
G02*
X157115000Y-50560000I1500000J0D01*
G01*
%TO.C,R3*%
X173745000Y-113570000D02*
X174075000Y-113570000D01*
X173745000Y-120110000D02*
X173745000Y-113570000D01*
X174075000Y-120110000D02*
X173745000Y-120110000D01*
X176155000Y-120110000D02*
X176485000Y-120110000D01*
X176485000Y-113570000D02*
X176155000Y-113570000D01*
X176485000Y-120110000D02*
X176485000Y-113570000D01*
%TO.C,BT1*%
X116280000Y-51895000D02*
X116280000Y-50515000D01*
X117660000Y-51895000D02*
X116280000Y-51895000D01*
X118930000Y-49135000D02*
X121580000Y-49135000D01*
X118930000Y-51895000D02*
X118930000Y-49135000D01*
X118930000Y-51895000D02*
X121580000Y-51895000D01*
X121580000Y-51895000D02*
X121580000Y-49135000D01*
%TO.C,R2*%
X168245000Y-113320000D02*
X168575000Y-113320000D01*
X168245000Y-119860000D02*
X168245000Y-113320000D01*
X168575000Y-119860000D02*
X168245000Y-119860000D01*
X170655000Y-119860000D02*
X170985000Y-119860000D01*
X170985000Y-113320000D02*
X170655000Y-113320000D01*
X170985000Y-119860000D02*
X170985000Y-113320000D01*
%TO.C,C3*%
X113440302Y-77565000D02*
X114240302Y-77565000D01*
X113840302Y-77165000D02*
X113840302Y-77965000D01*
X117850000Y-75800000D02*
X117850000Y-83960000D01*
X117890000Y-75800000D02*
X117890000Y-83960000D01*
X117930000Y-75801000D02*
X117930000Y-83959000D01*
X117970000Y-75802000D02*
X117970000Y-83958000D01*
X118010000Y-75803000D02*
X118010000Y-83957000D01*
X118050000Y-75805000D02*
X118050000Y-83955000D01*
X118090000Y-75807000D02*
X118090000Y-83953000D01*
X118130000Y-75810000D02*
X118130000Y-83950000D01*
X118170000Y-75812000D02*
X118170000Y-83948000D01*
X118210000Y-75816000D02*
X118210000Y-83944000D01*
X118250000Y-75819000D02*
X118250000Y-83941000D01*
X118290000Y-75824000D02*
X118290000Y-83936000D01*
X118330000Y-75828000D02*
X118330000Y-83932000D01*
X118370000Y-75833000D02*
X118370000Y-83927000D01*
X118410000Y-75838000D02*
X118410000Y-83922000D01*
X118450000Y-75844000D02*
X118450000Y-83916000D01*
X118490000Y-75850000D02*
X118490000Y-83910000D01*
X118530000Y-75857000D02*
X118530000Y-83903000D01*
X118570000Y-75863000D02*
X118570000Y-78840000D01*
X118570000Y-80920000D02*
X118570000Y-83897000D01*
X118610000Y-75871000D02*
X118610000Y-78840000D01*
X118610000Y-80920000D02*
X118610000Y-83889000D01*
X118650000Y-75878000D02*
X118650000Y-78840000D01*
X118650000Y-80920000D02*
X118650000Y-83882000D01*
X118690000Y-75887000D02*
X118690000Y-78840000D01*
X118690000Y-80920000D02*
X118690000Y-83873000D01*
X118730000Y-75895000D02*
X118730000Y-78840000D01*
X118730000Y-80920000D02*
X118730000Y-83865000D01*
X118770000Y-75904000D02*
X118770000Y-78840000D01*
X118770000Y-80920000D02*
X118770000Y-83856000D01*
X118810000Y-75913000D02*
X118810000Y-78840000D01*
X118810000Y-80920000D02*
X118810000Y-83847000D01*
X118850000Y-75923000D02*
X118850000Y-78840000D01*
X118850000Y-80920000D02*
X118850000Y-83837000D01*
X118890000Y-75933000D02*
X118890000Y-78840000D01*
X118890000Y-80920000D02*
X118890000Y-83827000D01*
X118930000Y-75944000D02*
X118930000Y-78840000D01*
X118930000Y-80920000D02*
X118930000Y-83816000D01*
X118970000Y-75955000D02*
X118970000Y-78840000D01*
X118970000Y-80920000D02*
X118970000Y-83805000D01*
X119010000Y-75967000D02*
X119010000Y-78840000D01*
X119010000Y-80920000D02*
X119010000Y-83793000D01*
X119050000Y-75979000D02*
X119050000Y-78840000D01*
X119050000Y-80920000D02*
X119050000Y-83781000D01*
X119090000Y-75991000D02*
X119090000Y-78840000D01*
X119090000Y-80920000D02*
X119090000Y-83769000D01*
X119130000Y-76004000D02*
X119130000Y-78840000D01*
X119130000Y-80920000D02*
X119130000Y-83756000D01*
X119170000Y-76017000D02*
X119170000Y-78840000D01*
X119170000Y-80920000D02*
X119170000Y-83743000D01*
X119210000Y-76031000D02*
X119210000Y-78840000D01*
X119210000Y-80920000D02*
X119210000Y-83729000D01*
X119250000Y-76045000D02*
X119250000Y-78840000D01*
X119250000Y-80920000D02*
X119250000Y-83715000D01*
X119290000Y-76060000D02*
X119290000Y-78840000D01*
X119290000Y-80920000D02*
X119290000Y-83700000D01*
X119330000Y-76075000D02*
X119330000Y-78840000D01*
X119330000Y-80920000D02*
X119330000Y-83685000D01*
X119370000Y-76091000D02*
X119370000Y-78840000D01*
X119370000Y-80920000D02*
X119370000Y-83669000D01*
X119410000Y-76107000D02*
X119410000Y-78840000D01*
X119410000Y-80920000D02*
X119410000Y-83653000D01*
X119450000Y-76123000D02*
X119450000Y-78840000D01*
X119450000Y-80920000D02*
X119450000Y-83637000D01*
X119490000Y-76140000D02*
X119490000Y-78840000D01*
X119490000Y-80920000D02*
X119490000Y-83620000D01*
X119530000Y-76158000D02*
X119530000Y-78840000D01*
X119530000Y-80920000D02*
X119530000Y-83602000D01*
X119570000Y-76176000D02*
X119570000Y-78840000D01*
X119570000Y-80920000D02*
X119570000Y-83584000D01*
X119610000Y-76195000D02*
X119610000Y-78840000D01*
X119610000Y-80920000D02*
X119610000Y-83565000D01*
X119650000Y-76214000D02*
X119650000Y-78840000D01*
X119650000Y-80920000D02*
X119650000Y-83546000D01*
X119690000Y-76234000D02*
X119690000Y-78840000D01*
X119690000Y-80920000D02*
X119690000Y-83526000D01*
X119730000Y-76254000D02*
X119730000Y-78840000D01*
X119730000Y-80920000D02*
X119730000Y-83506000D01*
X119770000Y-76275000D02*
X119770000Y-78840000D01*
X119770000Y-80920000D02*
X119770000Y-83485000D01*
X119810000Y-76296000D02*
X119810000Y-78840000D01*
X119810000Y-80920000D02*
X119810000Y-83464000D01*
X119850000Y-76318000D02*
X119850000Y-78840000D01*
X119850000Y-80920000D02*
X119850000Y-83442000D01*
X119890000Y-76341000D02*
X119890000Y-78840000D01*
X119890000Y-80920000D02*
X119890000Y-83419000D01*
X119930000Y-76364000D02*
X119930000Y-78840000D01*
X119930000Y-80920000D02*
X119930000Y-83396000D01*
X119970000Y-76387000D02*
X119970000Y-78840000D01*
X119970000Y-80920000D02*
X119970000Y-83373000D01*
X120010000Y-76412000D02*
X120010000Y-78840000D01*
X120010000Y-80920000D02*
X120010000Y-83348000D01*
X120050000Y-76437000D02*
X120050000Y-78840000D01*
X120050000Y-80920000D02*
X120050000Y-83323000D01*
X120090000Y-76462000D02*
X120090000Y-78840000D01*
X120090000Y-80920000D02*
X120090000Y-83298000D01*
X120130000Y-76488000D02*
X120130000Y-78840000D01*
X120130000Y-80920000D02*
X120130000Y-83272000D01*
X120170000Y-76515000D02*
X120170000Y-78840000D01*
X120170000Y-80920000D02*
X120170000Y-83245000D01*
X120210000Y-76543000D02*
X120210000Y-78840000D01*
X120210000Y-80920000D02*
X120210000Y-83217000D01*
X120250000Y-76571000D02*
X120250000Y-78840000D01*
X120250000Y-80920000D02*
X120250000Y-83189000D01*
X120290000Y-76600000D02*
X120290000Y-78840000D01*
X120290000Y-80920000D02*
X120290000Y-83160000D01*
X120330000Y-76630000D02*
X120330000Y-78840000D01*
X120330000Y-80920000D02*
X120330000Y-83130000D01*
X120370000Y-76661000D02*
X120370000Y-78840000D01*
X120370000Y-80920000D02*
X120370000Y-83099000D01*
X120410000Y-76692000D02*
X120410000Y-78840000D01*
X120410000Y-80920000D02*
X120410000Y-83068000D01*
X120450000Y-76724000D02*
X120450000Y-78840000D01*
X120450000Y-80920000D02*
X120450000Y-83036000D01*
X120490000Y-76757000D02*
X120490000Y-78840000D01*
X120490000Y-80920000D02*
X120490000Y-83003000D01*
X120530000Y-76791000D02*
X120530000Y-78840000D01*
X120530000Y-80920000D02*
X120530000Y-82969000D01*
X120570000Y-76825000D02*
X120570000Y-78840000D01*
X120570000Y-80920000D02*
X120570000Y-82935000D01*
X120610000Y-76861000D02*
X120610000Y-78840000D01*
X120610000Y-80920000D02*
X120610000Y-82899000D01*
X120650000Y-76898000D02*
X120650000Y-82862000D01*
X120690000Y-76935000D02*
X120690000Y-82825000D01*
X120730000Y-76974000D02*
X120730000Y-82786000D01*
X120770000Y-77013000D02*
X120770000Y-82747000D01*
X120810000Y-77054000D02*
X120810000Y-82706000D01*
X120850000Y-77096000D02*
X120850000Y-82664000D01*
X120890000Y-77139000D02*
X120890000Y-82621000D01*
X120930000Y-77184000D02*
X120930000Y-82576000D01*
X120970000Y-77229000D02*
X120970000Y-82531000D01*
X121010000Y-77276000D02*
X121010000Y-82484000D01*
X121050000Y-77325000D02*
X121050000Y-82435000D01*
X121090000Y-77375000D02*
X121090000Y-82385000D01*
X121130000Y-77427000D02*
X121130000Y-82333000D01*
X121170000Y-77480000D02*
X121170000Y-82280000D01*
X121210000Y-77536000D02*
X121210000Y-82224000D01*
X121250000Y-77593000D02*
X121250000Y-82167000D01*
X121290000Y-77653000D02*
X121290000Y-82107000D01*
X121330000Y-77715000D02*
X121330000Y-82045000D01*
X121370000Y-77779000D02*
X121370000Y-81981000D01*
X121410000Y-77846000D02*
X121410000Y-81914000D01*
X121450000Y-77916000D02*
X121450000Y-81844000D01*
X121490000Y-77990000D02*
X121490000Y-81770000D01*
X121530000Y-78067000D02*
X121530000Y-81693000D01*
X121570000Y-78149000D02*
X121570000Y-81611000D01*
X121610000Y-78236000D02*
X121610000Y-81524000D01*
X121650000Y-78328000D02*
X121650000Y-81432000D01*
X121690000Y-78427000D02*
X121690000Y-81333000D01*
X121730000Y-78534000D02*
X121730000Y-81226000D01*
X121770000Y-78652000D02*
X121770000Y-81108000D01*
X121810000Y-78783000D02*
X121810000Y-80977000D01*
X121850000Y-78933000D02*
X121850000Y-80827000D01*
X121890000Y-79112000D02*
X121890000Y-80648000D01*
X121930000Y-79347000D02*
X121930000Y-80413000D01*
X121970000Y-79880000D02*
G75*
G02*
X113730000Y-79880000I-4120000J0D01*
G01*
X113730000Y-79880000D02*
G75*
G02*
X121970000Y-79880000I4120000J0D01*
G01*
%TO.C,D2*%
X162969000Y-125965000D02*
X163125000Y-125965000D01*
X165285000Y-125965000D02*
X165441000Y-125965000D01*
X162969484Y-125965000D02*
G75*
G02*
X163125000Y-122733563I1235516J1560000D01*
G01*
X163125000Y-125445961D02*
G75*
G02*
X163125000Y-123364039I1080000J1040961D01*
G01*
X165285000Y-122733563D02*
G75*
G02*
X165440516Y-125965000I-1080000J-1671437D01*
G01*
X165285000Y-123364039D02*
G75*
G02*
X165285000Y-125445961I-1080000J-1040961D01*
G01*
%TD*%
M02*
