%TF.GenerationSoftware,KiCad,Pcbnew,10.0.4*%
%TF.CreationDate,2026-08-13T16:03:49+01:00*%
%TF.ProjectId,EPS,4550532e-6b69-4636-9164-5f7063625858,rev?*%
%TF.SameCoordinates,Original*%
%TF.FileFunction,Copper,L1,Top*%
%TF.FilePolarity,Positive*%
%FSLAX46Y46*%
G04 Gerber Fmt 4.6, Leading zero omitted, Abs format (unit mm)*
G04 Created by KiCad (PCBNEW 10.0.4) date 2026-08-13 16:03:49*
%MOMM*%
%LPD*%
G01*
G04 APERTURE LIST*
G04 Aperture macros list*
%AMRoundRect*
0 Rectangle with rounded corners*
0 $1 Rounding radius*
0 $2 $3 $4 $5 $6 $7 $8 $9 X,Y pos of 4 corners*
0 Add a 4 corners polygon primitive as box body*
4,1,4,$2,$3,$4,$5,$6,$7,$8,$9,$2,$3,0*
0 Add four circle primitives for the rounded corners*
1,1,$1+$1,$2,$3*
1,1,$1+$1,$4,$5*
1,1,$1+$1,$6,$7*
1,1,$1+$1,$8,$9*
0 Add four rect primitives between the rounded corners*
20,1,$1+$1,$2,$3,$4,$5,0*
20,1,$1+$1,$4,$5,$6,$7,0*
20,1,$1+$1,$6,$7,$8,$9,0*
20,1,$1+$1,$8,$9,$2,$3,0*%
%AMFreePoly0*
4,1,13,2.503536,1.503536,2.505000,1.500000,2.505000,-1.500000,2.503536,-1.503536,2.500000,-1.505000,-2.500000,-1.505000,-2.503536,-1.503536,-2.505000,-1.500000,-2.505000,1.500000,-2.503536,1.503536,-2.500000,1.505000,2.500000,1.505000,2.503536,1.503536,2.503536,1.503536,$1*%
G04 Aperture macros list end*
%TA.AperFunction,ComponentPad*%
%ADD10O,5.500000X3.800000*%
%TD*%
%TA.AperFunction,ComponentPad*%
%ADD11O,5.300000X3.800000*%
%TD*%
%TA.AperFunction,ComponentPad*%
%ADD12C,3.000000*%
%TD*%
%TA.AperFunction,ComponentPad*%
%ADD13R,1.800000X1.800000*%
%TD*%
%TA.AperFunction,ComponentPad*%
%ADD14C,1.800000*%
%TD*%
%TA.AperFunction,ComponentPad*%
%ADD15C,2.000000*%
%TD*%
%TA.AperFunction,ComponentPad*%
%ADD16FreePoly0,90.000000*%
%TD*%
%TA.AperFunction,ComponentPad*%
%ADD17R,1.700000X1.700000*%
%TD*%
%TA.AperFunction,ComponentPad*%
%ADD18C,1.700000*%
%TD*%
%TA.AperFunction,ComponentPad*%
%ADD19RoundRect,0.250001X0.949999X-0.949999X0.949999X0.949999X-0.949999X0.949999X-0.949999X-0.949999X0*%
%TD*%
%TA.AperFunction,ComponentPad*%
%ADD20C,2.400000*%
%TD*%
%TA.AperFunction,ComponentPad*%
%ADD21RoundRect,0.250000X-0.550000X-0.550000X0.550000X-0.550000X0.550000X0.550000X-0.550000X0.550000X0*%
%TD*%
%TA.AperFunction,ComponentPad*%
%ADD22C,1.600000*%
%TD*%
%TA.AperFunction,ComponentPad*%
%ADD23C,1.270000*%
%TD*%
%TA.AperFunction,ComponentPad*%
%ADD24O,3.800000X5.500000*%
%TD*%
%TA.AperFunction,ComponentPad*%
%ADD25O,3.800000X5.300000*%
%TD*%
%TA.AperFunction,SMDPad,CuDef*%
%ADD26R,5.000000X5.000000*%
%TD*%
%TA.AperFunction,SMDPad,CuDef*%
%ADD27R,4.000000X4.000000*%
%TD*%
%TA.AperFunction,ViaPad*%
%ADD28C,0.600000*%
%TD*%
%TA.AperFunction,Conductor*%
%ADD29C,0.200000*%
%TD*%
G04 APERTURE END LIST*
D10*
%TO.P,F7,1*%
%TO.N,Net-(U2-VOUT+)*%
X136550000Y-82680000D03*
D11*
%TO.P,F7,2*%
%TO.N,28V*%
X144550000Y-82680000D03*
%TD*%
D12*
%TO.P,U3,VIN_N,VIN-_VIN_N*%
%TO.N,GND*%
X158350000Y-112260000D03*
%TO.P,U3,VIN_P,VIN+_VIN_P*%
%TO.N,Net-(U3-VIN+)*%
X158350000Y-129400000D03*
%TO.P,U3,VOUT_N,VOUT-_VOUT_N*%
%TO.N,GND*%
X118850000Y-112260000D03*
%TO.P,U3,VOUT_P,VOUT+_VOUT_P*%
%TO.N,Net-(U3-VOUT+)*%
X118850000Y-129400000D03*
%TD*%
D13*
%TO.P,D4,1,K_1*%
%TO.N,GND*%
X175145000Y-125675000D03*
D14*
%TO.P,D4,2,A_2*%
%TO.N,Net-(D4-A)*%
X175145000Y-123135000D03*
%TD*%
D15*
%TO.P,TP3,1,1_1*%
%TO.N,5V*%
X174365000Y-131280000D03*
%TD*%
D10*
%TO.P,F6,1*%
%TO.N,14.8V*%
X150600000Y-82655000D03*
D11*
%TO.P,F6,2*%
%TO.N,Net-(U2-VIN+)*%
X158600000Y-82655000D03*
%TD*%
D16*
%TO.P,U2,VIN_N,VIN-_VIN_N*%
%TO.N,GND*%
X174200000Y-75505000D03*
%TO.P,U2,VIN_P,VIN+_VIN_P*%
%TO.N,Net-(U2-VIN+)*%
X167000000Y-75505000D03*
%TO.P,U2,VOUT_N,VOUT-_VOUT_N*%
%TO.N,GND*%
X174200000Y-107055000D03*
%TO.P,U2,VOUT_P,VOUT+_VOUT_P*%
%TO.N,Net-(U2-VOUT+)*%
X167000000Y-107055000D03*
%TD*%
D15*
%TO.P,TP4,1,1_1*%
%TO.N,28V*%
X163865000Y-131280000D03*
%TD*%
D10*
%TO.P,F5,1*%
%TO.N,Net-(U3-VOUT+)*%
X136550000Y-77805000D03*
D11*
%TO.P,F5,2*%
%TO.N,5V*%
X144550000Y-77805000D03*
%TD*%
D17*
%TO.P,J1,1,Pin_1_1*%
%TO.N,GND*%
X109060000Y-60340000D03*
D18*
%TO.P,J1,2,Pin_2_2*%
X111600000Y-60340000D03*
%TO.P,J1,3,Pin_3_3*%
X109060000Y-62880000D03*
%TO.P,J1,4,Pin_4_4*%
X111600000Y-62880000D03*
%TO.P,J1,5,Pin_5_5*%
%TO.N,3V3*%
X109060000Y-65420000D03*
%TO.P,J1,6,Pin_6_6*%
X111600000Y-65420000D03*
%TO.P,J1,7,Pin_7_7*%
X109060000Y-67960000D03*
%TO.P,J1,8,Pin_8_8*%
X111600000Y-67960000D03*
%TO.P,J1,9,Pin_9_9*%
%TO.N,5V*%
X109060000Y-70500000D03*
%TO.P,J1,10,Pin_10_10*%
X111600000Y-70500000D03*
%TO.P,J1,11,Pin_11_11*%
X109060000Y-73040000D03*
%TO.P,J1,12,Pin_12_12*%
X111600000Y-73040000D03*
%TO.P,J1,13,Pin_13_13*%
%TO.N,14.8V*%
X109060000Y-75580000D03*
%TO.P,J1,14,Pin_14_14*%
X111600000Y-75580000D03*
%TO.P,J1,15,Pin_15_15*%
X109060000Y-78120000D03*
%TO.P,J1,16,Pin_16_16*%
X111600000Y-78120000D03*
%TO.P,J1,17,Pin_17_17*%
%TO.N,28V*%
X109060000Y-80660000D03*
%TO.P,J1,18,Pin_18_18*%
X111600000Y-80660000D03*
%TO.P,J1,19,Pin_19_19*%
X109060000Y-83200000D03*
%TO.P,J1,20,Pin_20_20*%
X111600000Y-83200000D03*
%TO.P,J1,21,Pin_21_21*%
%TO.N,VBAT*%
X109060000Y-85740000D03*
%TO.P,J1,22,Pin_22_22*%
X111600000Y-85740000D03*
%TO.P,J1,23,Pin_23_23*%
%TO.N,SCL*%
X109060000Y-88280000D03*
%TO.P,J1,24,Pin_24_24*%
%TO.N,XB_RESET*%
X111600000Y-88280000D03*
%TO.P,J1,25,Pin_25_25*%
%TO.N,SDA*%
X109060000Y-90820000D03*
%TO.P,J1,26,Pin_26_26*%
%TO.N,BNO_INT*%
X111600000Y-90820000D03*
%TO.P,J1,27,Pin_27_27*%
%TO.N,INA_ALERT*%
X109060000Y-93360000D03*
%TO.P,J1,28,Pin_28_28*%
%TO.N,MICROFC*%
X111600000Y-93360000D03*
%TO.P,J1,29,Pin_29_29*%
%TO.N,S1223*%
X109060000Y-95900000D03*
%TO.P,J1,30,Pin_30_30*%
%TO.N,BNO_RST*%
X111600000Y-95900000D03*
%TO.P,J1,31,Pin_31_31*%
%TO.N,unconnected-(J1-Pin_31-Pad31)*%
X109060000Y-98440000D03*
%TO.P,J1,32,Pin_32_32*%
%TO.N,unconnected-(J1-Pin_32-Pad32)*%
X111600000Y-98440000D03*
%TO.P,J1,33,Pin_33_33*%
%TO.N,unconnected-(J1-Pin_33-Pad33)*%
X109060000Y-100980000D03*
%TO.P,J1,34,Pin_34_34*%
%TO.N,unconnected-(J1-Pin_34-Pad34)*%
X111600000Y-100980000D03*
%TO.P,J1,35,Pin_35_35*%
%TO.N,unconnected-(J1-Pin_35-Pad35)*%
X109060000Y-103520000D03*
%TO.P,J1,36,Pin_36_36*%
%TO.N,unconnected-(J1-Pin_36-Pad36)*%
X111600000Y-103520000D03*
%TO.P,J1,37,Pin_37_37*%
%TO.N,unconnected-(J1-Pin_37-Pad37)*%
X109060000Y-106060000D03*
%TO.P,J1,38,Pin_38_38*%
%TO.N,unconnected-(J1-Pin_38-Pad38)*%
X111600000Y-106060000D03*
%TO.P,J1,39,Pin_39_39*%
%TO.N,BPW34_OUT*%
X109060000Y-108600000D03*
%TO.P,J1,40,Pin_40_40*%
%TO.N,GNSS_PPS*%
X111600000Y-108600000D03*
%TO.P,J1,41,Pin_41_41*%
%TO.N,GNSS_FIX*%
X109060000Y-111140000D03*
%TO.P,J1,42,Pin_42_42*%
%TO.N,GNSS_EN*%
X111600000Y-111140000D03*
%TO.P,J1,43,Pin_43_43*%
%TO.N,RX2*%
X109060000Y-113680000D03*
%TO.P,J1,44,Pin_44_44*%
%TO.N,RX1*%
X111600000Y-113680000D03*
%TO.P,J1,45,Pin_45_45*%
%TO.N,TX2*%
X109060000Y-116220000D03*
%TO.P,J1,46,Pin_46_46*%
%TO.N,TX1*%
X111600000Y-116220000D03*
%TO.P,J1,47,Pin_47_47*%
%TO.N,GND*%
X109060000Y-118760000D03*
%TO.P,J1,48,Pin_48_48*%
X111600000Y-118760000D03*
%TO.P,J1,49,Pin_49_49*%
X109060000Y-121300000D03*
%TO.P,J1,50,Pin_50_50*%
X111600000Y-121300000D03*
%TD*%
D19*
%TO.P,D1,1,K_1*%
%TO.N,GND*%
X183100000Y-74940000D03*
D20*
%TO.P,D1,2,A_2*%
%TO.N,Net-(BT2--)*%
X183100000Y-64780000D03*
%TD*%
D21*
%TO.P,C2,1*%
%TO.N,3V3*%
X116100000Y-70330000D03*
D22*
%TO.P,C2,2*%
%TO.N,GND*%
X119600000Y-70330000D03*
%TD*%
D10*
%TO.P,F4,1*%
%TO.N,14.8V*%
X150600000Y-77780000D03*
D11*
%TO.P,F4,2*%
%TO.N,Net-(U3-VIN+)*%
X158600000Y-77780000D03*
%TD*%
D10*
%TO.P,F3,1*%
%TO.N,Net-(U4-VOUT+)*%
X136550000Y-73405000D03*
D11*
%TO.P,F3,2*%
%TO.N,3V3*%
X144550000Y-73405000D03*
%TD*%
D12*
%TO.P,U4,VIN_N,VIN-_VIN_N*%
%TO.N,GND*%
X158350000Y-88210000D03*
%TO.P,U4,VIN_P,VIN+_VIN_P*%
%TO.N,Net-(U4-VIN+)*%
X158350000Y-105350000D03*
%TO.P,U4,VOUT_N,VOUT-_VOUT_N*%
%TO.N,GND*%
X118850000Y-88210000D03*
%TO.P,U4,VOUT_P,VOUT+_VOUT_P*%
%TO.N,Net-(U4-VOUT+)*%
X118850000Y-105350000D03*
%TD*%
D10*
%TO.P,F2,1*%
%TO.N,14.8V*%
X150600000Y-73380000D03*
D11*
%TO.P,F2,2*%
%TO.N,Net-(U4-VIN+)*%
X158600000Y-73380000D03*
%TD*%
D17*
%TO.P,J2,1,Pin_1_1*%
%TO.N,GND*%
X187825000Y-60300000D03*
D18*
%TO.P,J2,2,Pin_2_2*%
X190365000Y-60300000D03*
%TO.P,J2,3,Pin_3_3*%
X187825000Y-62840000D03*
%TO.P,J2,4,Pin_4_4*%
X190365000Y-62840000D03*
%TO.P,J2,5,Pin_5_5*%
%TO.N,3V3*%
X187825000Y-65380000D03*
%TO.P,J2,6,Pin_6_6*%
X190365000Y-65380000D03*
%TO.P,J2,7,Pin_7_7*%
X187825000Y-67920000D03*
%TO.P,J2,8,Pin_8_8*%
X190365000Y-67920000D03*
%TO.P,J2,9,Pin_9_9*%
%TO.N,5V*%
X187825000Y-70460000D03*
%TO.P,J2,10,Pin_10_10*%
X190365000Y-70460000D03*
%TO.P,J2,11,Pin_11_11*%
X187825000Y-73000000D03*
%TO.P,J2,12,Pin_12_12*%
X190365000Y-73000000D03*
%TO.P,J2,13,Pin_13_13*%
%TO.N,14.8V*%
X187825000Y-75540000D03*
%TO.P,J2,14,Pin_14_14*%
X190365000Y-75540000D03*
%TO.P,J2,15,Pin_15_15*%
X187825000Y-78080000D03*
%TO.P,J2,16,Pin_16_16*%
X190365000Y-78080000D03*
%TO.P,J2,17,Pin_17_17*%
%TO.N,28V*%
X187825000Y-80620000D03*
%TO.P,J2,18,Pin_18_18*%
X190365000Y-80620000D03*
%TO.P,J2,19,Pin_19_19*%
X187825000Y-83160000D03*
%TO.P,J2,20,Pin_20_20*%
X190365000Y-83160000D03*
%TO.P,J2,21,Pin_21_21*%
%TO.N,VBAT*%
X187825000Y-85700000D03*
%TO.P,J2,22,Pin_22_22*%
X190365000Y-85700000D03*
%TO.P,J2,23,Pin_23_23*%
%TO.N,SCL*%
X187825000Y-88240000D03*
%TO.P,J2,24,Pin_24_24*%
%TO.N,XB_RESET*%
X190365000Y-88240000D03*
%TO.P,J2,25,Pin_25_25*%
%TO.N,SDA*%
X187825000Y-90780000D03*
%TO.P,J2,26,Pin_26_26*%
%TO.N,BNO_INT*%
X190365000Y-90780000D03*
%TO.P,J2,27,Pin_27_27*%
%TO.N,INA_ALERT*%
X187825000Y-93320000D03*
%TO.P,J2,28,Pin_28_28*%
%TO.N,MICROFC*%
X190365000Y-93320000D03*
%TO.P,J2,29,Pin_29_29*%
%TO.N,S1223*%
X187825000Y-95860000D03*
%TO.P,J2,30,Pin_30_30*%
%TO.N,BNO_RST*%
X190365000Y-95860000D03*
%TO.P,J2,31,Pin_31_31*%
%TO.N,unconnected-(J2-Pin_31-Pad31)*%
X187825000Y-98400000D03*
%TO.P,J2,32,Pin_32_32*%
%TO.N,unconnected-(J2-Pin_32-Pad32)*%
X190365000Y-98400000D03*
%TO.P,J2,33,Pin_33_33*%
%TO.N,unconnected-(J2-Pin_33-Pad33)*%
X187825000Y-100940000D03*
%TO.P,J2,34,Pin_34_34*%
%TO.N,unconnected-(J2-Pin_34-Pad34)*%
X190365000Y-100940000D03*
%TO.P,J2,35,Pin_35_35*%
%TO.N,unconnected-(J2-Pin_35-Pad35)*%
X187825000Y-103480000D03*
%TO.P,J2,36,Pin_36_36*%
%TO.N,unconnected-(J2-Pin_36-Pad36)*%
X190365000Y-103480000D03*
%TO.P,J2,37,Pin_37_37*%
%TO.N,unconnected-(J2-Pin_37-Pad37)*%
X187825000Y-106020000D03*
%TO.P,J2,38,Pin_38_38*%
%TO.N,unconnected-(J2-Pin_38-Pad38)*%
X190365000Y-106020000D03*
%TO.P,J2,39,Pin_39_39*%
%TO.N,BPW34_OUT*%
X187825000Y-108560000D03*
%TO.P,J2,40,Pin_40_40*%
%TO.N,GNSS_PPS*%
X190365000Y-108560000D03*
%TO.P,J2,41,Pin_41_41*%
%TO.N,GNSS_FIX*%
X187825000Y-111100000D03*
%TO.P,J2,42,Pin_42_42*%
%TO.N,GNSS_EN*%
X190365000Y-111100000D03*
%TO.P,J2,43,Pin_43_43*%
%TO.N,RX2*%
X187825000Y-113640000D03*
%TO.P,J2,44,Pin_44_44*%
%TO.N,RX1*%
X190365000Y-113640000D03*
%TO.P,J2,45,Pin_45_45*%
%TO.N,TX2*%
X187825000Y-116180000D03*
%TO.P,J2,46,Pin_46_46*%
%TO.N,TX1*%
X190365000Y-116180000D03*
%TO.P,J2,47,Pin_47_47*%
%TO.N,GND*%
X187825000Y-118720000D03*
%TO.P,J2,48,Pin_48_48*%
X190365000Y-118720000D03*
%TO.P,J2,49,Pin_49_49*%
X187825000Y-121260000D03*
%TO.P,J2,50,Pin_50_50*%
X190365000Y-121260000D03*
%TD*%
D21*
%TO.P,C1,1*%
%TO.N,Net-(BT1-+)*%
X116100000Y-60780000D03*
D22*
%TO.P,C1,2*%
%TO.N,GND*%
X119600000Y-60780000D03*
%TD*%
D15*
%TO.P,TP1,1,1_1*%
%TO.N,Net-(BT1-+)*%
X124615000Y-50560000D03*
%TD*%
D23*
%TO.P,U1,3,~{Alert}_3*%
%TO.N,INA_ALERT*%
X141245000Y-65710000D03*
%TO.P,U1,4,SDA_4*%
%TO.N,SDA*%
X143785000Y-65710000D03*
%TO.P,U1,5,SCL_5*%
%TO.N,SCL*%
X146325000Y-65710000D03*
%TO.P,U1,6,VS_6*%
%TO.N,3V3*%
X151405000Y-65710000D03*
%TO.P,U1,7,GND_7*%
%TO.N,GND*%
X148865000Y-65710000D03*
%TO.P,U1,8,Vbus_8*%
%TO.N,INA_14.8V*%
X138705000Y-65710000D03*
%TO.P,U1,9,Vin-_9*%
%TO.N,14.8V*%
X136165000Y-65710000D03*
D12*
X145515000Y-50960000D03*
D23*
%TO.P,U1,10,Vin+_10*%
%TO.N,INA_14.8V*%
X133625000Y-65710000D03*
D12*
X139515000Y-50960000D03*
%TD*%
D21*
%TO.P,C4,1*%
%TO.N,28V*%
X126600000Y-79780000D03*
D22*
%TO.P,C4,2*%
%TO.N,GND*%
X130100000Y-79780000D03*
%TD*%
D13*
%TO.P,D3,1,K_1*%
%TO.N,GND*%
X169675000Y-125675000D03*
D14*
%TO.P,D3,2,A_2*%
%TO.N,Net-(D3-A)*%
X169675000Y-123135000D03*
%TD*%
D24*
%TO.P,F1,1*%
%TO.N,Net-(BT1-+)*%
X129100000Y-51780000D03*
D25*
%TO.P,F1,2*%
%TO.N,INA_14.8V*%
X129100000Y-59780000D03*
%TD*%
D13*
%TO.P,D5,1,K_1*%
%TO.N,GND*%
X180615000Y-125675000D03*
D14*
%TO.P,D5,2,A_2*%
%TO.N,Net-(D5-A)*%
X180615000Y-123135000D03*
%TD*%
D22*
%TO.P,R4,1*%
%TO.N,3V3*%
X180615000Y-120650000D03*
%TO.P,R4,2*%
%TO.N,Net-(D5-A)*%
X180615000Y-113030000D03*
%TD*%
D15*
%TO.P,TP2,1,1_1*%
%TO.N,3V3*%
X179865000Y-131280000D03*
%TD*%
D22*
%TO.P,R1,1*%
%TO.N,28V*%
X164115000Y-120710000D03*
%TO.P,R1,2*%
%TO.N,Net-(D2-A)*%
X164115000Y-113090000D03*
%TD*%
D26*
%TO.P,BT2,1,+_1*%
%TO.N,VBAT*%
X156700000Y-59780000D03*
X182600000Y-59780000D03*
D27*
%TO.P,BT2,2,-_2*%
%TO.N,Net-(BT2--)*%
X169650000Y-59780000D03*
%TD*%
D15*
%TO.P,TP5,1,1_1*%
%TO.N,VBAT*%
X155615000Y-50560000D03*
%TD*%
D22*
%TO.P,R3,1*%
%TO.N,5V*%
X175115000Y-120650000D03*
%TO.P,R3,2*%
%TO.N,Net-(D4-A)*%
X175115000Y-113030000D03*
%TD*%
D17*
%TO.P,BT1,1,+_1*%
%TO.N,Net-(BT1-+)*%
X117660000Y-50515000D03*
D18*
%TO.P,BT1,2,-_2*%
%TO.N,GND*%
X120200000Y-50515000D03*
%TD*%
D22*
%TO.P,R2,1*%
%TO.N,14.8V*%
X169615000Y-120400000D03*
%TO.P,R2,2*%
%TO.N,Net-(D3-A)*%
X169615000Y-112780000D03*
%TD*%
D21*
%TO.P,C3,1*%
%TO.N,5V*%
X116100000Y-79880000D03*
D22*
%TO.P,C3,2*%
%TO.N,GND*%
X119600000Y-79880000D03*
%TD*%
D13*
%TO.P,D2,1,K_1*%
%TO.N,GND*%
X164205000Y-125675000D03*
D14*
%TO.P,D2,2,A_2*%
%TO.N,Net-(D2-A)*%
X164205000Y-123135000D03*
%TD*%
D28*
%TO.N,GND*%
X154615000Y-87810000D03*
X139115000Y-70310000D03*
%TO.N,5V*%
X179615000Y-81060000D03*
%TO.N,14.8V*%
X150600000Y-82655000D03*
X150615000Y-106060000D03*
X159615000Y-117060000D03*
X121365000Y-74310000D03*
%TO.N,3V3*%
X187825000Y-67920000D03*
X185365000Y-116060000D03*
%TO.N,VBAT*%
X138615000Y-64310000D03*
X185115000Y-63560000D03*
%TO.N,SCL*%
X114865000Y-91060000D03*
%TO.N,MICROFC*%
X181750000Y-96000000D03*
X154500000Y-96000000D03*
X113745000Y-95505000D03*
%TO.N,S1223*%
X187825000Y-95860000D03*
%TD*%
%TO.N,28V*%
D29*
X190365000Y-83160000D02*
X190365000Y-80620000D01*
X187825000Y-80620000D02*
X187825000Y-83160000D01*
X187825000Y-83160000D02*
X190365000Y-83160000D01*
X144550000Y-118145585D02*
X157964415Y-131560000D01*
X144550000Y-82680000D02*
X144550000Y-118145585D01*
X109060000Y-80660000D02*
X111600000Y-80660000D01*
X164115000Y-120710000D02*
X165405000Y-122000000D01*
X109060000Y-83200000D02*
X109060000Y-80660000D01*
X157964415Y-131560000D02*
X163585000Y-131560000D01*
X111600000Y-83200000D02*
X109060000Y-83200000D01*
X111600000Y-80660000D02*
X111600000Y-83200000D01*
X165405000Y-129740000D02*
X163865000Y-131280000D01*
X190365000Y-80620000D02*
X187825000Y-80620000D01*
X165405000Y-122000000D02*
X165405000Y-129740000D01*
X163585000Y-131560000D02*
X163865000Y-131280000D01*
%TO.N,GND*%
X112350000Y-118760000D02*
X118850000Y-112260000D01*
X118850000Y-87825000D02*
X118850000Y-88210000D01*
X189955000Y-118720000D02*
X187825000Y-118720000D01*
X182535000Y-75505000D02*
X183100000Y-74940000D01*
X187825000Y-62840000D02*
X190365000Y-62840000D01*
X109060000Y-121300000D02*
X111600000Y-121300000D01*
X109060000Y-60340000D02*
X111600000Y-60340000D01*
X111600000Y-118760000D02*
X109060000Y-118760000D01*
X190365000Y-118720000D02*
X190365000Y-121260000D01*
X156550000Y-110460000D02*
X158350000Y-112260000D01*
X111600000Y-121300000D02*
X111600000Y-118760000D01*
X119600000Y-79880000D02*
X119600000Y-70330000D01*
X187825000Y-60300000D02*
X187825000Y-62840000D01*
X118850000Y-87825000D02*
X118865000Y-87810000D01*
X190365000Y-62840000D02*
X190365000Y-60300000D01*
X187825000Y-60300000D02*
X190365000Y-60300000D01*
X130100000Y-79780000D02*
X129000000Y-80880000D01*
X119600000Y-70330000D02*
X119600000Y-60780000D01*
X118310000Y-59490000D02*
X118295000Y-59490000D01*
X174200000Y-75505000D02*
X182535000Y-75505000D01*
X130100000Y-75893730D02*
X135683730Y-70310000D01*
X184941840Y-65723160D02*
X187825000Y-62840000D01*
X118850000Y-88210000D02*
X118850000Y-80630000D01*
X118850000Y-80630000D02*
X119600000Y-79880000D01*
X161495000Y-88210000D02*
X158350000Y-88210000D01*
X120600000Y-80880000D02*
X119600000Y-79880000D01*
X156550000Y-90010000D02*
X156550000Y-110460000D01*
X130100000Y-79780000D02*
X130100000Y-75893730D01*
X120200000Y-50515000D02*
X118295000Y-52420000D01*
X111600000Y-62880000D02*
X109060000Y-62880000D01*
X118295000Y-52420000D02*
X118295000Y-59490000D01*
X174200000Y-75505000D02*
X161495000Y-88210000D01*
X190365000Y-118310000D02*
X189955000Y-118720000D01*
X111600000Y-60340000D02*
X111600000Y-62880000D01*
X158350000Y-88210000D02*
X156550000Y-90010000D01*
X135683730Y-70310000D02*
X139115000Y-70310000D01*
X154615000Y-71460000D02*
X154615000Y-87810000D01*
X190365000Y-121260000D02*
X187825000Y-121260000D01*
X129000000Y-80880000D02*
X120600000Y-80880000D01*
X111600000Y-118760000D02*
X112350000Y-118760000D01*
X183100000Y-66901321D02*
X184278161Y-65723160D01*
X187825000Y-121260000D02*
X187825000Y-118720000D01*
X158350000Y-119820000D02*
X164205000Y-125675000D01*
X158350000Y-112260000D02*
X158350000Y-119820000D01*
X148865000Y-65710000D02*
X154615000Y-71460000D01*
X116865000Y-90195000D02*
X118850000Y-88210000D01*
X118850000Y-112260000D02*
X116865000Y-110275000D01*
X174200000Y-107055000D02*
X174200000Y-75505000D01*
X184278161Y-65723160D02*
X184941840Y-65723160D01*
X118295000Y-59490000D02*
X112450000Y-59490000D01*
X119600000Y-60780000D02*
X118310000Y-59490000D01*
X190365000Y-118720000D02*
X190365000Y-118310000D01*
X116865000Y-110275000D02*
X116865000Y-90195000D01*
X109060000Y-118760000D02*
X109060000Y-121300000D01*
X183100000Y-74940000D02*
X183100000Y-66901321D01*
X112450000Y-59490000D02*
X111600000Y-60340000D01*
X109060000Y-62880000D02*
X109060000Y-60340000D01*
%TO.N,Net-(U3-VIN+)*%
X158600000Y-77780000D02*
X155615000Y-80765000D01*
X155615000Y-80765000D02*
X155615000Y-126665000D01*
X155615000Y-126665000D02*
X158350000Y-129400000D01*
%TO.N,Net-(U3-VOUT+)*%
X139600000Y-80855000D02*
X139600000Y-108650000D01*
X139600000Y-108650000D02*
X118850000Y-129400000D01*
X136550000Y-77805000D02*
X139600000Y-80855000D01*
%TO.N,5V*%
X111600000Y-73040000D02*
X109060000Y-73040000D01*
X190365000Y-73000000D02*
X187825000Y-73000000D01*
X116100000Y-79880000D02*
X116100000Y-77540000D01*
X109060000Y-73040000D02*
X109060000Y-70500000D01*
X116100000Y-77540000D02*
X111600000Y-73040000D01*
X187825000Y-70460000D02*
X190365000Y-70460000D01*
X181115000Y-79710000D02*
X187825000Y-73000000D01*
X173945000Y-121820000D02*
X173945000Y-130860000D01*
X175115000Y-120650000D02*
X175115000Y-114585635D01*
X187825000Y-73000000D02*
X187825000Y-70460000D01*
X190365000Y-70460000D02*
X190365000Y-73000000D01*
X181115000Y-82560000D02*
X181115000Y-79710000D01*
X175115000Y-120650000D02*
X173945000Y-121820000D01*
X181115000Y-108585635D02*
X181115000Y-82560000D01*
X175115000Y-114585635D02*
X181115000Y-108585635D01*
X109060000Y-70500000D02*
X111600000Y-70500000D01*
X173945000Y-130860000D02*
X174365000Y-131280000D01*
X111600000Y-70500000D02*
X111600000Y-73040000D01*
X179615000Y-81060000D02*
X181115000Y-82560000D01*
%TO.N,14.8V*%
X150615000Y-106060000D02*
X150615000Y-82670000D01*
X190365000Y-78080000D02*
X190365000Y-75540000D01*
X165360635Y-120400000D02*
X169615000Y-120400000D01*
X150615000Y-82670000D02*
X150600000Y-82655000D01*
X109060000Y-75580000D02*
X111600000Y-75580000D01*
X111600000Y-75580000D02*
X111600000Y-78120000D01*
X187825000Y-78080000D02*
X190365000Y-78080000D01*
X141660000Y-71205000D02*
X136165000Y-65710000D01*
X136165000Y-65710000D02*
X127565000Y-74310000D01*
X187825000Y-75540000D02*
X187825000Y-78080000D01*
X127565000Y-74310000D02*
X121365000Y-74310000D01*
X190365000Y-75540000D02*
X187825000Y-75540000D01*
X159615000Y-117060000D02*
X162020635Y-117060000D01*
X109060000Y-78120000D02*
X109060000Y-75580000D01*
X150600000Y-73380000D02*
X148425000Y-71205000D01*
X145515000Y-56360000D02*
X145515000Y-50960000D01*
X162020635Y-117060000D02*
X165360635Y-120400000D01*
X136165000Y-65710000D02*
X145515000Y-56360000D01*
X111600000Y-78120000D02*
X109060000Y-78120000D01*
X148425000Y-71205000D02*
X141660000Y-71205000D01*
%TO.N,Net-(U2-VIN+)*%
X159850000Y-82655000D02*
X158600000Y-82655000D01*
X167000000Y-75505000D02*
X159850000Y-82655000D01*
%TO.N,3V3*%
X178865000Y-130280000D02*
X179865000Y-131280000D01*
X116100000Y-70330000D02*
X113970000Y-70330000D01*
X147500000Y-76355000D02*
X147500000Y-80175000D01*
X111600000Y-67960000D02*
X109060000Y-67960000D01*
X180615000Y-120650000D02*
X185205000Y-116060000D01*
X147500000Y-80175000D02*
X146703135Y-80971865D01*
X187825000Y-67920000D02*
X187825000Y-65380000D01*
X190365000Y-67920000D02*
X187825000Y-67920000D01*
X180615000Y-120650000D02*
X178865000Y-122400000D01*
X109060000Y-67960000D02*
X109060000Y-65420000D01*
X190365000Y-65380000D02*
X190365000Y-67920000D01*
X113970000Y-70330000D02*
X111600000Y-67960000D01*
X109060000Y-65420000D02*
X111600000Y-65420000D01*
X111600000Y-65420000D02*
X111600000Y-67960000D01*
X178865000Y-122400000D02*
X178865000Y-130280000D01*
X187825000Y-65380000D02*
X190365000Y-65380000D01*
X185205000Y-116060000D02*
X185365000Y-116060000D01*
X144550000Y-73405000D02*
X147500000Y-76355000D01*
X146703135Y-80971865D02*
X146953135Y-81221865D01*
%TO.N,VBAT*%
X156700000Y-59780000D02*
X152170000Y-64310000D01*
X156700000Y-51645000D02*
X156700000Y-59780000D01*
X159000000Y-57480000D02*
X156700000Y-59780000D01*
X152170000Y-64310000D02*
X138615000Y-64310000D01*
X190365000Y-85700000D02*
X187825000Y-85700000D01*
X155615000Y-50560000D02*
X156700000Y-51645000D01*
X180300000Y-57480000D02*
X159000000Y-57480000D01*
X182600000Y-59780000D02*
X182600000Y-61045000D01*
X182600000Y-59780000D02*
X180300000Y-57480000D01*
X109060000Y-85740000D02*
X111600000Y-85740000D01*
X182600000Y-61045000D02*
X185115000Y-63560000D01*
%TO.N,Net-(BT2--)*%
X174650000Y-64780000D02*
X183100000Y-64780000D01*
X169650000Y-59780000D02*
X174650000Y-64780000D01*
%TO.N,Net-(U4-VOUT+)*%
X136550000Y-73405000D02*
X133500000Y-76455000D01*
X133500000Y-90700000D02*
X118850000Y-105350000D01*
X133500000Y-76455000D02*
X133500000Y-90700000D01*
%TO.N,Net-(BT1-+)*%
X117660000Y-50515000D02*
X119295000Y-48880000D01*
X125835000Y-51780000D02*
X129100000Y-51780000D01*
X122935000Y-48880000D02*
X124615000Y-50560000D01*
X124615000Y-50560000D02*
X125835000Y-51780000D01*
X119295000Y-48880000D02*
X122935000Y-48880000D01*
%TO.N,INA_14.8V*%
X130695000Y-59780000D02*
X139515000Y-50960000D01*
X133625000Y-65710000D02*
X129100000Y-61185000D01*
X129100000Y-59780000D02*
X130695000Y-59780000D01*
X129100000Y-61185000D02*
X129100000Y-59780000D01*
%TO.N,MICROFC*%
X182500000Y-95500000D02*
X183530000Y-94470000D01*
X113745000Y-95505000D02*
X111600000Y-93360000D01*
X181750000Y-96000000D02*
X182250000Y-95500000D01*
X183530000Y-94470000D02*
X189215000Y-94470000D01*
X189215000Y-94470000D02*
X190365000Y-93320000D01*
X182250000Y-95500000D02*
X182500000Y-95500000D01*
%TD*%
M02*
