%TF.GenerationSoftware,KiCad,Pcbnew,10.0.4*%
%TF.CreationDate,2026-08-13T16:02:56+01:00*%
%TF.ProjectId,CDH,4344482e-6b69-4636-9164-5f7063625858,rev?*%
%TF.SameCoordinates,Original*%
%TF.FileFunction,Copper,L3,Inr*%
%TF.FilePolarity,Positive*%
%FSLAX46Y46*%
G04 Gerber Fmt 4.6, Leading zero omitted, Abs format (unit mm)*
G04 Created by KiCad (PCBNEW 10.0.4) date 2026-08-13 16:02:56*
%MOMM*%
%LPD*%
G01*
G04 APERTURE LIST*
%TA.AperFunction,ComponentPad*%
%ADD10R,1.700000X1.700000*%
%TD*%
%TA.AperFunction,ComponentPad*%
%ADD11C,1.700000*%
%TD*%
%TA.AperFunction,ComponentPad*%
%ADD12C,1.270000*%
%TD*%
%TA.AperFunction,ComponentPad*%
%ADD13R,1.800000X1.800000*%
%TD*%
%TA.AperFunction,ComponentPad*%
%ADD14C,1.800000*%
%TD*%
%TA.AperFunction,ComponentPad*%
%ADD15C,1.600000*%
%TD*%
%TA.AperFunction,ComponentPad*%
%ADD16C,1.665000*%
%TD*%
%TA.AperFunction,ViaPad*%
%ADD17C,0.600000*%
%TD*%
%TA.AperFunction,Conductor*%
%ADD18C,0.200000*%
%TD*%
G04 APERTURE END LIST*
D10*
%TO.N,+3V3*%
%TO.C,J3*%
X196840000Y-133500000D03*
D11*
%TO.N,RX2*%
X199380000Y-133500000D03*
%TO.N,TX2*%
X201920000Y-133500000D03*
%TO.N,XB_RESET*%
X204460000Y-133500000D03*
%TO.N,GND*%
X207000000Y-133500000D03*
%TD*%
D12*
%TO.N,+3V3*%
%TO.C,U4*%
X192000000Y-98760000D03*
%TO.N,SCL*%
X192000000Y-106380000D03*
%TO.N,N/C*%
X192000000Y-111460000D03*
%TO.N,SDA*%
X192000000Y-108920000D03*
%TO.N,GND*%
X192000000Y-103840000D03*
%TO.N,+3V3*%
X192000000Y-114000000D03*
%TO.N,N/C*%
X192000000Y-101300000D03*
%TD*%
D13*
%TO.N,Net-(D1-K)*%
%TO.C,D1*%
X143210000Y-133100000D03*
D14*
%TO.N,Status_LED*%
X143210000Y-130560000D03*
%TD*%
D15*
%TO.N,XB_RESET*%
%TO.C,R10*%
X204500000Y-129620000D03*
%TO.N,+3V3*%
X204500000Y-122000000D03*
%TD*%
%TO.N,Net-(D5-K)*%
%TO.C,R5*%
X195310000Y-123000000D03*
%TO.N,GND*%
X187690000Y-123000000D03*
%TD*%
D13*
%TO.N,Net-(D2-K)*%
%TO.C,D2*%
X149500000Y-133040000D03*
D14*
%TO.N,RX1*%
X149500000Y-130500000D03*
%TD*%
D13*
%TO.N,Net-(D3-K)*%
%TO.C,D3*%
X155815000Y-132955000D03*
D14*
%TO.N,TX1*%
X155815000Y-130415000D03*
%TD*%
D12*
%TO.N,GND*%
%TO.C,U3*%
X157250000Y-107980000D03*
%TO.N,+3V3*%
X157250000Y-97820000D03*
%TO.N,SDA*%
X157250000Y-100360000D03*
%TO.N,SCL*%
X157250000Y-105440000D03*
%TO.N,GND*%
X157250000Y-102900000D03*
%TO.N,+3V3*%
X157250000Y-113060000D03*
%TO.N,N/C*%
X157250000Y-110520000D03*
%TD*%
D15*
%TO.N,Net-(D3-K)*%
%TO.C,R3*%
X156000000Y-127310000D03*
%TO.N,GND*%
X156000000Y-119690000D03*
%TD*%
D13*
%TO.N,Net-(D4-K)*%
%TO.C,D4*%
X201040000Y-129500000D03*
D14*
%TO.N,RX2*%
X198500000Y-129500000D03*
%TD*%
D15*
%TO.N,Net-(D1-K)*%
%TO.C,R1*%
X143000000Y-127310000D03*
%TO.N,GND*%
X143000000Y-119690000D03*
%TD*%
D16*
%TO.N,TX1*%
%TO.C,IC1*%
X183660000Y-128640000D03*
%TO.N,BNO_INT*%
X183660000Y-126100000D03*
%TO.N,BNO_RST*%
X183660000Y-123560000D03*
%TO.N,unconnected-(IC1-BCLK2-Pad4)*%
X183660000Y-121020000D03*
%TO.N,unconnected-(IC1-IN2-Pad5)*%
X183660000Y-118480000D03*
%TO.N,unconnected-(IC1-OUT1D-Pad6)*%
X183660000Y-115940000D03*
%TO.N,RX2*%
X183660000Y-113400000D03*
%TO.N,TX2*%
X183660000Y-110860000D03*
%TO.N,unconnected-(IC1-OUT1C-Pad9)*%
X183660000Y-108320000D03*
%TO.N,unconnected-(IC1-CS_1-Pad10)*%
X183660000Y-105780000D03*
%TO.N,unconnected-(IC1-MOSI-Pad11)*%
X183660000Y-103240000D03*
%TO.N,unconnected-(IC1-MISO-Pad12)*%
X183660000Y-100700000D03*
%TO.N,unconnected-(IC1-SCK-Pad13)*%
X168420000Y-100700000D03*
%TO.N,unconnected-(IC1-A0-Pad14)*%
X168420000Y-103240000D03*
%TO.N,Status_LED*%
X168420000Y-105780000D03*
%TO.N,MICROFC*%
X168420000Y-108320000D03*
%TO.N,XB_RESET*%
X168420000Y-110860000D03*
%TO.N,SDA*%
X168420000Y-113400000D03*
%TO.N,SCL*%
X168420000Y-115940000D03*
%TO.N,unconnected-(IC1-A6-Pad20)*%
X168420000Y-118480000D03*
%TO.N,unconnected-(IC1-A7-Pad21)*%
X168420000Y-121020000D03*
%TO.N,BPW34*%
X168420000Y-123560000D03*
%TO.N,S1223*%
X168420000Y-126100000D03*
%TO.N,INA_ALERT*%
X183660000Y-95620000D03*
%TO.N,GNSS_EN*%
X183660000Y-93080000D03*
%TO.N,GNSS_FIX*%
X183660000Y-90540000D03*
%TO.N,GNSS_PPS*%
X183660000Y-88000000D03*
%TO.N,unconnected-(IC1-RX7-Pad28)*%
X183660000Y-85460000D03*
%TO.N,unconnected-(IC1-TX7-Pad29)*%
X183660000Y-82920000D03*
%TO.N,unconnected-(IC1-CRX3-Pad30)*%
X183660000Y-80380000D03*
%TO.N,unconnected-(IC1-CTX3-Pad31)*%
X183660000Y-77840000D03*
%TO.N,unconnected-(IC1-OUT1B-Pad32)*%
X183660000Y-75300000D03*
%TO.N,unconnected-(IC1-MCLK2-Pad33)*%
X168420000Y-75300000D03*
%TO.N,unconnected-(IC1-RX8-Pad34)*%
X168420000Y-77840000D03*
%TO.N,unconnected-(IC1-TX8-Pad35)*%
X168420000Y-80380000D03*
%TO.N,unconnected-(IC1-CS_2-Pad36)*%
X168420000Y-82920000D03*
%TO.N,unconnected-(IC1-CS_3-Pad37)*%
X168420000Y-85460000D03*
%TO.N,unconnected-(IC1-A14-Pad38)*%
X168420000Y-88000000D03*
%TO.N,unconnected-(IC1-A15-Pad39)*%
X168420000Y-90540000D03*
%TO.N,unconnected-(IC1-A16-Pad40)*%
X168420000Y-93080000D03*
%TO.N,unconnected-(IC1-A17-Pad41)*%
X168420000Y-95620000D03*
%TO.N,unconnected-(IC1-3.3V_1-Pad42)*%
X183660000Y-98160000D03*
%TO.N,unconnected-(IC1-VBAT-Pad43)*%
X181120000Y-88000000D03*
%TO.N,unconnected-(IC1-3.3V_2-Pad44)*%
X178580000Y-88000000D03*
%TO.N,GND*%
X176040000Y-88000000D03*
%TO.N,unconnected-(IC1-PROGRAM-Pad46)*%
X173500000Y-88000000D03*
%TO.N,unconnected-(IC1-ON{slash}OFF-Pad47)*%
X170960000Y-88000000D03*
%TO.N,GND*%
X180610000Y-117210000D03*
X180610000Y-119750000D03*
%TO.N,unconnected-(IC1-D+-Pad50)*%
X180610000Y-122290000D03*
%TO.N,unconnected-(IC1-D--Pad51)*%
X180610000Y-124830000D03*
%TO.N,unconnected-(IC1-+5V-Pad52)*%
X180610000Y-127370000D03*
%TO.N,unconnected-(IC1-3.3V_(250_M_A_MAX)-Pad53)*%
X168420000Y-128640000D03*
%TO.N,+5V*%
X168420000Y-133720000D03*
%TO.N,RX1*%
X183660000Y-131180000D03*
%TO.N,unconnected-(IC1-VUSB-Pad68)*%
X170960000Y-131180000D03*
%TO.N,GND*%
X168420000Y-98160000D03*
X168420000Y-131180000D03*
X183660000Y-133720000D03*
%TD*%
D13*
%TO.N,Net-(D5-K)*%
%TO.C,D5*%
X201100000Y-123285000D03*
D14*
%TO.N,TX2*%
X198560000Y-123285000D03*
%TD*%
D10*
%TO.N,GND*%
%TO.C,J1*%
X133960000Y-62560000D03*
D11*
X136500000Y-62560000D03*
X133960000Y-65100000D03*
X136500000Y-65100000D03*
%TO.N,3V3*%
X133960000Y-67640000D03*
X136500000Y-67640000D03*
X133960000Y-70180000D03*
X136500000Y-70180000D03*
%TO.N,5V*%
X133960000Y-72720000D03*
X136500000Y-72720000D03*
X133960000Y-75260000D03*
X136500000Y-75260000D03*
%TO.N,14.8V*%
X133960000Y-77800000D03*
X136500000Y-77800000D03*
X133960000Y-80340000D03*
X136500000Y-80340000D03*
%TO.N,28V*%
X133960000Y-82880000D03*
X136500000Y-82880000D03*
X133960000Y-85420000D03*
X136500000Y-85420000D03*
%TO.N,VBAT*%
X133960000Y-87960000D03*
X136500000Y-87960000D03*
%TO.N,SCL*%
X133960000Y-90500000D03*
%TO.N,XB_RESET*%
X136500000Y-90500000D03*
%TO.N,SDA*%
X133960000Y-93040000D03*
%TO.N,BNO_INT*%
X136500000Y-93040000D03*
%TO.N,INA_ALERT*%
X133960000Y-95580000D03*
%TO.N,MICROFC*%
X136500000Y-95580000D03*
%TO.N,S1223*%
X133960000Y-98120000D03*
%TO.N,BNO_RST*%
X136500000Y-98120000D03*
%TO.N,unconnected-(J1-Pin_31-Pad31)*%
X133960000Y-100660000D03*
%TO.N,unconnected-(J1-Pin_32-Pad32)*%
X136500000Y-100660000D03*
%TO.N,unconnected-(J1-Pin_33-Pad33)*%
X133960000Y-103200000D03*
%TO.N,unconnected-(J1-Pin_34-Pad34)*%
X136500000Y-103200000D03*
%TO.N,unconnected-(J1-Pin_35-Pad35)*%
X133960000Y-105740000D03*
%TO.N,unconnected-(J1-Pin_36-Pad36)*%
X136500000Y-105740000D03*
%TO.N,unconnected-(J1-Pin_37-Pad37)*%
X133960000Y-108280000D03*
%TO.N,unconnected-(J1-Pin_38-Pad38)*%
X136500000Y-108280000D03*
%TO.N,BPW34_OUT*%
X133960000Y-110820000D03*
%TO.N,GNSS_PPS*%
X136500000Y-110820000D03*
%TO.N,GNSS_FIX*%
X133960000Y-113360000D03*
%TO.N,GNSS_EN*%
X136500000Y-113360000D03*
%TO.N,RX2*%
X133960000Y-115900000D03*
%TO.N,RX1*%
X136500000Y-115900000D03*
%TO.N,TX2*%
X133960000Y-118440000D03*
%TO.N,TX1*%
X136500000Y-118440000D03*
%TO.N,GND*%
X133960000Y-120980000D03*
X136500000Y-120980000D03*
X133960000Y-123520000D03*
X136500000Y-123520000D03*
%TD*%
D15*
%TO.N,Net-(D2-K)*%
%TO.C,R2*%
X149500000Y-127310000D03*
%TO.N,GND*%
X149500000Y-119690000D03*
%TD*%
D10*
%TO.N,GND*%
%TO.C,J2*%
X212725000Y-62520000D03*
D11*
X215265000Y-62520000D03*
X212725000Y-65060000D03*
X215265000Y-65060000D03*
%TO.N,3V3*%
X212725000Y-67600000D03*
X215265000Y-67600000D03*
X212725000Y-70140000D03*
X215265000Y-70140000D03*
%TO.N,5V*%
X212725000Y-72680000D03*
X215265000Y-72680000D03*
X212725000Y-75220000D03*
X215265000Y-75220000D03*
%TO.N,14.8V*%
X212725000Y-77760000D03*
X215265000Y-77760000D03*
X212725000Y-80300000D03*
X215265000Y-80300000D03*
%TO.N,28V*%
X212725000Y-82840000D03*
X215265000Y-82840000D03*
X212725000Y-85380000D03*
X215265000Y-85380000D03*
%TO.N,VBAT*%
X212725000Y-87920000D03*
X215265000Y-87920000D03*
%TO.N,SCL*%
X212725000Y-90460000D03*
%TO.N,XB_RESET*%
X215265000Y-90460000D03*
%TO.N,SDA*%
X212725000Y-93000000D03*
%TO.N,BNO_INT*%
X215265000Y-93000000D03*
%TO.N,INA_ALERT*%
X212725000Y-95540000D03*
%TO.N,MICROFC*%
X215265000Y-95540000D03*
%TO.N,S1223*%
X212725000Y-98080000D03*
%TO.N,BNO_RST*%
X215265000Y-98080000D03*
%TO.N,unconnected-(J2-Pin_31-Pad31)*%
X212725000Y-100620000D03*
%TO.N,unconnected-(J2-Pin_32-Pad32)*%
X215265000Y-100620000D03*
%TO.N,unconnected-(J2-Pin_33-Pad33)*%
X212725000Y-103160000D03*
%TO.N,unconnected-(J2-Pin_34-Pad34)*%
X215265000Y-103160000D03*
%TO.N,unconnected-(J2-Pin_35-Pad35)*%
X212725000Y-105700000D03*
%TO.N,unconnected-(J2-Pin_36-Pad36)*%
X215265000Y-105700000D03*
%TO.N,unconnected-(J2-Pin_37-Pad37)*%
X212725000Y-108240000D03*
%TO.N,unconnected-(J2-Pin_38-Pad38)*%
X215265000Y-108240000D03*
%TO.N,BPW34_OUT*%
X212725000Y-110780000D03*
%TO.N,GNSS_PPS*%
X215265000Y-110780000D03*
%TO.N,GNSS_FIX*%
X212725000Y-113320000D03*
%TO.N,GNSS_EN*%
X215265000Y-113320000D03*
%TO.N,RX2*%
X212725000Y-115860000D03*
%TO.N,RX1*%
X215265000Y-115860000D03*
%TO.N,TX2*%
X212725000Y-118400000D03*
%TO.N,TX1*%
X215265000Y-118400000D03*
%TO.N,GND*%
X212725000Y-120940000D03*
X215265000Y-120940000D03*
X212725000Y-123480000D03*
X215265000Y-123480000D03*
%TD*%
D15*
%TO.N,Net-(D4-K)*%
%TO.C,R4*%
X195310000Y-129500000D03*
%TO.N,GND*%
X187690000Y-129500000D03*
%TD*%
D17*
%TO.N,RX2*%
X169041491Y-114578690D03*
X163000000Y-116500000D03*
%TO.N,TX2*%
X178000000Y-118500000D03*
X205000000Y-125500000D03*
X208500000Y-120300000D03*
X205000000Y-125500000D03*
%TO.N,XB_RESET*%
X205500000Y-123500000D03*
X201000000Y-127000000D03*
X188500000Y-127000000D03*
%TO.N,SCL*%
X152600000Y-104000000D03*
%TO.N,Status_LED*%
X156000000Y-122000000D03*
%TO.N,TX1*%
X140500000Y-118500000D03*
%TO.N,MICROFC*%
X192335000Y-110375562D03*
%TO.N,S1223*%
X164500000Y-105500000D03*
%TO.N,INA_ALERT*%
X161390000Y-92000000D03*
X180500000Y-95500000D03*
X155500000Y-92000000D03*
X176000000Y-94000000D03*
%TO.N,GNSS_EN*%
X193000000Y-93000000D03*
%TO.N,GNSS_FIX*%
X196500000Y-98000000D03*
%TO.N,GNSS_PPS*%
X152000000Y-109500000D03*
X198000000Y-97000000D03*
X161500000Y-102000000D03*
%TO.N,BNO_RST*%
X186379265Y-120840735D03*
%TD*%
%TO.N,XB_RESET*%
D18*
X204000000Y-125000000D02*
X204000000Y-129120000D01*
X204000000Y-129120000D02*
X204500000Y-129620000D01*
X205500000Y-123500000D02*
X204000000Y-125000000D01*
%TO.N,SDA*%
X211397500Y-91672500D02*
X165937500Y-91672500D01*
X165937500Y-91672500D02*
X157250000Y-100360000D01*
X212725000Y-93000000D02*
X211397500Y-91672500D01*
%TO.N,BNO_INT*%
X190345635Y-121900000D02*
X186145635Y-126100000D01*
X214115000Y-91850000D02*
X212248654Y-91850000D01*
X215265000Y-93000000D02*
X214115000Y-91850000D01*
X212248654Y-111930000D02*
X202278654Y-121900000D01*
X212248654Y-91850000D02*
X209806154Y-89407500D01*
X213201346Y-91850000D02*
X213875000Y-92523654D01*
X186145635Y-126100000D02*
X183660000Y-126100000D01*
X202278654Y-121900000D02*
X190345635Y-121900000D01*
X140132500Y-89407500D02*
X136500000Y-93040000D01*
X213201346Y-111930000D02*
X212248654Y-111930000D01*
X209806154Y-89407500D02*
X140132500Y-89407500D01*
X212248654Y-91850000D02*
X213201346Y-91850000D01*
X213875000Y-92523654D02*
X213875000Y-111256346D01*
X213875000Y-111256346D02*
X213201346Y-111930000D01*
%TO.N,MICROFC*%
X168420000Y-108320000D02*
X166475000Y-106375000D01*
X147295000Y-106375000D02*
X136500000Y-95580000D01*
X166475000Y-106375000D02*
X147295000Y-106375000D01*
%TO.N,S1223*%
X133960000Y-98120000D02*
X135350000Y-96730000D01*
X188802710Y-104505000D02*
X191612710Y-107315000D01*
X156315000Y-105052710D02*
X156862710Y-104505000D01*
X191612710Y-107315000D02*
X203490000Y-107315000D01*
X164500000Y-105500000D02*
X163505000Y-104505000D01*
X163505000Y-104505000D02*
X188802710Y-104505000D01*
X203490000Y-107315000D02*
X212725000Y-98080000D01*
X156862710Y-104505000D02*
X163505000Y-104505000D01*
X136976346Y-94430000D02*
X147599056Y-105052710D01*
X136023654Y-94430000D02*
X136976346Y-94430000D01*
X135350000Y-96730000D02*
X135350000Y-95103654D01*
X147599056Y-105052710D02*
X156315000Y-105052710D01*
X135350000Y-95103654D02*
X136023654Y-94430000D01*
%TO.N,INA_ALERT*%
X184930000Y-94350000D02*
X183660000Y-95620000D01*
X212725000Y-95540000D02*
X211535000Y-94350000D01*
X211535000Y-94350000D02*
X184930000Y-94350000D01*
%TO.N,BPW34_OUT*%
X133960000Y-110820000D02*
X135140000Y-112000000D01*
X191612710Y-112395000D02*
X211110000Y-112395000D01*
X135140000Y-112000000D02*
X191217710Y-112000000D01*
X211110000Y-112395000D02*
X212725000Y-110780000D01*
X191217710Y-112000000D02*
X191612710Y-112395000D01*
%TO.N,BNO_RST*%
X180278403Y-123560000D02*
X183660000Y-123560000D01*
X174065903Y-117347500D02*
X180278403Y-123560000D01*
X132810000Y-111296346D02*
X133483654Y-111970000D01*
X135110000Y-99510000D02*
X135110000Y-108996346D01*
X167950903Y-117347500D02*
X174065903Y-117347500D01*
X132810000Y-110343654D02*
X132810000Y-111296346D01*
X135110000Y-108996346D02*
X134436346Y-109670000D01*
X136976346Y-114510000D02*
X140216346Y-117750000D01*
X167548403Y-117750000D02*
X167950903Y-117347500D01*
X133483654Y-111970000D02*
X134436346Y-111970000D01*
X134436346Y-111970000D02*
X135350000Y-112883654D01*
X134436346Y-109670000D02*
X133483654Y-109670000D01*
X140216346Y-117750000D02*
X167548403Y-117750000D01*
X135350000Y-112883654D02*
X135350000Y-113836346D01*
X133483654Y-109670000D02*
X132810000Y-110343654D01*
X136500000Y-98120000D02*
X135110000Y-99510000D01*
X136023654Y-114510000D02*
X136976346Y-114510000D01*
X135350000Y-113836346D02*
X136023654Y-114510000D01*
%TD*%
M02*
