%TF.GenerationSoftware,KiCad,Pcbnew,10.0.4*%
%TF.CreationDate,2026-08-13T16:02:56+01:00*%
%TF.ProjectId,CDH,4344482e-6b69-4636-9164-5f7063625858,rev?*%
%TF.SameCoordinates,Original*%
%TF.FileFunction,Copper,L1,Top*%
%TF.FilePolarity,Positive*%
%FSLAX46Y46*%
G04 Gerber Fmt 4.6, Leading zero omitted, Abs format (unit mm)*
G04 Created by KiCad (PCBNEW 10.0.4) date 2026-08-13 16:02:56*
%MOMM*%
%LPD*%
G01*
G04 APERTURE LIST*
%TA.AperFunction,ComponentPad*%
%ADD10R,1.700000X1.700000*%
%TD*%
%TA.AperFunction,ComponentPad*%
%ADD11C,1.700000*%
%TD*%
%TA.AperFunction,ComponentPad*%
%ADD12C,1.270000*%
%TD*%
%TA.AperFunction,ComponentPad*%
%ADD13R,1.800000X1.800000*%
%TD*%
%TA.AperFunction,ComponentPad*%
%ADD14C,1.800000*%
%TD*%
%TA.AperFunction,ComponentPad*%
%ADD15C,1.600000*%
%TD*%
%TA.AperFunction,ComponentPad*%
%ADD16C,1.665000*%
%TD*%
%TA.AperFunction,ViaPad*%
%ADD17C,0.600000*%
%TD*%
%TA.AperFunction,Conductor*%
%ADD18C,0.200000*%
%TD*%
G04 APERTURE END LIST*
D10*
%TO.P,J3,1,Pin_1_1*%
%TO.N,+3V3*%
X196840000Y-133500000D03*
D11*
%TO.P,J3,2,Pin_2_2*%
%TO.N,RX2*%
X199380000Y-133500000D03*
%TO.P,J3,3,Pin_3_3*%
%TO.N,TX2*%
X201920000Y-133500000D03*
%TO.P,J3,4,Pin_4_4*%
%TO.N,XB_RESET*%
X204460000Y-133500000D03*
%TO.P,J3,5,Pin_5_5*%
%TO.N,GND*%
X207000000Y-133500000D03*
%TD*%
D12*
%TO.P,U4,1,VDD_1*%
%TO.N,+3V3*%
X192000000Y-98760000D03*
%TO.P,U4,2,SCL/SPC_2*%
%TO.N,SCL*%
X192000000Y-106380000D03*
%TO.P,U4,3*%
%TO.N,N/C*%
X192000000Y-111460000D03*
%TO.P,U4,4,SDA/SDI/SDO_4*%
%TO.N,SDA*%
X192000000Y-108920000D03*
%TO.P,U4,5,GND_5*%
%TO.N,GND*%
X192000000Y-103840000D03*
%TO.P,U4,6,CS_6*%
%TO.N,+3V3*%
X192000000Y-114000000D03*
%TO.P,U4,7*%
%TO.N,N/C*%
X192000000Y-101300000D03*
%TD*%
D13*
%TO.P,D1,1,K_1*%
%TO.N,Net-(D1-K)*%
X143210000Y-133100000D03*
D14*
%TO.P,D1,2,A_2*%
%TO.N,Status_LED*%
X143210000Y-130560000D03*
%TD*%
D15*
%TO.P,R10,1*%
%TO.N,XB_RESET*%
X204500000Y-129620000D03*
%TO.P,R10,2*%
%TO.N,+3V3*%
X204500000Y-122000000D03*
%TD*%
%TO.P,R5,1*%
%TO.N,Net-(D5-K)*%
X195310000Y-123000000D03*
%TO.P,R5,2*%
%TO.N,GND*%
X187690000Y-123000000D03*
%TD*%
D13*
%TO.P,D2,1,K_1*%
%TO.N,Net-(D2-K)*%
X149500000Y-133040000D03*
D14*
%TO.P,D2,2,A_2*%
%TO.N,RX1*%
X149500000Y-130500000D03*
%TD*%
D13*
%TO.P,D3,1,K_1*%
%TO.N,Net-(D3-K)*%
X155815000Y-132955000D03*
D14*
%TO.P,D3,2,A_2*%
%TO.N,TX1*%
X155815000Y-130415000D03*
%TD*%
D12*
%TO.P,U3,1,GND_1*%
%TO.N,GND*%
X157250000Y-107980000D03*
%TO.P,U3,2,~{CSB}_2*%
%TO.N,+3V3*%
X157250000Y-97820000D03*
%TO.P,U3,3,SDI_3*%
%TO.N,SDA*%
X157250000Y-100360000D03*
%TO.P,U3,4,SCK_4*%
%TO.N,SCL*%
X157250000Y-105440000D03*
%TO.P,U3,5,SDO_5*%
%TO.N,GND*%
X157250000Y-102900000D03*
%TO.P,U3,8,VDD_8*%
%TO.N,+3V3*%
X157250000Y-113060000D03*
%TO.P,U3,NC*%
%TO.N,N/C*%
X157250000Y-110520000D03*
%TD*%
D15*
%TO.P,R3,1*%
%TO.N,Net-(D3-K)*%
X156000000Y-127310000D03*
%TO.P,R3,2*%
%TO.N,GND*%
X156000000Y-119690000D03*
%TD*%
D13*
%TO.P,D4,1,K_1*%
%TO.N,Net-(D4-K)*%
X201040000Y-129500000D03*
D14*
%TO.P,D4,2,A_2*%
%TO.N,RX2*%
X198500000Y-129500000D03*
%TD*%
D15*
%TO.P,R1,1*%
%TO.N,Net-(D1-K)*%
X143000000Y-127310000D03*
%TO.P,R1,2*%
%TO.N,GND*%
X143000000Y-119690000D03*
%TD*%
D16*
%TO.P,IC1,1,TX1_1*%
%TO.N,TX1*%
X183660000Y-128640000D03*
%TO.P,IC1,2,OUT2_2*%
%TO.N,BNO_INT*%
X183660000Y-126100000D03*
%TO.P,IC1,3,LRCLK2_3*%
%TO.N,BNO_RST*%
X183660000Y-123560000D03*
%TO.P,IC1,4,BCLK2_4*%
%TO.N,unconnected-(IC1-BCLK2-Pad4)*%
X183660000Y-121020000D03*
%TO.P,IC1,5,IN2_5*%
%TO.N,unconnected-(IC1-IN2-Pad5)*%
X183660000Y-118480000D03*
%TO.P,IC1,6,OUT1D_6*%
%TO.N,unconnected-(IC1-OUT1D-Pad6)*%
X183660000Y-115940000D03*
%TO.P,IC1,7,RX2_7*%
%TO.N,RX2*%
X183660000Y-113400000D03*
%TO.P,IC1,8,TX2_8*%
%TO.N,TX2*%
X183660000Y-110860000D03*
%TO.P,IC1,9,OUT1C_9*%
%TO.N,unconnected-(IC1-OUT1C-Pad9)*%
X183660000Y-108320000D03*
%TO.P,IC1,10,CS_1_10*%
%TO.N,unconnected-(IC1-CS_1-Pad10)*%
X183660000Y-105780000D03*
%TO.P,IC1,11,MOSI_11*%
%TO.N,unconnected-(IC1-MOSI-Pad11)*%
X183660000Y-103240000D03*
%TO.P,IC1,12,MISO_12*%
%TO.N,unconnected-(IC1-MISO-Pad12)*%
X183660000Y-100700000D03*
%TO.P,IC1,13,SCK_13*%
%TO.N,unconnected-(IC1-SCK-Pad13)*%
X168420000Y-100700000D03*
%TO.P,IC1,14,A0_14*%
%TO.N,unconnected-(IC1-A0-Pad14)*%
X168420000Y-103240000D03*
%TO.P,IC1,15,A1_15*%
%TO.N,Status_LED*%
X168420000Y-105780000D03*
%TO.P,IC1,16,A2_16*%
%TO.N,MICROFC*%
X168420000Y-108320000D03*
%TO.P,IC1,17,A3_17*%
%TO.N,XB_RESET*%
X168420000Y-110860000D03*
%TO.P,IC1,18,A4_18*%
%TO.N,SDA*%
X168420000Y-113400000D03*
%TO.P,IC1,19,A5_19*%
%TO.N,SCL*%
X168420000Y-115940000D03*
%TO.P,IC1,20,A6_20*%
%TO.N,unconnected-(IC1-A6-Pad20)*%
X168420000Y-118480000D03*
%TO.P,IC1,21,A7_21*%
%TO.N,unconnected-(IC1-A7-Pad21)*%
X168420000Y-121020000D03*
%TO.P,IC1,22,A8_22*%
%TO.N,BPW34*%
X168420000Y-123560000D03*
%TO.P,IC1,23,A9_23*%
%TO.N,S1223*%
X168420000Y-126100000D03*
%TO.P,IC1,24,A10_24*%
%TO.N,INA_ALERT*%
X183660000Y-95620000D03*
%TO.P,IC1,25,A11_25*%
%TO.N,GNSS_EN*%
X183660000Y-93080000D03*
%TO.P,IC1,26,A12_26*%
%TO.N,GNSS_FIX*%
X183660000Y-90540000D03*
%TO.P,IC1,27,A13_27*%
%TO.N,GNSS_PPS*%
X183660000Y-88000000D03*
%TO.P,IC1,28,RX7_28*%
%TO.N,unconnected-(IC1-RX7-Pad28)*%
X183660000Y-85460000D03*
%TO.P,IC1,29,TX7_29*%
%TO.N,unconnected-(IC1-TX7-Pad29)*%
X183660000Y-82920000D03*
%TO.P,IC1,30,CRX3_30*%
%TO.N,unconnected-(IC1-CRX3-Pad30)*%
X183660000Y-80380000D03*
%TO.P,IC1,31,CTX3_31*%
%TO.N,unconnected-(IC1-CTX3-Pad31)*%
X183660000Y-77840000D03*
%TO.P,IC1,32,OUT1B_32*%
%TO.N,unconnected-(IC1-OUT1B-Pad32)*%
X183660000Y-75300000D03*
%TO.P,IC1,33,MCLK2_33*%
%TO.N,unconnected-(IC1-MCLK2-Pad33)*%
X168420000Y-75300000D03*
%TO.P,IC1,34,RX8_34*%
%TO.N,unconnected-(IC1-RX8-Pad34)*%
X168420000Y-77840000D03*
%TO.P,IC1,35,TX8_35*%
%TO.N,unconnected-(IC1-TX8-Pad35)*%
X168420000Y-80380000D03*
%TO.P,IC1,36,CS_2_36*%
%TO.N,unconnected-(IC1-CS_2-Pad36)*%
X168420000Y-82920000D03*
%TO.P,IC1,37,CS_3_37*%
%TO.N,unconnected-(IC1-CS_3-Pad37)*%
X168420000Y-85460000D03*
%TO.P,IC1,38,A14_38*%
%TO.N,unconnected-(IC1-A14-Pad38)*%
X168420000Y-88000000D03*
%TO.P,IC1,39,A15_39*%
%TO.N,unconnected-(IC1-A15-Pad39)*%
X168420000Y-90540000D03*
%TO.P,IC1,40,A16_40*%
%TO.N,unconnected-(IC1-A16-Pad40)*%
X168420000Y-93080000D03*
%TO.P,IC1,41,A17_41*%
%TO.N,unconnected-(IC1-A17-Pad41)*%
X168420000Y-95620000D03*
%TO.P,IC1,42,3.3V_1_42*%
%TO.N,unconnected-(IC1-3.3V_1-Pad42)*%
X183660000Y-98160000D03*
%TO.P,IC1,43,VBAT_43*%
%TO.N,unconnected-(IC1-VBAT-Pad43)*%
X181120000Y-88000000D03*
%TO.P,IC1,44,3.3V_2_44*%
%TO.N,unconnected-(IC1-3.3V_2-Pad44)*%
X178580000Y-88000000D03*
%TO.P,IC1,45,GND_1_45*%
%TO.N,GND*%
X176040000Y-88000000D03*
%TO.P,IC1,46,PROGRAM_46*%
%TO.N,unconnected-(IC1-PROGRAM-Pad46)*%
X173500000Y-88000000D03*
%TO.P,IC1,47,ON/OFF_47*%
%TO.N,unconnected-(IC1-ON{slash}OFF-Pad47)*%
X170960000Y-88000000D03*
%TO.P,IC1,48,GND_2_48*%
%TO.N,GND*%
X180610000Y-117210000D03*
%TO.P,IC1,49,GND_3_49*%
X180610000Y-119750000D03*
%TO.P,IC1,50,D+_50*%
%TO.N,unconnected-(IC1-D+-Pad50)*%
X180610000Y-122290000D03*
%TO.P,IC1,51,D-_51*%
%TO.N,unconnected-(IC1-D--Pad51)*%
X180610000Y-124830000D03*
%TO.P,IC1,52,+5V_52*%
%TO.N,unconnected-(IC1-+5V-Pad52)*%
X180610000Y-127370000D03*
%TO.P,IC1,53,3.3V_(250_M_A_MAX)_53*%
%TO.N,unconnected-(IC1-3.3V_(250_M_A_MAX)-Pad53)*%
X168420000Y-128640000D03*
%TO.P,IC1,55,VIN_(3.6_TO_5.5_VOLTS)_55*%
%TO.N,+5V*%
X168420000Y-133720000D03*
%TO.P,IC1,57,RX1_57*%
%TO.N,RX1*%
X183660000Y-131180000D03*
%TO.P,IC1,68,VUSB_68*%
%TO.N,unconnected-(IC1-VUSB-Pad68)*%
X170960000Y-131180000D03*
%TO.P,IC1,69,GND_4_69*%
%TO.N,GND*%
X168420000Y-98160000D03*
%TO.P,IC1,70,GND_5_70*%
X168420000Y-131180000D03*
%TO.P,IC1,71,GND_6_71*%
X183660000Y-133720000D03*
%TD*%
D13*
%TO.P,D5,1,K_1*%
%TO.N,Net-(D5-K)*%
X201100000Y-123285000D03*
D14*
%TO.P,D5,2,A_2*%
%TO.N,TX2*%
X198560000Y-123285000D03*
%TD*%
D10*
%TO.P,J1,1,Pin_1_1*%
%TO.N,GND*%
X133960000Y-62560000D03*
D11*
%TO.P,J1,2,Pin_2_2*%
X136500000Y-62560000D03*
%TO.P,J1,3,Pin_3_3*%
X133960000Y-65100000D03*
%TO.P,J1,4,Pin_4_4*%
X136500000Y-65100000D03*
%TO.P,J1,5,Pin_5_5*%
%TO.N,3V3*%
X133960000Y-67640000D03*
%TO.P,J1,6,Pin_6_6*%
X136500000Y-67640000D03*
%TO.P,J1,7,Pin_7_7*%
X133960000Y-70180000D03*
%TO.P,J1,8,Pin_8_8*%
X136500000Y-70180000D03*
%TO.P,J1,9,Pin_9_9*%
%TO.N,5V*%
X133960000Y-72720000D03*
%TO.P,J1,10,Pin_10_10*%
X136500000Y-72720000D03*
%TO.P,J1,11,Pin_11_11*%
X133960000Y-75260000D03*
%TO.P,J1,12,Pin_12_12*%
X136500000Y-75260000D03*
%TO.P,J1,13,Pin_13_13*%
%TO.N,14.8V*%
X133960000Y-77800000D03*
%TO.P,J1,14,Pin_14_14*%
X136500000Y-77800000D03*
%TO.P,J1,15,Pin_15_15*%
X133960000Y-80340000D03*
%TO.P,J1,16,Pin_16_16*%
X136500000Y-80340000D03*
%TO.P,J1,17,Pin_17_17*%
%TO.N,28V*%
X133960000Y-82880000D03*
%TO.P,J1,18,Pin_18_18*%
X136500000Y-82880000D03*
%TO.P,J1,19,Pin_19_19*%
X133960000Y-85420000D03*
%TO.P,J1,20,Pin_20_20*%
X136500000Y-85420000D03*
%TO.P,J1,21,Pin_21_21*%
%TO.N,VBAT*%
X133960000Y-87960000D03*
%TO.P,J1,22,Pin_22_22*%
X136500000Y-87960000D03*
%TO.P,J1,23,Pin_23_23*%
%TO.N,SCL*%
X133960000Y-90500000D03*
%TO.P,J1,24,Pin_24_24*%
%TO.N,XB_RESET*%
X136500000Y-90500000D03*
%TO.P,J1,25,Pin_25_25*%
%TO.N,SDA*%
X133960000Y-93040000D03*
%TO.P,J1,26,Pin_26_26*%
%TO.N,BNO_INT*%
X136500000Y-93040000D03*
%TO.P,J1,27,Pin_27_27*%
%TO.N,INA_ALERT*%
X133960000Y-95580000D03*
%TO.P,J1,28,Pin_28_28*%
%TO.N,MICROFC*%
X136500000Y-95580000D03*
%TO.P,J1,29,Pin_29_29*%
%TO.N,S1223*%
X133960000Y-98120000D03*
%TO.P,J1,30,Pin_30_30*%
%TO.N,BNO_RST*%
X136500000Y-98120000D03*
%TO.P,J1,31,Pin_31_31*%
%TO.N,unconnected-(J1-Pin_31-Pad31)*%
X133960000Y-100660000D03*
%TO.P,J1,32,Pin_32_32*%
%TO.N,unconnected-(J1-Pin_32-Pad32)*%
X136500000Y-100660000D03*
%TO.P,J1,33,Pin_33_33*%
%TO.N,unconnected-(J1-Pin_33-Pad33)*%
X133960000Y-103200000D03*
%TO.P,J1,34,Pin_34_34*%
%TO.N,unconnected-(J1-Pin_34-Pad34)*%
X136500000Y-103200000D03*
%TO.P,J1,35,Pin_35_35*%
%TO.N,unconnected-(J1-Pin_35-Pad35)*%
X133960000Y-105740000D03*
%TO.P,J1,36,Pin_36_36*%
%TO.N,unconnected-(J1-Pin_36-Pad36)*%
X136500000Y-105740000D03*
%TO.P,J1,37,Pin_37_37*%
%TO.N,unconnected-(J1-Pin_37-Pad37)*%
X133960000Y-108280000D03*
%TO.P,J1,38,Pin_38_38*%
%TO.N,unconnected-(J1-Pin_38-Pad38)*%
X136500000Y-108280000D03*
%TO.P,J1,39,Pin_39_39*%
%TO.N,BPW34_OUT*%
X133960000Y-110820000D03*
%TO.P,J1,40,Pin_40_40*%
%TO.N,GNSS_PPS*%
X136500000Y-110820000D03*
%TO.P,J1,41,Pin_41_41*%
%TO.N,GNSS_FIX*%
X133960000Y-113360000D03*
%TO.P,J1,42,Pin_42_42*%
%TO.N,GNSS_EN*%
X136500000Y-113360000D03*
%TO.P,J1,43,Pin_43_43*%
%TO.N,RX2*%
X133960000Y-115900000D03*
%TO.P,J1,44,Pin_44_44*%
%TO.N,RX1*%
X136500000Y-115900000D03*
%TO.P,J1,45,Pin_45_45*%
%TO.N,TX2*%
X133960000Y-118440000D03*
%TO.P,J1,46,Pin_46_46*%
%TO.N,TX1*%
X136500000Y-118440000D03*
%TO.P,J1,47,Pin_47_47*%
%TO.N,GND*%
X133960000Y-120980000D03*
%TO.P,J1,48,Pin_48_48*%
X136500000Y-120980000D03*
%TO.P,J1,49,Pin_49_49*%
X133960000Y-123520000D03*
%TO.P,J1,50,Pin_50_50*%
X136500000Y-123520000D03*
%TD*%
D15*
%TO.P,R2,1*%
%TO.N,Net-(D2-K)*%
X149500000Y-127310000D03*
%TO.P,R2,2*%
%TO.N,GND*%
X149500000Y-119690000D03*
%TD*%
D10*
%TO.P,J2,1,Pin_1_1*%
%TO.N,GND*%
X212725000Y-62520000D03*
D11*
%TO.P,J2,2,Pin_2_2*%
X215265000Y-62520000D03*
%TO.P,J2,3,Pin_3_3*%
X212725000Y-65060000D03*
%TO.P,J2,4,Pin_4_4*%
X215265000Y-65060000D03*
%TO.P,J2,5,Pin_5_5*%
%TO.N,3V3*%
X212725000Y-67600000D03*
%TO.P,J2,6,Pin_6_6*%
X215265000Y-67600000D03*
%TO.P,J2,7,Pin_7_7*%
X212725000Y-70140000D03*
%TO.P,J2,8,Pin_8_8*%
X215265000Y-70140000D03*
%TO.P,J2,9,Pin_9_9*%
%TO.N,5V*%
X212725000Y-72680000D03*
%TO.P,J2,10,Pin_10_10*%
X215265000Y-72680000D03*
%TO.P,J2,11,Pin_11_11*%
X212725000Y-75220000D03*
%TO.P,J2,12,Pin_12_12*%
X215265000Y-75220000D03*
%TO.P,J2,13,Pin_13_13*%
%TO.N,14.8V*%
X212725000Y-77760000D03*
%TO.P,J2,14,Pin_14_14*%
X215265000Y-77760000D03*
%TO.P,J2,15,Pin_15_15*%
X212725000Y-80300000D03*
%TO.P,J2,16,Pin_16_16*%
X215265000Y-80300000D03*
%TO.P,J2,17,Pin_17_17*%
%TO.N,28V*%
X212725000Y-82840000D03*
%TO.P,J2,18,Pin_18_18*%
X215265000Y-82840000D03*
%TO.P,J2,19,Pin_19_19*%
X212725000Y-85380000D03*
%TO.P,J2,20,Pin_20_20*%
X215265000Y-85380000D03*
%TO.P,J2,21,Pin_21_21*%
%TO.N,VBAT*%
X212725000Y-87920000D03*
%TO.P,J2,22,Pin_22_22*%
X215265000Y-87920000D03*
%TO.P,J2,23,Pin_23_23*%
%TO.N,SCL*%
X212725000Y-90460000D03*
%TO.P,J2,24,Pin_24_24*%
%TO.N,XB_RESET*%
X215265000Y-90460000D03*
%TO.P,J2,25,Pin_25_25*%
%TO.N,SDA*%
X212725000Y-93000000D03*
%TO.P,J2,26,Pin_26_26*%
%TO.N,BNO_INT*%
X215265000Y-93000000D03*
%TO.P,J2,27,Pin_27_27*%
%TO.N,INA_ALERT*%
X212725000Y-95540000D03*
%TO.P,J2,28,Pin_28_28*%
%TO.N,MICROFC*%
X215265000Y-95540000D03*
%TO.P,J2,29,Pin_29_29*%
%TO.N,S1223*%
X212725000Y-98080000D03*
%TO.P,J2,30,Pin_30_30*%
%TO.N,BNO_RST*%
X215265000Y-98080000D03*
%TO.P,J2,31,Pin_31_31*%
%TO.N,unconnected-(J2-Pin_31-Pad31)*%
X212725000Y-100620000D03*
%TO.P,J2,32,Pin_32_32*%
%TO.N,unconnected-(J2-Pin_32-Pad32)*%
X215265000Y-100620000D03*
%TO.P,J2,33,Pin_33_33*%
%TO.N,unconnected-(J2-Pin_33-Pad33)*%
X212725000Y-103160000D03*
%TO.P,J2,34,Pin_34_34*%
%TO.N,unconnected-(J2-Pin_34-Pad34)*%
X215265000Y-103160000D03*
%TO.P,J2,35,Pin_35_35*%
%TO.N,unconnected-(J2-Pin_35-Pad35)*%
X212725000Y-105700000D03*
%TO.P,J2,36,Pin_36_36*%
%TO.N,unconnected-(J2-Pin_36-Pad36)*%
X215265000Y-105700000D03*
%TO.P,J2,37,Pin_37_37*%
%TO.N,unconnected-(J2-Pin_37-Pad37)*%
X212725000Y-108240000D03*
%TO.P,J2,38,Pin_38_38*%
%TO.N,unconnected-(J2-Pin_38-Pad38)*%
X215265000Y-108240000D03*
%TO.P,J2,39,Pin_39_39*%
%TO.N,BPW34_OUT*%
X212725000Y-110780000D03*
%TO.P,J2,40,Pin_40_40*%
%TO.N,GNSS_PPS*%
X215265000Y-110780000D03*
%TO.P,J2,41,Pin_41_41*%
%TO.N,GNSS_FIX*%
X212725000Y-113320000D03*
%TO.P,J2,42,Pin_42_42*%
%TO.N,GNSS_EN*%
X215265000Y-113320000D03*
%TO.P,J2,43,Pin_43_43*%
%TO.N,RX2*%
X212725000Y-115860000D03*
%TO.P,J2,44,Pin_44_44*%
%TO.N,RX1*%
X215265000Y-115860000D03*
%TO.P,J2,45,Pin_45_45*%
%TO.N,TX2*%
X212725000Y-118400000D03*
%TO.P,J2,46,Pin_46_46*%
%TO.N,TX1*%
X215265000Y-118400000D03*
%TO.P,J2,47,Pin_47_47*%
%TO.N,GND*%
X212725000Y-120940000D03*
%TO.P,J2,48,Pin_48_48*%
X215265000Y-120940000D03*
%TO.P,J2,49,Pin_49_49*%
X212725000Y-123480000D03*
%TO.P,J2,50,Pin_50_50*%
X215265000Y-123480000D03*
%TD*%
D15*
%TO.P,R4,1*%
%TO.N,Net-(D4-K)*%
X195310000Y-129500000D03*
%TO.P,R4,2*%
%TO.N,GND*%
X187690000Y-129500000D03*
%TD*%
D17*
%TO.N,RX2*%
X169041491Y-114578690D03*
X163000000Y-116500000D03*
%TO.N,TX2*%
X178000000Y-118500000D03*
X205000000Y-125500000D03*
X208500000Y-120300000D03*
X205000000Y-125500000D03*
%TO.N,XB_RESET*%
X205500000Y-123500000D03*
X201000000Y-127000000D03*
X188500000Y-127000000D03*
%TO.N,SCL*%
X152600000Y-104000000D03*
%TO.N,Status_LED*%
X156000000Y-122000000D03*
%TO.N,TX1*%
X140500000Y-118500000D03*
%TO.N,MICROFC*%
X192335000Y-110375562D03*
%TO.N,S1223*%
X164500000Y-105500000D03*
%TO.N,INA_ALERT*%
X161390000Y-92000000D03*
X180500000Y-95500000D03*
X155500000Y-92000000D03*
X176000000Y-94000000D03*
%TO.N,GNSS_EN*%
X193000000Y-93000000D03*
%TO.N,GNSS_FIX*%
X196500000Y-98000000D03*
%TO.N,GNSS_PPS*%
X152000000Y-109500000D03*
X198000000Y-97000000D03*
X161500000Y-102000000D03*
%TO.N,BNO_RST*%
X186379265Y-120840735D03*
%TD*%
%TO.N,+3V3*%
D18*
X181273403Y-114670000D02*
X191330000Y-114670000D01*
X191330000Y-114670000D02*
X192000000Y-114000000D01*
X163938403Y-113060000D02*
X167950903Y-117072500D01*
X152000000Y-107810000D02*
X157250000Y-113060000D01*
X157250000Y-113060000D02*
X163938403Y-113060000D01*
X178870903Y-117072500D02*
X181273403Y-114670000D01*
X167950903Y-117072500D02*
X178870903Y-117072500D01*
X152000000Y-103070000D02*
X152000000Y-107810000D01*
X157250000Y-97820000D02*
X152000000Y-103070000D01*
%TO.N,RX2*%
X163000000Y-116500000D02*
X162030000Y-117470000D01*
X183660000Y-113400000D02*
X171100000Y-113400000D01*
X198500000Y-129500000D02*
X198500000Y-132620000D01*
X198500000Y-132620000D02*
X199380000Y-133500000D01*
X145324580Y-113730000D02*
X137996346Y-113730000D01*
X171100000Y-113400000D02*
X170000000Y-114500000D01*
X162030000Y-117470000D02*
X149064580Y-117470000D01*
X136976346Y-114750000D02*
X135110000Y-114750000D01*
X135110000Y-114750000D02*
X133960000Y-115900000D01*
X169120181Y-114500000D02*
X169041491Y-114578690D01*
X149064580Y-117470000D02*
X145324580Y-113730000D01*
X137996346Y-113730000D02*
X136976346Y-114750000D01*
X170000000Y-114500000D02*
X169120181Y-114500000D01*
%TO.N,TX2*%
X135110000Y-117290000D02*
X143595420Y-117290000D01*
X176887500Y-119612500D02*
X178000000Y-118500000D01*
X205000000Y-125500000D02*
X204500000Y-125500000D01*
X202770000Y-127230000D02*
X198825000Y-123285000D01*
X212725000Y-118400000D02*
X210100000Y-118400000D01*
X202770000Y-127230000D02*
X202770000Y-127495000D01*
X201920000Y-133500000D02*
X202770000Y-132650000D01*
X144305420Y-118000000D02*
X166338403Y-118000000D01*
X198825000Y-123285000D02*
X198560000Y-123285000D01*
X167950903Y-119612500D02*
X176887500Y-119612500D01*
X208500000Y-120000000D02*
X208500000Y-120300000D01*
X133960000Y-118440000D02*
X135110000Y-117290000D01*
X210100000Y-118400000D02*
X208500000Y-120000000D01*
X143595420Y-117290000D02*
X144305420Y-118000000D01*
X166338403Y-118000000D02*
X167950903Y-119612500D01*
X204500000Y-125500000D02*
X202770000Y-127230000D01*
X202770000Y-132650000D02*
X202770000Y-127495000D01*
%TO.N,XB_RESET*%
X169000000Y-110280000D02*
X169000000Y-109500000D01*
X159120000Y-94505420D02*
X155114580Y-90500000D01*
X168420000Y-110860000D02*
X169000000Y-110280000D01*
X155114580Y-90500000D02*
X136500000Y-90500000D01*
X204460000Y-129660000D02*
X204500000Y-129620000D01*
X168420000Y-110860000D02*
X159120000Y-101560000D01*
X201000000Y-127000000D02*
X188500000Y-127000000D01*
X204460000Y-133500000D02*
X204460000Y-129660000D01*
X159120000Y-101560000D02*
X159120000Y-94505420D01*
%TO.N,GND*%
X212725000Y-120940000D02*
X212725000Y-123480000D01*
X149500000Y-119690000D02*
X156000000Y-119690000D01*
X212725000Y-62520000D02*
X212725000Y-65060000D01*
X184440000Y-119750000D02*
X187690000Y-123000000D01*
X180610000Y-119750000D02*
X184440000Y-119750000D01*
X136500000Y-120980000D02*
X137790000Y-119690000D01*
X207000000Y-133500000D02*
X208000000Y-132500000D01*
X212725000Y-120940000D02*
X215265000Y-120940000D01*
X189790000Y-120900000D02*
X210145000Y-120900000D01*
X133960000Y-65100000D02*
X136500000Y-65100000D01*
X167490000Y-131180000D02*
X156000000Y-119690000D01*
X133960000Y-120980000D02*
X133960000Y-123520000D01*
X180610000Y-119750000D02*
X180610000Y-117210000D01*
X136500000Y-120980000D02*
X133960000Y-120980000D01*
X187690000Y-129500000D02*
X187690000Y-132310000D01*
X215265000Y-65060000D02*
X215265000Y-62520000D01*
X210000000Y-123500000D02*
X212705000Y-123500000D01*
X212725000Y-123480000D02*
X215265000Y-123480000D01*
X136500000Y-123520000D02*
X136500000Y-120980000D01*
X215265000Y-123480000D02*
X215265000Y-120940000D01*
X187690000Y-123000000D02*
X189790000Y-120900000D01*
X208000000Y-125500000D02*
X210000000Y-123500000D01*
X136500000Y-65100000D02*
X136500000Y-62560000D01*
X212705000Y-123500000D02*
X212725000Y-123480000D01*
X133960000Y-123520000D02*
X136500000Y-123520000D01*
X133960000Y-62560000D02*
X133960000Y-65100000D01*
X212725000Y-65060000D02*
X215265000Y-65060000D01*
X208000000Y-132500000D02*
X208000000Y-125500000D01*
X149500000Y-119690000D02*
X143000000Y-119690000D01*
X133960000Y-62560000D02*
X136500000Y-62560000D01*
X183660000Y-133720000D02*
X170960000Y-133720000D01*
X186280000Y-133720000D02*
X183660000Y-133720000D01*
X170960000Y-133720000D02*
X168420000Y-131180000D01*
X168420000Y-131180000D02*
X167490000Y-131180000D01*
X137790000Y-119690000D02*
X143000000Y-119690000D01*
X212725000Y-62520000D02*
X215265000Y-62520000D01*
X210145000Y-120900000D02*
X212725000Y-123480000D01*
X187690000Y-132310000D02*
X186280000Y-133720000D01*
X187690000Y-123000000D02*
X187690000Y-129500000D01*
%TO.N,SCL*%
X192000000Y-105500000D02*
X207040000Y-90460000D01*
X157250000Y-105440000D02*
X155810000Y-104000000D01*
X155810000Y-104000000D02*
X152600000Y-104000000D01*
X173969097Y-107187500D02*
X168889097Y-112267500D01*
X167950903Y-112267500D02*
X166990000Y-113228403D01*
X157920000Y-105440000D02*
X166990000Y-114510000D01*
X192000000Y-106380000D02*
X192000000Y-105500000D01*
X192000000Y-106380000D02*
X191192500Y-107187500D01*
X166990000Y-114510000D02*
X168420000Y-115940000D01*
X166990000Y-113228403D02*
X166990000Y-114510000D01*
X157250000Y-105440000D02*
X157920000Y-105440000D01*
X168889097Y-112267500D02*
X167950903Y-112267500D01*
X191192500Y-107187500D02*
X173969097Y-107187500D01*
X207040000Y-90460000D02*
X212725000Y-90460000D01*
%TO.N,SDA*%
X196805000Y-108920000D02*
X192000000Y-108920000D01*
X168420000Y-113400000D02*
X169820000Y-112000000D01*
X169820000Y-112000000D02*
X188920000Y-112000000D01*
X188920000Y-112000000D02*
X192000000Y-108920000D01*
X212725000Y-93000000D02*
X196805000Y-108920000D01*
%TO.N,Net-(D1-K)*%
X142010000Y-131900000D02*
X143210000Y-133100000D01*
X142010000Y-128300000D02*
X142010000Y-131900000D01*
X143000000Y-127310000D02*
X142010000Y-128300000D01*
%TO.N,Status_LED*%
X143210000Y-130560000D02*
X151770000Y-122000000D01*
X151770000Y-122000000D02*
X156000000Y-122000000D01*
%TO.N,Net-(D5-K)*%
X196225000Y-122085000D02*
X199900000Y-122085000D01*
X199900000Y-122085000D02*
X201100000Y-123285000D01*
X195310000Y-123000000D02*
X196225000Y-122085000D01*
%TO.N,Net-(D2-K)*%
X148300000Y-128510000D02*
X149500000Y-127310000D01*
X148300000Y-131840000D02*
X148300000Y-128510000D01*
X149500000Y-133040000D02*
X148300000Y-131840000D01*
%TO.N,Net-(D3-K)*%
X155815000Y-132955000D02*
X154615000Y-131755000D01*
X154615000Y-128695000D02*
X156000000Y-127310000D01*
X154615000Y-131755000D02*
X154615000Y-128695000D01*
%TO.N,TX1*%
X140500000Y-118500000D02*
X140000000Y-118500000D01*
X139940000Y-118440000D02*
X136500000Y-118440000D01*
X140000000Y-118500000D02*
X139940000Y-118440000D01*
%TO.N,Net-(D4-K)*%
X196510000Y-128300000D02*
X195310000Y-129500000D01*
X199840000Y-128300000D02*
X196510000Y-128300000D01*
X201040000Y-129500000D02*
X199840000Y-128300000D01*
%TO.N,MICROFC*%
X212140685Y-94150000D02*
X195915123Y-110375562D01*
X215265000Y-95540000D02*
X213875000Y-94150000D01*
X168420000Y-108080000D02*
X168500000Y-108000000D01*
X195915123Y-110375562D02*
X192335000Y-110375562D01*
X168420000Y-108320000D02*
X168420000Y-108080000D01*
X213875000Y-94150000D02*
X212140685Y-94150000D01*
%TO.N,INA_ALERT*%
X135350000Y-96970000D02*
X140215420Y-96970000D01*
X145185420Y-92000000D02*
X155500000Y-92000000D01*
X161709490Y-91680510D02*
X173680510Y-91680510D01*
X173680510Y-91680510D02*
X176000000Y-94000000D01*
X161390000Y-92000000D02*
X161709490Y-91680510D01*
X180620000Y-95620000D02*
X183660000Y-95620000D01*
X133960000Y-95580000D02*
X135350000Y-96970000D01*
X140215420Y-96970000D02*
X145185420Y-92000000D01*
X180500000Y-95500000D02*
X180620000Y-95620000D01*
%TO.N,GNSS_FIX*%
X183660000Y-90540000D02*
X189040000Y-90540000D01*
X189040000Y-90540000D02*
X196500000Y-98000000D01*
%TO.N,GNSS_PPS*%
X137820000Y-109500000D02*
X136500000Y-110820000D01*
X152000000Y-109500000D02*
X137820000Y-109500000D01*
X189000000Y-88000000D02*
X198000000Y-97000000D01*
X161561754Y-102061754D02*
X161500000Y-102000000D01*
X183660000Y-88000000D02*
X189000000Y-88000000D01*
X183660000Y-88000000D02*
X169598246Y-102061754D01*
X169598246Y-102061754D02*
X161561754Y-102061754D01*
%TO.N,unconnected-(IC1-3.3V_(250_M_A_MAX)-Pad53)*%
X168420000Y-128420000D02*
X168000000Y-128000000D01*
X168420000Y-128640000D02*
X168420000Y-128420000D01*
%TO.N,3V3*%
X215265000Y-70140000D02*
X212725000Y-70140000D01*
X136500000Y-70180000D02*
X136500000Y-67640000D01*
X133960000Y-67640000D02*
X133960000Y-70180000D01*
X133960000Y-70180000D02*
X136500000Y-70180000D01*
X212725000Y-67600000D02*
X215265000Y-67600000D01*
X212685000Y-70180000D02*
X212725000Y-70140000D01*
X136500000Y-70180000D02*
X212685000Y-70180000D01*
X212725000Y-70140000D02*
X212725000Y-67600000D01*
X136500000Y-67640000D02*
X133960000Y-67640000D01*
X215265000Y-70140000D02*
X215265000Y-67600000D01*
%TO.N,5V*%
X215265000Y-75220000D02*
X212725000Y-75220000D01*
X215265000Y-72680000D02*
X215265000Y-75220000D01*
X133960000Y-75260000D02*
X136500000Y-75260000D01*
X212725000Y-72680000D02*
X215265000Y-72680000D01*
X136500000Y-72720000D02*
X136500000Y-75260000D01*
X133960000Y-72720000D02*
X136500000Y-72720000D01*
X212725000Y-75220000D02*
X212725000Y-72680000D01*
X212725000Y-75220000D02*
X211512500Y-76432500D01*
X211512500Y-76432500D02*
X137672500Y-76432500D01*
X137672500Y-76432500D02*
X136500000Y-75260000D01*
X133960000Y-75260000D02*
X133960000Y-72720000D01*
%TO.N,14.8V*%
X133960000Y-80340000D02*
X136500000Y-80340000D01*
X212725000Y-77760000D02*
X212725000Y-80300000D01*
X136500000Y-80340000D02*
X137672500Y-81512500D01*
X133960000Y-77800000D02*
X133960000Y-80340000D01*
X215265000Y-80300000D02*
X215265000Y-77760000D01*
X137672500Y-81512500D02*
X211512500Y-81512500D01*
X136500000Y-80340000D02*
X136500000Y-77800000D01*
X211512500Y-81512500D02*
X212725000Y-80300000D01*
X136500000Y-77800000D02*
X133960000Y-77800000D01*
X215265000Y-77760000D02*
X212725000Y-77760000D01*
X212725000Y-80300000D02*
X215265000Y-80300000D01*
%TO.N,28V*%
X212725000Y-82840000D02*
X215265000Y-82840000D01*
X212725000Y-85380000D02*
X212725000Y-82840000D01*
X136500000Y-85420000D02*
X133960000Y-85420000D01*
X137592500Y-84327500D02*
X136500000Y-85420000D01*
X133960000Y-82880000D02*
X136500000Y-82880000D01*
X215265000Y-82840000D02*
X215265000Y-85380000D01*
X212725000Y-85380000D02*
X215265000Y-85380000D01*
X133960000Y-85420000D02*
X133960000Y-82880000D01*
X212725000Y-85380000D02*
X211672500Y-84327500D01*
X211672500Y-84327500D02*
X137592500Y-84327500D01*
X136500000Y-82880000D02*
X136500000Y-85420000D01*
%TO.N,VBAT*%
X136500000Y-87960000D02*
X137592500Y-86867500D01*
X137592500Y-86867500D02*
X211672500Y-86867500D01*
X212725000Y-87920000D02*
X215265000Y-87920000D01*
X211672500Y-86867500D02*
X212725000Y-87920000D01*
X133960000Y-87960000D02*
X136500000Y-87960000D01*
%TO.N,BNO_RST*%
X193870000Y-117314580D02*
X193870000Y-115308654D01*
X212248654Y-96930000D02*
X214115000Y-96930000D01*
X214115000Y-96930000D02*
X215265000Y-98080000D01*
X186379265Y-120840735D02*
X186720000Y-120500000D01*
X193870000Y-115308654D02*
X212248654Y-96930000D01*
X190684580Y-120500000D02*
X193870000Y-117314580D01*
X186720000Y-120500000D02*
X190684580Y-120500000D01*
%TD*%
M02*
