%TF.GenerationSoftware,KiCad,Pcbnew,10.0.4*%
%TF.CreationDate,2026-08-13T16:02:56+01:00*%
%TF.ProjectId,CDH,4344482e-6b69-4636-9164-5f7063625858,rev?*%
%TF.SameCoordinates,Original*%
%TF.FileFunction,Legend,Top*%
%TF.FilePolarity,Positive*%
%FSLAX46Y46*%
G04 Gerber Fmt 4.6, Leading zero omitted, Abs format (unit mm)*
G04 Created by KiCad (PCBNEW 10.0.4) date 2026-08-13 16:02:56*
%MOMM*%
%LPD*%
G01*
G04 APERTURE LIST*
%ADD10C,0.150000*%
%ADD11C,0.100000*%
%ADD12C,0.120000*%
%ADD13C,0.200000*%
G04 APERTURE END LIST*
D10*
X193914819Y-133833333D02*
X194629104Y-133833333D01*
X194629104Y-133833333D02*
X194771961Y-133880952D01*
X194771961Y-133880952D02*
X194867200Y-133976190D01*
X194867200Y-133976190D02*
X194914819Y-134119047D01*
X194914819Y-134119047D02*
X194914819Y-134214285D01*
X193914819Y-133452380D02*
X193914819Y-132833333D01*
X193914819Y-132833333D02*
X194295771Y-133166666D01*
X194295771Y-133166666D02*
X194295771Y-133023809D01*
X194295771Y-133023809D02*
X194343390Y-132928571D01*
X194343390Y-132928571D02*
X194391009Y-132880952D01*
X194391009Y-132880952D02*
X194486247Y-132833333D01*
X194486247Y-132833333D02*
X194724342Y-132833333D01*
X194724342Y-132833333D02*
X194819580Y-132880952D01*
X194819580Y-132880952D02*
X194867200Y-132928571D01*
X194867200Y-132928571D02*
X194914819Y-133023809D01*
X194914819Y-133023809D02*
X194914819Y-133309523D01*
X194914819Y-133309523D02*
X194867200Y-133404761D01*
X194867200Y-133404761D02*
X194819580Y-133452380D01*
D11*
X191127580Y-97881027D02*
X190127580Y-98214360D01*
X190127580Y-98214360D02*
X191127580Y-98547693D01*
X190127580Y-98881027D02*
X191127580Y-98881027D01*
X190127580Y-99357217D02*
X191127580Y-99357217D01*
X191127580Y-99357217D02*
X190127580Y-99928645D01*
X190127580Y-99928645D02*
X191127580Y-99928645D01*
X191079961Y-103547693D02*
X191127580Y-103452455D01*
X191127580Y-103452455D02*
X191127580Y-103309598D01*
X191127580Y-103309598D02*
X191079961Y-103166741D01*
X191079961Y-103166741D02*
X190984723Y-103071503D01*
X190984723Y-103071503D02*
X190889485Y-103023884D01*
X190889485Y-103023884D02*
X190699009Y-102976265D01*
X190699009Y-102976265D02*
X190556152Y-102976265D01*
X190556152Y-102976265D02*
X190365676Y-103023884D01*
X190365676Y-103023884D02*
X190270438Y-103071503D01*
X190270438Y-103071503D02*
X190175200Y-103166741D01*
X190175200Y-103166741D02*
X190127580Y-103309598D01*
X190127580Y-103309598D02*
X190127580Y-103404836D01*
X190127580Y-103404836D02*
X190175200Y-103547693D01*
X190175200Y-103547693D02*
X190222819Y-103595312D01*
X190222819Y-103595312D02*
X190556152Y-103595312D01*
X190556152Y-103595312D02*
X190556152Y-103404836D01*
X190127580Y-104023884D02*
X191127580Y-104023884D01*
X191127580Y-104023884D02*
X190127580Y-104595312D01*
X190127580Y-104595312D02*
X191127580Y-104595312D01*
X190127580Y-105071503D02*
X191127580Y-105071503D01*
X191127580Y-105071503D02*
X191127580Y-105309598D01*
X191127580Y-105309598D02*
X191079961Y-105452455D01*
X191079961Y-105452455D02*
X190984723Y-105547693D01*
X190984723Y-105547693D02*
X190889485Y-105595312D01*
X190889485Y-105595312D02*
X190699009Y-105642931D01*
X190699009Y-105642931D02*
X190556152Y-105642931D01*
X190556152Y-105642931D02*
X190365676Y-105595312D01*
X190365676Y-105595312D02*
X190270438Y-105547693D01*
X190270438Y-105547693D02*
X190175200Y-105452455D01*
X190175200Y-105452455D02*
X190127580Y-105309598D01*
X190127580Y-105309598D02*
X190127580Y-105071503D01*
X190175200Y-107976265D02*
X190127580Y-108119122D01*
X190127580Y-108119122D02*
X190127580Y-108357217D01*
X190127580Y-108357217D02*
X190175200Y-108452455D01*
X190175200Y-108452455D02*
X190222819Y-108500074D01*
X190222819Y-108500074D02*
X190318057Y-108547693D01*
X190318057Y-108547693D02*
X190413295Y-108547693D01*
X190413295Y-108547693D02*
X190508533Y-108500074D01*
X190508533Y-108500074D02*
X190556152Y-108452455D01*
X190556152Y-108452455D02*
X190603771Y-108357217D01*
X190603771Y-108357217D02*
X190651390Y-108166741D01*
X190651390Y-108166741D02*
X190699009Y-108071503D01*
X190699009Y-108071503D02*
X190746628Y-108023884D01*
X190746628Y-108023884D02*
X190841866Y-107976265D01*
X190841866Y-107976265D02*
X190937104Y-107976265D01*
X190937104Y-107976265D02*
X191032342Y-108023884D01*
X191032342Y-108023884D02*
X191079961Y-108071503D01*
X191079961Y-108071503D02*
X191127580Y-108166741D01*
X191127580Y-108166741D02*
X191127580Y-108404836D01*
X191127580Y-108404836D02*
X191079961Y-108547693D01*
X190127580Y-108976265D02*
X191127580Y-108976265D01*
X191127580Y-108976265D02*
X191127580Y-109214360D01*
X191127580Y-109214360D02*
X191079961Y-109357217D01*
X191079961Y-109357217D02*
X190984723Y-109452455D01*
X190984723Y-109452455D02*
X190889485Y-109500074D01*
X190889485Y-109500074D02*
X190699009Y-109547693D01*
X190699009Y-109547693D02*
X190556152Y-109547693D01*
X190556152Y-109547693D02*
X190365676Y-109500074D01*
X190365676Y-109500074D02*
X190270438Y-109452455D01*
X190270438Y-109452455D02*
X190175200Y-109357217D01*
X190175200Y-109357217D02*
X190127580Y-109214360D01*
X190127580Y-109214360D02*
X190127580Y-108976265D01*
X190413295Y-109928646D02*
X190413295Y-110404836D01*
X190127580Y-109833408D02*
X191127580Y-110166741D01*
X191127580Y-110166741D02*
X190127580Y-110500074D01*
X190222819Y-113595312D02*
X190175200Y-113547693D01*
X190175200Y-113547693D02*
X190127580Y-113404836D01*
X190127580Y-113404836D02*
X190127580Y-113309598D01*
X190127580Y-113309598D02*
X190175200Y-113166741D01*
X190175200Y-113166741D02*
X190270438Y-113071503D01*
X190270438Y-113071503D02*
X190365676Y-113023884D01*
X190365676Y-113023884D02*
X190556152Y-112976265D01*
X190556152Y-112976265D02*
X190699009Y-112976265D01*
X190699009Y-112976265D02*
X190889485Y-113023884D01*
X190889485Y-113023884D02*
X190984723Y-113071503D01*
X190984723Y-113071503D02*
X191079961Y-113166741D01*
X191079961Y-113166741D02*
X191127580Y-113309598D01*
X191127580Y-113309598D02*
X191127580Y-113404836D01*
X191127580Y-113404836D02*
X191079961Y-113547693D01*
X191079961Y-113547693D02*
X191032342Y-113595312D01*
X190175200Y-113976265D02*
X190127580Y-114119122D01*
X190127580Y-114119122D02*
X190127580Y-114357217D01*
X190127580Y-114357217D02*
X190175200Y-114452455D01*
X190175200Y-114452455D02*
X190222819Y-114500074D01*
X190222819Y-114500074D02*
X190318057Y-114547693D01*
X190318057Y-114547693D02*
X190413295Y-114547693D01*
X190413295Y-114547693D02*
X190508533Y-114500074D01*
X190508533Y-114500074D02*
X190556152Y-114452455D01*
X190556152Y-114452455D02*
X190603771Y-114357217D01*
X190603771Y-114357217D02*
X190651390Y-114166741D01*
X190651390Y-114166741D02*
X190699009Y-114071503D01*
X190699009Y-114071503D02*
X190746628Y-114023884D01*
X190746628Y-114023884D02*
X190841866Y-113976265D01*
X190841866Y-113976265D02*
X190937104Y-113976265D01*
X190937104Y-113976265D02*
X191032342Y-114023884D01*
X191032342Y-114023884D02*
X191079961Y-114071503D01*
X191079961Y-114071503D02*
X191127580Y-114166741D01*
X191127580Y-114166741D02*
X191127580Y-114404836D01*
X191127580Y-114404836D02*
X191079961Y-114547693D01*
X194127580Y-100428646D02*
X194127580Y-101047693D01*
X194127580Y-101047693D02*
X193746628Y-100714360D01*
X193746628Y-100714360D02*
X193746628Y-100857217D01*
X193746628Y-100857217D02*
X193699009Y-100952455D01*
X193699009Y-100952455D02*
X193651390Y-101000074D01*
X193651390Y-101000074D02*
X193556152Y-101047693D01*
X193556152Y-101047693D02*
X193318057Y-101047693D01*
X193318057Y-101047693D02*
X193222819Y-101000074D01*
X193222819Y-101000074D02*
X193175200Y-100952455D01*
X193175200Y-100952455D02*
X193127580Y-100857217D01*
X193127580Y-100857217D02*
X193127580Y-100571503D01*
X193127580Y-100571503D02*
X193175200Y-100476265D01*
X193175200Y-100476265D02*
X193222819Y-100428646D01*
X194127580Y-101333408D02*
X193127580Y-101666741D01*
X193127580Y-101666741D02*
X194127580Y-102000074D01*
X193127580Y-102476265D02*
X193175200Y-102381027D01*
X193175200Y-102381027D02*
X193222819Y-102333408D01*
X193222819Y-102333408D02*
X193318057Y-102285789D01*
X193318057Y-102285789D02*
X193603771Y-102285789D01*
X193603771Y-102285789D02*
X193699009Y-102333408D01*
X193699009Y-102333408D02*
X193746628Y-102381027D01*
X193746628Y-102381027D02*
X193794247Y-102476265D01*
X193794247Y-102476265D02*
X193794247Y-102619122D01*
X193794247Y-102619122D02*
X193746628Y-102714360D01*
X193746628Y-102714360D02*
X193699009Y-102761979D01*
X193699009Y-102761979D02*
X193603771Y-102809598D01*
X193603771Y-102809598D02*
X193318057Y-102809598D01*
X193318057Y-102809598D02*
X193222819Y-102761979D01*
X193222819Y-102761979D02*
X193175200Y-102714360D01*
X193175200Y-102714360D02*
X193127580Y-102619122D01*
X193127580Y-102619122D02*
X193127580Y-102476265D01*
X193175200Y-105476265D02*
X193127580Y-105619122D01*
X193127580Y-105619122D02*
X193127580Y-105857217D01*
X193127580Y-105857217D02*
X193175200Y-105952455D01*
X193175200Y-105952455D02*
X193222819Y-106000074D01*
X193222819Y-106000074D02*
X193318057Y-106047693D01*
X193318057Y-106047693D02*
X193413295Y-106047693D01*
X193413295Y-106047693D02*
X193508533Y-106000074D01*
X193508533Y-106000074D02*
X193556152Y-105952455D01*
X193556152Y-105952455D02*
X193603771Y-105857217D01*
X193603771Y-105857217D02*
X193651390Y-105666741D01*
X193651390Y-105666741D02*
X193699009Y-105571503D01*
X193699009Y-105571503D02*
X193746628Y-105523884D01*
X193746628Y-105523884D02*
X193841866Y-105476265D01*
X193841866Y-105476265D02*
X193937104Y-105476265D01*
X193937104Y-105476265D02*
X194032342Y-105523884D01*
X194032342Y-105523884D02*
X194079961Y-105571503D01*
X194079961Y-105571503D02*
X194127580Y-105666741D01*
X194127580Y-105666741D02*
X194127580Y-105904836D01*
X194127580Y-105904836D02*
X194079961Y-106047693D01*
X193222819Y-107047693D02*
X193175200Y-107000074D01*
X193175200Y-107000074D02*
X193127580Y-106857217D01*
X193127580Y-106857217D02*
X193127580Y-106761979D01*
X193127580Y-106761979D02*
X193175200Y-106619122D01*
X193175200Y-106619122D02*
X193270438Y-106523884D01*
X193270438Y-106523884D02*
X193365676Y-106476265D01*
X193365676Y-106476265D02*
X193556152Y-106428646D01*
X193556152Y-106428646D02*
X193699009Y-106428646D01*
X193699009Y-106428646D02*
X193889485Y-106476265D01*
X193889485Y-106476265D02*
X193984723Y-106523884D01*
X193984723Y-106523884D02*
X194079961Y-106619122D01*
X194079961Y-106619122D02*
X194127580Y-106761979D01*
X194127580Y-106761979D02*
X194127580Y-106857217D01*
X194127580Y-106857217D02*
X194079961Y-107000074D01*
X194079961Y-107000074D02*
X194032342Y-107047693D01*
X193127580Y-107952455D02*
X193127580Y-107476265D01*
X193127580Y-107476265D02*
X194127580Y-107476265D01*
X193127580Y-110023884D02*
X194127580Y-110023884D01*
X194127580Y-110023884D02*
X194127580Y-110261979D01*
X194127580Y-110261979D02*
X194079961Y-110404836D01*
X194079961Y-110404836D02*
X193984723Y-110500074D01*
X193984723Y-110500074D02*
X193889485Y-110547693D01*
X193889485Y-110547693D02*
X193699009Y-110595312D01*
X193699009Y-110595312D02*
X193556152Y-110595312D01*
X193556152Y-110595312D02*
X193365676Y-110547693D01*
X193365676Y-110547693D02*
X193270438Y-110500074D01*
X193270438Y-110500074D02*
X193175200Y-110404836D01*
X193175200Y-110404836D02*
X193127580Y-110261979D01*
X193127580Y-110261979D02*
X193127580Y-110023884D01*
X193127580Y-111595312D02*
X193603771Y-111261979D01*
X193127580Y-111023884D02*
X194127580Y-111023884D01*
X194127580Y-111023884D02*
X194127580Y-111404836D01*
X194127580Y-111404836D02*
X194079961Y-111500074D01*
X194079961Y-111500074D02*
X194032342Y-111547693D01*
X194032342Y-111547693D02*
X193937104Y-111595312D01*
X193937104Y-111595312D02*
X193794247Y-111595312D01*
X193794247Y-111595312D02*
X193699009Y-111547693D01*
X193699009Y-111547693D02*
X193651390Y-111500074D01*
X193651390Y-111500074D02*
X193603771Y-111404836D01*
X193603771Y-111404836D02*
X193603771Y-111023884D01*
X193127580Y-112023884D02*
X194127580Y-112023884D01*
X194127580Y-112023884D02*
X194127580Y-112261979D01*
X194127580Y-112261979D02*
X194079961Y-112404836D01*
X194079961Y-112404836D02*
X193984723Y-112500074D01*
X193984723Y-112500074D02*
X193889485Y-112547693D01*
X193889485Y-112547693D02*
X193699009Y-112595312D01*
X193699009Y-112595312D02*
X193556152Y-112595312D01*
X193556152Y-112595312D02*
X193365676Y-112547693D01*
X193365676Y-112547693D02*
X193270438Y-112500074D01*
X193270438Y-112500074D02*
X193175200Y-112404836D01*
X193175200Y-112404836D02*
X193127580Y-112261979D01*
X193127580Y-112261979D02*
X193127580Y-112023884D01*
X193603771Y-113214360D02*
X193127580Y-113214360D01*
X194127580Y-112881027D02*
X193603771Y-113214360D01*
X193603771Y-113214360D02*
X194127580Y-113547693D01*
D10*
X140704819Y-132568094D02*
X139704819Y-132568094D01*
X139704819Y-132568094D02*
X139704819Y-132329999D01*
X139704819Y-132329999D02*
X139752438Y-132187142D01*
X139752438Y-132187142D02*
X139847676Y-132091904D01*
X139847676Y-132091904D02*
X139942914Y-132044285D01*
X139942914Y-132044285D02*
X140133390Y-131996666D01*
X140133390Y-131996666D02*
X140276247Y-131996666D01*
X140276247Y-131996666D02*
X140466723Y-132044285D01*
X140466723Y-132044285D02*
X140561961Y-132091904D01*
X140561961Y-132091904D02*
X140657200Y-132187142D01*
X140657200Y-132187142D02*
X140704819Y-132329999D01*
X140704819Y-132329999D02*
X140704819Y-132568094D01*
X140704819Y-131044285D02*
X140704819Y-131615713D01*
X140704819Y-131329999D02*
X139704819Y-131329999D01*
X139704819Y-131329999D02*
X139847676Y-131425237D01*
X139847676Y-131425237D02*
X139942914Y-131520475D01*
X139942914Y-131520475D02*
X139990533Y-131615713D01*
X202584819Y-126452857D02*
X202108628Y-126786190D01*
X202584819Y-127024285D02*
X201584819Y-127024285D01*
X201584819Y-127024285D02*
X201584819Y-126643333D01*
X201584819Y-126643333D02*
X201632438Y-126548095D01*
X201632438Y-126548095D02*
X201680057Y-126500476D01*
X201680057Y-126500476D02*
X201775295Y-126452857D01*
X201775295Y-126452857D02*
X201918152Y-126452857D01*
X201918152Y-126452857D02*
X202013390Y-126500476D01*
X202013390Y-126500476D02*
X202061009Y-126548095D01*
X202061009Y-126548095D02*
X202108628Y-126643333D01*
X202108628Y-126643333D02*
X202108628Y-127024285D01*
X202584819Y-125500476D02*
X202584819Y-126071904D01*
X202584819Y-125786190D02*
X201584819Y-125786190D01*
X201584819Y-125786190D02*
X201727676Y-125881428D01*
X201727676Y-125881428D02*
X201822914Y-125976666D01*
X201822914Y-125976666D02*
X201870533Y-126071904D01*
X201584819Y-124881428D02*
X201584819Y-124786190D01*
X201584819Y-124786190D02*
X201632438Y-124690952D01*
X201632438Y-124690952D02*
X201680057Y-124643333D01*
X201680057Y-124643333D02*
X201775295Y-124595714D01*
X201775295Y-124595714D02*
X201965771Y-124548095D01*
X201965771Y-124548095D02*
X202203866Y-124548095D01*
X202203866Y-124548095D02*
X202394342Y-124595714D01*
X202394342Y-124595714D02*
X202489580Y-124643333D01*
X202489580Y-124643333D02*
X202537200Y-124690952D01*
X202537200Y-124690952D02*
X202584819Y-124786190D01*
X202584819Y-124786190D02*
X202584819Y-124881428D01*
X202584819Y-124881428D02*
X202537200Y-124976666D01*
X202537200Y-124976666D02*
X202489580Y-125024285D01*
X202489580Y-125024285D02*
X202394342Y-125071904D01*
X202394342Y-125071904D02*
X202203866Y-125119523D01*
X202203866Y-125119523D02*
X201965771Y-125119523D01*
X201965771Y-125119523D02*
X201775295Y-125071904D01*
X201775295Y-125071904D02*
X201680057Y-125024285D01*
X201680057Y-125024285D02*
X201632438Y-124976666D01*
X201632438Y-124976666D02*
X201584819Y-124881428D01*
X191333333Y-125824819D02*
X191000000Y-125348628D01*
X190761905Y-125824819D02*
X190761905Y-124824819D01*
X190761905Y-124824819D02*
X191142857Y-124824819D01*
X191142857Y-124824819D02*
X191238095Y-124872438D01*
X191238095Y-124872438D02*
X191285714Y-124920057D01*
X191285714Y-124920057D02*
X191333333Y-125015295D01*
X191333333Y-125015295D02*
X191333333Y-125158152D01*
X191333333Y-125158152D02*
X191285714Y-125253390D01*
X191285714Y-125253390D02*
X191238095Y-125301009D01*
X191238095Y-125301009D02*
X191142857Y-125348628D01*
X191142857Y-125348628D02*
X190761905Y-125348628D01*
X192238095Y-124824819D02*
X191761905Y-124824819D01*
X191761905Y-124824819D02*
X191714286Y-125301009D01*
X191714286Y-125301009D02*
X191761905Y-125253390D01*
X191761905Y-125253390D02*
X191857143Y-125205771D01*
X191857143Y-125205771D02*
X192095238Y-125205771D01*
X192095238Y-125205771D02*
X192190476Y-125253390D01*
X192190476Y-125253390D02*
X192238095Y-125301009D01*
X192238095Y-125301009D02*
X192285714Y-125396247D01*
X192285714Y-125396247D02*
X192285714Y-125634342D01*
X192285714Y-125634342D02*
X192238095Y-125729580D01*
X192238095Y-125729580D02*
X192190476Y-125777200D01*
X192190476Y-125777200D02*
X192095238Y-125824819D01*
X192095238Y-125824819D02*
X191857143Y-125824819D01*
X191857143Y-125824819D02*
X191761905Y-125777200D01*
X191761905Y-125777200D02*
X191714286Y-125729580D01*
X146994819Y-132508094D02*
X145994819Y-132508094D01*
X145994819Y-132508094D02*
X145994819Y-132269999D01*
X145994819Y-132269999D02*
X146042438Y-132127142D01*
X146042438Y-132127142D02*
X146137676Y-132031904D01*
X146137676Y-132031904D02*
X146232914Y-131984285D01*
X146232914Y-131984285D02*
X146423390Y-131936666D01*
X146423390Y-131936666D02*
X146566247Y-131936666D01*
X146566247Y-131936666D02*
X146756723Y-131984285D01*
X146756723Y-131984285D02*
X146851961Y-132031904D01*
X146851961Y-132031904D02*
X146947200Y-132127142D01*
X146947200Y-132127142D02*
X146994819Y-132269999D01*
X146994819Y-132269999D02*
X146994819Y-132508094D01*
X146090057Y-131555713D02*
X146042438Y-131508094D01*
X146042438Y-131508094D02*
X145994819Y-131412856D01*
X145994819Y-131412856D02*
X145994819Y-131174761D01*
X145994819Y-131174761D02*
X146042438Y-131079523D01*
X146042438Y-131079523D02*
X146090057Y-131031904D01*
X146090057Y-131031904D02*
X146185295Y-130984285D01*
X146185295Y-130984285D02*
X146280533Y-130984285D01*
X146280533Y-130984285D02*
X146423390Y-131031904D01*
X146423390Y-131031904D02*
X146994819Y-131603332D01*
X146994819Y-131603332D02*
X146994819Y-130984285D01*
X153309819Y-132423094D02*
X152309819Y-132423094D01*
X152309819Y-132423094D02*
X152309819Y-132184999D01*
X152309819Y-132184999D02*
X152357438Y-132042142D01*
X152357438Y-132042142D02*
X152452676Y-131946904D01*
X152452676Y-131946904D02*
X152547914Y-131899285D01*
X152547914Y-131899285D02*
X152738390Y-131851666D01*
X152738390Y-131851666D02*
X152881247Y-131851666D01*
X152881247Y-131851666D02*
X153071723Y-131899285D01*
X153071723Y-131899285D02*
X153166961Y-131946904D01*
X153166961Y-131946904D02*
X153262200Y-132042142D01*
X153262200Y-132042142D02*
X153309819Y-132184999D01*
X153309819Y-132184999D02*
X153309819Y-132423094D01*
X152309819Y-131518332D02*
X152309819Y-130899285D01*
X152309819Y-130899285D02*
X152690771Y-131232618D01*
X152690771Y-131232618D02*
X152690771Y-131089761D01*
X152690771Y-131089761D02*
X152738390Y-130994523D01*
X152738390Y-130994523D02*
X152786009Y-130946904D01*
X152786009Y-130946904D02*
X152881247Y-130899285D01*
X152881247Y-130899285D02*
X153119342Y-130899285D01*
X153119342Y-130899285D02*
X153214580Y-130946904D01*
X153214580Y-130946904D02*
X153262200Y-130994523D01*
X153262200Y-130994523D02*
X153309819Y-131089761D01*
X153309819Y-131089761D02*
X153309819Y-131375475D01*
X153309819Y-131375475D02*
X153262200Y-131470713D01*
X153262200Y-131470713D02*
X153214580Y-131518332D01*
D11*
X156114800Y-101343734D02*
X156162419Y-101200877D01*
X156162419Y-101200877D02*
X156162419Y-100962782D01*
X156162419Y-100962782D02*
X156114800Y-100867544D01*
X156114800Y-100867544D02*
X156067180Y-100819925D01*
X156067180Y-100819925D02*
X155971942Y-100772306D01*
X155971942Y-100772306D02*
X155876704Y-100772306D01*
X155876704Y-100772306D02*
X155781466Y-100819925D01*
X155781466Y-100819925D02*
X155733847Y-100867544D01*
X155733847Y-100867544D02*
X155686228Y-100962782D01*
X155686228Y-100962782D02*
X155638609Y-101153258D01*
X155638609Y-101153258D02*
X155590990Y-101248496D01*
X155590990Y-101248496D02*
X155543371Y-101296115D01*
X155543371Y-101296115D02*
X155448133Y-101343734D01*
X155448133Y-101343734D02*
X155352895Y-101343734D01*
X155352895Y-101343734D02*
X155257657Y-101296115D01*
X155257657Y-101296115D02*
X155210038Y-101248496D01*
X155210038Y-101248496D02*
X155162419Y-101153258D01*
X155162419Y-101153258D02*
X155162419Y-100915163D01*
X155162419Y-100915163D02*
X155210038Y-100772306D01*
X156162419Y-100343734D02*
X155162419Y-100343734D01*
X155162419Y-100343734D02*
X155162419Y-100105639D01*
X155162419Y-100105639D02*
X155210038Y-99962782D01*
X155210038Y-99962782D02*
X155305276Y-99867544D01*
X155305276Y-99867544D02*
X155400514Y-99819925D01*
X155400514Y-99819925D02*
X155590990Y-99772306D01*
X155590990Y-99772306D02*
X155733847Y-99772306D01*
X155733847Y-99772306D02*
X155924323Y-99819925D01*
X155924323Y-99819925D02*
X156019561Y-99867544D01*
X156019561Y-99867544D02*
X156114800Y-99962782D01*
X156114800Y-99962782D02*
X156162419Y-100105639D01*
X156162419Y-100105639D02*
X156162419Y-100343734D01*
X156162419Y-99343734D02*
X155162419Y-99343734D01*
X156114800Y-106343734D02*
X156162419Y-106200877D01*
X156162419Y-106200877D02*
X156162419Y-105962782D01*
X156162419Y-105962782D02*
X156114800Y-105867544D01*
X156114800Y-105867544D02*
X156067180Y-105819925D01*
X156067180Y-105819925D02*
X155971942Y-105772306D01*
X155971942Y-105772306D02*
X155876704Y-105772306D01*
X155876704Y-105772306D02*
X155781466Y-105819925D01*
X155781466Y-105819925D02*
X155733847Y-105867544D01*
X155733847Y-105867544D02*
X155686228Y-105962782D01*
X155686228Y-105962782D02*
X155638609Y-106153258D01*
X155638609Y-106153258D02*
X155590990Y-106248496D01*
X155590990Y-106248496D02*
X155543371Y-106296115D01*
X155543371Y-106296115D02*
X155448133Y-106343734D01*
X155448133Y-106343734D02*
X155352895Y-106343734D01*
X155352895Y-106343734D02*
X155257657Y-106296115D01*
X155257657Y-106296115D02*
X155210038Y-106248496D01*
X155210038Y-106248496D02*
X155162419Y-106153258D01*
X155162419Y-106153258D02*
X155162419Y-105915163D01*
X155162419Y-105915163D02*
X155210038Y-105772306D01*
X156067180Y-104772306D02*
X156114800Y-104819925D01*
X156114800Y-104819925D02*
X156162419Y-104962782D01*
X156162419Y-104962782D02*
X156162419Y-105058020D01*
X156162419Y-105058020D02*
X156114800Y-105200877D01*
X156114800Y-105200877D02*
X156019561Y-105296115D01*
X156019561Y-105296115D02*
X155924323Y-105343734D01*
X155924323Y-105343734D02*
X155733847Y-105391353D01*
X155733847Y-105391353D02*
X155590990Y-105391353D01*
X155590990Y-105391353D02*
X155400514Y-105343734D01*
X155400514Y-105343734D02*
X155305276Y-105296115D01*
X155305276Y-105296115D02*
X155210038Y-105200877D01*
X155210038Y-105200877D02*
X155162419Y-105058020D01*
X155162419Y-105058020D02*
X155162419Y-104962782D01*
X155162419Y-104962782D02*
X155210038Y-104819925D01*
X155210038Y-104819925D02*
X155257657Y-104772306D01*
X156162419Y-104343734D02*
X155162419Y-104343734D01*
X156162419Y-103772306D02*
X155590990Y-104200877D01*
X155162419Y-103772306D02*
X155733847Y-104343734D01*
X155162419Y-111391353D02*
X155162419Y-110772306D01*
X155162419Y-110772306D02*
X155543371Y-111105639D01*
X155543371Y-111105639D02*
X155543371Y-110962782D01*
X155543371Y-110962782D02*
X155590990Y-110867544D01*
X155590990Y-110867544D02*
X155638609Y-110819925D01*
X155638609Y-110819925D02*
X155733847Y-110772306D01*
X155733847Y-110772306D02*
X155971942Y-110772306D01*
X155971942Y-110772306D02*
X156067180Y-110819925D01*
X156067180Y-110819925D02*
X156114800Y-110867544D01*
X156114800Y-110867544D02*
X156162419Y-110962782D01*
X156162419Y-110962782D02*
X156162419Y-111248496D01*
X156162419Y-111248496D02*
X156114800Y-111343734D01*
X156114800Y-111343734D02*
X156067180Y-111391353D01*
X155162419Y-110486591D02*
X156162419Y-110153258D01*
X156162419Y-110153258D02*
X155162419Y-109819925D01*
X156162419Y-109343734D02*
X156114800Y-109438972D01*
X156114800Y-109438972D02*
X156067180Y-109486591D01*
X156067180Y-109486591D02*
X155971942Y-109534210D01*
X155971942Y-109534210D02*
X155686228Y-109534210D01*
X155686228Y-109534210D02*
X155590990Y-109486591D01*
X155590990Y-109486591D02*
X155543371Y-109438972D01*
X155543371Y-109438972D02*
X155495752Y-109343734D01*
X155495752Y-109343734D02*
X155495752Y-109200877D01*
X155495752Y-109200877D02*
X155543371Y-109105639D01*
X155543371Y-109105639D02*
X155590990Y-109058020D01*
X155590990Y-109058020D02*
X155686228Y-109010401D01*
X155686228Y-109010401D02*
X155971942Y-109010401D01*
X155971942Y-109010401D02*
X156067180Y-109058020D01*
X156067180Y-109058020D02*
X156114800Y-109105639D01*
X156114800Y-109105639D02*
X156162419Y-109200877D01*
X156162419Y-109200877D02*
X156162419Y-109343734D01*
X159067180Y-97724687D02*
X159114800Y-97772306D01*
X159114800Y-97772306D02*
X159162419Y-97915163D01*
X159162419Y-97915163D02*
X159162419Y-98010401D01*
X159162419Y-98010401D02*
X159114800Y-98153258D01*
X159114800Y-98153258D02*
X159019561Y-98248496D01*
X159019561Y-98248496D02*
X158924323Y-98296115D01*
X158924323Y-98296115D02*
X158733847Y-98343734D01*
X158733847Y-98343734D02*
X158590990Y-98343734D01*
X158590990Y-98343734D02*
X158400514Y-98296115D01*
X158400514Y-98296115D02*
X158305276Y-98248496D01*
X158305276Y-98248496D02*
X158210038Y-98153258D01*
X158210038Y-98153258D02*
X158162419Y-98010401D01*
X158162419Y-98010401D02*
X158162419Y-97915163D01*
X158162419Y-97915163D02*
X158210038Y-97772306D01*
X158210038Y-97772306D02*
X158257657Y-97724687D01*
X159114800Y-97343734D02*
X159162419Y-97200877D01*
X159162419Y-97200877D02*
X159162419Y-96962782D01*
X159162419Y-96962782D02*
X159114800Y-96867544D01*
X159114800Y-96867544D02*
X159067180Y-96819925D01*
X159067180Y-96819925D02*
X158971942Y-96772306D01*
X158971942Y-96772306D02*
X158876704Y-96772306D01*
X158876704Y-96772306D02*
X158781466Y-96819925D01*
X158781466Y-96819925D02*
X158733847Y-96867544D01*
X158733847Y-96867544D02*
X158686228Y-96962782D01*
X158686228Y-96962782D02*
X158638609Y-97153258D01*
X158638609Y-97153258D02*
X158590990Y-97248496D01*
X158590990Y-97248496D02*
X158543371Y-97296115D01*
X158543371Y-97296115D02*
X158448133Y-97343734D01*
X158448133Y-97343734D02*
X158352895Y-97343734D01*
X158352895Y-97343734D02*
X158257657Y-97296115D01*
X158257657Y-97296115D02*
X158210038Y-97248496D01*
X158210038Y-97248496D02*
X158162419Y-97153258D01*
X158162419Y-97153258D02*
X158162419Y-96915163D01*
X158162419Y-96915163D02*
X158210038Y-96772306D01*
X159114800Y-103843734D02*
X159162419Y-103700877D01*
X159162419Y-103700877D02*
X159162419Y-103462782D01*
X159162419Y-103462782D02*
X159114800Y-103367544D01*
X159114800Y-103367544D02*
X159067180Y-103319925D01*
X159067180Y-103319925D02*
X158971942Y-103272306D01*
X158971942Y-103272306D02*
X158876704Y-103272306D01*
X158876704Y-103272306D02*
X158781466Y-103319925D01*
X158781466Y-103319925D02*
X158733847Y-103367544D01*
X158733847Y-103367544D02*
X158686228Y-103462782D01*
X158686228Y-103462782D02*
X158638609Y-103653258D01*
X158638609Y-103653258D02*
X158590990Y-103748496D01*
X158590990Y-103748496D02*
X158543371Y-103796115D01*
X158543371Y-103796115D02*
X158448133Y-103843734D01*
X158448133Y-103843734D02*
X158352895Y-103843734D01*
X158352895Y-103843734D02*
X158257657Y-103796115D01*
X158257657Y-103796115D02*
X158210038Y-103748496D01*
X158210038Y-103748496D02*
X158162419Y-103653258D01*
X158162419Y-103653258D02*
X158162419Y-103415163D01*
X158162419Y-103415163D02*
X158210038Y-103272306D01*
X159162419Y-102843734D02*
X158162419Y-102843734D01*
X158162419Y-102843734D02*
X158162419Y-102605639D01*
X158162419Y-102605639D02*
X158210038Y-102462782D01*
X158210038Y-102462782D02*
X158305276Y-102367544D01*
X158305276Y-102367544D02*
X158400514Y-102319925D01*
X158400514Y-102319925D02*
X158590990Y-102272306D01*
X158590990Y-102272306D02*
X158733847Y-102272306D01*
X158733847Y-102272306D02*
X158924323Y-102319925D01*
X158924323Y-102319925D02*
X159019561Y-102367544D01*
X159019561Y-102367544D02*
X159114800Y-102462782D01*
X159114800Y-102462782D02*
X159162419Y-102605639D01*
X159162419Y-102605639D02*
X159162419Y-102843734D01*
X158162419Y-101653258D02*
X158162419Y-101462782D01*
X158162419Y-101462782D02*
X158210038Y-101367544D01*
X158210038Y-101367544D02*
X158305276Y-101272306D01*
X158305276Y-101272306D02*
X158495752Y-101224687D01*
X158495752Y-101224687D02*
X158829085Y-101224687D01*
X158829085Y-101224687D02*
X159019561Y-101272306D01*
X159019561Y-101272306D02*
X159114800Y-101367544D01*
X159114800Y-101367544D02*
X159162419Y-101462782D01*
X159162419Y-101462782D02*
X159162419Y-101653258D01*
X159162419Y-101653258D02*
X159114800Y-101748496D01*
X159114800Y-101748496D02*
X159019561Y-101843734D01*
X159019561Y-101843734D02*
X158829085Y-101891353D01*
X158829085Y-101891353D02*
X158495752Y-101891353D01*
X158495752Y-101891353D02*
X158305276Y-101843734D01*
X158305276Y-101843734D02*
X158210038Y-101748496D01*
X158210038Y-101748496D02*
X158162419Y-101653258D01*
X158210038Y-108272306D02*
X158162419Y-108367544D01*
X158162419Y-108367544D02*
X158162419Y-108510401D01*
X158162419Y-108510401D02*
X158210038Y-108653258D01*
X158210038Y-108653258D02*
X158305276Y-108748496D01*
X158305276Y-108748496D02*
X158400514Y-108796115D01*
X158400514Y-108796115D02*
X158590990Y-108843734D01*
X158590990Y-108843734D02*
X158733847Y-108843734D01*
X158733847Y-108843734D02*
X158924323Y-108796115D01*
X158924323Y-108796115D02*
X159019561Y-108748496D01*
X159019561Y-108748496D02*
X159114800Y-108653258D01*
X159114800Y-108653258D02*
X159162419Y-108510401D01*
X159162419Y-108510401D02*
X159162419Y-108415163D01*
X159162419Y-108415163D02*
X159114800Y-108272306D01*
X159114800Y-108272306D02*
X159067180Y-108224687D01*
X159067180Y-108224687D02*
X158733847Y-108224687D01*
X158733847Y-108224687D02*
X158733847Y-108415163D01*
X159162419Y-107796115D02*
X158162419Y-107796115D01*
X158162419Y-107796115D02*
X159162419Y-107224687D01*
X159162419Y-107224687D02*
X158162419Y-107224687D01*
X159162419Y-106748496D02*
X158162419Y-106748496D01*
X158162419Y-106748496D02*
X158162419Y-106510401D01*
X158162419Y-106510401D02*
X158210038Y-106367544D01*
X158210038Y-106367544D02*
X158305276Y-106272306D01*
X158305276Y-106272306D02*
X158400514Y-106224687D01*
X158400514Y-106224687D02*
X158590990Y-106177068D01*
X158590990Y-106177068D02*
X158733847Y-106177068D01*
X158733847Y-106177068D02*
X158924323Y-106224687D01*
X158924323Y-106224687D02*
X159019561Y-106272306D01*
X159019561Y-106272306D02*
X159114800Y-106367544D01*
X159114800Y-106367544D02*
X159162419Y-106510401D01*
X159162419Y-106510401D02*
X159162419Y-106748496D01*
X158162419Y-113938972D02*
X159162419Y-113605639D01*
X159162419Y-113605639D02*
X158162419Y-113272306D01*
X159162419Y-112938972D02*
X158162419Y-112938972D01*
X159162419Y-112462782D02*
X158162419Y-112462782D01*
X158162419Y-112462782D02*
X159162419Y-111891354D01*
X159162419Y-111891354D02*
X158162419Y-111891354D01*
D10*
X154084819Y-123666666D02*
X153608628Y-123999999D01*
X154084819Y-124238094D02*
X153084819Y-124238094D01*
X153084819Y-124238094D02*
X153084819Y-123857142D01*
X153084819Y-123857142D02*
X153132438Y-123761904D01*
X153132438Y-123761904D02*
X153180057Y-123714285D01*
X153180057Y-123714285D02*
X153275295Y-123666666D01*
X153275295Y-123666666D02*
X153418152Y-123666666D01*
X153418152Y-123666666D02*
X153513390Y-123714285D01*
X153513390Y-123714285D02*
X153561009Y-123761904D01*
X153561009Y-123761904D02*
X153608628Y-123857142D01*
X153608628Y-123857142D02*
X153608628Y-124238094D01*
X153084819Y-123333332D02*
X153084819Y-122714285D01*
X153084819Y-122714285D02*
X153465771Y-123047618D01*
X153465771Y-123047618D02*
X153465771Y-122904761D01*
X153465771Y-122904761D02*
X153513390Y-122809523D01*
X153513390Y-122809523D02*
X153561009Y-122761904D01*
X153561009Y-122761904D02*
X153656247Y-122714285D01*
X153656247Y-122714285D02*
X153894342Y-122714285D01*
X153894342Y-122714285D02*
X153989580Y-122761904D01*
X153989580Y-122761904D02*
X154037200Y-122809523D01*
X154037200Y-122809523D02*
X154084819Y-122904761D01*
X154084819Y-122904761D02*
X154084819Y-123190475D01*
X154084819Y-123190475D02*
X154037200Y-123285713D01*
X154037200Y-123285713D02*
X153989580Y-123333332D01*
X199031905Y-132914819D02*
X199031905Y-131914819D01*
X199031905Y-131914819D02*
X199270000Y-131914819D01*
X199270000Y-131914819D02*
X199412857Y-131962438D01*
X199412857Y-131962438D02*
X199508095Y-132057676D01*
X199508095Y-132057676D02*
X199555714Y-132152914D01*
X199555714Y-132152914D02*
X199603333Y-132343390D01*
X199603333Y-132343390D02*
X199603333Y-132486247D01*
X199603333Y-132486247D02*
X199555714Y-132676723D01*
X199555714Y-132676723D02*
X199508095Y-132771961D01*
X199508095Y-132771961D02*
X199412857Y-132867200D01*
X199412857Y-132867200D02*
X199270000Y-132914819D01*
X199270000Y-132914819D02*
X199031905Y-132914819D01*
X200460476Y-132248152D02*
X200460476Y-132914819D01*
X200222381Y-131867200D02*
X199984286Y-132581485D01*
X199984286Y-132581485D02*
X200603333Y-132581485D01*
X141084819Y-123666666D02*
X140608628Y-123999999D01*
X141084819Y-124238094D02*
X140084819Y-124238094D01*
X140084819Y-124238094D02*
X140084819Y-123857142D01*
X140084819Y-123857142D02*
X140132438Y-123761904D01*
X140132438Y-123761904D02*
X140180057Y-123714285D01*
X140180057Y-123714285D02*
X140275295Y-123666666D01*
X140275295Y-123666666D02*
X140418152Y-123666666D01*
X140418152Y-123666666D02*
X140513390Y-123714285D01*
X140513390Y-123714285D02*
X140561009Y-123761904D01*
X140561009Y-123761904D02*
X140608628Y-123857142D01*
X140608628Y-123857142D02*
X140608628Y-124238094D01*
X141084819Y-122714285D02*
X141084819Y-123285713D01*
X141084819Y-122999999D02*
X140084819Y-122999999D01*
X140084819Y-122999999D02*
X140227676Y-123095237D01*
X140227676Y-123095237D02*
X140322914Y-123190475D01*
X140322914Y-123190475D02*
X140370533Y-123285713D01*
X176494819Y-105486189D02*
X175494819Y-105486189D01*
X176399580Y-104438571D02*
X176447200Y-104486190D01*
X176447200Y-104486190D02*
X176494819Y-104629047D01*
X176494819Y-104629047D02*
X176494819Y-104724285D01*
X176494819Y-104724285D02*
X176447200Y-104867142D01*
X176447200Y-104867142D02*
X176351961Y-104962380D01*
X176351961Y-104962380D02*
X176256723Y-105009999D01*
X176256723Y-105009999D02*
X176066247Y-105057618D01*
X176066247Y-105057618D02*
X175923390Y-105057618D01*
X175923390Y-105057618D02*
X175732914Y-105009999D01*
X175732914Y-105009999D02*
X175637676Y-104962380D01*
X175637676Y-104962380D02*
X175542438Y-104867142D01*
X175542438Y-104867142D02*
X175494819Y-104724285D01*
X175494819Y-104724285D02*
X175494819Y-104629047D01*
X175494819Y-104629047D02*
X175542438Y-104486190D01*
X175542438Y-104486190D02*
X175590057Y-104438571D01*
X176494819Y-103486190D02*
X176494819Y-104057618D01*
X176494819Y-103771904D02*
X175494819Y-103771904D01*
X175494819Y-103771904D02*
X175637676Y-103867142D01*
X175637676Y-103867142D02*
X175732914Y-103962380D01*
X175732914Y-103962380D02*
X175780533Y-104057618D01*
X199091905Y-126699819D02*
X199091905Y-125699819D01*
X199091905Y-125699819D02*
X199330000Y-125699819D01*
X199330000Y-125699819D02*
X199472857Y-125747438D01*
X199472857Y-125747438D02*
X199568095Y-125842676D01*
X199568095Y-125842676D02*
X199615714Y-125937914D01*
X199615714Y-125937914D02*
X199663333Y-126128390D01*
X199663333Y-126128390D02*
X199663333Y-126271247D01*
X199663333Y-126271247D02*
X199615714Y-126461723D01*
X199615714Y-126461723D02*
X199568095Y-126556961D01*
X199568095Y-126556961D02*
X199472857Y-126652200D01*
X199472857Y-126652200D02*
X199330000Y-126699819D01*
X199330000Y-126699819D02*
X199091905Y-126699819D01*
X200568095Y-125699819D02*
X200091905Y-125699819D01*
X200091905Y-125699819D02*
X200044286Y-126176009D01*
X200044286Y-126176009D02*
X200091905Y-126128390D01*
X200091905Y-126128390D02*
X200187143Y-126080771D01*
X200187143Y-126080771D02*
X200425238Y-126080771D01*
X200425238Y-126080771D02*
X200520476Y-126128390D01*
X200520476Y-126128390D02*
X200568095Y-126176009D01*
X200568095Y-126176009D02*
X200615714Y-126271247D01*
X200615714Y-126271247D02*
X200615714Y-126509342D01*
X200615714Y-126509342D02*
X200568095Y-126604580D01*
X200568095Y-126604580D02*
X200520476Y-126652200D01*
X200520476Y-126652200D02*
X200425238Y-126699819D01*
X200425238Y-126699819D02*
X200187143Y-126699819D01*
X200187143Y-126699819D02*
X200091905Y-126652200D01*
X200091905Y-126652200D02*
X200044286Y-126604580D01*
X134896666Y-59634819D02*
X134896666Y-60349104D01*
X134896666Y-60349104D02*
X134849047Y-60491961D01*
X134849047Y-60491961D02*
X134753809Y-60587200D01*
X134753809Y-60587200D02*
X134610952Y-60634819D01*
X134610952Y-60634819D02*
X134515714Y-60634819D01*
X135896666Y-60634819D02*
X135325238Y-60634819D01*
X135610952Y-60634819D02*
X135610952Y-59634819D01*
X135610952Y-59634819D02*
X135515714Y-59777676D01*
X135515714Y-59777676D02*
X135420476Y-59872914D01*
X135420476Y-59872914D02*
X135325238Y-59920533D01*
X147584819Y-123666666D02*
X147108628Y-123999999D01*
X147584819Y-124238094D02*
X146584819Y-124238094D01*
X146584819Y-124238094D02*
X146584819Y-123857142D01*
X146584819Y-123857142D02*
X146632438Y-123761904D01*
X146632438Y-123761904D02*
X146680057Y-123714285D01*
X146680057Y-123714285D02*
X146775295Y-123666666D01*
X146775295Y-123666666D02*
X146918152Y-123666666D01*
X146918152Y-123666666D02*
X147013390Y-123714285D01*
X147013390Y-123714285D02*
X147061009Y-123761904D01*
X147061009Y-123761904D02*
X147108628Y-123857142D01*
X147108628Y-123857142D02*
X147108628Y-124238094D01*
X146680057Y-123285713D02*
X146632438Y-123238094D01*
X146632438Y-123238094D02*
X146584819Y-123142856D01*
X146584819Y-123142856D02*
X146584819Y-122904761D01*
X146584819Y-122904761D02*
X146632438Y-122809523D01*
X146632438Y-122809523D02*
X146680057Y-122761904D01*
X146680057Y-122761904D02*
X146775295Y-122714285D01*
X146775295Y-122714285D02*
X146870533Y-122714285D01*
X146870533Y-122714285D02*
X147013390Y-122761904D01*
X147013390Y-122761904D02*
X147584819Y-123333332D01*
X147584819Y-123333332D02*
X147584819Y-122714285D01*
X213661666Y-59594819D02*
X213661666Y-60309104D01*
X213661666Y-60309104D02*
X213614047Y-60451961D01*
X213614047Y-60451961D02*
X213518809Y-60547200D01*
X213518809Y-60547200D02*
X213375952Y-60594819D01*
X213375952Y-60594819D02*
X213280714Y-60594819D01*
X214090238Y-59690057D02*
X214137857Y-59642438D01*
X214137857Y-59642438D02*
X214233095Y-59594819D01*
X214233095Y-59594819D02*
X214471190Y-59594819D01*
X214471190Y-59594819D02*
X214566428Y-59642438D01*
X214566428Y-59642438D02*
X214614047Y-59690057D01*
X214614047Y-59690057D02*
X214661666Y-59785295D01*
X214661666Y-59785295D02*
X214661666Y-59880533D01*
X214661666Y-59880533D02*
X214614047Y-60023390D01*
X214614047Y-60023390D02*
X214042619Y-60594819D01*
X214042619Y-60594819D02*
X214661666Y-60594819D01*
X191333333Y-132324819D02*
X191000000Y-131848628D01*
X190761905Y-132324819D02*
X190761905Y-131324819D01*
X190761905Y-131324819D02*
X191142857Y-131324819D01*
X191142857Y-131324819D02*
X191238095Y-131372438D01*
X191238095Y-131372438D02*
X191285714Y-131420057D01*
X191285714Y-131420057D02*
X191333333Y-131515295D01*
X191333333Y-131515295D02*
X191333333Y-131658152D01*
X191333333Y-131658152D02*
X191285714Y-131753390D01*
X191285714Y-131753390D02*
X191238095Y-131801009D01*
X191238095Y-131801009D02*
X191142857Y-131848628D01*
X191142857Y-131848628D02*
X190761905Y-131848628D01*
X192190476Y-131658152D02*
X192190476Y-132324819D01*
X191952381Y-131277200D02*
X191714286Y-131991485D01*
X191714286Y-131991485D02*
X192333333Y-131991485D01*
%TO.C,J3*%
D12*
X195460000Y-134880000D02*
X195460000Y-133500000D01*
X196840000Y-134880000D02*
X195460000Y-134880000D01*
X198110000Y-132120000D02*
X208380000Y-132120000D01*
X198110000Y-134880000D02*
X198110000Y-132120000D01*
X198110000Y-134880000D02*
X208380000Y-134880000D01*
X208380000Y-134880000D02*
X208380000Y-132120000D01*
%TO.C,U4*%
D11*
X189500000Y-116580000D02*
X189500000Y-96260000D01*
X192040000Y-93720000D02*
X204740000Y-93720000D01*
X204740000Y-119120000D02*
X192040000Y-119120000D01*
X207280000Y-96260000D02*
X207280000Y-116580000D01*
X189500000Y-96260000D02*
G75*
G02*
X192040000Y-93720000I2540000J0D01*
G01*
X192040000Y-119120000D02*
G75*
G02*
X189500000Y-116580000I0J2540000D01*
G01*
X204740000Y-93720000D02*
G75*
G02*
X207280000Y-96260000I0J-2540000D01*
G01*
X207280000Y-116580000D02*
G75*
G02*
X204740000Y-119120000I-2540000J0D01*
G01*
%TO.C,D1*%
D12*
X141974000Y-133390000D02*
X142130000Y-133390000D01*
X144290000Y-133390000D02*
X144446000Y-133390000D01*
X141974484Y-133390000D02*
G75*
G02*
X142130000Y-130158563I1235516J1560000D01*
G01*
X142130000Y-132870961D02*
G75*
G02*
X142130000Y-130789039I1080000J1040961D01*
G01*
X144290000Y-130158563D02*
G75*
G02*
X144445516Y-133390000I-1080000J-1671437D01*
G01*
X144290000Y-130789039D02*
G75*
G02*
X144290000Y-132870961I-1080000J-1040961D01*
G01*
%TO.C,R10*%
X203130000Y-122540000D02*
X203460000Y-122540000D01*
X203130000Y-129080000D02*
X203130000Y-122540000D01*
X203460000Y-129080000D02*
X203130000Y-129080000D01*
X205540000Y-129080000D02*
X205870000Y-129080000D01*
X205870000Y-122540000D02*
X205540000Y-122540000D01*
X205870000Y-129080000D02*
X205870000Y-122540000D01*
%TO.C,R5*%
X188230000Y-121630000D02*
X188230000Y-121960000D01*
X188230000Y-124370000D02*
X188230000Y-124040000D01*
X194770000Y-121630000D02*
X188230000Y-121630000D01*
X194770000Y-121960000D02*
X194770000Y-121630000D01*
X194770000Y-124040000D02*
X194770000Y-124370000D01*
X194770000Y-124370000D02*
X188230000Y-124370000D01*
%TO.C,D2*%
X148264000Y-133330000D02*
X148420000Y-133330000D01*
X150580000Y-133330000D02*
X150736000Y-133330000D01*
X148264484Y-133330000D02*
G75*
G02*
X148420000Y-130098563I1235516J1560000D01*
G01*
X148420000Y-132810961D02*
G75*
G02*
X148420000Y-130729039I1080000J1040961D01*
G01*
X150580000Y-130098563D02*
G75*
G02*
X150735516Y-133330000I-1080000J-1671437D01*
G01*
X150580000Y-130729039D02*
G75*
G02*
X150580000Y-132810961I-1080000J-1040961D01*
G01*
%TO.C,D3*%
X154579000Y-133245000D02*
X154735000Y-133245000D01*
X156895000Y-133245000D02*
X157051000Y-133245000D01*
X154579484Y-133245000D02*
G75*
G02*
X154735000Y-130013563I1235516J1560000D01*
G01*
X154735000Y-132725961D02*
G75*
G02*
X154735000Y-130644039I1080000J1040961D01*
G01*
X156895000Y-130013563D02*
G75*
G02*
X157050516Y-133245000I-1080000J-1671437D01*
G01*
X156895000Y-130644039D02*
G75*
G02*
X156895000Y-132725961I-1080000J-1040961D01*
G01*
%TO.C,U3*%
D11*
X142010000Y-115560000D02*
X142010000Y-95240000D01*
X144550000Y-92700000D02*
X157250000Y-92700000D01*
X157250000Y-118100000D02*
X144550000Y-118100000D01*
X159790000Y-95240000D02*
X159790000Y-115560000D01*
X142010000Y-95240000D02*
G75*
G02*
X144550000Y-92700000I2540000J0D01*
G01*
X144550000Y-118100000D02*
G75*
G02*
X142010000Y-115560000I0J2540000D01*
G01*
X157250000Y-92700000D02*
G75*
G02*
X159790000Y-95240000I0J-2540000D01*
G01*
X159790000Y-115560000D02*
G75*
G02*
X157250000Y-118100000I-2540000J0D01*
G01*
%TO.C,R3*%
D12*
X154630000Y-120230000D02*
X154960000Y-120230000D01*
X154630000Y-126770000D02*
X154630000Y-120230000D01*
X154960000Y-126770000D02*
X154630000Y-126770000D01*
X157040000Y-126770000D02*
X157370000Y-126770000D01*
X157370000Y-120230000D02*
X157040000Y-120230000D01*
X157370000Y-126770000D02*
X157370000Y-120230000D01*
%TO.C,D4*%
X201330000Y-128420000D02*
X201330000Y-128264000D01*
X201330000Y-130736000D02*
X201330000Y-130580000D01*
X198098563Y-128420000D02*
G75*
G02*
X201330000Y-128264484I1671437J-1080000D01*
G01*
X198729039Y-128420000D02*
G75*
G02*
X200810961Y-128420000I1040961J-1080000D01*
G01*
X200810961Y-130580000D02*
G75*
G02*
X198729039Y-130580000I-1040961J1080000D01*
G01*
X201330000Y-130735516D02*
G75*
G02*
X198098563Y-130580000I-1560000J1235516D01*
G01*
%TO.C,R1*%
X141630000Y-120230000D02*
X141960000Y-120230000D01*
X141630000Y-126770000D02*
X141630000Y-120230000D01*
X141960000Y-126770000D02*
X141630000Y-126770000D01*
X144040000Y-126770000D02*
X144370000Y-126770000D01*
X144370000Y-120230000D02*
X144040000Y-120230000D01*
X144370000Y-126770000D02*
X144370000Y-120230000D01*
%TO.C,IC1*%
D13*
X167150000Y-74030000D02*
X167150000Y-134990000D01*
X167150000Y-134990000D02*
X184930000Y-134990000D01*
X184930000Y-74030000D02*
X167150000Y-74030000D01*
X184930000Y-134990000D02*
X184930000Y-74030000D01*
X185560000Y-128540000D02*
X185560000Y-128540000D01*
X185560000Y-128640000D02*
X185560000Y-128640000D01*
X185560000Y-128640000D02*
X185560000Y-128640000D01*
X185560000Y-128540000D02*
G75*
G02*
X185560000Y-128640000I0J-50000D01*
G01*
X185560000Y-128540000D02*
G75*
G02*
X185560000Y-128640000I0J-50000D01*
G01*
X185560000Y-128640000D02*
G75*
G02*
X185560000Y-128540000I0J50000D01*
G01*
%TO.C,D5*%
D12*
X201390000Y-122205000D02*
X201390000Y-122049000D01*
X201390000Y-124521000D02*
X201390000Y-124365000D01*
X198158563Y-122205000D02*
G75*
G02*
X201390000Y-122049484I1671437J-1080000D01*
G01*
X198789039Y-122205000D02*
G75*
G02*
X200870961Y-122205000I1040961J-1080000D01*
G01*
X200870961Y-124365000D02*
G75*
G02*
X198789039Y-124365000I-1040961J1080000D01*
G01*
X201390000Y-124520516D02*
G75*
G02*
X198158563Y-124365000I-1560000J1235516D01*
G01*
%TO.C,J1*%
X132580000Y-61180000D02*
X133960000Y-61180000D01*
X132580000Y-62560000D02*
X132580000Y-61180000D01*
X132580000Y-63830000D02*
X132580000Y-124900000D01*
X132580000Y-63830000D02*
X135230000Y-63830000D01*
X132580000Y-124900000D02*
X137880000Y-124900000D01*
X135230000Y-61180000D02*
X137880000Y-61180000D01*
X135230000Y-63830000D02*
X135230000Y-61180000D01*
X137880000Y-61180000D02*
X137880000Y-124900000D01*
%TO.C,R2*%
X148130000Y-120230000D02*
X148460000Y-120230000D01*
X148130000Y-126770000D02*
X148130000Y-120230000D01*
X148460000Y-126770000D02*
X148130000Y-126770000D01*
X150540000Y-126770000D02*
X150870000Y-126770000D01*
X150870000Y-120230000D02*
X150540000Y-120230000D01*
X150870000Y-126770000D02*
X150870000Y-120230000D01*
%TO.C,J2*%
X211345000Y-61140000D02*
X212725000Y-61140000D01*
X211345000Y-62520000D02*
X211345000Y-61140000D01*
X211345000Y-63790000D02*
X211345000Y-124860000D01*
X211345000Y-63790000D02*
X213995000Y-63790000D01*
X211345000Y-124860000D02*
X216645000Y-124860000D01*
X213995000Y-61140000D02*
X216645000Y-61140000D01*
X213995000Y-63790000D02*
X213995000Y-61140000D01*
X216645000Y-61140000D02*
X216645000Y-124860000D01*
%TO.C,R4*%
X188230000Y-128130000D02*
X188230000Y-128460000D01*
X188230000Y-130870000D02*
X188230000Y-130540000D01*
X194770000Y-128130000D02*
X188230000Y-128130000D01*
X194770000Y-128460000D02*
X194770000Y-128130000D01*
X194770000Y-130540000D02*
X194770000Y-130870000D01*
X194770000Y-130870000D02*
X188230000Y-130870000D01*
%TD*%
M02*
