%TF.GenerationSoftware,KiCad,Pcbnew,10.0.4*%
%TF.CreationDate,2026-08-13T16:02:57+01:00*%
%TF.ProjectId,CDH,4344482e-6b69-4636-9164-5f7063625858,rev?*%
%TF.SameCoordinates,Original*%
%TF.FileFunction,Legend,Bot*%
%TF.FilePolarity,Positive*%
%FSLAX46Y46*%
G04 Gerber Fmt 4.6, Leading zero omitted, Abs format (unit mm)*
G04 Created by KiCad (PCBNEW 10.0.4) date 2026-08-13 16:02:57*
%MOMM*%
%LPD*%
G01*
G04 APERTURE LIST*
%ADD10C,0.100000*%
%ADD11C,0.000000*%
G04 APERTURE END LIST*
D10*
G36*
X205109638Y-59600000D02*
G01*
X205109638Y-55514794D01*
X204731917Y-55514794D01*
X204731917Y-57260886D01*
X203749877Y-57260886D01*
X203749877Y-55514794D01*
X203372156Y-55514794D01*
X203372156Y-59600000D01*
X203749877Y-59600000D01*
X203749877Y-57719818D01*
X204731917Y-57719818D01*
X204731917Y-59600000D01*
X205109638Y-59600000D01*
G37*
G36*
X201912011Y-59600000D02*
G01*
X201912011Y-58072260D01*
X202835432Y-55514794D01*
X202432615Y-55514794D01*
X201836540Y-57193719D01*
X201756856Y-57431612D01*
X201718937Y-57574249D01*
X201679187Y-57431612D01*
X201597304Y-57193719D01*
X201001413Y-55514794D01*
X200611051Y-55514794D01*
X201534289Y-58072260D01*
X201534289Y-59600000D01*
X201912011Y-59600000D01*
G37*
G36*
X200078541Y-59600000D02*
G01*
X199700819Y-59600000D01*
X199700819Y-57921074D01*
X199092288Y-57921074D01*
X198880184Y-57898666D01*
X198699248Y-57835112D01*
X198544003Y-57733544D01*
X198410301Y-57593789D01*
X198300991Y-57420007D01*
X198222292Y-57219851D01*
X198173396Y-56988176D01*
X198156228Y-56717934D01*
X198546589Y-56717934D01*
X198564395Y-56937558D01*
X198614558Y-57116540D01*
X198695699Y-57263817D01*
X198803588Y-57375471D01*
X198933639Y-57443860D01*
X199092288Y-57468004D01*
X199700819Y-57468004D01*
X199700819Y-55968108D01*
X199092288Y-55968108D01*
X198933489Y-55991983D01*
X198803437Y-56059537D01*
X198695699Y-56169609D01*
X198614824Y-56315202D01*
X198564540Y-56494755D01*
X198546589Y-56717934D01*
X198156228Y-56717934D01*
X198173393Y-56447824D01*
X198222284Y-56216228D01*
X198300983Y-56016107D01*
X198410301Y-55842323D01*
X198544014Y-55702454D01*
X198699264Y-55600812D01*
X198880196Y-55537216D01*
X199092288Y-55514794D01*
X200078541Y-55514794D01*
X200078541Y-59600000D01*
G37*
G36*
X197527363Y-59600000D02*
G01*
X197527363Y-55514794D01*
X195764602Y-55514794D01*
X195764602Y-55973726D01*
X197153855Y-55973726D01*
X197153855Y-57238415D01*
X195911514Y-57238415D01*
X195911514Y-57686113D01*
X197153855Y-57686113D01*
X197153855Y-59141067D01*
X195764602Y-59141067D01*
X195764602Y-59600000D01*
X197527363Y-59600000D01*
G37*
G36*
X195039017Y-59600000D02*
G01*
X194665509Y-59600000D01*
X194665509Y-57865143D01*
X194157728Y-57865143D01*
X193557440Y-59600000D01*
X193141983Y-59600000D01*
X193767367Y-57814829D01*
X193601677Y-57715820D01*
X193461470Y-57578689D01*
X193343483Y-57400837D01*
X193256089Y-57193884D01*
X193202544Y-56959206D01*
X193183932Y-56690090D01*
X193574293Y-56690090D01*
X193591245Y-56898878D01*
X193639184Y-57070562D01*
X193716992Y-57213258D01*
X193820482Y-57322116D01*
X193944390Y-57388480D01*
X194094713Y-57411828D01*
X194665509Y-57411828D01*
X194665509Y-55968108D01*
X194094713Y-55968108D01*
X193944241Y-55991190D01*
X193820332Y-56056720D01*
X193716992Y-56163991D01*
X193639451Y-56305154D01*
X193591390Y-56477584D01*
X193574293Y-56690090D01*
X193183932Y-56690090D01*
X193197238Y-56459000D01*
X193235475Y-56255374D01*
X193297322Y-56074598D01*
X193382901Y-55912253D01*
X193488523Y-55775798D01*
X193616242Y-55663293D01*
X193757304Y-55582336D01*
X193915686Y-55532224D01*
X194094713Y-55514794D01*
X195039017Y-55514794D01*
X195039017Y-59600000D01*
G37*
G36*
X192470987Y-59600000D02*
G01*
X192470987Y-59141067D01*
X191845603Y-59141067D01*
X191845603Y-55973726D01*
X192470987Y-55973726D01*
X192470987Y-55514794D01*
X190834255Y-55514794D01*
X190834255Y-55973726D01*
X191459455Y-55973726D01*
X191459455Y-59141067D01*
X190834255Y-59141067D01*
X190834255Y-59600000D01*
X192470987Y-59600000D01*
G37*
G36*
X189338604Y-55480750D02*
G01*
X189511516Y-55542724D01*
X189659118Y-55641669D01*
X189785537Y-55777843D01*
X189886261Y-55946056D01*
X189960582Y-56149071D01*
X190007860Y-56393996D01*
X190024773Y-56690090D01*
X190024773Y-58424703D01*
X190007860Y-58720797D01*
X189960582Y-58965722D01*
X189886261Y-59168737D01*
X189785537Y-59336950D01*
X189659118Y-59473124D01*
X189511516Y-59572069D01*
X189338604Y-59634044D01*
X189134874Y-59655931D01*
X188931243Y-59634047D01*
X188758390Y-59572079D01*
X188610814Y-59473135D01*
X188484394Y-59336950D01*
X188383670Y-59168737D01*
X188309349Y-58965722D01*
X188262071Y-58720797D01*
X188245158Y-58424703D01*
X188245158Y-56684473D01*
X188248052Y-56634159D01*
X188622880Y-56634159D01*
X188622880Y-58480879D01*
X188639311Y-58705588D01*
X188684424Y-58879952D01*
X188755137Y-59015282D01*
X188851899Y-59116233D01*
X188975766Y-59179672D01*
X189134874Y-59202616D01*
X189291302Y-59179870D01*
X189414769Y-59116591D01*
X189512779Y-59015282D01*
X189584651Y-58879739D01*
X189630405Y-58705368D01*
X189647051Y-58480879D01*
X189647051Y-56634159D01*
X189630397Y-56409507D01*
X189584637Y-56235154D01*
X189512779Y-56099755D01*
X189414755Y-55998303D01*
X189291287Y-55934948D01*
X189134874Y-55912177D01*
X188975781Y-55935146D01*
X188851914Y-55998662D01*
X188755137Y-56099755D01*
X188684439Y-56234940D01*
X188639320Y-56409286D01*
X188622880Y-56634159D01*
X188248052Y-56634159D01*
X188262010Y-56391467D01*
X188309190Y-56148343D01*
X188383498Y-55946099D01*
X188484394Y-55777843D01*
X188610814Y-55641658D01*
X188758390Y-55542714D01*
X188931243Y-55480746D01*
X189134874Y-55458862D01*
X189338604Y-55480750D01*
G37*
G36*
X187498691Y-59600000D02*
G01*
X187498691Y-55514794D01*
X186994940Y-55514794D01*
X186059063Y-59012351D01*
X186077930Y-58668213D01*
X186094783Y-58237369D01*
X186101011Y-57809211D01*
X186101011Y-55514794D01*
X185735929Y-55514794D01*
X185735929Y-59600000D01*
X186239497Y-59600000D01*
X187171345Y-56102442D01*
X187154492Y-56440963D01*
X187139837Y-56871807D01*
X187133609Y-57305582D01*
X187133609Y-59600000D01*
X187498691Y-59600000D01*
G37*
G36*
X184611741Y-60607257D02*
G01*
X184271755Y-59409734D01*
X185132161Y-56522051D01*
X184724947Y-56522051D01*
X184179431Y-58424703D01*
X184116416Y-58659909D01*
X184074467Y-58872400D01*
X184032519Y-58659909D01*
X183973717Y-58424703D01*
X183465936Y-56522051D01*
X183067149Y-56522051D01*
X184217166Y-60607257D01*
X184611741Y-60607257D01*
G37*
G36*
X182673307Y-59600000D02*
G01*
X181791835Y-57529553D01*
X182626962Y-55514794D01*
X182190622Y-55514794D01*
X181716364Y-56723551D01*
X181638695Y-56927983D01*
X181573665Y-57098464D01*
X181512848Y-56927983D01*
X181434996Y-56723551D01*
X180952494Y-55514794D01*
X180536854Y-55514794D01*
X181372165Y-57495847D01*
X180490692Y-59600000D01*
X180923002Y-59600000D01*
X181447636Y-58301605D01*
X181525305Y-58097418D01*
X181586121Y-57921074D01*
X181647121Y-58094731D01*
X181724607Y-58296231D01*
X182253454Y-59600000D01*
X182673307Y-59600000D01*
G37*
G36*
X177444923Y-59600000D02*
G01*
X177444923Y-59135450D01*
X176424965Y-57680495D01*
X176225849Y-57367335D01*
X176110258Y-57120935D01*
X176039971Y-56872785D01*
X176017751Y-56639776D01*
X176035126Y-56423646D01*
X176083940Y-56248519D01*
X176162648Y-56105373D01*
X176267661Y-55997087D01*
X176396181Y-55930291D01*
X176555024Y-55906559D01*
X176719324Y-55930999D01*
X176852024Y-55999720D01*
X176960223Y-56110990D01*
X177041067Y-56258210D01*
X177091264Y-56438746D01*
X177109150Y-56662002D01*
X177486871Y-56662002D01*
X177464043Y-56388821D01*
X177411501Y-56155659D01*
X177331165Y-55955581D01*
X177222540Y-55783461D01*
X177089825Y-55644340D01*
X176937101Y-55543649D01*
X176760532Y-55480906D01*
X176555024Y-55458862D01*
X176344731Y-55480788D01*
X176165814Y-55542882D01*
X176012785Y-55641908D01*
X175881463Y-55777843D01*
X175774422Y-55947285D01*
X175697062Y-56144376D01*
X175648796Y-56374532D01*
X175631786Y-56645150D01*
X175644174Y-56835996D01*
X175682918Y-57040149D01*
X175751404Y-57260886D01*
X175841244Y-57468348D01*
X175974447Y-57709007D01*
X176160450Y-57988241D01*
X176987334Y-59141067D01*
X175593867Y-59141067D01*
X175593867Y-59600000D01*
X177444923Y-59600000D01*
G37*
G36*
X174133715Y-57248609D02*
G01*
X174211575Y-57308513D01*
X174262554Y-57403927D01*
X174280818Y-57540544D01*
X174262451Y-57682755D01*
X174211575Y-57781367D01*
X174133563Y-57843142D01*
X174028942Y-57865143D01*
X173924480Y-57843151D01*
X173846493Y-57781367D01*
X173795617Y-57682755D01*
X173777250Y-57540544D01*
X173795514Y-57403927D01*
X173846493Y-57308513D01*
X173924328Y-57248600D01*
X174028942Y-57227180D01*
X174133715Y-57248609D01*
G37*
G36*
X174238930Y-55481288D02*
G01*
X174417761Y-55544867D01*
X174570961Y-55646481D01*
X174702686Y-55786392D01*
X174809931Y-55959807D01*
X174887304Y-56159798D01*
X174935447Y-56391526D01*
X174952363Y-56662002D01*
X174952363Y-58452791D01*
X174935450Y-58723263D01*
X174887310Y-58955037D01*
X174809937Y-59155113D01*
X174702686Y-59328646D01*
X174570973Y-59468442D01*
X174417777Y-59569982D01*
X174238941Y-59633520D01*
X174028942Y-59655931D01*
X173844214Y-59638394D01*
X173682461Y-59588231D01*
X173540029Y-59507676D01*
X173411472Y-59394544D01*
X173305167Y-59255450D01*
X173219094Y-59088066D01*
X173157303Y-58901548D01*
X173119032Y-58691338D01*
X173105704Y-58452791D01*
X173105704Y-56662002D01*
X173470786Y-56662002D01*
X173470786Y-58452791D01*
X173488836Y-58672266D01*
X173540199Y-58855223D01*
X173624110Y-59009665D01*
X173735291Y-59127898D01*
X173868101Y-59199819D01*
X174028942Y-59225087D01*
X174189912Y-59199818D01*
X174322844Y-59127895D01*
X174434141Y-59009665D01*
X174517945Y-58855241D01*
X174569250Y-58672283D01*
X174587281Y-58452791D01*
X174587281Y-56662002D01*
X174569254Y-56442674D01*
X174517953Y-56259792D01*
X174434141Y-56105373D01*
X174322831Y-55986998D01*
X174189898Y-55914999D01*
X174028942Y-55889706D01*
X173868114Y-55914999D01*
X173735304Y-55986995D01*
X173624110Y-56105373D01*
X173540190Y-56259810D01*
X173488832Y-56442691D01*
X173470786Y-56662002D01*
X173105704Y-56662002D01*
X173122621Y-56391526D01*
X173170764Y-56159798D01*
X173248136Y-55959807D01*
X173355382Y-55786392D01*
X173487108Y-55646471D01*
X173640282Y-55544858D01*
X173819054Y-55481284D01*
X174028942Y-55458862D01*
X174238930Y-55481288D01*
G37*
G36*
X172409612Y-59600000D02*
G01*
X172409612Y-59135450D01*
X171389654Y-57680495D01*
X171190538Y-57367335D01*
X171074947Y-57120935D01*
X171004660Y-56872785D01*
X170982440Y-56639776D01*
X170999816Y-56423646D01*
X171048629Y-56248519D01*
X171127337Y-56105373D01*
X171232350Y-55997087D01*
X171360870Y-55930291D01*
X171519713Y-55906559D01*
X171684013Y-55930999D01*
X171816714Y-55999720D01*
X171924912Y-56110990D01*
X172005756Y-56258210D01*
X172055953Y-56438746D01*
X172073839Y-56662002D01*
X172451561Y-56662002D01*
X172428732Y-56388821D01*
X172376191Y-56155659D01*
X172295854Y-55955581D01*
X172187229Y-55783461D01*
X172054514Y-55644340D01*
X171901790Y-55543649D01*
X171725222Y-55480906D01*
X171519713Y-55458862D01*
X171309421Y-55480788D01*
X171130504Y-55542882D01*
X170977475Y-55641908D01*
X170846153Y-55777843D01*
X170739112Y-55947285D01*
X170661752Y-56144376D01*
X170613486Y-56374532D01*
X170596475Y-56645150D01*
X170608863Y-56835996D01*
X170647608Y-57040149D01*
X170716093Y-57260886D01*
X170805934Y-57468348D01*
X170939137Y-57709007D01*
X171125139Y-57988241D01*
X171952023Y-59141067D01*
X170558557Y-59141067D01*
X170558557Y-59600000D01*
X172409612Y-59600000D01*
G37*
G36*
X169703096Y-57210572D02*
G01*
X169821739Y-57518312D01*
X169908810Y-57800907D01*
X169965921Y-58083749D01*
X169984281Y-58352163D01*
X169969607Y-58605109D01*
X169927257Y-58830194D01*
X169858435Y-59032135D01*
X169763367Y-59213735D01*
X169647167Y-59365855D01*
X169507824Y-59490823D01*
X169353742Y-59581060D01*
X169182096Y-59636661D01*
X168989419Y-59655931D01*
X168797003Y-59636276D01*
X168626914Y-59579723D01*
X168475409Y-59488136D01*
X168338945Y-59361475D01*
X168224102Y-59206614D01*
X168129195Y-59020900D01*
X168060273Y-58815290D01*
X168017857Y-58586445D01*
X168003809Y-58340928D01*
X168380887Y-58340928D01*
X168401006Y-58589383D01*
X168458061Y-58795199D01*
X168550881Y-58967655D01*
X168674228Y-59100207D01*
X168819598Y-59180272D01*
X168993632Y-59208234D01*
X169167788Y-59180266D01*
X169313214Y-59100195D01*
X169436566Y-58967655D01*
X169529386Y-58795199D01*
X169586441Y-58589383D01*
X169606559Y-58340928D01*
X169586441Y-58092472D01*
X169529386Y-57886656D01*
X169436566Y-57714200D01*
X169313201Y-57581515D01*
X169167774Y-57501369D01*
X168993632Y-57473377D01*
X168819611Y-57501363D01*
X168674242Y-57581503D01*
X168550881Y-57714200D01*
X168458061Y-57886656D01*
X168401006Y-58092472D01*
X168380887Y-58340928D01*
X168003809Y-58340928D01*
X168003166Y-58329692D01*
X168016679Y-58087454D01*
X168055585Y-57872630D01*
X168118571Y-57680739D01*
X168205792Y-57506733D01*
X168311650Y-57361093D01*
X168437674Y-57241346D01*
X168577811Y-57154267D01*
X168735371Y-57100534D01*
X168913948Y-57081856D01*
X169040534Y-57094805D01*
X169153183Y-57132170D01*
X169251325Y-57196065D01*
X169316948Y-57277739D01*
X169329405Y-57266503D01*
X168573961Y-55514794D01*
X168993632Y-55514794D01*
X169703096Y-57210572D01*
G37*
G36*
X205113852Y-66320000D02*
G01*
X204320673Y-66320000D01*
X204124631Y-66302006D01*
X203954598Y-66250793D01*
X203806481Y-66169057D01*
X203672383Y-66053533D01*
X203561170Y-65911556D01*
X203470708Y-65740900D01*
X203405535Y-65550176D01*
X203365164Y-65334475D01*
X203351090Y-65088771D01*
X203351090Y-63460404D01*
X203728811Y-63460404D01*
X203728811Y-65088771D01*
X203747932Y-65326542D01*
X203801172Y-65515066D01*
X203886348Y-65665429D01*
X204000162Y-65777260D01*
X204142240Y-65847204D01*
X204320673Y-65872302D01*
X204736130Y-65872302D01*
X204736130Y-62682491D01*
X204320673Y-62682491D01*
X204142254Y-62707614D01*
X204000176Y-62777635D01*
X203886348Y-62889609D01*
X203800971Y-63039847D01*
X203747828Y-63226595D01*
X203728811Y-63460404D01*
X203351090Y-63460404D01*
X203365203Y-63214721D01*
X203405606Y-63000062D01*
X203470708Y-62811207D01*
X203561050Y-62642254D01*
X203672247Y-62501208D01*
X203806481Y-62385980D01*
X203954609Y-62304108D01*
X204124641Y-62252814D01*
X204320673Y-62234794D01*
X205113852Y-62234794D01*
X205113852Y-66320000D01*
G37*
G36*
X201924004Y-63208203D02*
G01*
X202097377Y-63271230D01*
X202248175Y-63372761D01*
X202380041Y-63513649D01*
X202486362Y-63686849D01*
X202563812Y-63890815D01*
X202612478Y-64131614D01*
X202629719Y-64417348D01*
X202629719Y-65144703D01*
X202612481Y-65430432D01*
X202563819Y-65671278D01*
X202486369Y-65875329D01*
X202380041Y-66048646D01*
X202248186Y-66189419D01*
X202097392Y-66290876D01*
X201924015Y-66353862D01*
X201723150Y-66375931D01*
X201484968Y-66348771D01*
X201284485Y-66271997D01*
X201114619Y-66149274D01*
X201004399Y-66024093D01*
X200922296Y-65882084D01*
X200865504Y-65720909D01*
X200833435Y-65536468D01*
X201211156Y-65536468D01*
X201242102Y-65649699D01*
X201296246Y-65746735D01*
X201377119Y-65830293D01*
X201471384Y-65888762D01*
X201585304Y-65926090D01*
X201723150Y-65939469D01*
X201879234Y-65915967D01*
X202007261Y-65849417D01*
X202113511Y-65740900D01*
X202193220Y-65597290D01*
X202242751Y-65420434D01*
X202260423Y-65200879D01*
X202260423Y-64909741D01*
X200816582Y-64909741D01*
X200816582Y-64361416D01*
X201186060Y-64361416D01*
X201186060Y-64517976D01*
X202260423Y-64517976D01*
X202260423Y-64361416D01*
X202243033Y-64125959D01*
X202195172Y-63942415D01*
X202119923Y-63799169D01*
X202017179Y-63691612D01*
X201887577Y-63624485D01*
X201723150Y-63600355D01*
X201558852Y-63624485D01*
X201429372Y-63691610D01*
X201326744Y-63799169D01*
X201251389Y-63942434D01*
X201203470Y-64125979D01*
X201186060Y-64361416D01*
X200816582Y-64361416D01*
X200829959Y-64126544D01*
X200868263Y-63921149D01*
X200929972Y-63740307D01*
X201015613Y-63577940D01*
X201120607Y-63442434D01*
X201246877Y-63331688D01*
X201386405Y-63252475D01*
X201544019Y-63203279D01*
X201723150Y-63186120D01*
X201924004Y-63208203D01*
G37*
G36*
X199297819Y-66364696D02*
G01*
X199492720Y-66347950D01*
X199653727Y-66301373D01*
X199786559Y-66228988D01*
X199895908Y-66132665D01*
X199987257Y-66006871D01*
X200052723Y-65858654D01*
X200093461Y-65683525D01*
X200107850Y-65474919D01*
X199730129Y-65474919D01*
X199716921Y-65609476D01*
X199679341Y-65718480D01*
X199616922Y-65808066D01*
X199536486Y-65871756D01*
X199432297Y-65913076D01*
X199297819Y-65928234D01*
X199113171Y-65928234D01*
X198976094Y-65912709D01*
X198869941Y-65870387D01*
X198788023Y-65805136D01*
X198724667Y-65713424D01*
X198686222Y-65600076D01*
X198672618Y-65458311D01*
X198691584Y-65272868D01*
X198742500Y-65144947D01*
X198824133Y-65058755D01*
X198945376Y-65010614D01*
X199583217Y-64887515D01*
X199732137Y-64836660D01*
X199852070Y-64749915D01*
X199948482Y-64627152D01*
X200018566Y-64474769D01*
X200062731Y-64288390D01*
X200078541Y-64059288D01*
X200064641Y-63862412D01*
X200025034Y-63694953D01*
X199960911Y-63551101D01*
X199870812Y-63426943D01*
X199763384Y-63330931D01*
X199634940Y-63259370D01*
X199481417Y-63213680D01*
X199297819Y-63197355D01*
X199113171Y-63197355D01*
X198894867Y-63224019D01*
X198714849Y-63298926D01*
X198565457Y-63418394D01*
X198470781Y-63538921D01*
X198402342Y-63673727D01*
X198357760Y-63825318D01*
X198336845Y-63997739D01*
X198718780Y-63997739D01*
X198735031Y-63896523D01*
X198772617Y-63808038D01*
X198834185Y-63729071D01*
X198909358Y-63671795D01*
X199001001Y-63635559D01*
X199113171Y-63622581D01*
X199297819Y-63622581D01*
X199423752Y-63637271D01*
X199522580Y-63677593D01*
X199600069Y-63740307D01*
X199660455Y-63827428D01*
X199696610Y-63931911D01*
X199709246Y-64059288D01*
X199693813Y-64210791D01*
X199652290Y-64316024D01*
X199585669Y-64387598D01*
X199486863Y-64428583D01*
X198890788Y-64540446D01*
X198703280Y-64600774D01*
X198559611Y-64696315D01*
X198450884Y-64824547D01*
X198371814Y-64988364D01*
X198321410Y-65195656D01*
X198303140Y-65458311D01*
X198317533Y-65669759D01*
X198358302Y-65847695D01*
X198423799Y-65998626D01*
X198515081Y-66127048D01*
X198624707Y-66225900D01*
X198757644Y-66300001D01*
X198918557Y-66347599D01*
X199113171Y-66364696D01*
X199297819Y-66364696D01*
G37*
G36*
X197590195Y-66320000D02*
G01*
X197590195Y-65861067D01*
X196771920Y-65861067D01*
X196771920Y-63700983D01*
X197506297Y-63700983D01*
X197506297Y-63242051D01*
X196394199Y-63242051D01*
X196394199Y-65861067D01*
X195617690Y-65861067D01*
X195617690Y-66320000D01*
X197590195Y-66320000D01*
G37*
G36*
X196625008Y-62688108D02*
G01*
X196752450Y-62662729D01*
X196843178Y-62593098D01*
X196902268Y-62483266D01*
X196922862Y-62335666D01*
X196902147Y-62182532D01*
X196843178Y-62069685D01*
X196752258Y-61997816D01*
X196625008Y-61971744D01*
X196497758Y-61997816D01*
X196406838Y-62069685D01*
X196347727Y-62182553D01*
X196326971Y-62335666D01*
X196347606Y-62483245D01*
X196406838Y-62593098D01*
X196497567Y-62662729D01*
X196625008Y-62688108D01*
G37*
G36*
X194467121Y-63206905D02*
G01*
X194616162Y-63266022D01*
X194744083Y-63361273D01*
X194854370Y-63494110D01*
X194941373Y-63654644D01*
X195005354Y-63843271D01*
X195045757Y-64065356D01*
X195060083Y-64327711D01*
X195060083Y-64976908D01*
X195045691Y-65239547D01*
X195005199Y-65460643D01*
X194941221Y-65647309D01*
X194854370Y-65805136D01*
X194744361Y-65935183D01*
X194616545Y-66028672D01*
X194467404Y-66086804D01*
X194292001Y-66107264D01*
X194130170Y-66089394D01*
X193994723Y-66039062D01*
X193880757Y-65959009D01*
X193786270Y-65846513D01*
X193721066Y-65707654D01*
X193683469Y-65536468D01*
X193670830Y-65536468D01*
X193679256Y-66040097D01*
X193679256Y-66320000D01*
X193692778Y-66481566D01*
X193730870Y-66612647D01*
X193792646Y-66720069D01*
X193874455Y-66800307D01*
X193976071Y-66850389D01*
X194103140Y-66868325D01*
X194753620Y-66868325D01*
X194753620Y-67327257D01*
X194107353Y-67327257D01*
X193921500Y-67308429D01*
X193764413Y-67255306D01*
X193631095Y-67171000D01*
X193517690Y-67055903D01*
X193424793Y-66911430D01*
X193357857Y-66743922D01*
X193316195Y-66548859D01*
X193301535Y-66320000D01*
X193301535Y-64361416D01*
X193675043Y-64361416D01*
X193675043Y-64949064D01*
X193691543Y-65173675D01*
X193737201Y-65351140D01*
X193809316Y-65491772D01*
X193907521Y-65598633D01*
X194028372Y-65664318D01*
X194178611Y-65687655D01*
X194332301Y-65665249D01*
X194453680Y-65602894D01*
X194550104Y-65503007D01*
X194621812Y-65370125D01*
X194666441Y-65206948D01*
X194682362Y-65004996D01*
X194682362Y-64305484D01*
X194666441Y-64103533D01*
X194621812Y-63940356D01*
X194550104Y-63807473D01*
X194453665Y-63707443D01*
X194332286Y-63645012D01*
X194178611Y-63622581D01*
X194028372Y-63645918D01*
X193907521Y-63711604D01*
X193809316Y-63818464D01*
X193737209Y-63959101D01*
X193691547Y-64136639D01*
X193675043Y-64361416D01*
X193301535Y-64361416D01*
X193301535Y-63242051D01*
X193675043Y-63242051D01*
X193675043Y-63773768D01*
X193683469Y-63773768D01*
X193720884Y-63602182D01*
X193786053Y-63460375D01*
X193880757Y-63342923D01*
X193995159Y-63258012D01*
X194130587Y-63204916D01*
X194292001Y-63186120D01*
X194467121Y-63206905D01*
G37*
G36*
X192525575Y-66320000D02*
G01*
X192525575Y-63242051D01*
X192147854Y-63242051D01*
X192147854Y-63829699D01*
X192143640Y-63829699D01*
X192108214Y-63635061D01*
X192045307Y-63479057D01*
X191954780Y-63354159D01*
X191842042Y-63263883D01*
X191702995Y-63206679D01*
X191530896Y-63186120D01*
X191359156Y-63205474D01*
X191212431Y-63260514D01*
X191086144Y-63348959D01*
X190976953Y-63471639D01*
X190889521Y-63621673D01*
X190825642Y-63797711D01*
X190785465Y-64004803D01*
X190771240Y-64249553D01*
X190771240Y-66320000D01*
X191148961Y-66320000D01*
X191148961Y-64338946D01*
X191165488Y-64110403D01*
X191210687Y-63934454D01*
X191281219Y-63799169D01*
X191377425Y-63696780D01*
X191494951Y-63633889D01*
X191640073Y-63611591D01*
X191790373Y-63634860D01*
X191912024Y-63700505D01*
X192011566Y-63807473D01*
X192084475Y-63948379D01*
X192130948Y-64129206D01*
X192147854Y-64361416D01*
X192147854Y-66320000D01*
X192525575Y-66320000D01*
G37*
G36*
X189335728Y-63208203D02*
G01*
X189509101Y-63271230D01*
X189659898Y-63372761D01*
X189791765Y-63513649D01*
X189898086Y-63686849D01*
X189975536Y-63890815D01*
X190024202Y-64131614D01*
X190041442Y-64417348D01*
X190041442Y-65144703D01*
X190024204Y-65430432D01*
X189975543Y-65671278D01*
X189898092Y-65875329D01*
X189791765Y-66048646D01*
X189659910Y-66189419D01*
X189509116Y-66290876D01*
X189335739Y-66353862D01*
X189134874Y-66375931D01*
X188896692Y-66348771D01*
X188696208Y-66271997D01*
X188526343Y-66149274D01*
X188416122Y-66024093D01*
X188334020Y-65882084D01*
X188277228Y-65720909D01*
X188245158Y-65536468D01*
X188622880Y-65536468D01*
X188653826Y-65649699D01*
X188707970Y-65746735D01*
X188788843Y-65830293D01*
X188883107Y-65888762D01*
X188997028Y-65926090D01*
X189134874Y-65939469D01*
X189290957Y-65915967D01*
X189418985Y-65849417D01*
X189525235Y-65740900D01*
X189604943Y-65597290D01*
X189654475Y-65420434D01*
X189672147Y-65200879D01*
X189672147Y-64909741D01*
X188228306Y-64909741D01*
X188228306Y-64361416D01*
X188597784Y-64361416D01*
X188597784Y-64517976D01*
X189672147Y-64517976D01*
X189672147Y-64361416D01*
X189654757Y-64125959D01*
X189606896Y-63942415D01*
X189531646Y-63799169D01*
X189428903Y-63691612D01*
X189299300Y-63624485D01*
X189134874Y-63600355D01*
X188970575Y-63624485D01*
X188841096Y-63691610D01*
X188738468Y-63799169D01*
X188663113Y-63942434D01*
X188615193Y-64125979D01*
X188597784Y-64361416D01*
X188228306Y-64361416D01*
X188241683Y-64126544D01*
X188279986Y-63921149D01*
X188341695Y-63740307D01*
X188427337Y-63577940D01*
X188532331Y-63442434D01*
X188658600Y-63331688D01*
X188798129Y-63252475D01*
X188955743Y-63203279D01*
X189134874Y-63186120D01*
X189335728Y-63208203D01*
G37*
G36*
X186122077Y-63130188D02*
G01*
X186113651Y-63829699D01*
X186117864Y-63829699D01*
X186156113Y-63643331D01*
X186223461Y-63488637D01*
X186321379Y-63359776D01*
X186440865Y-63265565D01*
X186582485Y-63206876D01*
X186751674Y-63186120D01*
X186922249Y-63206716D01*
X187068567Y-63265527D01*
X187195277Y-63360730D01*
X187305617Y-63494110D01*
X187392456Y-63654589D01*
X187456451Y-63843996D01*
X187496946Y-64067895D01*
X187511331Y-64333328D01*
X187511331Y-65234340D01*
X187496881Y-65496658D01*
X187456119Y-65718761D01*
X187391525Y-65907484D01*
X187303602Y-66068185D01*
X187192196Y-66201815D01*
X187065341Y-66296928D01*
X186919970Y-66355487D01*
X186751674Y-66375931D01*
X186582364Y-66355426D01*
X186441536Y-66297631D01*
X186323578Y-66205205D01*
X186227623Y-66077884D01*
X186162218Y-65922498D01*
X186126290Y-65732351D01*
X186122077Y-65732351D01*
X186122077Y-66320000D01*
X185744356Y-66320000D01*
X185744356Y-64361416D01*
X186122077Y-64361416D01*
X186122077Y-65200879D01*
X186138577Y-65425490D01*
X186184236Y-65602954D01*
X186256350Y-65743586D01*
X186354556Y-65850447D01*
X186475406Y-65916132D01*
X186625645Y-65939469D01*
X186780383Y-65918883D01*
X186902554Y-65861882D01*
X186999337Y-65771674D01*
X187069753Y-65647431D01*
X187116145Y-65472237D01*
X187133609Y-65228722D01*
X187133609Y-64333328D01*
X187115999Y-64085962D01*
X187069493Y-63910287D01*
X186999337Y-63787690D01*
X186902710Y-63699031D01*
X186780543Y-63642884D01*
X186625645Y-63622581D01*
X186475406Y-63645918D01*
X186354556Y-63711604D01*
X186256350Y-63818464D01*
X186184243Y-63959101D01*
X186138581Y-64136639D01*
X186122077Y-64361416D01*
X185744356Y-64361416D01*
X185744356Y-62234794D01*
X186122077Y-62234794D01*
X186122077Y-63130188D01*
G37*
G36*
X182454954Y-66320000D02*
G01*
X182077233Y-66320000D01*
X182077233Y-65732351D01*
X182073019Y-65732351D01*
X182037107Y-65922517D01*
X181971759Y-66077901D01*
X181875915Y-66205205D01*
X181757842Y-66297640D01*
X181616948Y-66355431D01*
X181447636Y-66375931D01*
X181277049Y-66355348D01*
X181130727Y-66296578D01*
X181004022Y-66201448D01*
X180893693Y-66068185D01*
X180806697Y-65907653D01*
X180742715Y-65718992D01*
X180702308Y-65496828D01*
X180687979Y-65234340D01*
X180687979Y-64333328D01*
X181065701Y-64333328D01*
X181065701Y-65228722D01*
X181083185Y-65472214D01*
X181129635Y-65647410D01*
X181200157Y-65771674D01*
X181296827Y-65861873D01*
X181418929Y-65918877D01*
X181573665Y-65939469D01*
X181721140Y-65916343D01*
X181841499Y-65850832D01*
X181940945Y-65743586D01*
X182014220Y-65602746D01*
X182060519Y-65425278D01*
X182077233Y-65200879D01*
X182077233Y-64361416D01*
X182060515Y-64136851D01*
X182014213Y-63959309D01*
X181940945Y-63818464D01*
X181841499Y-63711218D01*
X181721140Y-63645708D01*
X181573665Y-63622581D01*
X181418770Y-63642889D01*
X181296670Y-63699040D01*
X181200157Y-63787690D01*
X181129895Y-63910309D01*
X181083331Y-64085986D01*
X181065701Y-64333328D01*
X180687979Y-64333328D01*
X180702364Y-64067895D01*
X180742859Y-63843996D01*
X180806854Y-63654589D01*
X180893693Y-63494110D01*
X181004033Y-63360730D01*
X181130743Y-63265527D01*
X181277061Y-63206716D01*
X181447636Y-63186120D01*
X181616825Y-63206876D01*
X181758445Y-63265565D01*
X181877930Y-63359776D01*
X181975849Y-63488637D01*
X182043197Y-63643331D01*
X182081446Y-63829699D01*
X182085659Y-63829699D01*
X182077233Y-63130188D01*
X182077233Y-62234794D01*
X182454954Y-62234794D01*
X182454954Y-66320000D01*
G37*
G36*
X179576430Y-67327257D02*
G01*
X179236444Y-66129734D01*
X180096851Y-63242051D01*
X179689637Y-63242051D01*
X179144120Y-65144703D01*
X179081106Y-65379909D01*
X179039157Y-65592400D01*
X178997208Y-65379909D01*
X178938407Y-65144703D01*
X178430626Y-63242051D01*
X178031838Y-63242051D01*
X179181856Y-67327257D01*
X179576430Y-67327257D01*
G37*
G36*
X174897775Y-66320000D02*
G01*
X174524267Y-66320000D01*
X174524267Y-64585143D01*
X174016486Y-64585143D01*
X173416198Y-66320000D01*
X173000741Y-66320000D01*
X173626125Y-64534829D01*
X173460435Y-64435820D01*
X173320228Y-64298689D01*
X173202241Y-64120837D01*
X173114847Y-63913884D01*
X173061302Y-63679206D01*
X173042690Y-63410090D01*
X173433051Y-63410090D01*
X173450003Y-63618878D01*
X173497942Y-63790562D01*
X173575750Y-63933258D01*
X173679240Y-64042116D01*
X173803148Y-64108480D01*
X173953471Y-64131828D01*
X174524267Y-64131828D01*
X174524267Y-62688108D01*
X173953471Y-62688108D01*
X173802999Y-62711190D01*
X173679090Y-62776720D01*
X173575750Y-62883991D01*
X173498209Y-63025154D01*
X173450148Y-63197584D01*
X173433051Y-63410090D01*
X173042690Y-63410090D01*
X173055996Y-63179000D01*
X173094233Y-62975374D01*
X173156079Y-62794598D01*
X173241658Y-62632253D01*
X173347281Y-62495798D01*
X173475000Y-62383293D01*
X173616061Y-62302336D01*
X173774443Y-62252224D01*
X173953471Y-62234794D01*
X174897775Y-62234794D01*
X174897775Y-66320000D01*
G37*
G36*
X171719377Y-63219496D02*
G01*
X171895761Y-63282136D01*
X172046081Y-63382017D01*
X172174590Y-63519267D01*
X172277424Y-63689152D01*
X172352956Y-63892487D01*
X172400797Y-64136010D01*
X172417855Y-64428583D01*
X172417855Y-65133712D01*
X172400765Y-65422943D01*
X172352686Y-65665161D01*
X172276499Y-65868827D01*
X172172391Y-66040341D01*
X172042768Y-66179064D01*
X171892293Y-66279668D01*
X171716929Y-66342539D01*
X171511287Y-66364696D01*
X171305744Y-66342542D01*
X171130440Y-66279677D01*
X170979991Y-66179074D01*
X170850366Y-66040341D01*
X170746173Y-65868811D01*
X170669930Y-65665139D01*
X170621820Y-65422927D01*
X170604719Y-65133712D01*
X170604719Y-64428583D01*
X170607982Y-64372651D01*
X170982440Y-64372651D01*
X170982440Y-65189644D01*
X171000006Y-65421035D01*
X171047998Y-65597686D01*
X171123124Y-65732351D01*
X171224860Y-65832164D01*
X171351840Y-65894596D01*
X171511287Y-65916999D01*
X171668053Y-65894783D01*
X171794549Y-65832506D01*
X171897435Y-65732351D01*
X171973725Y-65597467D01*
X172022356Y-65420805D01*
X172040134Y-65189644D01*
X172040134Y-64372651D01*
X172022351Y-64141323D01*
X171973717Y-63964589D01*
X171897435Y-63829699D01*
X171794549Y-63729544D01*
X171668053Y-63667268D01*
X171511287Y-63645052D01*
X171351840Y-63667455D01*
X171224860Y-63729887D01*
X171123124Y-63829699D01*
X171048006Y-63964370D01*
X171000010Y-64141093D01*
X170982440Y-64372651D01*
X170607982Y-64372651D01*
X170621788Y-64136027D01*
X170669661Y-63892509D01*
X170745248Y-63689168D01*
X170848168Y-63519267D01*
X170976677Y-63382007D01*
X171126972Y-63282127D01*
X171303297Y-63219493D01*
X171511287Y-63197355D01*
X171719377Y-63219496D01*
G37*
G36*
X169866678Y-66320000D02*
G01*
X169866678Y-62234794D01*
X169488956Y-62234794D01*
X169488956Y-63829699D01*
X169484743Y-63829699D01*
X169449317Y-63635061D01*
X169386409Y-63479057D01*
X169295882Y-63354159D01*
X169183144Y-63263883D01*
X169044097Y-63206679D01*
X168871999Y-63186120D01*
X168700258Y-63205474D01*
X168553534Y-63260514D01*
X168427247Y-63348959D01*
X168318056Y-63471639D01*
X168230623Y-63621673D01*
X168166744Y-63797711D01*
X168126567Y-64004803D01*
X168112342Y-64249553D01*
X168112342Y-66320000D01*
X168490064Y-66320000D01*
X168490064Y-64333328D01*
X168506500Y-64108622D01*
X168551615Y-63934349D01*
X168622322Y-63799169D01*
X168718528Y-63696780D01*
X168836054Y-63633889D01*
X168981175Y-63611591D01*
X169131476Y-63634860D01*
X169253127Y-63700505D01*
X169352669Y-63807473D01*
X169425577Y-63948379D01*
X169472051Y-64129206D01*
X169488956Y-64361416D01*
X169488956Y-66320000D01*
X169866678Y-66320000D01*
G37*
G36*
X166665637Y-63202820D02*
G01*
X166830555Y-63249885D01*
X166971065Y-63324071D01*
X167090919Y-63424012D01*
X167196394Y-63554173D01*
X167272057Y-63696116D01*
X167321201Y-63852016D01*
X167344809Y-64025582D01*
X166967088Y-64025582D01*
X166947710Y-63908793D01*
X166901451Y-63811480D01*
X166824389Y-63729071D01*
X166731459Y-63672551D01*
X166615661Y-63635895D01*
X166471763Y-63622581D01*
X166309606Y-63642343D01*
X166188966Y-63695477D01*
X166100012Y-63776703D01*
X166036294Y-63886542D01*
X165995698Y-64031187D01*
X165980835Y-64221465D01*
X165980835Y-64462044D01*
X166694330Y-64462044D01*
X166840347Y-64476083D01*
X166971058Y-64516640D01*
X167088904Y-64582456D01*
X167196104Y-64673794D01*
X167285028Y-64784304D01*
X167357449Y-64915359D01*
X167410212Y-65062066D01*
X167442703Y-65226795D01*
X167453986Y-65413370D01*
X167440033Y-65624654D01*
X167400038Y-65807978D01*
X167335144Y-65968578D01*
X167244242Y-66110195D01*
X167133948Y-66223319D01*
X167005262Y-66305837D01*
X166854646Y-66357631D01*
X166677477Y-66375931D01*
X166482105Y-66355445D01*
X166325117Y-66298857D01*
X166199005Y-66210823D01*
X166094339Y-66086305D01*
X166023962Y-65937989D01*
X165985048Y-65760439D01*
X165976622Y-65760439D01*
X165976622Y-66320000D01*
X165603114Y-66320000D01*
X165603114Y-65284654D01*
X165980835Y-65284654D01*
X165999855Y-65479492D01*
X166054174Y-65639008D01*
X166144600Y-65771674D01*
X166260658Y-65867771D01*
X166405024Y-65928736D01*
X166585153Y-65950704D01*
X166732356Y-65932365D01*
X166848319Y-65881793D01*
X166939794Y-65802449D01*
X167010047Y-65693272D01*
X167052765Y-65560447D01*
X167067838Y-65396762D01*
X167054214Y-65239003D01*
X167015589Y-65109572D01*
X166952433Y-65002065D01*
X166869538Y-64920947D01*
X166770994Y-64871281D01*
X166652381Y-64853810D01*
X165980835Y-64853810D01*
X165980835Y-65284654D01*
X165603114Y-65284654D01*
X165603114Y-64204612D01*
X165618479Y-63967437D01*
X165661932Y-63767784D01*
X165731448Y-63598588D01*
X165827695Y-63454787D01*
X165944498Y-63342931D01*
X166087033Y-63259240D01*
X166260588Y-63205467D01*
X166471763Y-63186120D01*
X166665637Y-63202820D01*
G37*
G36*
X164147982Y-63202820D02*
G01*
X164312899Y-63249885D01*
X164453410Y-63324071D01*
X164573264Y-63424012D01*
X164678739Y-63554173D01*
X164754402Y-63696116D01*
X164803546Y-63852016D01*
X164827154Y-64025582D01*
X164449433Y-64025582D01*
X164430054Y-63908793D01*
X164383796Y-63811480D01*
X164306734Y-63729071D01*
X164213804Y-63672551D01*
X164098006Y-63635895D01*
X163954108Y-63622581D01*
X163791951Y-63642343D01*
X163671311Y-63695477D01*
X163582356Y-63776703D01*
X163518639Y-63886542D01*
X163478043Y-64031187D01*
X163463180Y-64221465D01*
X163463180Y-64462044D01*
X164176674Y-64462044D01*
X164322691Y-64476083D01*
X164453403Y-64516640D01*
X164571249Y-64582456D01*
X164678449Y-64673794D01*
X164767373Y-64784304D01*
X164839794Y-64915359D01*
X164892557Y-65062066D01*
X164925048Y-65226795D01*
X164936331Y-65413370D01*
X164922377Y-65624654D01*
X164882383Y-65807978D01*
X164817489Y-65968578D01*
X164726587Y-66110195D01*
X164616293Y-66223319D01*
X164487607Y-66305837D01*
X164336991Y-66357631D01*
X164159822Y-66375931D01*
X163964450Y-66355445D01*
X163807461Y-66298857D01*
X163681350Y-66210823D01*
X163576684Y-66086305D01*
X163506307Y-65937989D01*
X163467393Y-65760439D01*
X163458967Y-65760439D01*
X163458967Y-66320000D01*
X163085458Y-66320000D01*
X163085458Y-65284654D01*
X163463180Y-65284654D01*
X163482200Y-65479492D01*
X163536519Y-65639008D01*
X163626945Y-65771674D01*
X163743003Y-65867771D01*
X163887369Y-65928736D01*
X164067498Y-65950704D01*
X164214701Y-65932365D01*
X164330664Y-65881793D01*
X164422138Y-65802449D01*
X164492392Y-65693272D01*
X164535110Y-65560447D01*
X164550183Y-65396762D01*
X164536559Y-65239003D01*
X164497934Y-65109572D01*
X164434778Y-65002065D01*
X164351883Y-64920947D01*
X164253339Y-64871281D01*
X164134726Y-64853810D01*
X163463180Y-64853810D01*
X163463180Y-65284654D01*
X163085458Y-65284654D01*
X163085458Y-64204612D01*
X163100824Y-63967437D01*
X163144277Y-63767784D01*
X163213793Y-63598588D01*
X163310040Y-63454787D01*
X163426843Y-63342931D01*
X163569377Y-63259240D01*
X163742933Y-63205467D01*
X163954108Y-63186120D01*
X164147982Y-63202820D01*
G37*
G36*
X162313712Y-66320000D02*
G01*
X162313712Y-63242051D01*
X161935990Y-63242051D01*
X161935990Y-63829699D01*
X161931777Y-63829699D01*
X161896351Y-63635061D01*
X161833444Y-63479057D01*
X161742916Y-63354159D01*
X161630178Y-63263883D01*
X161491132Y-63206679D01*
X161319033Y-63186120D01*
X161147293Y-63205474D01*
X161000568Y-63260514D01*
X160874281Y-63348959D01*
X160765090Y-63471639D01*
X160677658Y-63621673D01*
X160613779Y-63797711D01*
X160573601Y-64004803D01*
X160559377Y-64249553D01*
X160559377Y-66320000D01*
X160937098Y-66320000D01*
X160937098Y-64338946D01*
X160953625Y-64110403D01*
X160998824Y-63934454D01*
X161069356Y-63799169D01*
X161165562Y-63696780D01*
X161283088Y-63633889D01*
X161428210Y-63611591D01*
X161578510Y-63634860D01*
X161700161Y-63700505D01*
X161799703Y-63807473D01*
X161872611Y-63948379D01*
X161919085Y-64129206D01*
X161935990Y-64361416D01*
X161935990Y-66320000D01*
X162313712Y-66320000D01*
G37*
G36*
X158923011Y-66375931D02*
G01*
X159022822Y-66361321D01*
X159104798Y-66319997D01*
X159172871Y-66252833D01*
X159224755Y-66163907D01*
X159256210Y-66059139D01*
X159267210Y-65933852D01*
X159256094Y-65800898D01*
X159224500Y-65690628D01*
X159172871Y-65598018D01*
X159104485Y-65527551D01*
X159022513Y-65484476D01*
X158923011Y-65469302D01*
X158823636Y-65484475D01*
X158741787Y-65527548D01*
X158673517Y-65598018D01*
X158621780Y-65690646D01*
X158590129Y-65800916D01*
X158578995Y-65933852D01*
X158590012Y-66059121D01*
X158621524Y-66163890D01*
X158673517Y-66252833D01*
X158741473Y-66319999D01*
X158823326Y-66361322D01*
X158923011Y-66375931D01*
G37*
G36*
X157278401Y-66320000D02*
G01*
X157278401Y-62234794D01*
X156900680Y-62234794D01*
X156900680Y-63992121D01*
X156447487Y-63992121D01*
X155767515Y-62234794D01*
X155356088Y-62234794D01*
X156115744Y-64204612D01*
X155314139Y-66320000D01*
X155746449Y-66320000D01*
X156459944Y-64434200D01*
X156900680Y-64434200D01*
X156900680Y-66320000D01*
X157278401Y-66320000D01*
G37*
D11*
%TO.C,.*%
G36*
X170022061Y-109546572D02*
G01*
X170142348Y-109666949D01*
X170134919Y-109733083D01*
X169989909Y-109792202D01*
X169893714Y-109773191D01*
X169837470Y-109666949D01*
X169853293Y-109632405D01*
X169989909Y-109541697D01*
X170022061Y-109546572D01*
G37*
G36*
X171446331Y-109261013D02*
G01*
X171432071Y-109347823D01*
X171329817Y-109442660D01*
X171302174Y-109439522D01*
X171213304Y-109333023D01*
X171217748Y-109300334D01*
X171329817Y-109151376D01*
X171389846Y-109140415D01*
X171446331Y-109261013D01*
G37*
G36*
X174878830Y-112025681D02*
G01*
X174941744Y-112180734D01*
X174928599Y-112261133D01*
X174825230Y-112355504D01*
X174771631Y-112335787D01*
X174708716Y-112180734D01*
X174721862Y-112100334D01*
X174825230Y-112005963D01*
X174878830Y-112025681D01*
G37*
G36*
X184640236Y-119932285D02*
G01*
X184728900Y-120045413D01*
X184725514Y-120073262D01*
X184612386Y-120161926D01*
X184584536Y-120158541D01*
X184495872Y-120045413D01*
X184499258Y-120017563D01*
X184612386Y-119928899D01*
X184640236Y-119932285D01*
G37*
G36*
X157513672Y-115968036D02*
G01*
X157708913Y-116032474D01*
X157726867Y-116216588D01*
X157570527Y-116539529D01*
X157436437Y-116738940D01*
X157302816Y-116837582D01*
X157168768Y-116779187D01*
X157020406Y-116551821D01*
X157033558Y-116280076D01*
X157197305Y-116058821D01*
X157481106Y-115967431D01*
X157513672Y-115968036D01*
G37*
G36*
X174565551Y-109255902D02*
G01*
X174592203Y-109617431D01*
X174586456Y-109782205D01*
X174516446Y-110072745D01*
X174369627Y-110146984D01*
X174149450Y-110001926D01*
X174057962Y-109871475D01*
X174027755Y-109569239D01*
X174192727Y-109276212D01*
X174311502Y-109169943D01*
X174476521Y-109110615D01*
X174565551Y-109255902D01*
G37*
G36*
X167805276Y-121165378D02*
G01*
X167951978Y-121297572D01*
X168048926Y-121578755D01*
X167941384Y-121862864D01*
X167777156Y-121967111D01*
X167494836Y-122002909D01*
X167396403Y-121986814D01*
X167233779Y-121882694D01*
X167193579Y-121631047D01*
X167201734Y-121517809D01*
X167320765Y-121235760D01*
X167539898Y-121104617D01*
X167805276Y-121165378D01*
G37*
G36*
X194263651Y-100540550D02*
G01*
X194428414Y-100723307D01*
X194506919Y-101043169D01*
X194421402Y-101362926D01*
X194178951Y-101594391D01*
X194021504Y-101653787D01*
X193678170Y-101652789D01*
X193409585Y-101492470D01*
X193253239Y-101224038D01*
X193246625Y-100898698D01*
X193427233Y-100567660D01*
X193601642Y-100422784D01*
X193904615Y-100372302D01*
X194263651Y-100540550D01*
G37*
G36*
X194227444Y-93304140D02*
G01*
X194447561Y-93510273D01*
X194516056Y-93888073D01*
X194476521Y-94178669D01*
X194376239Y-94389082D01*
X194176923Y-94486267D01*
X193875230Y-94528899D01*
X193584634Y-94489364D01*
X193374221Y-94389082D01*
X193277036Y-94189766D01*
X193234405Y-93888073D01*
X193291297Y-93535859D01*
X193497430Y-93315743D01*
X193875230Y-93247248D01*
X194227444Y-93304140D01*
G37*
G36*
X194211345Y-96897920D02*
G01*
X194365020Y-97033227D01*
X194512810Y-97349316D01*
X194477946Y-97683764D01*
X194257103Y-97959448D01*
X194009966Y-98102677D01*
X193773001Y-98113419D01*
X193486810Y-97954862D01*
X193316781Y-97766989D01*
X193242763Y-97446828D01*
X193339767Y-97121635D01*
X193599648Y-96869740D01*
X193770405Y-96785139D01*
X193969283Y-96769629D01*
X194211345Y-96897920D01*
G37*
G36*
X156042536Y-93307939D02*
G01*
X156328601Y-93385584D01*
X156521171Y-93612491D01*
X156606792Y-93784489D01*
X156622115Y-93982538D01*
X156493824Y-94224188D01*
X156288364Y-94440050D01*
X155950001Y-94528899D01*
X155669047Y-94472217D01*
X155406178Y-94224188D01*
X155305229Y-94053333D01*
X155272211Y-93855579D01*
X155378831Y-93612491D01*
X155421379Y-93542322D01*
X155627013Y-93355694D01*
X155950001Y-93305504D01*
X156042536Y-93307939D01*
G37*
G36*
X169087295Y-94121592D02*
G01*
X169453087Y-94265673D01*
X169669234Y-94531276D01*
X169779972Y-94970066D01*
X169801193Y-95245370D01*
X169739793Y-95500671D01*
X169543303Y-95743436D01*
X169454863Y-95823801D01*
X169065363Y-96020517D01*
X168668795Y-95999968D01*
X168309118Y-95761510D01*
X168099671Y-95423739D01*
X168038617Y-95024534D01*
X168126286Y-94641172D01*
X168339126Y-94326333D01*
X168653587Y-94132696D01*
X169046119Y-94112939D01*
X169087295Y-94121592D01*
G37*
G36*
X155954674Y-96742766D02*
G01*
X156145294Y-96835219D01*
X156374873Y-97045475D01*
X156567955Y-97292360D01*
X156649083Y-97494704D01*
X156589040Y-97675077D01*
X156416056Y-97907798D01*
X156203644Y-98061748D01*
X155950001Y-98140825D01*
X155851784Y-98126674D01*
X155576894Y-97981053D01*
X155347143Y-97743166D01*
X155250918Y-97494704D01*
X155251016Y-97489676D01*
X155336959Y-97284615D01*
X155532408Y-97037644D01*
X155761907Y-96829935D01*
X155950001Y-96742660D01*
X155954674Y-96742766D01*
G37*
G36*
X156048217Y-100368739D02*
G01*
X156323108Y-100514359D01*
X156552859Y-100752246D01*
X156649083Y-101000709D01*
X156648366Y-101014197D01*
X156558225Y-101222913D01*
X156363095Y-101466764D01*
X156337839Y-101491543D01*
X156111956Y-101676826D01*
X155950001Y-101752752D01*
X155945328Y-101752647D01*
X155754707Y-101660193D01*
X155525128Y-101449938D01*
X155332047Y-101203052D01*
X155250918Y-101000709D01*
X155266230Y-100909933D01*
X155423787Y-100655867D01*
X155681172Y-100443522D01*
X155950001Y-100354587D01*
X156048217Y-100368739D01*
G37*
G36*
X200574771Y-97499999D02*
G01*
X200574771Y-114336027D01*
X196550766Y-116348096D01*
X196052465Y-116597255D01*
X194585174Y-117330925D01*
X193361147Y-117942959D01*
X191960363Y-118643374D01*
X190389183Y-119428990D01*
X189962753Y-119642212D01*
X188585025Y-120331099D01*
X187787387Y-120729931D01*
X187622496Y-120812379D01*
X185454642Y-121896342D01*
X185194155Y-122026590D01*
X175000003Y-127123834D01*
X162212617Y-120729931D01*
X160965298Y-120106251D01*
X162940827Y-120106251D01*
X162960400Y-120161185D01*
X163082352Y-120169582D01*
X163241675Y-120076832D01*
X163350728Y-119922273D01*
X163429592Y-119785771D01*
X163620735Y-119722838D01*
X163718801Y-119764730D01*
X163791967Y-119958868D01*
X163698643Y-120307569D01*
X163673181Y-120449886D01*
X163800251Y-120511468D01*
X163820472Y-120506064D01*
X164237474Y-120506064D01*
X164256673Y-120631371D01*
X164405571Y-120794430D01*
X164579066Y-120913432D01*
X164857023Y-120976936D01*
X165073745Y-120903014D01*
X165116112Y-120808273D01*
X165106987Y-120795848D01*
X165982390Y-120795848D01*
X166158198Y-120954648D01*
X166207264Y-120984788D01*
X166285304Y-121109264D01*
X166205661Y-121322487D01*
X166137019Y-121499858D01*
X166178498Y-121698497D01*
X166249712Y-121706397D01*
X166419412Y-121543276D01*
X166502240Y-121414558D01*
X166825997Y-121414558D01*
X166827102Y-121780373D01*
X167055446Y-122122350D01*
X167061842Y-122128313D01*
X167432278Y-122340681D01*
X167815021Y-122333023D01*
X168163636Y-122106022D01*
X168215195Y-122047267D01*
X168397873Y-121675873D01*
X168362090Y-121307284D01*
X168109976Y-120985979D01*
X168109709Y-120985769D01*
X167739118Y-120778891D01*
X167406552Y-120793221D01*
X167071769Y-121030484D01*
X167051742Y-121050940D01*
X166825997Y-121414558D01*
X166502240Y-121414558D01*
X166655347Y-121176622D01*
X166825391Y-120871206D01*
X166965157Y-120601522D01*
X167018808Y-120471149D01*
X167017849Y-120465394D01*
X166909387Y-120363261D01*
X166675879Y-120223603D01*
X166640766Y-120205794D01*
X166383454Y-120116474D01*
X166251723Y-120177696D01*
X166239340Y-120270190D01*
X166361624Y-120416086D01*
X166380825Y-120427149D01*
X166541815Y-120581238D01*
X166494802Y-120682874D01*
X166261469Y-120675827D01*
X166225278Y-120667641D01*
X166012221Y-120680008D01*
X165982390Y-120795848D01*
X165106987Y-120795848D01*
X165023954Y-120682790D01*
X164798170Y-120627981D01*
X164672445Y-120616979D01*
X164577521Y-120544452D01*
X164671766Y-120434616D01*
X164938544Y-120323546D01*
X164969476Y-120314198D01*
X165283745Y-120148550D01*
X165462271Y-119927775D01*
X165495743Y-119704690D01*
X165374848Y-119532108D01*
X165090278Y-119462844D01*
X164890849Y-119494530D01*
X164839030Y-119608486D01*
X164870339Y-119663020D01*
X165023510Y-119725000D01*
X165038717Y-119721795D01*
X165168943Y-119730707D01*
X165140842Y-119816287D01*
X164991272Y-119934675D01*
X164757093Y-120042012D01*
X164716041Y-120056378D01*
X164440577Y-120197763D01*
X164291038Y-120351862D01*
X164237474Y-120506064D01*
X163820472Y-120506064D01*
X163831192Y-120503199D01*
X163986000Y-120359998D01*
X164179445Y-120091978D01*
X164369569Y-119768607D01*
X164514414Y-119459354D01*
X164572019Y-119233690D01*
X164504631Y-119122844D01*
X164342594Y-119149624D01*
X164164786Y-119307004D01*
X164024222Y-119427390D01*
X163837853Y-119443340D01*
X163720943Y-119330195D01*
X163751398Y-119122691D01*
X163841774Y-118935513D01*
X163852577Y-118798132D01*
X163722438Y-118763761D01*
X163657103Y-118809652D01*
X163503622Y-119009171D01*
X163316112Y-119305821D01*
X163133715Y-119632370D01*
X162995572Y-119921590D01*
X162940827Y-120106251D01*
X160965298Y-120106251D01*
X159588705Y-119417932D01*
X161931495Y-119417932D01*
X161997993Y-119553088D01*
X162209598Y-119701184D01*
X162210127Y-119701449D01*
X162456568Y-119825752D01*
X162595459Y-119897423D01*
X162666688Y-119826343D01*
X162801438Y-119606382D01*
X162964846Y-119302345D01*
X163123248Y-118979883D01*
X163242977Y-118704647D01*
X163290368Y-118542288D01*
X163283576Y-118516381D01*
X163144327Y-118397506D01*
X162900709Y-118284770D01*
X162652671Y-118217194D01*
X162500164Y-118233796D01*
X162518713Y-118355936D01*
X162681175Y-118532339D01*
X162752425Y-118596894D01*
X162851644Y-118761584D01*
X162788383Y-118833416D01*
X162585722Y-118757857D01*
X162487069Y-118701036D01*
X162300728Y-118663215D01*
X162241744Y-118809552D01*
X162261665Y-118892222D01*
X162416515Y-119038923D01*
X162498568Y-119092903D01*
X162591285Y-119296882D01*
X162555119Y-119415735D01*
X162387386Y-119408420D01*
X162176366Y-119334168D01*
X162009598Y-119320468D01*
X161932878Y-119413638D01*
X161931495Y-119417932D01*
X159588705Y-119417932D01*
X157214613Y-118230847D01*
X159724465Y-118230847D01*
X159743750Y-118409620D01*
X159804286Y-118410672D01*
X159952280Y-118275106D01*
X160132871Y-118026025D01*
X160187758Y-117931586D01*
X160415402Y-117931586D01*
X160555379Y-118110783D01*
X160579184Y-118128716D01*
X160692692Y-118286169D01*
X160625303Y-118503169D01*
X160543151Y-118671273D01*
X160494038Y-118814358D01*
X160507181Y-118840746D01*
X160650291Y-118880275D01*
X160687292Y-118866461D01*
X160838737Y-118712411D01*
X161031299Y-118442628D01*
X161057100Y-118399834D01*
X161351451Y-118399834D01*
X161487489Y-118576838D01*
X161511294Y-118594771D01*
X161624802Y-118752224D01*
X161557413Y-118969224D01*
X161475261Y-119137328D01*
X161426148Y-119280413D01*
X161437524Y-119305487D01*
X161576646Y-119346330D01*
X161679409Y-119276150D01*
X161852382Y-119044430D01*
X162040746Y-118706909D01*
X162354348Y-118067489D01*
X162059036Y-117873993D01*
X162042366Y-117863186D01*
X161795567Y-117752257D01*
X161633709Y-117810511D01*
X161574070Y-117917194D01*
X161697949Y-118015068D01*
X161731042Y-118028950D01*
X161878507Y-118154194D01*
X161850537Y-118258633D01*
X161659291Y-118263977D01*
X161635417Y-118258215D01*
X161412558Y-118272144D01*
X161351451Y-118399834D01*
X161057100Y-118399834D01*
X161222024Y-118126293D01*
X161367958Y-117832585D01*
X161426148Y-117630687D01*
X161338071Y-117496967D01*
X161116332Y-117376316D01*
X160865320Y-117316367D01*
X160689857Y-117356198D01*
X160644171Y-117443909D01*
X160765839Y-117549013D01*
X160865286Y-117610792D01*
X160960093Y-117789959D01*
X160960043Y-117796756D01*
X160910695Y-117896293D01*
X160734136Y-117835435D01*
X160650056Y-117799020D01*
X160462153Y-117804264D01*
X160415402Y-117931586D01*
X160187758Y-117931586D01*
X160308440Y-117723938D01*
X160441368Y-117429354D01*
X160494038Y-117202782D01*
X160494037Y-117202255D01*
X160451240Y-117028232D01*
X160334288Y-117055045D01*
X160159829Y-117268956D01*
X159944507Y-117656230D01*
X159840271Y-117882628D01*
X159724465Y-118230847D01*
X157214613Y-118230847D01*
X156262334Y-117754692D01*
X158629817Y-117754692D01*
X158709132Y-117896761D01*
X158926584Y-118045976D01*
X159149521Y-118137151D01*
X159310110Y-118181192D01*
X159373424Y-118113328D01*
X159511216Y-117895276D01*
X159682261Y-117592304D01*
X159849866Y-117272308D01*
X159977338Y-117003187D01*
X160027983Y-116852838D01*
X160027005Y-116849340D01*
X159915312Y-116775820D01*
X159674705Y-116664966D01*
X159468855Y-116599236D01*
X159269029Y-116595693D01*
X159219089Y-116681120D01*
X159358212Y-116834527D01*
X159368533Y-116842139D01*
X159542109Y-117016199D01*
X159509211Y-117105954D01*
X159277784Y-117086515D01*
X159161609Y-117066297D01*
X158962277Y-117099825D01*
X158926349Y-117214897D01*
X159088270Y-117361528D01*
X159217652Y-117469787D01*
X159254657Y-117656524D01*
X159167394Y-117761064D01*
X158975372Y-117713004D01*
X158803847Y-117630127D01*
X158664739Y-117619342D01*
X158629817Y-117754692D01*
X156262334Y-117754692D01*
X155326551Y-117286785D01*
X157751561Y-117286785D01*
X157780971Y-117426856D01*
X157991457Y-117578547D01*
X158211074Y-117671919D01*
X158345281Y-117715137D01*
X158405728Y-117642661D01*
X158540468Y-117410849D01*
X158713293Y-117074962D01*
X158834297Y-116811135D01*
X158937825Y-116483998D01*
X158906809Y-116314331D01*
X158850118Y-116290181D01*
X158707671Y-116400481D01*
X158513000Y-116725361D01*
X158372893Y-116972843D01*
X158190162Y-117180854D01*
X158008636Y-117223836D01*
X157900335Y-117218047D01*
X157751561Y-117286785D01*
X155326551Y-117286785D01*
X153662559Y-116454762D01*
X156649083Y-116454762D01*
X156650424Y-116476801D01*
X156749438Y-116711953D01*
X156957381Y-116963361D01*
X156991364Y-116994023D01*
X157237366Y-117175129D01*
X157421474Y-117249082D01*
X157456218Y-117235667D01*
X157601068Y-117081285D01*
X157785447Y-116809645D01*
X157968156Y-116490629D01*
X158107994Y-116194122D01*
X158163762Y-115990007D01*
X158109388Y-115903684D01*
X157900705Y-115772182D01*
X157618177Y-115663281D01*
X157351140Y-115617890D01*
X157172545Y-115677763D01*
X156927631Y-115889030D01*
X156730195Y-116175386D01*
X156649083Y-116454762D01*
X153662559Y-116454762D01*
X149425230Y-114336028D01*
X149425230Y-97500000D01*
X149425230Y-82877361D01*
X152687616Y-82877361D01*
X152687616Y-97441541D01*
X152687616Y-112005720D01*
X160655840Y-115990007D01*
X161643779Y-116483998D01*
X162381427Y-116852838D01*
X163081284Y-117202782D01*
X163756180Y-117540245D01*
X163937226Y-117630687D01*
X164811610Y-118067489D01*
X165200867Y-118261944D01*
X165763146Y-118542288D01*
X166648757Y-118983841D01*
X167150903Y-119233690D01*
X168025992Y-119669101D01*
X168097677Y-119704690D01*
X169318808Y-120310941D01*
X169642301Y-120471149D01*
X170513442Y-120902576D01*
X171596129Y-121437220D01*
X172081159Y-121675873D01*
X172553108Y-121908090D01*
X173370613Y-122308400D01*
X174034881Y-122631366D01*
X174532149Y-122870203D01*
X174848653Y-123018127D01*
X174970630Y-123068352D01*
X175080960Y-123021675D01*
X175387288Y-122876990D01*
X175875054Y-122641011D01*
X176530478Y-122320556D01*
X177339782Y-121922440D01*
X177935188Y-121628341D01*
X180584736Y-121628341D01*
X180680306Y-121801244D01*
X180912576Y-122032090D01*
X181031564Y-122136718D01*
X181277494Y-122399827D01*
X181409122Y-122611439D01*
X181429773Y-122669006D01*
X181562600Y-122833262D01*
X181726174Y-122776273D01*
X181736653Y-122747692D01*
X181710226Y-122554014D01*
X181614482Y-122259795D01*
X181585158Y-122178138D01*
X181505138Y-121814260D01*
X181509688Y-121520449D01*
X181515032Y-121500309D01*
X181639019Y-121299725D01*
X181822650Y-121303341D01*
X182041133Y-121499536D01*
X182269678Y-121876690D01*
X182416518Y-122150447D01*
X182551196Y-122301913D01*
X182660389Y-122277043D01*
X182701449Y-122218888D01*
X182703455Y-122026590D01*
X182570074Y-121706900D01*
X182528465Y-121619099D01*
X182410213Y-121276207D01*
X182377577Y-121006651D01*
X182382086Y-120842422D01*
X182343472Y-120744495D01*
X182288853Y-120760851D01*
X182070979Y-120855594D01*
X181759693Y-121006651D01*
X181553953Y-121119749D01*
X181310925Y-121320299D01*
X181236687Y-121530963D01*
X181214413Y-121736816D01*
X181116486Y-121773965D01*
X180887664Y-121651887D01*
X180813691Y-121608872D01*
X180628365Y-121551509D01*
X180584736Y-121628341D01*
X177935188Y-121628341D01*
X178289189Y-121453483D01*
X179364920Y-120920501D01*
X179892317Y-120658555D01*
X182583785Y-120658555D01*
X182623445Y-120906720D01*
X182795068Y-121304655D01*
X182914388Y-121531739D01*
X183119828Y-121859257D01*
X183270076Y-121986410D01*
X183378180Y-121927127D01*
X183387343Y-121896342D01*
X183347134Y-121703804D01*
X183224023Y-121421238D01*
X183053315Y-121109328D01*
X182870313Y-120828758D01*
X182710323Y-120640214D01*
X182608649Y-120604379D01*
X182583785Y-120658555D01*
X179892317Y-120658555D01*
X180297499Y-120457310D01*
X183097707Y-120457310D01*
X183097984Y-120467968D01*
X183185765Y-120603999D01*
X183351469Y-120611306D01*
X183479845Y-120482339D01*
X183508754Y-120426840D01*
X183604042Y-120402637D01*
X183610594Y-120411172D01*
X183611074Y-120574067D01*
X183535073Y-120842528D01*
X183454730Y-121174667D01*
X183520459Y-121417413D01*
X183625948Y-121546507D01*
X183887993Y-121647297D01*
X184196644Y-121522051D01*
X184328489Y-121380545D01*
X184331711Y-121140014D01*
X184281635Y-121021685D01*
X184210357Y-120988375D01*
X184080957Y-121143788D01*
X183964010Y-121271338D01*
X183849337Y-121287774D01*
X183817488Y-121122185D01*
X183883486Y-120800676D01*
X183930747Y-120627070D01*
X183942224Y-120388427D01*
X183836425Y-120218207D01*
X183691373Y-120088150D01*
X184144230Y-120088150D01*
X184187080Y-120332757D01*
X184379359Y-120477708D01*
X184551489Y-120592927D01*
X184612386Y-120874598D01*
X184646898Y-121109641D01*
X184672681Y-121140014D01*
X184732557Y-121210550D01*
X184853315Y-121145757D01*
X184937721Y-120953066D01*
X184907119Y-120750075D01*
X184886158Y-120700810D01*
X184942586Y-120627981D01*
X185010875Y-120656247D01*
X185128052Y-120822235D01*
X185197878Y-120932481D01*
X185324428Y-120894655D01*
X185360002Y-120812379D01*
X185314133Y-120560834D01*
X185131821Y-120146961D01*
X184950844Y-119786891D01*
X184822315Y-119563874D01*
X184722909Y-119483936D01*
X184610073Y-119514881D01*
X184441252Y-119624518D01*
X184245405Y-119818382D01*
X184144230Y-120088150D01*
X183691373Y-120088150D01*
X183690994Y-120087810D01*
X183547994Y-120062596D01*
X183323075Y-120166026D01*
X183190087Y-120270302D01*
X183097707Y-120457310D01*
X180297499Y-120457310D01*
X180553196Y-120330311D01*
X181840240Y-119689731D01*
X182342347Y-119439360D01*
X185072718Y-119439360D01*
X185140243Y-119539001D01*
X185369726Y-119531512D01*
X185422074Y-119520318D01*
X185619482Y-119532387D01*
X185651722Y-119624183D01*
X185486239Y-119738006D01*
X185426848Y-119764865D01*
X185307267Y-119894607D01*
X185373762Y-119997240D01*
X185595613Y-119999359D01*
X185733567Y-119981145D01*
X185926668Y-120033830D01*
X185981516Y-120157906D01*
X185852139Y-120299572D01*
X185750148Y-120373847D01*
X185661010Y-120517257D01*
X185714512Y-120594472D01*
X185907529Y-120596895D01*
X186177187Y-120503778D01*
X186455311Y-120331099D01*
X186437828Y-120260073D01*
X186345347Y-120038534D01*
X186205010Y-119733857D01*
X186049681Y-119414967D01*
X185912223Y-119150785D01*
X185825500Y-119010234D01*
X185821623Y-119007361D01*
X185683475Y-119024102D01*
X185431718Y-119111755D01*
X185392500Y-119128883D01*
X185159391Y-119285138D01*
X185072718Y-119439360D01*
X182342347Y-119439360D01*
X183212273Y-119005579D01*
X183492837Y-118865436D01*
X186010551Y-118865436D01*
X186067125Y-118963494D01*
X186256238Y-119178076D01*
X186532260Y-119448005D01*
X186918760Y-119778402D01*
X187178761Y-119925929D01*
X187325764Y-119882245D01*
X187376735Y-119642212D01*
X187348642Y-119200688D01*
X187333367Y-119068921D01*
X187277600Y-118661512D01*
X187220283Y-118428286D01*
X187145282Y-118322573D01*
X187036462Y-118297706D01*
X187013015Y-118303621D01*
X186959183Y-118460847D01*
X186982852Y-118822018D01*
X187011485Y-119136072D01*
X186971682Y-119312738D01*
X186837233Y-119282736D01*
X186593120Y-119055046D01*
X186508911Y-118972482D01*
X186270225Y-118806398D01*
X186085015Y-118764502D01*
X186010551Y-118865436D01*
X183492837Y-118865436D01*
X184655517Y-118284671D01*
X184794743Y-118215011D01*
X187433153Y-118215011D01*
X187527965Y-118451090D01*
X187729129Y-118849023D01*
X187884824Y-119118519D01*
X188067292Y-119366710D01*
X188195184Y-119462567D01*
X188257471Y-119460677D01*
X188319627Y-119428990D01*
X188308364Y-119322825D01*
X188213604Y-119097438D01*
X188025270Y-118708086D01*
X187864249Y-118413935D01*
X187686016Y-118161689D01*
X187559215Y-118064679D01*
X187527302Y-118065530D01*
X187435873Y-118100065D01*
X187433153Y-118215011D01*
X184794743Y-118215011D01*
X185320334Y-117952038D01*
X187991285Y-117952038D01*
X188015653Y-118048040D01*
X188122144Y-118310383D01*
X188284532Y-118651121D01*
X188435994Y-118924463D01*
X188641810Y-119185481D01*
X188794947Y-119222928D01*
X188890459Y-119036983D01*
X188923395Y-118627829D01*
X188932916Y-118421638D01*
X188994595Y-118215534D01*
X189104434Y-118230793D01*
X189251737Y-118472477D01*
X189286138Y-118539994D01*
X189433435Y-118719456D01*
X189565327Y-118763034D01*
X189622478Y-118643374D01*
X189609091Y-118556619D01*
X189511187Y-118297377D01*
X189351021Y-117985188D01*
X189167735Y-117686561D01*
X189000474Y-117468007D01*
X188888379Y-117396033D01*
X188854234Y-117420802D01*
X188765489Y-117616105D01*
X188712797Y-117928092D01*
X188687558Y-118154943D01*
X188614900Y-118374474D01*
X188506363Y-118363820D01*
X188362027Y-118122936D01*
X188327626Y-118055418D01*
X188180328Y-117875956D01*
X188048436Y-117832379D01*
X187991285Y-117952038D01*
X185320334Y-117952038D01*
X186156194Y-117533826D01*
X186711868Y-117255573D01*
X189302033Y-117255573D01*
X189396072Y-117466760D01*
X189609530Y-117831651D01*
X189719257Y-117996450D01*
X189961872Y-118270249D01*
X190168418Y-118391292D01*
X190206639Y-118394238D01*
X190462731Y-118321972D01*
X190689726Y-118147408D01*
X190787616Y-117942959D01*
X190787392Y-117933959D01*
X190726851Y-117715982D01*
X190588044Y-117418266D01*
X190413126Y-117114445D01*
X190244250Y-116878154D01*
X190123573Y-116783027D01*
X190025150Y-116793237D01*
X189985308Y-116860925D01*
X190042989Y-117035378D01*
X190205047Y-117365596D01*
X190305817Y-117571097D01*
X190417840Y-117867640D01*
X190403490Y-118021002D01*
X190265672Y-118064679D01*
X190208497Y-118046331D01*
X190034774Y-117880657D01*
X189855505Y-117598624D01*
X189782776Y-117469366D01*
X189598470Y-117228227D01*
X189445339Y-117132569D01*
X189434244Y-117132637D01*
X189317921Y-117157671D01*
X189302033Y-117255573D01*
X186711868Y-117255573D01*
X188423818Y-116398316D01*
X191016463Y-116398316D01*
X191083759Y-116505357D01*
X191311927Y-116502154D01*
X191364276Y-116490960D01*
X191561683Y-116503029D01*
X191593924Y-116594825D01*
X191428441Y-116708648D01*
X191369049Y-116735508D01*
X191249469Y-116865249D01*
X191315964Y-116967883D01*
X191537814Y-116970001D01*
X191675769Y-116951787D01*
X191868870Y-117004472D01*
X191923718Y-117128548D01*
X191794341Y-117270214D01*
X191694230Y-117351443D01*
X191603212Y-117546156D01*
X191624466Y-117663253D01*
X191747944Y-117692672D01*
X191998404Y-117540863D01*
X192154553Y-117431850D01*
X192322688Y-117339379D01*
X192329929Y-117330925D01*
X192300910Y-117188849D01*
X192196165Y-116924848D01*
X192047608Y-116604815D01*
X191887152Y-116294640D01*
X191746711Y-116060215D01*
X191658200Y-115967431D01*
X191547835Y-116004029D01*
X191317410Y-116102647D01*
X191109247Y-116238619D01*
X191016463Y-116398316D01*
X188423818Y-116398316D01*
X189476579Y-115871147D01*
X192120820Y-115871147D01*
X192186873Y-116137524D01*
X192336610Y-116494999D01*
X192490075Y-116785705D01*
X192648571Y-117036208D01*
X192747665Y-117132569D01*
X192809593Y-117126267D01*
X192934466Y-117014656D01*
X192870817Y-116824360D01*
X192794831Y-116616190D01*
X192862485Y-116408897D01*
X193048126Y-116316972D01*
X193161620Y-116361031D01*
X193292661Y-116550000D01*
X193315522Y-116613280D01*
X193449150Y-116774971D01*
X193615544Y-116712591D01*
X193620749Y-116597255D01*
X193533777Y-116343878D01*
X193382159Y-116027293D01*
X193202574Y-115716158D01*
X193031700Y-115479129D01*
X192906217Y-115384862D01*
X192799462Y-115449516D01*
X192816837Y-115678705D01*
X192833862Y-115825475D01*
X192751594Y-116021705D01*
X192571718Y-116056015D01*
X192364480Y-115894843D01*
X192233458Y-115747613D01*
X192136875Y-115729849D01*
X192120820Y-115871147D01*
X189476579Y-115871147D01*
X190565360Y-115325941D01*
X193234405Y-115325941D01*
X193252876Y-115399405D01*
X193384502Y-115436465D01*
X193438794Y-115437898D01*
X193601534Y-115585147D01*
X193790786Y-115906177D01*
X193887972Y-116092985D01*
X194042533Y-116337684D01*
X194145581Y-116433486D01*
X194191585Y-116430857D01*
X194308186Y-116348096D01*
X194273777Y-116133550D01*
X194086478Y-115766008D01*
X193924450Y-115463356D01*
X193867798Y-115259978D01*
X193930713Y-115153549D01*
X193990858Y-115095776D01*
X194000059Y-114932261D01*
X193957909Y-114897033D01*
X193769035Y-114901893D01*
X193528756Y-115004170D01*
X193322177Y-115160106D01*
X193234405Y-115325941D01*
X190565360Y-115325941D01*
X197195872Y-112005719D01*
X197195872Y-97434119D01*
X197195872Y-82862520D01*
X186050966Y-77315694D01*
X174906060Y-71768868D01*
X163796838Y-77323115D01*
X152687616Y-82877361D01*
X149425230Y-82877361D01*
X149425230Y-80663972D01*
X162212614Y-74270069D01*
X174999998Y-67876166D01*
X187787385Y-74270068D01*
X200574771Y-80663971D01*
X200574771Y-82862520D01*
X200574771Y-97499999D01*
G37*
G36*
X194516056Y-91383027D02*
G01*
X193242727Y-91383027D01*
X193088525Y-91383368D01*
X192532757Y-91394468D01*
X192158373Y-91425119D01*
X191923510Y-91480582D01*
X191786305Y-91566120D01*
X191760355Y-91599158D01*
X191722445Y-91688718D01*
X191691058Y-91837750D01*
X191665597Y-92065538D01*
X191645467Y-92391363D01*
X191630070Y-92834512D01*
X191618810Y-93414266D01*
X191611091Y-94149910D01*
X191606316Y-95060728D01*
X191604456Y-95907772D01*
X191603889Y-96166003D01*
X191603212Y-97485019D01*
X191603659Y-98285117D01*
X191606871Y-99558469D01*
X191613467Y-100620870D01*
X191623785Y-101486522D01*
X191638162Y-102169627D01*
X191656937Y-102684390D01*
X191680448Y-103045011D01*
X191709032Y-103265694D01*
X191743028Y-103360642D01*
X191769128Y-103379823D01*
X192022658Y-103446501D01*
X192501214Y-103486884D01*
X193199450Y-103500459D01*
X194516056Y-103500459D01*
X194510571Y-106908486D01*
X194505319Y-110172001D01*
X194505086Y-110316514D01*
X193633737Y-110750329D01*
X190760665Y-112180734D01*
X184752543Y-115171974D01*
X184421854Y-115336610D01*
X183027114Y-116030918D01*
X181695987Y-116693445D01*
X180442970Y-117316981D01*
X179282563Y-117894315D01*
X178229263Y-118418240D01*
X177297568Y-118881544D01*
X176501976Y-119277019D01*
X175856985Y-119597454D01*
X175377093Y-119835639D01*
X175076798Y-119984366D01*
X174970598Y-120036424D01*
X174962577Y-120033306D01*
X174805016Y-119957896D01*
X174457256Y-119787226D01*
X173933746Y-119528486D01*
X173248936Y-119188864D01*
X172417273Y-118775552D01*
X171453207Y-118295738D01*
X170371186Y-117756614D01*
X169185659Y-117165369D01*
X167911074Y-116529192D01*
X166561881Y-115855274D01*
X165152529Y-115150805D01*
X157931140Y-111539908D01*
X170048166Y-111539908D01*
X170120485Y-111616538D01*
X170339450Y-111656422D01*
X170416342Y-111659803D01*
X170604710Y-111726264D01*
X170591174Y-111830622D01*
X170368579Y-111910474D01*
X170324442Y-111917998D01*
X170132342Y-112012197D01*
X170149787Y-112133402D01*
X170375390Y-112218858D01*
X170499024Y-112263481D01*
X170605167Y-112412802D01*
X170572413Y-112572157D01*
X170396152Y-112646580D01*
X170318407Y-112657392D01*
X170164680Y-112763303D01*
X170161533Y-112786764D01*
X170277230Y-112866090D01*
X170543349Y-112915978D01*
X170980276Y-112952140D01*
X170980276Y-112187767D01*
X170980276Y-111590886D01*
X171228490Y-111590886D01*
X171298377Y-111854942D01*
X171417183Y-112187767D01*
X171454703Y-112292877D01*
X171576833Y-112576350D01*
X171731477Y-112837373D01*
X171853137Y-112938073D01*
X171934175Y-112885233D01*
X172074484Y-112663060D01*
X172211278Y-112326376D01*
X172259428Y-112180734D01*
X172727983Y-112180734D01*
X172729262Y-112352612D01*
X172750235Y-112706850D01*
X172804722Y-112887513D01*
X172902753Y-112938073D01*
X172942417Y-112932528D01*
X173024165Y-112841644D01*
X173065856Y-112605537D01*
X173077524Y-112180734D01*
X173076244Y-112008855D01*
X173055271Y-111654618D01*
X173020676Y-111539908D01*
X173194038Y-111539908D01*
X173197204Y-111567575D01*
X173304462Y-111656422D01*
X173348879Y-111701472D01*
X173411040Y-111920039D01*
X173441088Y-112180734D01*
X173450105Y-112258961D01*
X173498423Y-112654607D01*
X173582071Y-112888692D01*
X173673232Y-112911265D01*
X173693618Y-112857681D01*
X174176097Y-112857681D01*
X174256289Y-112917960D01*
X174455021Y-112782007D01*
X174508031Y-112738371D01*
X174790722Y-112608728D01*
X175054784Y-112616357D01*
X175216906Y-112763303D01*
X175318734Y-112893237D01*
X175456202Y-112941610D01*
X175524313Y-112862650D01*
X175495962Y-112750025D01*
X175405946Y-112473851D01*
X175302335Y-112180734D01*
X175757340Y-112180734D01*
X175758620Y-112352612D01*
X175779593Y-112706850D01*
X175826581Y-112862650D01*
X175834079Y-112887513D01*
X175932111Y-112938073D01*
X175971775Y-112932528D01*
X176053522Y-112841644D01*
X176095214Y-112605537D01*
X176106882Y-112180734D01*
X176105602Y-112008855D01*
X176084629Y-111654618D01*
X176050033Y-111539908D01*
X176223395Y-111539908D01*
X176226561Y-111567575D01*
X176333820Y-111656422D01*
X176378237Y-111701472D01*
X176440398Y-111920039D01*
X176470446Y-112180734D01*
X176479462Y-112258961D01*
X176527780Y-112654607D01*
X176611428Y-112888692D01*
X176702589Y-112911265D01*
X176775892Y-112718597D01*
X176805964Y-112306957D01*
X176810963Y-112180734D01*
X177272019Y-112180734D01*
X177275432Y-112406632D01*
X177311679Y-112780055D01*
X177390307Y-112937794D01*
X177514756Y-112889900D01*
X177544274Y-112758820D01*
X177545319Y-112479921D01*
X177526113Y-112190443D01*
X177854588Y-112190443D01*
X177859818Y-112454748D01*
X177863038Y-112479921D01*
X177903021Y-112792504D01*
X177997697Y-112908552D01*
X178153205Y-112808369D01*
X178378900Y-112497436D01*
X178526178Y-112284461D01*
X178678525Y-112148954D01*
X178761558Y-112230585D01*
X178786698Y-112530275D01*
X178809778Y-112793259D01*
X178901814Y-112935993D01*
X179058564Y-112860397D01*
X179091830Y-112761239D01*
X179123859Y-112482428D01*
X179133704Y-112180734D01*
X179369267Y-112180734D01*
X179370547Y-112352612D01*
X179391520Y-112706850D01*
X179446006Y-112887513D01*
X179544038Y-112938073D01*
X179583702Y-112932528D01*
X179665449Y-112841644D01*
X179707140Y-112605537D01*
X179718808Y-112180734D01*
X179717528Y-112008855D01*
X179696555Y-111654618D01*
X179642069Y-111473955D01*
X179544038Y-111423394D01*
X179504373Y-111428940D01*
X179422626Y-111519823D01*
X179380935Y-111755931D01*
X179371401Y-112103058D01*
X179369267Y-112180734D01*
X179133704Y-112180734D01*
X179136239Y-112103058D01*
X179134103Y-111890735D01*
X179110198Y-111596540D01*
X179046894Y-111458040D01*
X178928333Y-111423394D01*
X178909751Y-111424677D01*
X178709022Y-111536245D01*
X178513948Y-111772936D01*
X178491686Y-111809624D01*
X178325793Y-112031741D01*
X178200455Y-112122477D01*
X178196413Y-112122223D01*
X178144962Y-112015335D01*
X178163349Y-111772936D01*
X178182139Y-111664582D01*
X178170061Y-111474240D01*
X178043923Y-111423394D01*
X177978398Y-111435281D01*
X177901864Y-111533016D01*
X177864469Y-111769037D01*
X177854588Y-112190443D01*
X177526113Y-112190443D01*
X177522184Y-112131233D01*
X177481917Y-111788453D01*
X177431567Y-111527275D01*
X177378184Y-111423394D01*
X177325892Y-111522289D01*
X177323374Y-111539908D01*
X177286916Y-111795062D01*
X177272019Y-112180734D01*
X176810963Y-112180734D01*
X176816766Y-112034191D01*
X176859084Y-111761854D01*
X176922478Y-111656422D01*
X176950328Y-111653036D01*
X177038992Y-111539908D01*
X177035470Y-111524617D01*
X176900736Y-111452659D01*
X176631194Y-111423394D01*
X176577675Y-111424401D01*
X176325820Y-111462896D01*
X176223395Y-111539908D01*
X176050033Y-111539908D01*
X176030142Y-111473955D01*
X175932111Y-111423394D01*
X175892447Y-111428940D01*
X175810700Y-111519823D01*
X175769008Y-111755931D01*
X175757340Y-112180734D01*
X175302335Y-112180734D01*
X175275674Y-112105311D01*
X175106785Y-111704603D01*
X174931407Y-111466767D01*
X174759919Y-111458084D01*
X174692892Y-111539908D01*
X174579025Y-111678914D01*
X174375430Y-112129615D01*
X174370573Y-112142167D01*
X174214256Y-112599606D01*
X174176097Y-112857681D01*
X173693618Y-112857681D01*
X173746534Y-112718597D01*
X173776606Y-112306957D01*
X173787408Y-112034191D01*
X173829726Y-111761854D01*
X173893120Y-111656422D01*
X173920970Y-111653036D01*
X174009634Y-111539908D01*
X174006112Y-111524617D01*
X173871378Y-111452659D01*
X173601836Y-111423394D01*
X173548318Y-111424401D01*
X173296462Y-111462896D01*
X173194038Y-111539908D01*
X173020676Y-111539908D01*
X173000785Y-111473955D01*
X172902753Y-111423394D01*
X172863089Y-111428940D01*
X172799657Y-111499461D01*
X172781342Y-111519823D01*
X172739650Y-111755931D01*
X172727983Y-112180734D01*
X172259428Y-112180734D01*
X172292755Y-112079928D01*
X172401348Y-111756103D01*
X172466135Y-111569036D01*
X172471197Y-111499461D01*
X172351299Y-111423394D01*
X172303931Y-111438296D01*
X172158020Y-111606137D01*
X172023798Y-111904907D01*
X171864885Y-112386420D01*
X171660386Y-111904907D01*
X171597061Y-111767689D01*
X171449111Y-111521091D01*
X171334595Y-111423394D01*
X171325805Y-111423522D01*
X171239484Y-111460487D01*
X171228490Y-111590886D01*
X170980276Y-111590886D01*
X170980276Y-111423394D01*
X170514221Y-111423394D01*
X170409750Y-111426365D01*
X170151531Y-111466947D01*
X170048166Y-111539908D01*
X157931140Y-111539908D01*
X156319112Y-110733849D01*
X164113227Y-110733849D01*
X164152966Y-111072718D01*
X164319038Y-111347079D01*
X164360386Y-111382102D01*
X164676174Y-111517897D01*
X164969956Y-111456491D01*
X165186632Y-111226317D01*
X165229743Y-111037221D01*
X184530912Y-111037221D01*
X184728900Y-111306881D01*
X184949346Y-111482290D01*
X185206389Y-111518462D01*
X185518571Y-111358531D01*
X185528903Y-111351143D01*
X185736973Y-111076742D01*
X185750157Y-110750329D01*
X185564450Y-110451086D01*
X185277563Y-110287593D01*
X184949316Y-110299259D01*
X184677250Y-110517209D01*
X184533160Y-110775614D01*
X184532471Y-110855806D01*
X184530912Y-111037221D01*
X165229743Y-111037221D01*
X165271102Y-110855806D01*
X165233746Y-110590672D01*
X165042608Y-110341209D01*
X164688533Y-110258257D01*
X166552753Y-110258257D01*
X166556275Y-110273548D01*
X166691009Y-110345506D01*
X166960551Y-110374770D01*
X167368349Y-110374770D01*
X167368349Y-110115129D01*
X167725443Y-110115129D01*
X167768652Y-110236720D01*
X168016760Y-110377654D01*
X168111365Y-110413003D01*
X168362579Y-110478560D01*
X168556008Y-110430474D01*
X168809059Y-110249800D01*
X168828109Y-110230067D01*
X169347630Y-110230067D01*
X169383376Y-110363119D01*
X169432485Y-110370876D01*
X169556866Y-110275734D01*
X169673960Y-110185827D01*
X169918810Y-110145292D01*
X170177603Y-110168609D01*
X170339450Y-110258257D01*
X170380009Y-110303075D01*
X170577654Y-110374770D01*
X170643231Y-110365958D01*
X170670909Y-110316041D01*
X170649936Y-110190039D01*
X170570617Y-109952974D01*
X170423255Y-109569865D01*
X170336814Y-109353233D01*
X170865569Y-109353233D01*
X170943670Y-109545906D01*
X171185365Y-109654663D01*
X171238658Y-109664384D01*
X171402353Y-109772622D01*
X171446331Y-110033333D01*
X171482116Y-110270954D01*
X171542477Y-110316041D01*
X171621102Y-110374770D01*
X171660766Y-110369225D01*
X171742513Y-110278341D01*
X171762846Y-110163195D01*
X172061168Y-110163195D01*
X172254268Y-110370671D01*
X172435613Y-110462089D01*
X172567289Y-110466860D01*
X172757111Y-110365438D01*
X172809434Y-110332474D01*
X172954114Y-110172001D01*
X172902063Y-110067195D01*
X172669726Y-110073075D01*
X172663941Y-110074510D01*
X172433153Y-110085139D01*
X172394427Y-109979051D01*
X172559573Y-109786922D01*
X172705432Y-109643134D01*
X172732623Y-109595827D01*
X173711714Y-109595827D01*
X173754795Y-109937076D01*
X173935967Y-110172001D01*
X173980023Y-110229128D01*
X174227681Y-110331926D01*
X174556215Y-110374770D01*
X174941744Y-110374770D01*
X174941744Y-110258257D01*
X175174771Y-110258257D01*
X175174798Y-110259706D01*
X175278888Y-110341022D01*
X175524313Y-110374770D01*
X175873854Y-110374770D01*
X175873854Y-110266360D01*
X176106882Y-110266360D01*
X176152224Y-110328057D01*
X176347760Y-110372911D01*
X176614308Y-110365289D01*
X176859598Y-110310617D01*
X176991361Y-110214324D01*
X177008644Y-110136614D01*
X177026174Y-109853513D01*
X177020171Y-109617431D01*
X177272019Y-109617431D01*
X177273299Y-109789310D01*
X177277100Y-109853513D01*
X177294272Y-110143547D01*
X177348758Y-110324210D01*
X177446790Y-110374770D01*
X177486454Y-110369225D01*
X177568201Y-110278341D01*
X177609893Y-110042234D01*
X177621560Y-109617431D01*
X177620646Y-109494601D01*
X177874499Y-109494601D01*
X177884942Y-109608388D01*
X177902338Y-109617431D01*
X178056242Y-109697436D01*
X178181865Y-109771483D01*
X178260141Y-110016173D01*
X178294618Y-110204364D01*
X178408028Y-110345132D01*
X178417794Y-110347822D01*
X178497177Y-110291328D01*
X178540521Y-110060705D01*
X178553671Y-109627140D01*
X178553671Y-108976605D01*
X178786698Y-108976605D01*
X178830395Y-109044326D01*
X179019726Y-109093119D01*
X179155616Y-109125557D01*
X179252753Y-109267890D01*
X179209502Y-109369808D01*
X179019726Y-109442660D01*
X178884284Y-109464509D01*
X178786698Y-109559174D01*
X178830395Y-109626895D01*
X178831346Y-109627140D01*
X179019726Y-109675688D01*
X179079879Y-109679294D01*
X179216133Y-109769376D01*
X179252753Y-110025229D01*
X179288772Y-110270557D01*
X179427524Y-110374770D01*
X179467188Y-110369225D01*
X179548935Y-110278341D01*
X179551051Y-110266360D01*
X179835322Y-110266360D01*
X179838833Y-110280566D01*
X179973549Y-110347535D01*
X180243120Y-110374770D01*
X180650918Y-110374770D01*
X180650918Y-109617431D01*
X181000460Y-109617431D01*
X181001739Y-109789310D01*
X181022712Y-110143547D01*
X181077199Y-110324210D01*
X181175230Y-110374770D01*
X181296571Y-110305438D01*
X181350001Y-110035539D01*
X181410422Y-109788255D01*
X181550713Y-109710773D01*
X181701821Y-109804464D01*
X181794667Y-110064785D01*
X181861623Y-110273168D01*
X181998566Y-110374770D01*
X182024239Y-110372062D01*
X182108681Y-110285463D01*
X182131984Y-110159811D01*
X182432392Y-110159811D01*
X182623992Y-110370671D01*
X182805338Y-110462089D01*
X182937014Y-110466860D01*
X183126836Y-110365438D01*
X183179159Y-110332474D01*
X183323839Y-110172001D01*
X183271788Y-110067195D01*
X183039450Y-110073075D01*
X182909003Y-110093010D01*
X182759885Y-110033972D01*
X182784927Y-109869552D01*
X182988614Y-109638112D01*
X183140135Y-109459716D01*
X183203516Y-109201886D01*
X183097424Y-108999965D01*
X182835551Y-108918348D01*
X182621993Y-108950939D01*
X182544267Y-109034862D01*
X182602503Y-109095799D01*
X182801965Y-109119250D01*
X182814898Y-109117486D01*
X182931805Y-109121497D01*
X182902146Y-109208429D01*
X182714580Y-109416910D01*
X182623049Y-109520906D01*
X182569563Y-109617431D01*
X182433339Y-109863274D01*
X182432392Y-110159811D01*
X182131984Y-110159811D01*
X182152846Y-110047317D01*
X182165597Y-109617431D01*
X182164317Y-109445552D01*
X182143344Y-109091315D01*
X182088858Y-108910652D01*
X181990827Y-108860092D01*
X181876827Y-108917103D01*
X181816056Y-109151376D01*
X181765760Y-109374391D01*
X181583028Y-109442660D01*
X181404616Y-109379790D01*
X181350001Y-109151376D01*
X181315794Y-108961377D01*
X181175230Y-108860092D01*
X181135566Y-108865637D01*
X181053819Y-108956521D01*
X181012127Y-109192628D01*
X181000460Y-109617431D01*
X180650918Y-109617431D01*
X180650918Y-108860092D01*
X180243120Y-108860092D01*
X180024197Y-108879671D01*
X179855989Y-108951833D01*
X179863909Y-109042436D01*
X180072965Y-109114144D01*
X180212399Y-109158303D01*
X180310607Y-109267890D01*
X180265097Y-109343383D01*
X180072965Y-109421636D01*
X180061217Y-109423560D01*
X179862670Y-109507477D01*
X179876417Y-109617151D01*
X179877195Y-109617431D01*
X180097478Y-109696713D01*
X180260454Y-109757986D01*
X180359634Y-109908715D01*
X180302443Y-110025488D01*
X180097478Y-110120718D01*
X179934390Y-110167567D01*
X179835322Y-110266360D01*
X179551051Y-110266360D01*
X179590627Y-110042234D01*
X179602294Y-109617431D01*
X179602294Y-108860092D01*
X179194496Y-108860092D01*
X179140978Y-108861098D01*
X178889123Y-108899593D01*
X178786698Y-108976605D01*
X178553671Y-108976605D01*
X178553671Y-108860092D01*
X178204129Y-108860092D01*
X178086349Y-108865851D01*
X177887487Y-108929201D01*
X177886621Y-109030613D01*
X178099339Y-109129944D01*
X178117719Y-109135196D01*
X178260636Y-109248220D01*
X178221789Y-109379603D01*
X178022482Y-109442660D01*
X177874499Y-109494601D01*
X177620646Y-109494601D01*
X177620281Y-109445552D01*
X177599308Y-109091315D01*
X177544821Y-108910652D01*
X177446790Y-108860092D01*
X177407126Y-108865637D01*
X177325378Y-108956521D01*
X177283687Y-109192628D01*
X177272019Y-109617431D01*
X177020171Y-109617431D01*
X177016832Y-109486113D01*
X176994125Y-109197663D01*
X176938566Y-108998174D01*
X176805350Y-108914579D01*
X176543808Y-108882187D01*
X176267121Y-108892580D01*
X176117078Y-108958282D01*
X176132602Y-109044098D01*
X176344524Y-109114144D01*
X176483959Y-109158303D01*
X176582167Y-109267890D01*
X176536657Y-109343383D01*
X176344524Y-109421636D01*
X176265361Y-109438368D01*
X176117627Y-109530852D01*
X176163143Y-109617431D01*
X176169561Y-109629639D01*
X176406709Y-109675688D01*
X176597610Y-109723430D01*
X176676559Y-109863840D01*
X176597724Y-110022005D01*
X176367847Y-110120718D01*
X176205909Y-110167374D01*
X176106882Y-110266360D01*
X175873854Y-110266360D01*
X175873854Y-109617431D01*
X175872574Y-109445552D01*
X175851601Y-109091315D01*
X175797115Y-108910652D01*
X175699083Y-108860092D01*
X175595060Y-108915497D01*
X175540003Y-109114461D01*
X175524313Y-109500917D01*
X175519697Y-109617431D01*
X175509202Y-109882335D01*
X175454939Y-110084211D01*
X175349542Y-110141743D01*
X175269143Y-110154888D01*
X175174771Y-110258257D01*
X174941744Y-110258257D01*
X174941744Y-109617431D01*
X174941744Y-108860092D01*
X174542402Y-108860092D01*
X174432973Y-108866930D01*
X174075041Y-109001750D01*
X173826542Y-109264384D01*
X173711714Y-109595827D01*
X172732623Y-109595827D01*
X172885706Y-109329487D01*
X172889870Y-109043303D01*
X172869498Y-109004806D01*
X172695624Y-108889260D01*
X172453469Y-108857012D01*
X172238307Y-108908139D01*
X172145414Y-109042714D01*
X172189465Y-109159523D01*
X172378441Y-109151376D01*
X172476939Y-109127083D01*
X172598578Y-109159211D01*
X172545082Y-109304232D01*
X172320184Y-109537392D01*
X172263685Y-109589793D01*
X172245249Y-109617431D01*
X172065582Y-109886777D01*
X172061168Y-110163195D01*
X171762846Y-110163195D01*
X171784205Y-110042234D01*
X171795872Y-109617431D01*
X171795592Y-109424672D01*
X171784821Y-109098513D01*
X171740972Y-108930876D01*
X171640685Y-108868993D01*
X171460598Y-108860092D01*
X171408380Y-108861952D01*
X171118369Y-108952233D01*
X170930617Y-109135668D01*
X170865569Y-109353233D01*
X170336814Y-109353233D01*
X170198154Y-109005734D01*
X170103810Y-108873485D01*
X169947074Y-108900614D01*
X169758542Y-109141559D01*
X169547176Y-109588303D01*
X169490674Y-109740126D01*
X169429141Y-109905468D01*
X169347630Y-110230067D01*
X168828109Y-110230067D01*
X168955979Y-110097616D01*
X169107416Y-109740126D01*
X169088881Y-109361506D01*
X168894458Y-109045206D01*
X168803641Y-108983400D01*
X168512436Y-108895669D01*
X168179744Y-108883488D01*
X167893644Y-108944484D01*
X167742220Y-109076281D01*
X167732199Y-109128248D01*
X167807186Y-109187542D01*
X168058398Y-109153360D01*
X168426368Y-109144194D01*
X168677252Y-109302967D01*
X168766515Y-109617431D01*
X168687726Y-109914992D01*
X168446529Y-110086146D01*
X168072204Y-110084534D01*
X167877962Y-110061365D01*
X167725443Y-110115129D01*
X167368349Y-110115129D01*
X167368349Y-109617431D01*
X167368349Y-108860092D01*
X166960551Y-108860092D01*
X166741629Y-108879671D01*
X166573420Y-108951833D01*
X166581340Y-109042436D01*
X166790396Y-109114144D01*
X166929830Y-109158303D01*
X167028039Y-109267890D01*
X166982528Y-109343383D01*
X166790396Y-109421636D01*
X166763482Y-109426404D01*
X166579217Y-109515694D01*
X166586203Y-109623389D01*
X166785781Y-109675688D01*
X166936421Y-109713985D01*
X167018808Y-109908715D01*
X166980511Y-110059355D01*
X166785781Y-110141743D01*
X166650339Y-110163591D01*
X166552753Y-110258257D01*
X164688533Y-110258257D01*
X164463653Y-110290409D01*
X164245781Y-110398073D01*
X164208450Y-110442232D01*
X164113227Y-110733849D01*
X156319112Y-110733849D01*
X155363862Y-110256197D01*
X155394775Y-106907456D01*
X155425689Y-103558715D01*
X156707340Y-103500459D01*
X157988992Y-103442202D01*
X158019207Y-97571504D01*
X158020157Y-97381959D01*
X158025336Y-95958847D01*
X158025748Y-94756155D01*
X158021205Y-93762689D01*
X158017744Y-93478531D01*
X164942747Y-93478531D01*
X164943307Y-93742431D01*
X165010335Y-94012741D01*
X165154588Y-94121101D01*
X165207793Y-94136102D01*
X165270847Y-94236291D01*
X165313821Y-94461696D01*
X165342408Y-94848250D01*
X165362303Y-95431881D01*
X165395247Y-96742660D01*
X165799230Y-96742660D01*
X166203212Y-96742660D01*
X166203212Y-95474598D01*
X166203345Y-95318814D01*
X166206099Y-95053211D01*
X167135322Y-95053211D01*
X167135322Y-96742660D01*
X167591668Y-96742660D01*
X167682150Y-96740249D01*
X167957795Y-96697803D01*
X168089182Y-96619154D01*
X168205618Y-96573708D01*
X168477561Y-96676693D01*
X168865657Y-96827349D01*
X169249782Y-96825907D01*
X169696302Y-96655094D01*
X169752992Y-96625344D01*
X170227851Y-96240479D01*
X170526820Y-95716834D01*
X170550098Y-95575649D01*
X171213304Y-95575649D01*
X171311220Y-95995557D01*
X171564070Y-96398454D01*
X171908572Y-96682431D01*
X172229593Y-96796974D01*
X172765810Y-96845023D01*
X173203414Y-96757911D01*
X174572339Y-96757911D01*
X175019197Y-96721157D01*
X175466056Y-96684403D01*
X175498021Y-95519266D01*
X175500165Y-95444413D01*
X175524987Y-94901913D01*
X175565607Y-94544022D01*
X175629512Y-94327345D01*
X175724190Y-94208486D01*
X175856633Y-94122859D01*
X176113510Y-94078362D01*
X176405025Y-94227834D01*
X176451063Y-94265834D01*
X176545866Y-94401751D01*
X176610285Y-94627328D01*
X176654690Y-94990352D01*
X176689450Y-95538613D01*
X176747707Y-96684403D01*
X177184634Y-96720565D01*
X177621560Y-96756727D01*
X177621560Y-95060244D01*
X177621560Y-93363761D01*
X178437157Y-93363761D01*
X178437157Y-94474384D01*
X178439374Y-94713218D01*
X178485070Y-95417397D01*
X178597563Y-95938701D01*
X178787071Y-96311289D01*
X179063812Y-96569319D01*
X179083905Y-96582173D01*
X179567266Y-96769617D01*
X180115567Y-96810223D01*
X180614250Y-96694725D01*
X180859796Y-96551932D01*
X181107713Y-96280343D01*
X181271033Y-95886169D01*
X181317253Y-95608337D01*
X182169696Y-95608337D01*
X182241614Y-96025680D01*
X182492930Y-96406250D01*
X182703521Y-96609345D01*
X182989151Y-96754278D01*
X183395911Y-96817909D01*
X183932342Y-96797706D01*
X184408716Y-96606827D01*
X184770464Y-96227473D01*
X184851056Y-96102912D01*
X184941194Y-95907772D01*
X184871060Y-95782335D01*
X184617849Y-95638605D01*
X184595501Y-95627088D01*
X184360496Y-95529452D01*
X184193509Y-95564450D01*
X183982320Y-95752126D01*
X183705405Y-95976191D01*
X183445210Y-96027099D01*
X183163955Y-95889058D01*
X183080943Y-95814554D01*
X183011667Y-95628871D01*
X183101871Y-95389108D01*
X183363929Y-95071591D01*
X183810214Y-94652646D01*
X184026445Y-94456243D01*
X184457635Y-93996899D01*
X184700412Y-93596561D01*
X184769940Y-93223801D01*
X184681385Y-92847188D01*
X184559948Y-92626812D01*
X184209746Y-92300140D01*
X183762463Y-92128716D01*
X183274232Y-92118489D01*
X182801187Y-92275406D01*
X182399461Y-92605414D01*
X182323847Y-92727244D01*
X182352232Y-92876370D01*
X182540370Y-93092413D01*
X182838242Y-93390284D01*
X183178236Y-93138916D01*
X183316312Y-93052062D01*
X183607111Y-92962112D01*
X183826539Y-93010118D01*
X183913304Y-93191680D01*
X183903674Y-93225117D01*
X183772195Y-93409302D01*
X183760467Y-93422018D01*
X183518918Y-93683913D01*
X183185093Y-94002992D01*
X182825366Y-94337923D01*
X182494985Y-94688741D01*
X182296100Y-94984464D01*
X182197938Y-95273639D01*
X182169726Y-95604813D01*
X182169696Y-95608337D01*
X181317253Y-95608337D01*
X181362879Y-95334074D01*
X181396375Y-94588720D01*
X181408258Y-93422018D01*
X180971331Y-93385856D01*
X180534405Y-93349694D01*
X180534405Y-94450701D01*
X180534263Y-94541817D01*
X180523350Y-95062970D01*
X180488794Y-95413982D01*
X180421799Y-95649564D01*
X180313572Y-95824423D01*
X180215053Y-95935798D01*
X180027087Y-96036096D01*
X179765138Y-95981928D01*
X179760271Y-95980205D01*
X179556465Y-95872375D01*
X179417150Y-95693235D01*
X179330147Y-95402490D01*
X179283279Y-94959843D01*
X179264367Y-94325000D01*
X179252753Y-93363761D01*
X178844955Y-93363761D01*
X178437157Y-93363761D01*
X177621560Y-93363761D01*
X177237065Y-93363761D01*
X177224615Y-93363822D01*
X176925424Y-93399786D01*
X176734258Y-93482073D01*
X176576079Y-93529538D01*
X176261279Y-93423453D01*
X175810892Y-93305575D01*
X175334890Y-93389300D01*
X174920777Y-93677016D01*
X174872522Y-93730408D01*
X174771055Y-93876502D01*
X174702965Y-94064960D01*
X174659497Y-94343445D01*
X174631893Y-94759624D01*
X174611399Y-95361159D01*
X174596592Y-95890636D01*
X174572339Y-96757911D01*
X173203414Y-96757911D01*
X173261797Y-96746289D01*
X173314001Y-96720566D01*
X173563108Y-96534176D01*
X173823042Y-96269406D01*
X174141756Y-95890636D01*
X173781156Y-95662320D01*
X173420557Y-95434004D01*
X173138090Y-95738791D01*
X172875705Y-95954004D01*
X172558905Y-96035819D01*
X172285230Y-95903761D01*
X172263764Y-95881332D01*
X172158466Y-95675986D01*
X172212826Y-95436446D01*
X172440584Y-95134742D01*
X172855480Y-94742901D01*
X173008245Y-94607171D01*
X173509329Y-94094592D01*
X173802841Y-93646250D01*
X173894684Y-93241306D01*
X173790760Y-92858921D01*
X173496973Y-92478257D01*
X173431600Y-92416505D01*
X172978036Y-92148504D01*
X172487212Y-92097018D01*
X171994086Y-92259301D01*
X171533616Y-92632604D01*
X171527909Y-92638917D01*
X171406509Y-92801579D01*
X171430281Y-92932607D01*
X171614409Y-93124446D01*
X171898651Y-93391478D01*
X172212516Y-93144592D01*
X172521619Y-92945906D01*
X172761053Y-92921306D01*
X172966124Y-93078639D01*
X173002542Y-93135856D01*
X173003659Y-93253528D01*
X172901872Y-93420330D01*
X172672909Y-93670901D01*
X172292494Y-94039878D01*
X171989342Y-94332666D01*
X171610204Y-94732029D01*
X171372095Y-95047254D01*
X171354020Y-95086577D01*
X171248599Y-95315932D01*
X171213304Y-95575649D01*
X170550098Y-95575649D01*
X170630735Y-95086577D01*
X170587915Y-94643634D01*
X170388147Y-94089223D01*
X170054215Y-93664167D01*
X169618244Y-93394367D01*
X169112363Y-93305724D01*
X168568697Y-93424139D01*
X168518442Y-93444593D01*
X168217910Y-93530391D01*
X168088672Y-93485739D01*
X168071755Y-93461751D01*
X167891613Y-93391867D01*
X167591668Y-93363761D01*
X167135322Y-93363761D01*
X167135322Y-93724211D01*
X167135322Y-95053211D01*
X166206099Y-95053211D01*
X166208632Y-94808846D01*
X166227111Y-94479047D01*
X166266237Y-94286910D01*
X166333462Y-94189929D01*
X166436239Y-94145598D01*
X166444999Y-94143218D01*
X166618297Y-94013166D01*
X166669267Y-93724211D01*
X166665981Y-93615615D01*
X166604780Y-93416673D01*
X166436239Y-93363761D01*
X166351460Y-93356251D01*
X166255925Y-93283718D01*
X166213096Y-93088477D01*
X166203212Y-92715553D01*
X166203212Y-92067346D01*
X165824542Y-92103856D01*
X165625916Y-92131640D01*
X165497599Y-92209329D01*
X165439089Y-92395395D01*
X165410655Y-92752064D01*
X165400803Y-92901575D01*
X165360022Y-93195334D01*
X165281610Y-93330902D01*
X165141117Y-93363761D01*
X165034216Y-93375434D01*
X164942747Y-93478531D01*
X158017744Y-93478531D01*
X158011518Y-92967253D01*
X157996498Y-92358652D01*
X157975957Y-91925693D01*
X157949705Y-91657179D01*
X157917555Y-91541917D01*
X157839987Y-91487252D01*
X157600165Y-91426969D01*
X157188484Y-91393418D01*
X156574773Y-91383027D01*
X155363858Y-91383027D01*
X155371499Y-90555096D01*
X161006272Y-90555096D01*
X161036120Y-90633710D01*
X161151372Y-90496341D01*
X161347585Y-90141447D01*
X161377902Y-90083739D01*
X161728236Y-89559833D01*
X162215686Y-88994546D01*
X162780608Y-88451418D01*
X163363358Y-87993991D01*
X164326675Y-87415400D01*
X165515750Y-86854355D01*
X166851623Y-86350163D01*
X168291186Y-85917311D01*
X169791333Y-85570288D01*
X171308957Y-85323580D01*
X171605858Y-85287133D01*
X172024182Y-85246051D01*
X172285859Y-85243987D01*
X172439158Y-85282504D01*
X172532351Y-85363162D01*
X172553815Y-85390947D01*
X172715075Y-85600957D01*
X172962620Y-85924307D01*
X173252294Y-86303333D01*
X173343293Y-86421389D01*
X173607504Y-86750903D01*
X173808103Y-86981498D01*
X173907398Y-87069116D01*
X173923413Y-87064377D01*
X174082085Y-86964439D01*
X174359946Y-86761154D01*
X174708716Y-86489449D01*
X174804598Y-86413376D01*
X175141712Y-86155479D01*
X175396926Y-85974902D01*
X175521105Y-85906881D01*
X175636591Y-85971716D01*
X175823668Y-86148826D01*
X175962577Y-86321711D01*
X175950218Y-86443100D01*
X175762959Y-86601725D01*
X175483292Y-86812678D01*
X176430465Y-88020101D01*
X176451644Y-88047092D01*
X176840467Y-88540383D01*
X177207066Y-89001696D01*
X177511071Y-89380445D01*
X177712114Y-89626047D01*
X178046591Y-90024572D01*
X178824443Y-89401241D01*
X178965346Y-89287019D01*
X179291000Y-89011458D01*
X179517419Y-88802666D01*
X179602294Y-88698847D01*
X179599494Y-88691133D01*
X179506328Y-88552323D01*
X179300805Y-88272279D01*
X179009634Y-87885794D01*
X178659527Y-87427663D01*
X178277194Y-86932682D01*
X177889345Y-86435645D01*
X177522691Y-85971347D01*
X177203942Y-85574583D01*
X177109090Y-85596887D01*
X176907453Y-85717868D01*
X176769116Y-85807138D01*
X176608748Y-85835899D01*
X176433864Y-85711694D01*
X176284685Y-85536707D01*
X176237988Y-85316107D01*
X176391153Y-85168355D01*
X176407707Y-85163025D01*
X176658587Y-85143517D01*
X177090703Y-85161124D01*
X177661594Y-85210597D01*
X178328800Y-85286682D01*
X179049862Y-85384130D01*
X179782319Y-85497690D01*
X180483712Y-85622109D01*
X181111581Y-85752138D01*
X181181458Y-85768159D01*
X182508077Y-86127427D01*
X183772314Y-86571249D01*
X184949865Y-87085324D01*
X186016426Y-87655354D01*
X186947694Y-88267038D01*
X187719364Y-88906078D01*
X188307133Y-89558175D01*
X188686697Y-90209029D01*
X188698424Y-90236646D01*
X188826241Y-90471169D01*
X188931958Y-90567431D01*
X188951676Y-90558978D01*
X188961576Y-90413353D01*
X188894472Y-90129999D01*
X188768981Y-89765065D01*
X188603716Y-89374702D01*
X188417294Y-89015058D01*
X188103694Y-88584276D01*
X187645196Y-88087194D01*
X187099945Y-87578721D01*
X186525179Y-87112223D01*
X185978140Y-86741062D01*
X185424006Y-86435428D01*
X184275433Y-85909871D01*
X182986102Y-85433841D01*
X181614805Y-85025941D01*
X180220330Y-84704777D01*
X178861469Y-84488951D01*
X178495111Y-84443527D01*
X178062431Y-84378380D01*
X177805573Y-84316089D01*
X177689497Y-84246941D01*
X177679167Y-84161224D01*
X177680950Y-84150776D01*
X177619094Y-83979863D01*
X177445500Y-83687789D01*
X177194424Y-83319675D01*
X176900125Y-82920642D01*
X176596858Y-82535810D01*
X176318882Y-82210301D01*
X176100454Y-81989235D01*
X175975830Y-81917732D01*
X175955896Y-81926257D01*
X175779703Y-82039653D01*
X175486630Y-82252407D01*
X175128349Y-82527351D01*
X174803057Y-82780465D01*
X174555430Y-82954192D01*
X174401245Y-83016019D01*
X174292556Y-82983509D01*
X174181419Y-82874224D01*
X174050327Y-82707996D01*
X174055982Y-82573339D01*
X174218554Y-82378872D01*
X174465800Y-82115690D01*
X173243147Y-80574129D01*
X172928818Y-80180708D01*
X172556798Y-79723334D01*
X172253145Y-79359547D01*
X172042965Y-79119306D01*
X171951360Y-79032569D01*
X171925400Y-79042749D01*
X171749490Y-79154863D01*
X171454454Y-79364544D01*
X171087169Y-79638905D01*
X171011079Y-79697572D01*
X170642157Y-80007370D01*
X170426504Y-80238122D01*
X170385986Y-80367116D01*
X170713054Y-80789026D01*
X171256510Y-81477786D01*
X171752060Y-82090721D01*
X172181206Y-82605799D01*
X172525448Y-83000988D01*
X172766286Y-83254259D01*
X172885224Y-83343578D01*
X172969037Y-83327364D01*
X173172029Y-83202467D01*
X173216978Y-83164416D01*
X173362723Y-83152886D01*
X173569235Y-83317450D01*
X173574405Y-83322621D01*
X173740321Y-83505345D01*
X173745924Y-83618485D01*
X173597069Y-83753808D01*
X173429443Y-83881775D01*
X173167126Y-84050857D01*
X172884821Y-84175525D01*
X172529537Y-84272480D01*
X172048285Y-84358424D01*
X171388074Y-84450060D01*
X171238626Y-84470019D01*
X169598796Y-84750614D01*
X168013825Y-85131507D01*
X166527094Y-85599207D01*
X165181980Y-86140222D01*
X164021862Y-86741062D01*
X163477130Y-87110493D01*
X162902362Y-87576713D01*
X162356876Y-88085123D01*
X161897911Y-88582359D01*
X161582708Y-89015058D01*
X161512816Y-89140911D01*
X161291243Y-89610796D01*
X161122902Y-90063493D01*
X161066272Y-90262042D01*
X161006272Y-90555096D01*
X155371499Y-90555096D01*
X155394774Y-88033257D01*
X155425689Y-84683486D01*
X165096331Y-79825243D01*
X165358971Y-79693322D01*
X166751681Y-78994491D01*
X168083324Y-78327477D01*
X169339195Y-77699582D01*
X170504589Y-77118105D01*
X171564800Y-76590348D01*
X172505125Y-76123613D01*
X173310857Y-75725200D01*
X173967292Y-75402410D01*
X174459724Y-75162545D01*
X174773448Y-75012906D01*
X174893761Y-74960793D01*
X174902628Y-74963005D01*
X175066256Y-75034295D01*
X175420626Y-75200683D01*
X175951039Y-75454979D01*
X176642800Y-75789995D01*
X177481211Y-76198541D01*
X178451576Y-76673426D01*
X179539196Y-77207462D01*
X180729376Y-77793459D01*
X182007418Y-78424227D01*
X183358626Y-79092576D01*
X184768302Y-79791318D01*
X194516056Y-84628048D01*
X194516056Y-88005538D01*
X194516056Y-90413353D01*
X194516056Y-91383027D01*
G37*
%TD*%
M02*
