M48
; DRILL file KiCad 10.0.4 date 2026-08-13T16:02:51
; FORMAT={-:-/ absolute / metric / decimal}
; #@! TF.CreationDate,2026-08-13T16:02:51+01:00
; #@! TF.GenerationSoftware,Kicad,Pcbnew,10.0.4
; #@! TF.FileFunction,Plated,1,4,PTH
FMAT,2
METRIC
; #@! TA.AperFunction,Plated,PTH,ViaDrill
T1C0.300
; #@! TA.AperFunction,Plated,PTH,ComponentDrill
T2C0.800
; #@! TA.AperFunction,Plated,PTH,ComponentDrill
T3C0.900
; #@! TA.AperFunction,Plated,PTH,ComponentDrill
T4C1.000
; #@! TA.AperFunction,Plated,PTH,ComponentDrill
T5C1.110
%
G90
G05
T1
X140.5Y-118.5
X152.0Y-109.5
X152.6Y-104.0
X155.5Y-92.0
X156.0Y-122.0
X161.39Y-92.0
X161.5Y-102.0
X163.0Y-116.5
X164.5Y-105.5
X169.041Y-114.579
X176.0Y-94.0
X178.0Y-118.5
X180.5Y-95.5
X186.379Y-120.841
X188.5Y-127.0
X192.335Y-110.376
X193.0Y-93.0
X196.5Y-98.0
X198.0Y-97.0
X201.0Y-127.0
X205.0Y-125.5
X205.0Y-125.5
X205.5Y-123.5
X208.5Y-120.3
T2
X143.0Y-119.69
X143.0Y-127.31
X149.5Y-119.69
X149.5Y-127.31
X156.0Y-119.69
X156.0Y-127.31
X187.69Y-123.0
X187.69Y-129.5
X195.31Y-123.0
X195.31Y-129.5
X204.5Y-122.0
X204.5Y-129.62
T3
X143.21Y-130.56
X143.21Y-133.1
X149.5Y-130.5
X149.5Y-133.04
X155.815Y-130.415
X155.815Y-132.955
X198.5Y-129.5
X198.56Y-123.285
X201.04Y-129.5
X201.1Y-123.285
T4
X133.96Y-62.56
X133.96Y-65.1
X133.96Y-67.64
X133.96Y-70.18
X133.96Y-72.72
X133.96Y-75.26
X133.96Y-77.8
X133.96Y-80.34
X133.96Y-82.88
X133.96Y-85.42
X133.96Y-87.96
X133.96Y-90.5
X133.96Y-93.04
X133.96Y-95.58
X133.96Y-98.12
X133.96Y-100.66
X133.96Y-103.2
X133.96Y-105.74
X133.96Y-108.28
X133.96Y-110.82
X133.96Y-113.36
X133.96Y-115.9
X133.96Y-118.44
X133.96Y-120.98
X133.96Y-123.52
X136.5Y-62.56
X136.5Y-65.1
X136.5Y-67.64
X136.5Y-70.18
X136.5Y-72.72
X136.5Y-75.26
X136.5Y-77.8
X136.5Y-80.34
X136.5Y-82.88
X136.5Y-85.42
X136.5Y-87.96
X136.5Y-90.5
X136.5Y-93.04
X136.5Y-95.58
X136.5Y-98.12
X136.5Y-100.66
X136.5Y-103.2
X136.5Y-105.74
X136.5Y-108.28
X136.5Y-110.82
X136.5Y-113.36
X136.5Y-115.9
X136.5Y-118.44
X136.5Y-120.98
X136.5Y-123.52
X157.25Y-97.82
X157.25Y-100.36
X157.25Y-102.9
X157.25Y-105.44
X157.25Y-107.98
X157.25Y-110.52
X157.25Y-113.06
X192.0Y-98.76
X192.0Y-101.3
X192.0Y-103.84
X192.0Y-106.38
X192.0Y-108.92
X192.0Y-111.46
X192.0Y-114.0
X196.84Y-133.5
X199.38Y-133.5
X201.92Y-133.5
X204.46Y-133.5
X207.0Y-133.5
X212.725Y-62.52
X212.725Y-65.06
X212.725Y-67.6
X212.725Y-70.14
X212.725Y-72.68
X212.725Y-75.22
X212.725Y-77.76
X212.725Y-80.3
X212.725Y-82.84
X212.725Y-85.38
X212.725Y-87.92
X212.725Y-90.46
X212.725Y-93.0
X212.725Y-95.54
X212.725Y-98.08
X212.725Y-100.62
X212.725Y-103.16
X212.725Y-105.7
X212.725Y-108.24
X212.725Y-110.78
X212.725Y-113.32
X212.725Y-115.86
X212.725Y-118.4
X212.725Y-120.94
X212.725Y-123.48
X215.265Y-62.52
X215.265Y-65.06
X215.265Y-67.6
X215.265Y-70.14
X215.265Y-72.68
X215.265Y-75.22
X215.265Y-77.76
X215.265Y-80.3
X215.265Y-82.84
X215.265Y-85.38
X215.265Y-87.92
X215.265Y-90.46
X215.265Y-93.0
X215.265Y-95.54
X215.265Y-98.08
X215.265Y-100.62
X215.265Y-103.16
X215.265Y-105.7
X215.265Y-108.24
X215.265Y-110.78
X215.265Y-113.32
X215.265Y-115.86
X215.265Y-118.4
X215.265Y-120.94
X215.265Y-123.48
T5
X168.42Y-75.3
X168.42Y-77.84
X168.42Y-80.38
X168.42Y-82.92
X168.42Y-85.46
X168.42Y-88.0
X168.42Y-90.54
X168.42Y-93.08
X168.42Y-95.62
X168.42Y-98.16
X168.42Y-100.7
X168.42Y-103.24
X168.42Y-105.78
X168.42Y-108.32
X168.42Y-110.86
X168.42Y-113.4
X168.42Y-115.94
X168.42Y-118.48
X168.42Y-121.02
X168.42Y-123.56
X168.42Y-126.1
X168.42Y-128.64
X168.42Y-131.18
X168.42Y-133.72
X170.96Y-88.0
X170.96Y-131.18
X173.5Y-88.0
X176.04Y-88.0
X178.58Y-88.0
X180.61Y-117.21
X180.61Y-119.75
X180.61Y-122.29
X180.61Y-124.83
X180.61Y-127.37
X181.12Y-88.0
X183.66Y-75.3
X183.66Y-77.84
X183.66Y-80.38
X183.66Y-82.92
X183.66Y-85.46
X183.66Y-88.0
X183.66Y-90.54
X183.66Y-93.08
X183.66Y-95.62
X183.66Y-98.16
X183.66Y-100.7
X183.66Y-103.24
X183.66Y-105.78
X183.66Y-108.32
X183.66Y-110.86
X183.66Y-113.4
X183.66Y-115.94
X183.66Y-118.48
X183.66Y-121.02
X183.66Y-123.56
X183.66Y-126.1
X183.66Y-128.64
X183.66Y-131.18
X183.66Y-133.72
M30
