%TF.GenerationSoftware,KiCad,Pcbnew,10.0.4*%
%TF.CreationDate,2026-08-13T15:50:01+01:00*%
%TF.ProjectId,Sensors,53656e73-6f72-4732-9e6b-696361645f70,rev?*%
%TF.SameCoordinates,Original*%
%TF.FileFunction,Copper,L4,Bot*%
%TF.FilePolarity,Positive*%
%FSLAX46Y46*%
G04 Gerber Fmt 4.6, Leading zero omitted, Abs format (unit mm)*
G04 Created by KiCad (PCBNEW 10.0.4) date 2026-08-13 15:50:01*
%MOMM*%
%LPD*%
G01*
G04 APERTURE LIST*
%TA.AperFunction,ComponentPad*%
%ADD10R,1.700000X1.700000*%
%TD*%
%TA.AperFunction,ComponentPad*%
%ADD11C,1.700000*%
%TD*%
%TA.AperFunction,ComponentPad*%
%ADD12C,1.600000*%
%TD*%
%TA.AperFunction,ComponentPad*%
%ADD13R,1.778000X1.778000*%
%TD*%
%TA.AperFunction,ComponentPad*%
%ADD14C,1.778000*%
%TD*%
%TA.AperFunction,ComponentPad*%
%ADD15C,3.200000*%
%TD*%
%TA.AperFunction,ComponentPad*%
%ADD16C,1.930400*%
%TD*%
%TA.AperFunction,ComponentPad*%
%ADD17C,4.000000*%
%TD*%
%TA.AperFunction,ViaPad*%
%ADD18C,0.600000*%
%TD*%
%TA.AperFunction,Conductor*%
%ADD19C,0.200000*%
%TD*%
G04 APERTURE END LIST*
D10*
%TO.P,D1,1,K_1*%
%TO.N,Net-(D1-K)*%
X119500000Y-139000000D03*
D11*
%TO.P,D1,2,A_2*%
%TO.N,GND*%
X116960000Y-139000000D03*
%TD*%
D12*
%TO.P,C2,1*%
%TO.N,BPW34_OUT*%
X95560000Y-133000000D03*
%TO.P,C2,2*%
%TO.N,Net-(D2-K)*%
X98060000Y-133000000D03*
%TD*%
%TO.P,R3,1*%
%TO.N,Net-(D1-K)*%
X121405000Y-128910000D03*
%TO.P,R3,2*%
%TO.N,S1223*%
X113785000Y-128910000D03*
%TD*%
%TO.P,R4,1*%
%TO.N,Net-(D2-K)*%
X100310000Y-128500000D03*
%TO.P,R4,2*%
%TO.N,BPW34_OUT*%
X92690000Y-128500000D03*
%TD*%
D10*
%TO.P,J2,1,Pin_1_1*%
%TO.N,GND*%
X155225000Y-68020000D03*
D11*
%TO.P,J2,2,Pin_2_2*%
X157765000Y-68020000D03*
%TO.P,J2,3,Pin_3_3*%
X155225000Y-70560000D03*
%TO.P,J2,4,Pin_4_4*%
X157765000Y-70560000D03*
%TO.P,J2,5,Pin_5_5*%
%TO.N,3V3*%
X155225000Y-73100000D03*
%TO.P,J2,6,Pin_6_6*%
X157765000Y-73100000D03*
%TO.P,J2,7,Pin_7_7*%
X155225000Y-75640000D03*
%TO.P,J2,8,Pin_8_8*%
X157765000Y-75640000D03*
%TO.P,J2,9,Pin_9_9*%
%TO.N,5V*%
X155225000Y-78180000D03*
%TO.P,J2,10,Pin_10_10*%
X157765000Y-78180000D03*
%TO.P,J2,11,Pin_11_11*%
X155225000Y-80720000D03*
%TO.P,J2,12,Pin_12_12*%
X157765000Y-80720000D03*
%TO.P,J2,13,Pin_13_13*%
%TO.N,14.8V*%
X155225000Y-83260000D03*
%TO.P,J2,14,Pin_14_14*%
X157765000Y-83260000D03*
%TO.P,J2,15,Pin_15_15*%
X155225000Y-85800000D03*
%TO.P,J2,16,Pin_16_16*%
X157765000Y-85800000D03*
%TO.P,J2,17,Pin_17_17*%
%TO.N,28V*%
X155225000Y-88340000D03*
%TO.P,J2,18,Pin_18_18*%
X157765000Y-88340000D03*
%TO.P,J2,19,Pin_19_19*%
X155225000Y-90880000D03*
%TO.P,J2,20,Pin_20_20*%
X157765000Y-90880000D03*
%TO.P,J2,21,Pin_21_21*%
%TO.N,VBAT*%
X155225000Y-93420000D03*
%TO.P,J2,22,Pin_22_22*%
X157765000Y-93420000D03*
%TO.P,J2,23,Pin_23_23*%
%TO.N,SCL*%
X155225000Y-95960000D03*
%TO.P,J2,24,Pin_24_24*%
%TO.N,XB_RESET*%
X157765000Y-95960000D03*
%TO.P,J2,25,Pin_25_25*%
%TO.N,SDA*%
X155225000Y-98500000D03*
%TO.P,J2,26,Pin_26_26*%
%TO.N,BNO_INT*%
X157765000Y-98500000D03*
%TO.P,J2,27,Pin_27_27*%
%TO.N,INA_ALERT*%
X155225000Y-101040000D03*
%TO.P,J2,28,Pin_28_28*%
%TO.N,MICROFC*%
X157765000Y-101040000D03*
%TO.P,J2,29,Pin_29_29*%
%TO.N,S1223*%
X155225000Y-103580000D03*
%TO.P,J2,30,Pin_30_30*%
%TO.N,BNO_RST*%
X157765000Y-103580000D03*
%TO.P,J2,31,Pin_31_31*%
%TO.N,unconnected-(J2-Pin_31-Pad31)*%
X155225000Y-106120000D03*
%TO.P,J2,32,Pin_32_32*%
%TO.N,unconnected-(J2-Pin_32-Pad32)*%
X157765000Y-106120000D03*
%TO.P,J2,33,Pin_33_33*%
%TO.N,unconnected-(J2-Pin_33-Pad33)*%
X155225000Y-108660000D03*
%TO.P,J2,34,Pin_34_34*%
%TO.N,unconnected-(J2-Pin_34-Pad34)*%
X157765000Y-108660000D03*
%TO.P,J2,35,Pin_35_35*%
%TO.N,unconnected-(J2-Pin_35-Pad35)*%
X155225000Y-111200000D03*
%TO.P,J2,36,Pin_36_36*%
%TO.N,unconnected-(J2-Pin_36-Pad36)*%
X157765000Y-111200000D03*
%TO.P,J2,37,Pin_37_37*%
%TO.N,unconnected-(J2-Pin_37-Pad37)*%
X155225000Y-113740000D03*
%TO.P,J2,38,Pin_38_38*%
%TO.N,unconnected-(J2-Pin_38-Pad38)*%
X157765000Y-113740000D03*
%TO.P,J2,39,Pin_39_39*%
%TO.N,BPW34_OUT*%
X155225000Y-116280000D03*
%TO.P,J2,40,Pin_40_40*%
%TO.N,GNSS_PPS*%
X157765000Y-116280000D03*
%TO.P,J2,41,Pin_41_41*%
%TO.N,GNSS_FIX*%
X155225000Y-118820000D03*
%TO.P,J2,42,Pin_42_42*%
%TO.N,GNSS_EN*%
X157765000Y-118820000D03*
%TO.P,J2,43,Pin_43_43*%
%TO.N,RX2*%
X155225000Y-121360000D03*
%TO.P,J2,44,Pin_44_44*%
%TO.N,RX1*%
X157765000Y-121360000D03*
%TO.P,J2,45,Pin_45_45*%
%TO.N,TX2*%
X155225000Y-123900000D03*
%TO.P,J2,46,Pin_46_46*%
%TO.N,TX1*%
X157765000Y-123900000D03*
%TO.P,J2,47,Pin_47_47*%
%TO.N,GND*%
X155225000Y-126440000D03*
%TO.P,J2,48,Pin_48_48*%
X157765000Y-126440000D03*
%TO.P,J2,49,Pin_49_49*%
X155225000Y-128980000D03*
%TO.P,J2,50,Pin_50_50*%
X157765000Y-128980000D03*
%TD*%
D12*
%TO.P,R1,1*%
%TO.N,+3V3*%
X106310000Y-93500000D03*
%TO.P,R1,2*%
%TO.N,GNSS_EN*%
X98690000Y-93500000D03*
%TD*%
%TO.P,R2,1*%
%TO.N,+3V3*%
X128380000Y-80500000D03*
%TO.P,R2,2*%
%TO.N,BNO_RST*%
X136000000Y-80500000D03*
%TD*%
%TO.P,C1,1*%
%TO.N,S1223*%
X116595000Y-132910000D03*
%TO.P,C1,2*%
%TO.N,Net-(D1-K)*%
X119095000Y-132910000D03*
%TD*%
D10*
%TO.P,J1,1,Pin_1_1*%
%TO.N,GND*%
X76460000Y-68060000D03*
D11*
%TO.P,J1,2,Pin_2_2*%
X79000000Y-68060000D03*
%TO.P,J1,3,Pin_3_3*%
X76460000Y-70600000D03*
%TO.P,J1,4,Pin_4_4*%
X79000000Y-70600000D03*
%TO.P,J1,5,Pin_5_5*%
%TO.N,3V3*%
X76460000Y-73140000D03*
%TO.P,J1,6,Pin_6_6*%
X79000000Y-73140000D03*
%TO.P,J1,7,Pin_7_7*%
X76460000Y-75680000D03*
%TO.P,J1,8,Pin_8_8*%
X79000000Y-75680000D03*
%TO.P,J1,9,Pin_9_9*%
%TO.N,5V*%
X76460000Y-78220000D03*
%TO.P,J1,10,Pin_10_10*%
X79000000Y-78220000D03*
%TO.P,J1,11,Pin_11_11*%
X76460000Y-80760000D03*
%TO.P,J1,12,Pin_12_12*%
X79000000Y-80760000D03*
%TO.P,J1,13,Pin_13_13*%
%TO.N,14.8V*%
X76460000Y-83300000D03*
%TO.P,J1,14,Pin_14_14*%
X79000000Y-83300000D03*
%TO.P,J1,15,Pin_15_15*%
X76460000Y-85840000D03*
%TO.P,J1,16,Pin_16_16*%
X79000000Y-85840000D03*
%TO.P,J1,17,Pin_17_17*%
%TO.N,28V*%
X76460000Y-88380000D03*
%TO.P,J1,18,Pin_18_18*%
X79000000Y-88380000D03*
%TO.P,J1,19,Pin_19_19*%
X76460000Y-90920000D03*
%TO.P,J1,20,Pin_20_20*%
X79000000Y-90920000D03*
%TO.P,J1,21,Pin_21_21*%
%TO.N,VBAT*%
X76460000Y-93460000D03*
%TO.P,J1,22,Pin_22_22*%
X79000000Y-93460000D03*
%TO.P,J1,23,Pin_23_23*%
%TO.N,SCL*%
X76460000Y-96000000D03*
%TO.P,J1,24,Pin_24_24*%
%TO.N,XB_RESET*%
X79000000Y-96000000D03*
%TO.P,J1,25,Pin_25_25*%
%TO.N,SDA*%
X76460000Y-98540000D03*
%TO.P,J1,26,Pin_26_26*%
%TO.N,BNO_INT*%
X79000000Y-98540000D03*
%TO.P,J1,27,Pin_27_27*%
%TO.N,INA_ALERT*%
X76460000Y-101080000D03*
%TO.P,J1,28,Pin_28_28*%
%TO.N,MICROFC*%
X79000000Y-101080000D03*
%TO.P,J1,29,Pin_29_29*%
%TO.N,S1223*%
X76460000Y-103620000D03*
%TO.P,J1,30,Pin_30_30*%
%TO.N,BNO_RST*%
X79000000Y-103620000D03*
%TO.P,J1,31,Pin_31_31*%
%TO.N,unconnected-(J1-Pin_31-Pad31)*%
X76460000Y-106160000D03*
%TO.P,J1,32,Pin_32_32*%
%TO.N,unconnected-(J1-Pin_32-Pad32)*%
X79000000Y-106160000D03*
%TO.P,J1,33,Pin_33_33*%
%TO.N,unconnected-(J1-Pin_33-Pad33)*%
X76460000Y-108700000D03*
%TO.P,J1,34,Pin_34_34*%
%TO.N,unconnected-(J1-Pin_34-Pad34)*%
X79000000Y-108700000D03*
%TO.P,J1,35,Pin_35_35*%
%TO.N,unconnected-(J1-Pin_35-Pad35)*%
X76460000Y-111240000D03*
%TO.P,J1,36,Pin_36_36*%
%TO.N,unconnected-(J1-Pin_36-Pad36)*%
X79000000Y-111240000D03*
%TO.P,J1,37,Pin_37_37*%
%TO.N,unconnected-(J1-Pin_37-Pad37)*%
X76460000Y-113780000D03*
%TO.P,J1,38,Pin_38_38*%
%TO.N,unconnected-(J1-Pin_38-Pad38)*%
X79000000Y-113780000D03*
%TO.P,J1,39,Pin_39_39*%
%TO.N,BPW34_OUT*%
X76460000Y-116320000D03*
%TO.P,J1,40,Pin_40_40*%
%TO.N,GNSS_PPS*%
X79000000Y-116320000D03*
%TO.P,J1,41,Pin_41_41*%
%TO.N,GNSS_FIX*%
X76460000Y-118860000D03*
%TO.P,J1,42,Pin_42_42*%
%TO.N,GNSS_EN*%
X79000000Y-118860000D03*
%TO.P,J1,43,Pin_43_43*%
%TO.N,RX2*%
X76460000Y-121400000D03*
%TO.P,J1,44,Pin_44_44*%
%TO.N,RX1*%
X79000000Y-121400000D03*
%TO.P,J1,45,Pin_45_45*%
%TO.N,TX2*%
X76460000Y-123940000D03*
%TO.P,J1,46,Pin_46_46*%
%TO.N,TX1*%
X79000000Y-123940000D03*
%TO.P,J1,47,Pin_47_47*%
%TO.N,GND*%
X76460000Y-126480000D03*
%TO.P,J1,48,Pin_48_48*%
X79000000Y-126480000D03*
%TO.P,J1,49,Pin_49_49*%
X76460000Y-129020000D03*
%TO.P,J1,50,Pin_50_50*%
X79000000Y-129020000D03*
%TD*%
D10*
%TO.P,D2,1,K_1*%
%TO.N,Net-(D2-K)*%
X98275000Y-139115000D03*
D11*
%TO.P,D2,2,A_2*%
%TO.N,GND*%
X95735000Y-139115000D03*
%TD*%
D12*
%TO.P,R5,1*%
%TO.N,28V*%
X143310000Y-90000000D03*
%TO.P,R5,2*%
%TO.N,Net-(J3-VBIAS)*%
X135690000Y-90000000D03*
%TD*%
D10*
%TO.P,J3,1,VBIAS_1*%
%TO.N,Net-(J3-VBIAS)*%
X141775000Y-139000000D03*
D11*
%TO.P,J3,2,SOUT_2*%
%TO.N,Net-(J3-SOUT)*%
X139235000Y-139000000D03*
%TD*%
D13*
%TO.P,U1,1,3.3V_1*%
%TO.N,unconnected-(U1-3.3V-Pad1)*%
X92840000Y-88613000D03*
D14*
%TO.P,U1,2,EN_2*%
%TO.N,GNSS_EN*%
X95380000Y-88613000D03*
%TO.P,U1,3,VBAT_3*%
%TO.N,VBAT*%
X97920000Y-88613000D03*
%TO.P,U1,4,FIX_4*%
%TO.N,GNSS_FIX*%
X100460000Y-88613000D03*
%TO.P,U1,5,TX_5*%
%TO.N,RX1*%
X103000000Y-88613000D03*
%TO.P,U1,6,RX_6*%
%TO.N,TX1*%
X105540000Y-88613000D03*
%TO.P,U1,7,GND_7*%
%TO.N,GND*%
X108080000Y-88613000D03*
%TO.P,U1,8,VIN_8*%
%TO.N,+3V3*%
X110620000Y-88613000D03*
%TO.P,U1,9,PPS_9*%
%TO.N,GNSS_PPS*%
X113160000Y-88613000D03*
D15*
%TO.P,U1,SH1*%
%TO.N,N/C*%
X92840000Y-58895000D03*
%TO.P,U1,SH2*%
X113160000Y-58895000D03*
%TD*%
D12*
%TO.P,C3,1*%
%TO.N,MICROFC*%
X141250000Y-134000000D03*
%TO.P,C3,2*%
%TO.N,Net-(J3-SOUT)*%
X138750000Y-134000000D03*
%TD*%
%TO.P,R6,1*%
%TO.N,Net-(J3-SOUT)*%
X136190000Y-130500000D03*
%TO.P,R6,2*%
%TO.N,MICROFC*%
X143810000Y-130500000D03*
%TD*%
D16*
%TO.P,U2,1,VIN_1*%
%TO.N,+3V3*%
X126150000Y-76390000D03*
%TO.P,U2,2,3VO_2*%
%TO.N,unconnected-(U2-3VO-Pad2)*%
X128690000Y-76390000D03*
%TO.P,U2,3,GND_3*%
%TO.N,GND*%
X131230000Y-76390000D03*
%TO.P,U2,4,SDA_4*%
%TO.N,SDA*%
X133770000Y-76390000D03*
%TO.P,U2,5,SCL_5*%
%TO.N,SCL*%
X136310000Y-76390000D03*
%TO.P,U2,6,RST_6*%
%TO.N,BNO_RST*%
X138850000Y-76390000D03*
%TO.P,U2,7,ADR_7*%
%TO.N,GND*%
X136310000Y-58610000D03*
%TO.P,U2,8,INT_8*%
%TO.N,BNO_INT*%
X133770000Y-58610000D03*
%TO.P,U2,9,PS1_9*%
%TO.N,GND*%
X131230000Y-58610000D03*
%TO.P,U2,10,PS0_10*%
X128690000Y-58610000D03*
D17*
%TO.P,U2,SH1*%
%TO.N,N/C*%
X121705000Y-75120000D03*
%TO.P,U2,SH2*%
X143295000Y-75120000D03*
%TO.P,U2,SH3*%
X143295000Y-59880000D03*
%TO.P,U2,SH4*%
X121705000Y-59880000D03*
%TD*%
D18*
%TO.N,S1223*%
X112000000Y-122500000D03*
X127000000Y-113500000D03*
%TO.N,Net-(D1-K)*%
X122500000Y-123365000D03*
%TO.N,Net-(D2-K)*%
X105000000Y-122730000D03*
%TO.N,BPW34_OUT*%
X86500000Y-119000000D03*
%TO.N,MICROFC*%
X140135000Y-124635000D03*
X92000000Y-104400000D03*
%TO.N,GND*%
X105051001Y-114500000D03*
X118000000Y-122000000D03*
X90000000Y-127000000D03*
X97500000Y-122000000D03*
X144500000Y-128000000D03*
X127000000Y-121000000D03*
X132500000Y-125000000D03*
X142500000Y-128000000D03*
%TO.N,SDA*%
X110000000Y-83500000D03*
X144000000Y-86000000D03*
X147000000Y-89000000D03*
%TO.N,GNSS_FIX*%
X148500000Y-116500000D03*
X134500000Y-106000000D03*
%TO.N,TX1*%
X115500000Y-98500000D03*
X147000000Y-120000000D03*
%TO.N,BNO_RST*%
X148500000Y-95000000D03*
X148500000Y-90600000D03*
X148500000Y-89000000D03*
X148500000Y-86824000D03*
%TO.N,RX1*%
X135090000Y-103500000D03*
X150363235Y-117363235D03*
%TO.N,GNSS_PPS*%
X107000000Y-111500000D03*
X152500000Y-114500000D03*
%TO.N,Net-(J3-SOUT)*%
X134500000Y-123365000D03*
%TD*%
%TO.N,S1223*%
D19*
X113785000Y-130100000D02*
X116595000Y-132910000D01*
X112000000Y-127500000D02*
X113410000Y-128910000D01*
X113785000Y-128910000D02*
X113785000Y-130100000D01*
X113410000Y-128910000D02*
X113785000Y-128910000D01*
X112000000Y-122500000D02*
X112000000Y-127500000D01*
%TO.N,Net-(D1-K)*%
X119095000Y-131220000D02*
X121405000Y-128910000D01*
X122500000Y-127815000D02*
X122500000Y-123365000D01*
X121405000Y-128910000D02*
X122500000Y-127815000D01*
X119095000Y-132910000D02*
X119095000Y-131220000D01*
%TO.N,Net-(D2-K)*%
X105000000Y-123810000D02*
X105000000Y-122730000D01*
X100310000Y-128500000D02*
X105000000Y-123810000D01*
%TO.N,BPW34_OUT*%
X86500000Y-119000000D02*
X84970000Y-117470000D01*
X77610000Y-117470000D02*
X76460000Y-116320000D01*
X84970000Y-117470000D02*
X77610000Y-117470000D01*
%TO.N,MICROFC*%
X140135000Y-124635000D02*
X121900000Y-106400000D01*
X121900000Y-106400000D02*
X94000000Y-106400000D01*
X94000000Y-106400000D02*
X92000000Y-104400000D01*
%TO.N,GND*%
X110500000Y-114500000D02*
X118000000Y-122000000D01*
X117810000Y-122190000D02*
X118000000Y-122000000D01*
X117810000Y-138150000D02*
X117810000Y-122190000D01*
X105051001Y-114500000D02*
X110500000Y-114500000D01*
X144500000Y-128000000D02*
X142500000Y-128000000D01*
X116960000Y-139000000D02*
X117810000Y-138150000D01*
X92500000Y-127000000D02*
X97500000Y-122000000D01*
X131000000Y-125000000D02*
X132500000Y-125000000D01*
X127000000Y-121000000D02*
X131000000Y-125000000D01*
X90000000Y-127000000D02*
X92500000Y-127000000D01*
%TO.N,SDA*%
X110000000Y-83500000D02*
X106476000Y-87024000D01*
X143380000Y-86000000D02*
X144000000Y-86000000D01*
X77610000Y-99690000D02*
X76460000Y-98540000D01*
X79476346Y-99690000D02*
X77610000Y-99690000D01*
X106476000Y-87024000D02*
X92142346Y-87024000D01*
X147000000Y-90275000D02*
X155225000Y-98500000D01*
X92142346Y-87024000D02*
X79476346Y-99690000D01*
X147000000Y-89000000D02*
X147000000Y-90275000D01*
X133770000Y-76390000D02*
X143380000Y-86000000D01*
%TO.N,BNO_INT*%
X93000000Y-84500000D02*
X91000000Y-86500000D01*
X91000000Y-86500000D02*
X91000000Y-86540000D01*
X107880000Y-84500000D02*
X93000000Y-84500000D01*
X133770000Y-58610000D02*
X107880000Y-84500000D01*
X91000000Y-86540000D02*
X79000000Y-98540000D01*
%TO.N,GNSS_FIX*%
X152905000Y-116500000D02*
X155225000Y-118820000D01*
X100460000Y-94186346D02*
X100073173Y-94573173D01*
X75983654Y-115170000D02*
X75310000Y-115843654D01*
X148500000Y-116500000D02*
X152905000Y-116500000D01*
X100460000Y-88613000D02*
X100460000Y-94000000D01*
X100073173Y-94573173D02*
X111500000Y-106000000D01*
X100460000Y-88613000D02*
X100460000Y-94186346D01*
X75310000Y-117710000D02*
X76460000Y-118860000D01*
X75310000Y-115843654D02*
X75310000Y-117710000D01*
X111500000Y-106000000D02*
X134500000Y-106000000D01*
X79476346Y-115170000D02*
X75983654Y-115170000D01*
X100073173Y-94573173D02*
X79476346Y-115170000D01*
%TO.N,TX1*%
X115427000Y-98500000D02*
X115500000Y-98500000D01*
X156375000Y-122510000D02*
X157765000Y-123900000D01*
X147000000Y-120000000D02*
X149510000Y-122510000D01*
X149510000Y-122510000D02*
X156375000Y-122510000D01*
X105540000Y-88613000D02*
X115427000Y-98500000D01*
%TO.N,VBAT*%
X97920000Y-88613000D02*
X99109000Y-87424000D01*
X99109000Y-87424000D02*
X149229000Y-87424000D01*
X149229000Y-87424000D02*
X155225000Y-93420000D01*
%TO.N,BNO_RST*%
X154748654Y-102190000D02*
X156375000Y-102190000D01*
X148500000Y-95941346D02*
X154748654Y-102190000D01*
X148500000Y-86040000D02*
X148500000Y-86824000D01*
X156375000Y-102190000D02*
X157765000Y-103580000D01*
X138850000Y-76390000D02*
X148500000Y-86040000D01*
X148500000Y-95000000D02*
X148500000Y-95941346D01*
X148500000Y-89000000D02*
X148500000Y-90600000D01*
%TO.N,RX1*%
X156405000Y-120000000D02*
X157765000Y-121360000D01*
X117887000Y-103500000D02*
X135090000Y-103500000D01*
X103000000Y-88613000D02*
X117887000Y-103500000D01*
X150363235Y-117363235D02*
X153000000Y-120000000D01*
X153000000Y-120000000D02*
X156405000Y-120000000D01*
%TO.N,GNSS_PPS*%
X153000000Y-115000000D02*
X156485000Y-115000000D01*
X152500000Y-114500000D02*
X153000000Y-115000000D01*
X156485000Y-115000000D02*
X157765000Y-116280000D01*
X107000000Y-111500000D02*
X83820000Y-111500000D01*
X83820000Y-111500000D02*
X79000000Y-116320000D01*
%TO.N,Net-(J3-SOUT)*%
X134500000Y-123365000D02*
X134500000Y-129500000D01*
X135500000Y-130500000D02*
X136190000Y-130500000D01*
X134500000Y-129500000D02*
X135500000Y-130500000D01*
%TO.N,Net-(J3-VBIAS)*%
X148500000Y-132275000D02*
X141775000Y-139000000D01*
X135690000Y-112690000D02*
X148500000Y-125500000D01*
X135690000Y-90000000D02*
X135690000Y-112690000D01*
X148500000Y-125500000D02*
X148500000Y-132275000D01*
%TD*%
M02*
