M48
; DRILL file KiCad 10.0.4 date 2026-08-13T15:49:55
; FORMAT={-:-/ absolute / metric / decimal}
; #@! TF.CreationDate,2026-08-13T15:49:55+01:00
; #@! TF.GenerationSoftware,Kicad,Pcbnew,10.0.4
; #@! TF.FileFunction,Plated,1,4,PTH
FMAT,2
METRIC
; #@! TA.AperFunction,Plated,PTH,ViaDrill
T1C0.300
; #@! TA.AperFunction,Plated,PTH,ComponentDrill
T2C0.800
; #@! TA.AperFunction,Plated,PTH,ComponentDrill
T3C1.000
; #@! TA.AperFunction,Plated,PTH,ComponentDrill
T4C2.500
%
G90
G05
T1
X86.5Y-119.0
X90.0Y-127.0
X92.0Y-104.4
X97.5Y-122.0
X105.0Y-122.73
X105.051Y-114.5
X107.0Y-111.5
X110.0Y-83.5
X112.0Y-122.5
X115.5Y-98.5
X118.0Y-122.0
X122.5Y-123.365
X127.0Y-113.5
X127.0Y-121.0
X132.5Y-125.0
X134.5Y-106.0
X134.5Y-123.365
X135.09Y-103.5
X140.135Y-124.635
X142.5Y-128.0
X144.0Y-86.0
X144.5Y-128.0
X147.0Y-89.0
X147.0Y-120.0
X148.5Y-86.824
X148.5Y-89.0
X148.5Y-90.6
X148.5Y-95.0
X148.5Y-116.5
X150.363Y-117.363
X152.5Y-114.5
T2
X92.69Y-128.5
X95.56Y-133.0
X98.06Y-133.0
X98.69Y-93.5
X100.31Y-128.5
X106.31Y-93.5
X113.785Y-128.91
X116.595Y-132.91
X119.095Y-132.91
X121.405Y-128.91
X128.38Y-80.5
X135.69Y-90.0
X136.0Y-80.5
X136.19Y-130.5
X138.75Y-134.0
X141.25Y-134.0
X143.31Y-90.0
X143.81Y-130.5
T3
X76.46Y-68.06
X76.46Y-70.6
X76.46Y-73.14
X76.46Y-75.68
X76.46Y-78.22
X76.46Y-80.76
X76.46Y-83.3
X76.46Y-85.84
X76.46Y-88.38
X76.46Y-90.92
X76.46Y-93.46
X76.46Y-96.0
X76.46Y-98.54
X76.46Y-101.08
X76.46Y-103.62
X76.46Y-106.16
X76.46Y-108.7
X76.46Y-111.24
X76.46Y-113.78
X76.46Y-116.32
X76.46Y-118.86
X76.46Y-121.4
X76.46Y-123.94
X76.46Y-126.48
X76.46Y-129.02
X79.0Y-68.06
X79.0Y-70.6
X79.0Y-73.14
X79.0Y-75.68
X79.0Y-78.22
X79.0Y-80.76
X79.0Y-83.3
X79.0Y-85.84
X79.0Y-88.38
X79.0Y-90.92
X79.0Y-93.46
X79.0Y-96.0
X79.0Y-98.54
X79.0Y-101.08
X79.0Y-103.62
X79.0Y-106.16
X79.0Y-108.7
X79.0Y-111.24
X79.0Y-113.78
X79.0Y-116.32
X79.0Y-118.86
X79.0Y-121.4
X79.0Y-123.94
X79.0Y-126.48
X79.0Y-129.02
X92.84Y-88.613
X95.38Y-88.613
X95.735Y-139.115
X97.92Y-88.613
X98.275Y-139.115
X100.46Y-88.613
X103.0Y-88.613
X105.54Y-88.613
X108.08Y-88.613
X110.62Y-88.613
X113.16Y-88.613
X116.96Y-139.0
X119.5Y-139.0
X126.15Y-76.39
X128.69Y-58.61
X128.69Y-76.39
X131.23Y-58.61
X131.23Y-76.39
X133.77Y-58.61
X133.77Y-76.39
X136.31Y-58.61
X136.31Y-76.39
X138.85Y-76.39
X139.235Y-139.0
X141.775Y-139.0
X155.225Y-68.02
X155.225Y-70.56
X155.225Y-73.1
X155.225Y-75.64
X155.225Y-78.18
X155.225Y-80.72
X155.225Y-83.26
X155.225Y-85.8
X155.225Y-88.34
X155.225Y-90.88
X155.225Y-93.42
X155.225Y-95.96
X155.225Y-98.5
X155.225Y-101.04
X155.225Y-103.58
X155.225Y-106.12
X155.225Y-108.66
X155.225Y-111.2
X155.225Y-113.74
X155.225Y-116.28
X155.225Y-118.82
X155.225Y-121.36
X155.225Y-123.9
X155.225Y-126.44
X155.225Y-128.98
X157.765Y-68.02
X157.765Y-70.56
X157.765Y-73.1
X157.765Y-75.64
X157.765Y-78.18
X157.765Y-80.72
X157.765Y-83.26
X157.765Y-85.8
X157.765Y-88.34
X157.765Y-90.88
X157.765Y-93.42
X157.765Y-95.96
X157.765Y-98.5
X157.765Y-101.04
X157.765Y-103.58
X157.765Y-106.12
X157.765Y-108.66
X157.765Y-111.2
X157.765Y-113.74
X157.765Y-116.28
X157.765Y-118.82
X157.765Y-121.36
X157.765Y-123.9
X157.765Y-126.44
X157.765Y-128.98
T4
X92.84Y-58.895
X113.16Y-58.895
X121.705Y-59.88
X121.705Y-75.12
X143.295Y-59.88
X143.295Y-75.12
M30
