%TF.GenerationSoftware,KiCad,Pcbnew,10.0.4*%
%TF.CreationDate,2026-08-13T15:50:01+01:00*%
%TF.ProjectId,Sensors,53656e73-6f72-4732-9e6b-696361645f70,rev?*%
%TF.SameCoordinates,Original*%
%TF.FileFunction,Legend,Top*%
%TF.FilePolarity,Positive*%
%FSLAX46Y46*%
G04 Gerber Fmt 4.6, Leading zero omitted, Abs format (unit mm)*
G04 Created by KiCad (PCBNEW 10.0.4) date 2026-08-13 15:50:01*
%MOMM*%
%LPD*%
G01*
G04 APERTURE LIST*
%ADD10C,0.150000*%
%ADD11C,0.120000*%
%ADD12C,0.127000*%
%ADD13C,0.200000*%
G04 APERTURE END LIST*
D10*
X122334819Y-139738094D02*
X121334819Y-139738094D01*
X121334819Y-139738094D02*
X121334819Y-139499999D01*
X121334819Y-139499999D02*
X121382438Y-139357142D01*
X121382438Y-139357142D02*
X121477676Y-139261904D01*
X121477676Y-139261904D02*
X121572914Y-139214285D01*
X121572914Y-139214285D02*
X121763390Y-139166666D01*
X121763390Y-139166666D02*
X121906247Y-139166666D01*
X121906247Y-139166666D02*
X122096723Y-139214285D01*
X122096723Y-139214285D02*
X122191961Y-139261904D01*
X122191961Y-139261904D02*
X122287200Y-139357142D01*
X122287200Y-139357142D02*
X122334819Y-139499999D01*
X122334819Y-139499999D02*
X122334819Y-139738094D01*
X122334819Y-138214285D02*
X122334819Y-138785713D01*
X122334819Y-138499999D02*
X121334819Y-138499999D01*
X121334819Y-138499999D02*
X121477676Y-138595237D01*
X121477676Y-138595237D02*
X121572914Y-138690475D01*
X121572914Y-138690475D02*
X121620533Y-138785713D01*
X96643333Y-134859580D02*
X96595714Y-134907200D01*
X96595714Y-134907200D02*
X96452857Y-134954819D01*
X96452857Y-134954819D02*
X96357619Y-134954819D01*
X96357619Y-134954819D02*
X96214762Y-134907200D01*
X96214762Y-134907200D02*
X96119524Y-134811961D01*
X96119524Y-134811961D02*
X96071905Y-134716723D01*
X96071905Y-134716723D02*
X96024286Y-134526247D01*
X96024286Y-134526247D02*
X96024286Y-134383390D01*
X96024286Y-134383390D02*
X96071905Y-134192914D01*
X96071905Y-134192914D02*
X96119524Y-134097676D01*
X96119524Y-134097676D02*
X96214762Y-134002438D01*
X96214762Y-134002438D02*
X96357619Y-133954819D01*
X96357619Y-133954819D02*
X96452857Y-133954819D01*
X96452857Y-133954819D02*
X96595714Y-134002438D01*
X96595714Y-134002438D02*
X96643333Y-134050057D01*
X97024286Y-134050057D02*
X97071905Y-134002438D01*
X97071905Y-134002438D02*
X97167143Y-133954819D01*
X97167143Y-133954819D02*
X97405238Y-133954819D01*
X97405238Y-133954819D02*
X97500476Y-134002438D01*
X97500476Y-134002438D02*
X97548095Y-134050057D01*
X97548095Y-134050057D02*
X97595714Y-134145295D01*
X97595714Y-134145295D02*
X97595714Y-134240533D01*
X97595714Y-134240533D02*
X97548095Y-134383390D01*
X97548095Y-134383390D02*
X96976667Y-134954819D01*
X96976667Y-134954819D02*
X97595714Y-134954819D01*
X117428333Y-129364819D02*
X117095000Y-128888628D01*
X116856905Y-129364819D02*
X116856905Y-128364819D01*
X116856905Y-128364819D02*
X117237857Y-128364819D01*
X117237857Y-128364819D02*
X117333095Y-128412438D01*
X117333095Y-128412438D02*
X117380714Y-128460057D01*
X117380714Y-128460057D02*
X117428333Y-128555295D01*
X117428333Y-128555295D02*
X117428333Y-128698152D01*
X117428333Y-128698152D02*
X117380714Y-128793390D01*
X117380714Y-128793390D02*
X117333095Y-128841009D01*
X117333095Y-128841009D02*
X117237857Y-128888628D01*
X117237857Y-128888628D02*
X116856905Y-128888628D01*
X117761667Y-128364819D02*
X118380714Y-128364819D01*
X118380714Y-128364819D02*
X118047381Y-128745771D01*
X118047381Y-128745771D02*
X118190238Y-128745771D01*
X118190238Y-128745771D02*
X118285476Y-128793390D01*
X118285476Y-128793390D02*
X118333095Y-128841009D01*
X118333095Y-128841009D02*
X118380714Y-128936247D01*
X118380714Y-128936247D02*
X118380714Y-129174342D01*
X118380714Y-129174342D02*
X118333095Y-129269580D01*
X118333095Y-129269580D02*
X118285476Y-129317200D01*
X118285476Y-129317200D02*
X118190238Y-129364819D01*
X118190238Y-129364819D02*
X117904524Y-129364819D01*
X117904524Y-129364819D02*
X117809286Y-129317200D01*
X117809286Y-129317200D02*
X117761667Y-129269580D01*
X96333333Y-128954819D02*
X96000000Y-128478628D01*
X95761905Y-128954819D02*
X95761905Y-127954819D01*
X95761905Y-127954819D02*
X96142857Y-127954819D01*
X96142857Y-127954819D02*
X96238095Y-128002438D01*
X96238095Y-128002438D02*
X96285714Y-128050057D01*
X96285714Y-128050057D02*
X96333333Y-128145295D01*
X96333333Y-128145295D02*
X96333333Y-128288152D01*
X96333333Y-128288152D02*
X96285714Y-128383390D01*
X96285714Y-128383390D02*
X96238095Y-128431009D01*
X96238095Y-128431009D02*
X96142857Y-128478628D01*
X96142857Y-128478628D02*
X95761905Y-128478628D01*
X97190476Y-128288152D02*
X97190476Y-128954819D01*
X96952381Y-127907200D02*
X96714286Y-128621485D01*
X96714286Y-128621485D02*
X97333333Y-128621485D01*
X156161666Y-65094819D02*
X156161666Y-65809104D01*
X156161666Y-65809104D02*
X156114047Y-65951961D01*
X156114047Y-65951961D02*
X156018809Y-66047200D01*
X156018809Y-66047200D02*
X155875952Y-66094819D01*
X155875952Y-66094819D02*
X155780714Y-66094819D01*
X156590238Y-65190057D02*
X156637857Y-65142438D01*
X156637857Y-65142438D02*
X156733095Y-65094819D01*
X156733095Y-65094819D02*
X156971190Y-65094819D01*
X156971190Y-65094819D02*
X157066428Y-65142438D01*
X157066428Y-65142438D02*
X157114047Y-65190057D01*
X157114047Y-65190057D02*
X157161666Y-65285295D01*
X157161666Y-65285295D02*
X157161666Y-65380533D01*
X157161666Y-65380533D02*
X157114047Y-65523390D01*
X157114047Y-65523390D02*
X156542619Y-66094819D01*
X156542619Y-66094819D02*
X157161666Y-66094819D01*
X102333333Y-96324819D02*
X102000000Y-95848628D01*
X101761905Y-96324819D02*
X101761905Y-95324819D01*
X101761905Y-95324819D02*
X102142857Y-95324819D01*
X102142857Y-95324819D02*
X102238095Y-95372438D01*
X102238095Y-95372438D02*
X102285714Y-95420057D01*
X102285714Y-95420057D02*
X102333333Y-95515295D01*
X102333333Y-95515295D02*
X102333333Y-95658152D01*
X102333333Y-95658152D02*
X102285714Y-95753390D01*
X102285714Y-95753390D02*
X102238095Y-95801009D01*
X102238095Y-95801009D02*
X102142857Y-95848628D01*
X102142857Y-95848628D02*
X101761905Y-95848628D01*
X103285714Y-96324819D02*
X102714286Y-96324819D01*
X103000000Y-96324819D02*
X103000000Y-95324819D01*
X103000000Y-95324819D02*
X102904762Y-95467676D01*
X102904762Y-95467676D02*
X102809524Y-95562914D01*
X102809524Y-95562914D02*
X102714286Y-95610533D01*
X132023333Y-78584819D02*
X131690000Y-78108628D01*
X131451905Y-78584819D02*
X131451905Y-77584819D01*
X131451905Y-77584819D02*
X131832857Y-77584819D01*
X131832857Y-77584819D02*
X131928095Y-77632438D01*
X131928095Y-77632438D02*
X131975714Y-77680057D01*
X131975714Y-77680057D02*
X132023333Y-77775295D01*
X132023333Y-77775295D02*
X132023333Y-77918152D01*
X132023333Y-77918152D02*
X131975714Y-78013390D01*
X131975714Y-78013390D02*
X131928095Y-78061009D01*
X131928095Y-78061009D02*
X131832857Y-78108628D01*
X131832857Y-78108628D02*
X131451905Y-78108628D01*
X132404286Y-77680057D02*
X132451905Y-77632438D01*
X132451905Y-77632438D02*
X132547143Y-77584819D01*
X132547143Y-77584819D02*
X132785238Y-77584819D01*
X132785238Y-77584819D02*
X132880476Y-77632438D01*
X132880476Y-77632438D02*
X132928095Y-77680057D01*
X132928095Y-77680057D02*
X132975714Y-77775295D01*
X132975714Y-77775295D02*
X132975714Y-77870533D01*
X132975714Y-77870533D02*
X132928095Y-78013390D01*
X132928095Y-78013390D02*
X132356667Y-78584819D01*
X132356667Y-78584819D02*
X132975714Y-78584819D01*
X117678333Y-131219580D02*
X117630714Y-131267200D01*
X117630714Y-131267200D02*
X117487857Y-131314819D01*
X117487857Y-131314819D02*
X117392619Y-131314819D01*
X117392619Y-131314819D02*
X117249762Y-131267200D01*
X117249762Y-131267200D02*
X117154524Y-131171961D01*
X117154524Y-131171961D02*
X117106905Y-131076723D01*
X117106905Y-131076723D02*
X117059286Y-130886247D01*
X117059286Y-130886247D02*
X117059286Y-130743390D01*
X117059286Y-130743390D02*
X117106905Y-130552914D01*
X117106905Y-130552914D02*
X117154524Y-130457676D01*
X117154524Y-130457676D02*
X117249762Y-130362438D01*
X117249762Y-130362438D02*
X117392619Y-130314819D01*
X117392619Y-130314819D02*
X117487857Y-130314819D01*
X117487857Y-130314819D02*
X117630714Y-130362438D01*
X117630714Y-130362438D02*
X117678333Y-130410057D01*
X118630714Y-131314819D02*
X118059286Y-131314819D01*
X118345000Y-131314819D02*
X118345000Y-130314819D01*
X118345000Y-130314819D02*
X118249762Y-130457676D01*
X118249762Y-130457676D02*
X118154524Y-130552914D01*
X118154524Y-130552914D02*
X118059286Y-130600533D01*
X116833095Y-125354819D02*
X116833095Y-126164342D01*
X116833095Y-126164342D02*
X116880714Y-126259580D01*
X116880714Y-126259580D02*
X116928333Y-126307200D01*
X116928333Y-126307200D02*
X117023571Y-126354819D01*
X117023571Y-126354819D02*
X117214047Y-126354819D01*
X117214047Y-126354819D02*
X117309285Y-126307200D01*
X117309285Y-126307200D02*
X117356904Y-126259580D01*
X117356904Y-126259580D02*
X117404523Y-126164342D01*
X117404523Y-126164342D02*
X117404523Y-125354819D01*
X117785476Y-125354819D02*
X118404523Y-125354819D01*
X118404523Y-125354819D02*
X118071190Y-125735771D01*
X118071190Y-125735771D02*
X118214047Y-125735771D01*
X118214047Y-125735771D02*
X118309285Y-125783390D01*
X118309285Y-125783390D02*
X118356904Y-125831009D01*
X118356904Y-125831009D02*
X118404523Y-125926247D01*
X118404523Y-125926247D02*
X118404523Y-126164342D01*
X118404523Y-126164342D02*
X118356904Y-126259580D01*
X118356904Y-126259580D02*
X118309285Y-126307200D01*
X118309285Y-126307200D02*
X118214047Y-126354819D01*
X118214047Y-126354819D02*
X117928333Y-126354819D01*
X117928333Y-126354819D02*
X117833095Y-126307200D01*
X117833095Y-126307200D02*
X117785476Y-126259580D01*
X77396666Y-65134819D02*
X77396666Y-65849104D01*
X77396666Y-65849104D02*
X77349047Y-65991961D01*
X77349047Y-65991961D02*
X77253809Y-66087200D01*
X77253809Y-66087200D02*
X77110952Y-66134819D01*
X77110952Y-66134819D02*
X77015714Y-66134819D01*
X78396666Y-66134819D02*
X77825238Y-66134819D01*
X78110952Y-66134819D02*
X78110952Y-65134819D01*
X78110952Y-65134819D02*
X78015714Y-65277676D01*
X78015714Y-65277676D02*
X77920476Y-65372914D01*
X77920476Y-65372914D02*
X77825238Y-65420533D01*
X101109819Y-139853094D02*
X100109819Y-139853094D01*
X100109819Y-139853094D02*
X100109819Y-139614999D01*
X100109819Y-139614999D02*
X100157438Y-139472142D01*
X100157438Y-139472142D02*
X100252676Y-139376904D01*
X100252676Y-139376904D02*
X100347914Y-139329285D01*
X100347914Y-139329285D02*
X100538390Y-139281666D01*
X100538390Y-139281666D02*
X100681247Y-139281666D01*
X100681247Y-139281666D02*
X100871723Y-139329285D01*
X100871723Y-139329285D02*
X100966961Y-139376904D01*
X100966961Y-139376904D02*
X101062200Y-139472142D01*
X101062200Y-139472142D02*
X101109819Y-139614999D01*
X101109819Y-139614999D02*
X101109819Y-139853094D01*
X100205057Y-138900713D02*
X100157438Y-138853094D01*
X100157438Y-138853094D02*
X100109819Y-138757856D01*
X100109819Y-138757856D02*
X100109819Y-138519761D01*
X100109819Y-138519761D02*
X100157438Y-138424523D01*
X100157438Y-138424523D02*
X100205057Y-138376904D01*
X100205057Y-138376904D02*
X100300295Y-138329285D01*
X100300295Y-138329285D02*
X100395533Y-138329285D01*
X100395533Y-138329285D02*
X100538390Y-138376904D01*
X100538390Y-138376904D02*
X101109819Y-138948332D01*
X101109819Y-138948332D02*
X101109819Y-138329285D01*
X139238095Y-120054819D02*
X139238095Y-120864342D01*
X139238095Y-120864342D02*
X139285714Y-120959580D01*
X139285714Y-120959580D02*
X139333333Y-121007200D01*
X139333333Y-121007200D02*
X139428571Y-121054819D01*
X139428571Y-121054819D02*
X139619047Y-121054819D01*
X139619047Y-121054819D02*
X139714285Y-121007200D01*
X139714285Y-121007200D02*
X139761904Y-120959580D01*
X139761904Y-120959580D02*
X139809523Y-120864342D01*
X139809523Y-120864342D02*
X139809523Y-120054819D01*
X140761904Y-120054819D02*
X140285714Y-120054819D01*
X140285714Y-120054819D02*
X140238095Y-120531009D01*
X140238095Y-120531009D02*
X140285714Y-120483390D01*
X140285714Y-120483390D02*
X140380952Y-120435771D01*
X140380952Y-120435771D02*
X140619047Y-120435771D01*
X140619047Y-120435771D02*
X140714285Y-120483390D01*
X140714285Y-120483390D02*
X140761904Y-120531009D01*
X140761904Y-120531009D02*
X140809523Y-120626247D01*
X140809523Y-120626247D02*
X140809523Y-120864342D01*
X140809523Y-120864342D02*
X140761904Y-120959580D01*
X140761904Y-120959580D02*
X140714285Y-121007200D01*
X140714285Y-121007200D02*
X140619047Y-121054819D01*
X140619047Y-121054819D02*
X140380952Y-121054819D01*
X140380952Y-121054819D02*
X140285714Y-121007200D01*
X140285714Y-121007200D02*
X140238095Y-120959580D01*
X139333333Y-92824819D02*
X139000000Y-92348628D01*
X138761905Y-92824819D02*
X138761905Y-91824819D01*
X138761905Y-91824819D02*
X139142857Y-91824819D01*
X139142857Y-91824819D02*
X139238095Y-91872438D01*
X139238095Y-91872438D02*
X139285714Y-91920057D01*
X139285714Y-91920057D02*
X139333333Y-92015295D01*
X139333333Y-92015295D02*
X139333333Y-92158152D01*
X139333333Y-92158152D02*
X139285714Y-92253390D01*
X139285714Y-92253390D02*
X139238095Y-92301009D01*
X139238095Y-92301009D02*
X139142857Y-92348628D01*
X139142857Y-92348628D02*
X138761905Y-92348628D01*
X140238095Y-91824819D02*
X139761905Y-91824819D01*
X139761905Y-91824819D02*
X139714286Y-92301009D01*
X139714286Y-92301009D02*
X139761905Y-92253390D01*
X139761905Y-92253390D02*
X139857143Y-92205771D01*
X139857143Y-92205771D02*
X140095238Y-92205771D01*
X140095238Y-92205771D02*
X140190476Y-92253390D01*
X140190476Y-92253390D02*
X140238095Y-92301009D01*
X140238095Y-92301009D02*
X140285714Y-92396247D01*
X140285714Y-92396247D02*
X140285714Y-92634342D01*
X140285714Y-92634342D02*
X140238095Y-92729580D01*
X140238095Y-92729580D02*
X140190476Y-92777200D01*
X140190476Y-92777200D02*
X140095238Y-92824819D01*
X140095238Y-92824819D02*
X139857143Y-92824819D01*
X139857143Y-92824819D02*
X139761905Y-92777200D01*
X139761905Y-92777200D02*
X139714286Y-92729580D01*
X143609819Y-139333333D02*
X144324104Y-139333333D01*
X144324104Y-139333333D02*
X144466961Y-139380952D01*
X144466961Y-139380952D02*
X144562200Y-139476190D01*
X144562200Y-139476190D02*
X144609819Y-139619047D01*
X144609819Y-139619047D02*
X144609819Y-139714285D01*
X143609819Y-138952380D02*
X143609819Y-138333333D01*
X143609819Y-138333333D02*
X143990771Y-138666666D01*
X143990771Y-138666666D02*
X143990771Y-138523809D01*
X143990771Y-138523809D02*
X144038390Y-138428571D01*
X144038390Y-138428571D02*
X144086009Y-138380952D01*
X144086009Y-138380952D02*
X144181247Y-138333333D01*
X144181247Y-138333333D02*
X144419342Y-138333333D01*
X144419342Y-138333333D02*
X144514580Y-138380952D01*
X144514580Y-138380952D02*
X144562200Y-138428571D01*
X144562200Y-138428571D02*
X144609819Y-138523809D01*
X144609819Y-138523809D02*
X144609819Y-138809523D01*
X144609819Y-138809523D02*
X144562200Y-138904761D01*
X144562200Y-138904761D02*
X144514580Y-138952380D01*
X92463095Y-53924819D02*
X92463095Y-54734342D01*
X92463095Y-54734342D02*
X92510714Y-54829580D01*
X92510714Y-54829580D02*
X92558333Y-54877200D01*
X92558333Y-54877200D02*
X92653571Y-54924819D01*
X92653571Y-54924819D02*
X92844047Y-54924819D01*
X92844047Y-54924819D02*
X92939285Y-54877200D01*
X92939285Y-54877200D02*
X92986904Y-54829580D01*
X92986904Y-54829580D02*
X93034523Y-54734342D01*
X93034523Y-54734342D02*
X93034523Y-53924819D01*
X94034523Y-54924819D02*
X93463095Y-54924819D01*
X93748809Y-54924819D02*
X93748809Y-53924819D01*
X93748809Y-53924819D02*
X93653571Y-54067676D01*
X93653571Y-54067676D02*
X93558333Y-54162914D01*
X93558333Y-54162914D02*
X93463095Y-54210533D01*
X96378095Y-124864819D02*
X96378095Y-125674342D01*
X96378095Y-125674342D02*
X96425714Y-125769580D01*
X96425714Y-125769580D02*
X96473333Y-125817200D01*
X96473333Y-125817200D02*
X96568571Y-125864819D01*
X96568571Y-125864819D02*
X96759047Y-125864819D01*
X96759047Y-125864819D02*
X96854285Y-125817200D01*
X96854285Y-125817200D02*
X96901904Y-125769580D01*
X96901904Y-125769580D02*
X96949523Y-125674342D01*
X96949523Y-125674342D02*
X96949523Y-124864819D01*
X97854285Y-125198152D02*
X97854285Y-125864819D01*
X97616190Y-124817200D02*
X97378095Y-125531485D01*
X97378095Y-125531485D02*
X97997142Y-125531485D01*
X139833333Y-136409580D02*
X139785714Y-136457200D01*
X139785714Y-136457200D02*
X139642857Y-136504819D01*
X139642857Y-136504819D02*
X139547619Y-136504819D01*
X139547619Y-136504819D02*
X139404762Y-136457200D01*
X139404762Y-136457200D02*
X139309524Y-136361961D01*
X139309524Y-136361961D02*
X139261905Y-136266723D01*
X139261905Y-136266723D02*
X139214286Y-136076247D01*
X139214286Y-136076247D02*
X139214286Y-135933390D01*
X139214286Y-135933390D02*
X139261905Y-135742914D01*
X139261905Y-135742914D02*
X139309524Y-135647676D01*
X139309524Y-135647676D02*
X139404762Y-135552438D01*
X139404762Y-135552438D02*
X139547619Y-135504819D01*
X139547619Y-135504819D02*
X139642857Y-135504819D01*
X139642857Y-135504819D02*
X139785714Y-135552438D01*
X139785714Y-135552438D02*
X139833333Y-135600057D01*
X140166667Y-135504819D02*
X140785714Y-135504819D01*
X140785714Y-135504819D02*
X140452381Y-135885771D01*
X140452381Y-135885771D02*
X140595238Y-135885771D01*
X140595238Y-135885771D02*
X140690476Y-135933390D01*
X140690476Y-135933390D02*
X140738095Y-135981009D01*
X140738095Y-135981009D02*
X140785714Y-136076247D01*
X140785714Y-136076247D02*
X140785714Y-136314342D01*
X140785714Y-136314342D02*
X140738095Y-136409580D01*
X140738095Y-136409580D02*
X140690476Y-136457200D01*
X140690476Y-136457200D02*
X140595238Y-136504819D01*
X140595238Y-136504819D02*
X140309524Y-136504819D01*
X140309524Y-136504819D02*
X140214286Y-136457200D01*
X140214286Y-136457200D02*
X140166667Y-136409580D01*
X139833333Y-128584819D02*
X139500000Y-128108628D01*
X139261905Y-128584819D02*
X139261905Y-127584819D01*
X139261905Y-127584819D02*
X139642857Y-127584819D01*
X139642857Y-127584819D02*
X139738095Y-127632438D01*
X139738095Y-127632438D02*
X139785714Y-127680057D01*
X139785714Y-127680057D02*
X139833333Y-127775295D01*
X139833333Y-127775295D02*
X139833333Y-127918152D01*
X139833333Y-127918152D02*
X139785714Y-128013390D01*
X139785714Y-128013390D02*
X139738095Y-128061009D01*
X139738095Y-128061009D02*
X139642857Y-128108628D01*
X139642857Y-128108628D02*
X139261905Y-128108628D01*
X140690476Y-127584819D02*
X140500000Y-127584819D01*
X140500000Y-127584819D02*
X140404762Y-127632438D01*
X140404762Y-127632438D02*
X140357143Y-127680057D01*
X140357143Y-127680057D02*
X140261905Y-127822914D01*
X140261905Y-127822914D02*
X140214286Y-128013390D01*
X140214286Y-128013390D02*
X140214286Y-128394342D01*
X140214286Y-128394342D02*
X140261905Y-128489580D01*
X140261905Y-128489580D02*
X140309524Y-128537200D01*
X140309524Y-128537200D02*
X140404762Y-128584819D01*
X140404762Y-128584819D02*
X140595238Y-128584819D01*
X140595238Y-128584819D02*
X140690476Y-128537200D01*
X140690476Y-128537200D02*
X140738095Y-128489580D01*
X140738095Y-128489580D02*
X140785714Y-128394342D01*
X140785714Y-128394342D02*
X140785714Y-128156247D01*
X140785714Y-128156247D02*
X140738095Y-128061009D01*
X140738095Y-128061009D02*
X140690476Y-128013390D01*
X140690476Y-128013390D02*
X140595238Y-127965771D01*
X140595238Y-127965771D02*
X140404762Y-127965771D01*
X140404762Y-127965771D02*
X140309524Y-128013390D01*
X140309524Y-128013390D02*
X140261905Y-128061009D01*
X140261905Y-128061009D02*
X140214286Y-128156247D01*
X121328095Y-54909819D02*
X121328095Y-55719342D01*
X121328095Y-55719342D02*
X121375714Y-55814580D01*
X121375714Y-55814580D02*
X121423333Y-55862200D01*
X121423333Y-55862200D02*
X121518571Y-55909819D01*
X121518571Y-55909819D02*
X121709047Y-55909819D01*
X121709047Y-55909819D02*
X121804285Y-55862200D01*
X121804285Y-55862200D02*
X121851904Y-55814580D01*
X121851904Y-55814580D02*
X121899523Y-55719342D01*
X121899523Y-55719342D02*
X121899523Y-54909819D01*
X122328095Y-55005057D02*
X122375714Y-54957438D01*
X122375714Y-54957438D02*
X122470952Y-54909819D01*
X122470952Y-54909819D02*
X122709047Y-54909819D01*
X122709047Y-54909819D02*
X122804285Y-54957438D01*
X122804285Y-54957438D02*
X122851904Y-55005057D01*
X122851904Y-55005057D02*
X122899523Y-55100295D01*
X122899523Y-55100295D02*
X122899523Y-55195533D01*
X122899523Y-55195533D02*
X122851904Y-55338390D01*
X122851904Y-55338390D02*
X122280476Y-55909819D01*
X122280476Y-55909819D02*
X122899523Y-55909819D01*
%TO.C,D1*%
D11*
X115580000Y-137620000D02*
X115580000Y-140380000D01*
X118230000Y-137620000D02*
X115580000Y-137620000D01*
X118230000Y-137620000D02*
X118230000Y-140380000D01*
X118230000Y-140380000D02*
X115580000Y-140380000D01*
X119500000Y-137620000D02*
X120880000Y-137620000D01*
X120880000Y-137620000D02*
X120880000Y-139000000D01*
%TO.C,C2*%
X96045000Y-132080000D02*
X97575000Y-132080000D01*
X97575000Y-133920000D02*
X96045000Y-133920000D01*
%TO.C,R3*%
X114325000Y-127540000D02*
X114325000Y-127870000D01*
X114325000Y-130280000D02*
X114325000Y-129950000D01*
X120865000Y-127540000D02*
X114325000Y-127540000D01*
X120865000Y-127870000D02*
X120865000Y-127540000D01*
X120865000Y-129950000D02*
X120865000Y-130280000D01*
X120865000Y-130280000D02*
X114325000Y-130280000D01*
%TO.C,R4*%
X93230000Y-127130000D02*
X93230000Y-127460000D01*
X93230000Y-129870000D02*
X93230000Y-129540000D01*
X99770000Y-127130000D02*
X93230000Y-127130000D01*
X99770000Y-127460000D02*
X99770000Y-127130000D01*
X99770000Y-129540000D02*
X99770000Y-129870000D01*
X99770000Y-129870000D02*
X93230000Y-129870000D01*
%TO.C,J2*%
X153845000Y-66640000D02*
X155225000Y-66640000D01*
X153845000Y-68020000D02*
X153845000Y-66640000D01*
X153845000Y-69290000D02*
X153845000Y-130360000D01*
X153845000Y-69290000D02*
X156495000Y-69290000D01*
X153845000Y-130360000D02*
X159145000Y-130360000D01*
X156495000Y-66640000D02*
X159145000Y-66640000D01*
X156495000Y-69290000D02*
X156495000Y-66640000D01*
X159145000Y-66640000D02*
X159145000Y-130360000D01*
%TO.C,R1*%
X99230000Y-92130000D02*
X99230000Y-92460000D01*
X99230000Y-94870000D02*
X99230000Y-94540000D01*
X105770000Y-92130000D02*
X99230000Y-92130000D01*
X105770000Y-92460000D02*
X105770000Y-92130000D01*
X105770000Y-94540000D02*
X105770000Y-94870000D01*
X105770000Y-94870000D02*
X99230000Y-94870000D01*
%TO.C,R2*%
X128920000Y-79130000D02*
X135460000Y-79130000D01*
X128920000Y-79460000D02*
X128920000Y-79130000D01*
X128920000Y-81540000D02*
X128920000Y-81870000D01*
X128920000Y-81870000D02*
X135460000Y-81870000D01*
X135460000Y-79130000D02*
X135460000Y-79460000D01*
X135460000Y-81870000D02*
X135460000Y-81540000D01*
%TO.C,C1*%
X117080000Y-131990000D02*
X118610000Y-131990000D01*
X118610000Y-133830000D02*
X117080000Y-133830000D01*
%TO.C,U3*%
X115535000Y-119940000D02*
X119655000Y-119940000D01*
X115535000Y-120035000D02*
X115535000Y-119940000D01*
X115535000Y-125060000D02*
X115535000Y-124965000D01*
X119655000Y-119940000D02*
X119655000Y-120035000D01*
X119655000Y-124965000D02*
X119655000Y-125060000D01*
X119655000Y-125060000D02*
X115535000Y-125060000D01*
X120195000Y-124970000D02*
X120435000Y-125300000D01*
X119955000Y-125300000D01*
X120195000Y-124970000D01*
G36*
X120435000Y-125300000D02*
G01*
X119955000Y-125300000D01*
X120195000Y-124970000D01*
X120435000Y-125300000D01*
G37*
%TO.C,J1*%
X75080000Y-66680000D02*
X76460000Y-66680000D01*
X75080000Y-68060000D02*
X75080000Y-66680000D01*
X75080000Y-69330000D02*
X75080000Y-130400000D01*
X75080000Y-69330000D02*
X77730000Y-69330000D01*
X75080000Y-130400000D02*
X80380000Y-130400000D01*
X77730000Y-66680000D02*
X80380000Y-66680000D01*
X77730000Y-69330000D02*
X77730000Y-66680000D01*
X80380000Y-66680000D02*
X80380000Y-130400000D01*
%TO.C,D2*%
X94355000Y-137735000D02*
X94355000Y-140495000D01*
X97005000Y-137735000D02*
X94355000Y-137735000D01*
X97005000Y-137735000D02*
X97005000Y-140495000D01*
X97005000Y-140495000D02*
X94355000Y-140495000D01*
X98275000Y-137735000D02*
X99655000Y-137735000D01*
X99655000Y-137735000D02*
X99655000Y-139115000D01*
%TO.C,U5*%
X137940000Y-121440000D02*
X142060000Y-121440000D01*
X137940000Y-121535000D02*
X137940000Y-121440000D01*
X137940000Y-126560000D02*
X137940000Y-126465000D01*
X142060000Y-121440000D02*
X142060000Y-121535000D01*
X142060000Y-126465000D02*
X142060000Y-126560000D01*
X142060000Y-126560000D02*
X137940000Y-126560000D01*
X137400000Y-121530000D02*
X137160000Y-121200000D01*
X137640000Y-121200000D01*
X137400000Y-121530000D01*
G36*
X137400000Y-121530000D02*
G01*
X137160000Y-121200000D01*
X137640000Y-121200000D01*
X137400000Y-121530000D01*
G37*
%TO.C,R5*%
X136230000Y-88630000D02*
X136230000Y-88960000D01*
X136230000Y-91370000D02*
X136230000Y-91040000D01*
X142770000Y-88630000D02*
X136230000Y-88630000D01*
X142770000Y-88960000D02*
X142770000Y-88630000D01*
X142770000Y-91040000D02*
X142770000Y-91370000D01*
X142770000Y-91370000D02*
X136230000Y-91370000D01*
%TO.C,J3*%
X137855000Y-137620000D02*
X137855000Y-140380000D01*
X140505000Y-137620000D02*
X137855000Y-137620000D01*
X140505000Y-137620000D02*
X140505000Y-140380000D01*
X140505000Y-140380000D02*
X137855000Y-140380000D01*
X141775000Y-137620000D02*
X143155000Y-137620000D01*
X143155000Y-137620000D02*
X143155000Y-139000000D01*
%TO.C,U1*%
D12*
X90300000Y-88105000D02*
X90300000Y-58895000D01*
X92840000Y-56355000D02*
X113160000Y-56355000D01*
X113160000Y-90645000D02*
X92840000Y-90645000D01*
X115700000Y-58895000D02*
X115700000Y-88105000D01*
X90300000Y-58895000D02*
G75*
G02*
X92840000Y-56355000I2540001J-1D01*
G01*
X92840000Y-90645000D02*
G75*
G02*
X90300000Y-88105000I1J2540001D01*
G01*
X113160000Y-56355000D02*
G75*
G02*
X115700000Y-58895000I0J-2540000D01*
G01*
X115700000Y-88105000D02*
G75*
G02*
X113160000Y-90645000I-2540000J0D01*
G01*
D13*
X89650000Y-88613000D02*
G75*
G02*
X89450000Y-88613000I-100000J0D01*
G01*
X89450000Y-88613000D02*
G75*
G02*
X89650000Y-88613000I100000J0D01*
G01*
%TO.C,U4*%
D11*
X94965000Y-119535000D02*
X99085000Y-119535000D01*
X94965000Y-119630000D02*
X94965000Y-119535000D01*
X94965000Y-124655000D02*
X94965000Y-124560000D01*
X99085000Y-119535000D02*
X99085000Y-119630000D01*
X99085000Y-124560000D02*
X99085000Y-124655000D01*
X99085000Y-124655000D02*
X94965000Y-124655000D01*
X99625000Y-124565000D02*
X99865000Y-124895000D01*
X99385000Y-124895000D01*
X99625000Y-124565000D01*
G36*
X99865000Y-124895000D02*
G01*
X99385000Y-124895000D01*
X99625000Y-124565000D01*
X99865000Y-124895000D01*
G37*
%TO.C,C3*%
X139235000Y-133080000D02*
X140765000Y-133080000D01*
X140765000Y-134920000D02*
X139235000Y-134920000D01*
%TO.C,R6*%
X136730000Y-129130000D02*
X143270000Y-129130000D01*
X136730000Y-129460000D02*
X136730000Y-129130000D01*
X136730000Y-131540000D02*
X136730000Y-131870000D01*
X136730000Y-131870000D02*
X143270000Y-131870000D01*
X143270000Y-129130000D02*
X143270000Y-129460000D01*
X143270000Y-131870000D02*
X143270000Y-131540000D01*
%TO.C,U2*%
D12*
X119165000Y-75120000D02*
X119165000Y-59880000D01*
X121705000Y-57340000D02*
X127404800Y-57340000D01*
X124864800Y-77660000D02*
X121705000Y-77660000D01*
X137595200Y-57340000D02*
X143295000Y-57340000D01*
X143295000Y-77660000D02*
X140135200Y-77660000D01*
X145835000Y-59880000D02*
X145835000Y-75120000D01*
X119165000Y-59880000D02*
G75*
G02*
X121705000Y-57340000I2540001J-1D01*
G01*
X121705000Y-77660000D02*
G75*
G02*
X119165000Y-75120000I1J2540001D01*
G01*
X143295000Y-57340000D02*
G75*
G02*
X145835000Y-59880000I0J-2540000D01*
G01*
X145835000Y-75120000D02*
G75*
G02*
X143295000Y-77660000I-2540000J0D01*
G01*
%TD*%
M02*
